<svg width="311" height="250" viewBox="0 0 311 250" fill="none" xmlns="http://www.w3.org/2000/svg">
<g clip-path="url(#clip0_679_3445)">
<path d="M151.182 250C234.678 250 302.364 241.905 302.364 231.919C302.364 221.933 234.678 213.837 151.182 213.837C67.6865 213.837 0 221.933 0 231.919C0 241.905 67.6865 250 151.182 250Z" fill="#DBE6F7"/>
<path d="M113.988 14.6579C113.988 15.3716 113.696 16.023 113.222 16.4937C112.754 16.9678 112.102 17.2591 111.387 17.2591H55.7369C54.3076 17.2591 53.1367 16.0892 53.1367 14.6585C53.1367 13.9442 53.4283 13.2934 53.9021 12.8227C54.3706 12.3486 55.0219 12.0573 55.7369 12.0573H58.3669C59.406 9.64546 61.8047 7.95987 64.5971 7.95987C66.4763 7.95987 68.176 8.72454 69.4072 9.95795C71.0466 7.17997 74.0702 5.3143 77.5318 5.3143C78.484 5.3143 79.3998 5.45797 80.2646 5.71882C82.0762 2.31586 85.6551 0 89.7807 0C94.7353 0 98.9026 3.34205 100.161 7.88969C101.073 7.43354 102.104 7.17269 103.197 7.17269C106.286 7.17269 108.893 9.23366 109.712 12.0567H111.388C112.817 12.0567 113.988 13.2272 113.988 14.6579Z" fill="#DBE6F7"/>
<path d="M288.963 31.2753C288.963 31.9897 288.672 32.6405 288.198 33.1112C287.729 33.5852 287.078 33.8759 286.363 33.8759H230.713C229.283 33.8759 228.112 32.706 228.112 31.2747C228.112 30.5603 228.404 29.9095 228.878 29.4388C229.347 28.9648 229.998 28.6735 230.713 28.6735H233.344C234.383 26.2616 236.782 24.5754 239.574 24.5754C241.453 24.5754 243.153 25.34 244.384 26.5734C246.023 23.7955 249.047 21.9298 252.509 21.9298C253.461 21.9298 254.377 22.0735 255.242 22.335C257.052 18.9333 260.632 16.6168 264.758 16.6168C269.712 16.6168 273.88 19.9589 275.138 24.5065C276.051 24.0504 277.081 23.7895 278.173 23.7895C281.263 23.7895 283.87 25.8505 284.689 28.6735H286.365C287.792 28.6741 288.963 29.844 288.963 31.2753Z" fill="#DBE6F7"/>
<path d="M225.426 14.6579C225.426 15.3722 225.135 16.023 224.661 16.4937C224.192 16.9678 223.541 17.2591 222.826 17.2591H167.175C165.746 17.2591 164.575 16.0892 164.575 14.6579C164.575 13.9442 164.867 13.2927 165.341 12.822C165.81 12.348 166.461 12.0567 167.176 12.0567H169.806C170.845 9.6448 173.244 7.95854 176.036 7.95854C177.915 7.95854 179.615 8.72322 180.846 9.95662C182.486 7.17865 185.509 5.31298 188.972 5.31298C189.923 5.31298 190.839 5.45731 191.704 5.71816C193.514 2.31586 197.094 0 201.219 0C206.174 0 210.341 3.34205 211.599 7.88969C212.512 7.43354 213.542 7.17269 214.635 7.17269C217.725 7.17269 220.331 9.23366 221.151 12.0567H222.827C224.255 12.0567 225.426 13.2272 225.426 14.6579Z" fill="#DBE6F7"/>
<path d="M50.4658 69.0548C50.3949 69.1441 50.3221 69.2276 50.2465 69.3017C48.0929 71.4335 44.3603 63.2711 47.81 55.102C51.2597 46.9336 48.4176 36.1421 43.7911 35.7217C39.1652 35.3013 43.1867 42.4806 37.2236 41.3789C31.2605 40.2773 30.3415 24.4059 22.6462 25.2818C15.9111 26.0471 20.2276 37.8025 23.5733 42.7553C26.7301 47.4308 25.7931 52.185 22.2486 51.1455C18.7055 50.1074 15.1637 55.0219 20.439 62.654C25.7142 70.2862 32.8588 77.8826 29.4204 78.7585C25.9819 79.6364 18.8287 72.1333 15.7813 81.0128C14.4195 84.9811 23.0736 98.7154 42.2822 99.8025L50.4652 90.9475L50.4658 69.0548Z" fill="#DBE6F7"/>
<path d="M48.2146 90.9482C40.1059 69.4454 26.4761 36.5002 26.3104 36.0997C26.2057 35.8475 26.325 35.5568 26.5788 35.4516C26.8326 35.3469 27.1221 35.4681 27.2275 35.721C27.3938 36.1249 41.1741 69.4288 49.2755 90.9475H48.2146V90.9482Z" fill="#BBD4F2"/>
<path d="M36.1287 59.4537C36.0471 59.4464 35.967 59.4186 35.8947 59.3696C35.6681 59.2153 35.6098 58.9068 35.7635 58.6804C35.8066 58.6182 40.0482 52.3664 41.3072 47.8585C41.3807 47.5943 41.6557 47.4401 41.9188 47.5142C42.1825 47.5877 42.3376 47.8611 42.2634 48.1253C40.96 52.7914 36.7621 58.9783 36.5839 59.2398C36.4792 59.3934 36.3023 59.4696 36.1287 59.4537Z" fill="#BBD4F2"/>
<path d="M37.9537 64.7441C37.9437 64.7435 37.9338 64.7422 37.9238 64.7408C37.6197 64.6951 30.4261 63.5855 25.551 60.9188C25.3105 60.787 25.2223 60.4858 25.3542 60.2455C25.4861 60.0052 25.7876 59.9171 26.0281 60.0489C30.7468 62.6302 38 63.7497 38.0729 63.7603C38.3439 63.8014 38.5301 64.0543 38.4891 64.3251C38.4493 64.5846 38.2134 64.7673 37.9537 64.7441Z" fill="#BBD4F2"/>
<path d="M50.4661 79.9945C48.3735 82.505 46.1357 84.4389 46.098 84.4713C45.8899 84.6501 45.866 84.9626 46.0443 85.1704C46.1318 85.2724 46.2517 85.3307 46.3756 85.3419C46.5048 85.3538 46.638 85.3154 46.744 85.2247C46.8832 85.1056 48.6186 83.606 50.4661 81.5265V79.9945Z" fill="#BBD4F2"/>
<path d="M40.1867 89.6128C37.3585 89.3559 34.2461 88.8144 31.685 87.7253C31.4325 87.6181 31.3153 87.3268 31.4226 87.0745C31.53 86.8223 31.8215 86.7051 32.074 86.8123C38.1848 89.4109 47.9681 88.7535 48.0661 88.7462C48.3385 88.7263 48.577 88.9329 48.5963 89.2057C48.6155 89.4791 48.4101 89.7161 48.1364 89.7353C47.8919 89.7532 44.3487 89.9915 40.1867 89.6128Z" fill="#BBD4F2"/>
<path d="M261.25 184.71C261.321 184.8 261.394 184.882 261.469 184.957C263.623 187.089 267.356 178.927 263.906 170.758C260.456 162.59 263.298 151.798 267.925 151.378C272.551 150.957 268.529 158.137 274.492 157.035C280.455 155.933 281.374 140.062 289.07 140.938C295.805 141.703 291.488 153.459 288.143 158.411C284.986 163.087 285.923 167.841 289.467 166.802C293.01 165.764 296.552 170.678 291.277 178.31C286.002 185.942 278.857 193.539 282.295 194.415C285.734 195.292 292.887 187.79 295.934 196.669C297.296 200.637 294.354 204.046 290.683 206.604H261.251L261.25 184.71Z" fill="#DBE6F7"/>
<path d="M263.501 206.604C271.61 185.101 285.24 152.156 285.406 151.755C285.51 151.503 285.391 151.212 285.137 151.107C284.883 151.002 284.594 151.124 284.488 151.377C284.322 151.78 270.542 185.085 262.44 206.604H263.501Z" fill="#BBD4F2"/>
<path d="M275.586 175.109C275.667 175.102 275.748 175.074 275.82 175.025C276.046 174.871 276.105 174.562 275.951 174.336C275.908 174.274 271.666 168.022 270.407 163.514C270.334 163.25 270.059 163.095 269.796 163.17C269.532 163.243 269.377 163.517 269.451 163.781C270.755 168.447 274.952 174.634 275.131 174.895C275.236 175.049 275.412 175.125 275.586 175.109Z" fill="#BBD4F2"/>
<path d="M273.762 180.4C273.772 180.399 273.782 180.398 273.792 180.396C274.096 180.351 281.289 179.241 286.164 176.574C286.405 176.443 286.493 176.141 286.361 175.901C286.229 175.661 285.928 175.573 285.687 175.704C280.969 178.286 273.715 179.405 273.643 179.416C273.371 179.457 273.185 179.71 273.226 179.98C273.266 180.241 273.503 180.423 273.762 180.4Z" fill="#BBD4F2"/>
<path d="M261.25 195.65C263.343 198.161 265.58 200.094 265.618 200.127C265.826 200.306 265.85 200.619 265.672 200.826C265.584 200.928 265.464 200.986 265.34 200.997C265.211 201.009 265.078 200.971 264.972 200.88C264.833 200.761 263.097 199.262 261.25 197.182V195.65Z" fill="#BBD4F2"/>
<path d="M271.529 205.268C274.357 205.011 277.47 204.47 280.031 203.381C280.283 203.274 280.4 202.982 280.293 202.73C280.186 202.478 279.894 202.361 279.642 202.468C273.53 205.066 263.748 204.409 263.65 204.402C263.377 204.382 263.139 204.588 263.119 204.861C263.1 205.135 263.306 205.372 263.579 205.391C263.824 205.409 267.367 205.647 271.529 205.268Z" fill="#BBD4F2"/>
<path d="M292.385 77.9674C295.139 66.866 299.794 56.8618 304.188 61.3465C308.586 65.8352 300.248 82.899 288.737 91.9665L285.56 95.9865C293.833 89.2322 306.732 85.6545 309.938 89.9135C313.124 94.146 304.321 95.7488 296.036 95.8733C289.73 95.9679 285.623 97.4741 283.617 98.444L268.609 117.43C281.742 106.772 302.107 101.145 307.18 107.885C312.234 114.601 298.266 117.144 285.121 117.341C275.187 117.49 268.689 119.847 265.481 121.387L262.489 125.172C261.75 124.757 261.014 124.338 260.281 123.913L278.137 101.325C278.37 98.9134 278.339 95.4833 277.376 91.1568C275.577 83.0758 275.098 74.1486 279.957 76.2646C284.174 78.1004 284.387 88.2927 281.378 97.2245L287.553 89.4129C289.05 86.6694 291.196 82.7586 292.385 77.9674Z" fill="#DBE6F7"/>
<path d="M155.339 26.2868C155.604 14.8525 153.747 3.9769 148.327 7.1488C142.902 10.3233 146.453 28.978 155.172 40.7507L157.179 45.4638C150.975 36.773 139.472 29.9307 135.259 33.198C131.071 36.444 139.142 40.3038 147.102 42.6011C153.161 44.3496 156.727 46.8819 158.407 48.3451L167.887 70.6073C158.023 56.873 139.856 46.0914 133.188 51.2608C126.543 56.4115 139.349 62.5362 151.98 66.1815C161.524 68.9363 167.173 72.9178 169.863 75.247L171.754 79.686C172.575 79.4795 173.396 79.2676 174.215 79.0511L162.935 52.5657C163.345 50.177 164.278 46.876 166.346 42.9553C170.209 35.6317 173.022 27.1455 167.776 27.9088C163.225 28.5715 160.336 38.3494 160.887 47.7572L156.987 38.5977C156.264 35.5582 155.224 31.2217 155.339 26.2868Z" fill="#DBE6F7"/>
<path d="M20.6351 153.12C17.8811 142.019 13.2254 132.015 8.83212 136.499C4.43418 140.988 12.7709 158.052 24.2829 167.119L27.4603 171.139C19.1865 164.385 6.28758 160.807 3.08173 165.066C-0.103586 169.299 8.69893 170.902 16.9833 171.026C23.2896 171.121 27.3967 172.627 29.4025 173.597L44.4106 192.583C31.2777 181.925 10.9121 176.298 5.83963 183.038C0.785014 189.754 14.7528 192.297 27.8983 192.494C37.8319 192.643 44.3304 195 47.5383 196.54L50.5308 200.325C51.2689 199.91 52.0051 199.491 52.738 199.066L34.8825 176.478C34.6493 174.066 34.6797 170.636 35.6432 166.31C37.4423 158.229 37.9214 149.302 33.0622 151.418C28.8452 153.253 28.6325 163.446 31.6409 172.377L25.4657 164.566C23.9688 161.822 21.8238 157.912 20.6351 153.12Z" fill="#DBE6F7"/>
<path d="M269.381 77.2497V202.294C269.381 207.449 265.199 211.627 260.038 211.627H46.7456C41.5849 211.627 37.4023 207.449 37.4023 202.294V77.2497C37.4023 72.093 41.5843 67.9148 46.7456 67.9148H260.037C265.198 67.9148 269.381 72.093 269.381 77.2497Z" fill="#124559"/>
<path d="M269.381 139.769V202.292C269.381 207.448 265.199 211.627 260.039 211.627H46.7452C41.5852 211.627 37.4033 207.448 37.4033 202.292V139.769H269.381Z" fill="#124559"/>
<path d="M259.076 83.6048V195.937C259.076 199.242 256.394 201.922 253.087 201.922H53.6986C51.9307 201.922 50.3404 201.156 49.2437 199.934C48.2875 198.878 47.707 197.473 47.707 195.936V83.6048C47.707 80.2998 50.3901 77.6191 53.698 77.6191H253.086C254.192 77.6191 255.227 77.9191 256.117 78.4427C257.887 79.4822 259.076 81.4061 259.076 83.6048Z" fill="white"/>
<path d="M259.076 83.6048V195.937C259.076 199.242 256.394 201.922 253.087 201.922H53.6986C51.9307 201.922 50.3404 201.156 49.2437 199.934C48.2875 198.878 47.707 197.473 47.707 195.936V83.6048C47.707 80.2998 50.3901 77.6191 53.698 77.6191H253.086C254.192 77.6191 255.227 77.9191 256.117 78.4427C257.887 79.4822 259.076 81.4061 259.076 83.6048Z" fill="white"/>
<path d="M54.458 125.475C54.458 126.371 55.1849 127.096 56.0808 127.096H90.4997C91.3962 127.096 92.1225 126.371 92.1225 125.475C92.1225 124.579 91.3962 123.854 90.4997 123.854H56.0808C55.1849 123.854 54.458 124.579 54.458 125.475Z" fill="#DBE6F7"/>
<path d="M54.458 133.75C54.458 134.646 55.1849 135.371 56.0808 135.371H90.4997C91.3962 135.371 92.1225 134.646 92.1225 133.75C92.1225 132.855 91.3962 132.129 90.4997 132.129H56.0808C55.1849 132.129 54.458 132.854 54.458 133.75Z" fill="#DBE6F7"/>
<path d="M54.458 141.803C54.458 142.576 55.175 143.202 56.0589 143.202H90.012C90.8959 143.202 91.6129 142.576 91.6129 141.803C91.6129 141.03 90.8959 140.403 90.012 140.403H56.0589C55.175 140.403 54.458 141.03 54.458 141.803Z" fill="#DBE6F7"/>
<path d="M54.458 154.17C54.458 155.066 55.1849 155.792 56.0808 155.792H90.4997C91.3962 155.792 92.1225 155.066 92.1225 154.17C92.1225 153.275 91.3962 152.549 90.4997 152.549H56.0808C55.1849 152.549 54.458 153.275 54.458 154.17Z" fill="#DBE6F7"/>
<path d="M54.458 162.445C54.458 163.34 55.1849 164.066 56.0808 164.066H90.4997C91.3962 164.066 92.1225 163.34 92.1225 162.445C92.1225 161.549 91.3962 160.823 90.4997 160.823H56.0808C55.1849 160.823 54.458 161.55 54.458 162.445Z" fill="#DBE6F7"/>
<path d="M54.458 170.72C54.458 171.616 55.1849 172.341 56.0808 172.341H90.4997C91.3962 172.341 92.1225 171.616 92.1225 170.72C92.1225 169.824 91.3962 169.098 90.4997 169.098H56.0808C55.1849 169.098 54.458 169.824 54.458 170.72Z" fill="#DBE6F7"/>
<path d="M214.425 125.475C214.425 126.371 215.151 127.096 216.048 127.096H250.466C251.363 127.096 252.089 126.371 252.089 125.475C252.089 124.579 251.363 123.854 250.466 123.854H216.048C215.152 123.854 214.425 124.579 214.425 125.475Z" fill="#DBE6F7"/>
<path d="M214.425 133.75C214.425 134.646 215.151 135.371 216.048 135.371H250.466C251.363 135.371 252.089 134.646 252.089 133.75C252.089 132.855 251.363 132.129 250.466 132.129H216.048C215.152 132.129 214.425 132.854 214.425 133.75Z" fill="#DBE6F7"/>
<path d="M214.425 141.803C214.425 142.576 215.142 143.202 216.026 143.202H249.979C250.863 143.202 251.58 142.576 251.58 141.803C251.58 141.03 250.863 140.403 249.979 140.403H216.026C215.142 140.403 214.425 141.03 214.425 141.803Z" fill="#DBE6F7"/>
<path d="M214.425 154.17C214.425 155.066 215.151 155.792 216.048 155.792H250.466C251.363 155.792 252.089 155.066 252.089 154.17C252.089 153.275 251.363 152.549 250.466 152.549H216.048C215.152 152.549 214.425 153.275 214.425 154.17Z" fill="#DBE6F7"/>
<path d="M214.425 162.445C214.425 163.34 215.151 164.066 216.048 164.066H250.466C251.363 164.066 252.089 163.34 252.089 162.445C252.089 161.549 251.363 160.823 250.466 160.823H216.048C215.152 160.823 214.425 161.55 214.425 162.445Z" fill="#DBE6F7"/>
<path d="M214.425 170.72C214.425 171.616 215.151 172.341 216.048 172.341H250.466C251.363 172.341 252.089 171.616 252.089 170.72C252.089 169.824 251.363 169.098 250.466 169.098H216.048C215.152 169.098 214.425 169.824 214.425 170.72Z" fill="#DBE6F7"/>
<path d="M259.076 83.6048V89.8512H47.708V83.6048C47.708 80.2998 50.391 77.6191 53.6989 77.6191H253.087C254.193 77.6191 255.228 77.9191 256.118 78.4427C257.887 79.4822 259.076 81.4061 259.076 83.6048Z" fill="#DBE6F7"/>
<path d="M257.994 80.1806H48.7881C49.8682 78.632 51.6646 77.6198 53.6989 77.6198H253.086C255.12 77.6198 256.917 78.632 257.994 80.1806Z" fill="#124559"/>
<path d="M235.047 86.4648C236.204 86.4648 237.141 85.5282 237.141 84.3727C237.141 83.2173 236.204 82.2806 235.047 82.2806C233.891 82.2806 232.953 83.2173 232.953 84.3727C232.953 85.5282 233.891 86.4648 235.047 86.4648Z" fill="#6D998F"/>
<path d="M241.834 86.4648C242.991 86.4648 243.928 85.5282 243.928 84.3727C243.928 83.2173 242.991 82.2806 241.834 82.2806C240.678 82.2806 239.74 83.2173 239.74 84.3727C239.74 85.5282 240.678 86.4648 241.834 86.4648Z" fill="#124559"/>
<path d="M248.294 86.4648C249.451 86.4648 250.388 85.5282 250.388 84.3727C250.388 83.2173 249.451 82.2806 248.294 82.2806C247.138 82.2806 246.2 83.2173 246.2 84.3727C246.2 85.5282 247.138 86.4648 248.294 86.4648Z" fill="#124559"/>
<path d="M209.107 119.846V195.833H98.9512V119.846H104.017L103.971 119.805L104.026 119.846H209.107Z" fill="#DBE6F7"/>
<path d="M209.107 116.758H99.0068V192.744H209.107V116.758Z" fill="#51877B"/>
<path d="M209.107 113.975H99.0068V189.962H209.107V113.975Z" fill="#6D998F"/>
<g opacity="0.5">
<path d="M106.574 139.599V172.644C106.574 173.743 105.682 174.634 104.581 174.634C103.481 174.634 102.589 173.743 102.589 172.644V139.599C102.589 138.499 103.481 137.608 104.581 137.608C105.681 137.608 106.574 138.499 106.574 139.599Z" fill="#6D998F"/>
</g>
<g opacity="0.5">
<path d="M106.574 129.486V132.83C106.574 133.93 105.682 134.821 104.581 134.821C103.481 134.821 102.589 133.93 102.589 132.83V129.486C102.589 128.387 103.481 127.495 104.581 127.495C105.682 127.495 106.574 128.386 106.574 129.486Z" fill="#6D998F"/>
</g>
<path d="M143.45 153.3L102.195 189.962H99.0068V188.025L141.079 150.638L143.45 153.3Z" fill="#51877B"/>
<path d="M209.107 188.282V189.962H205.63L164.375 153.3L166.747 150.638L209.107 188.282Z" fill="#51877B"/>
<path d="M209.104 113.975L192.425 128.796L157.682 159.667C155.614 161.507 152.495 161.507 150.424 159.667L115.689 128.801L99.0029 113.975H209.104Z" fill="#51877B"/>
<path d="M192.424 101.835V128.796L181.838 138.202L178.189 141.444L172.526 146.476L168.878 149.719L163.215 154.75L159.567 157.993L157.682 159.667C155.613 161.507 152.494 161.507 150.423 159.667L148.54 157.993L144.891 154.75L139.228 149.719L135.579 146.476L129.916 141.444L126.268 138.202L115.688 128.801V101.835C115.688 99.4066 117.658 97.4384 120.089 97.4384H188.024C190.455 97.4384 192.424 99.406 192.424 101.835Z" fill="#DBE6F7"/>
<path d="M143.486 107.937H124.894C124.084 107.937 123.428 107.28 123.428 106.471V106.158C123.428 105.349 124.084 104.693 124.894 104.693H143.485C144.295 104.693 144.952 105.349 144.952 106.158V106.471C144.952 107.28 144.296 107.937 143.486 107.937Z" fill="#BBD4F2"/>
<path d="M185.523 116.62H125.052C124.155 116.62 123.429 115.894 123.429 114.999C123.429 114.103 124.155 113.377 125.052 113.377H185.523C186.419 113.377 187.146 114.103 187.146 114.999C187.146 115.894 186.419 116.62 185.523 116.62Z" fill="#BBD4F2"/>
<path d="M185.523 124.894H125.052C124.155 124.894 123.429 124.169 123.429 123.273C123.429 122.377 124.155 121.652 125.052 121.652H185.523C186.419 121.652 187.146 122.377 187.146 123.273C187.146 124.169 186.419 124.894 185.523 124.894Z" fill="#BBD4F2"/>
<path d="M185.523 133.169H125.052C124.155 133.169 123.429 132.444 123.429 131.548C123.429 130.652 124.155 129.927 125.052 129.927H185.523C186.419 129.927 187.146 130.652 187.146 131.548C187.146 132.444 186.419 133.169 185.523 133.169Z" fill="#BBD4F2"/>
<path d="M181.839 138.202L178.189 141.444H129.917L126.268 138.202H181.839Z" fill="#BBD4F2"/>
<path d="M172.526 146.476L168.877 149.719H139.228L135.579 146.476H172.526Z" fill="#BBD4F2"/>
<path d="M163.215 154.75L159.566 157.993H148.539L144.891 154.75H163.215Z" fill="#BBD4F2"/>
<path d="M291.05 206.63V207.429C291.05 211.407 289.773 215.085 287.605 218.077C284.299 222.646 278.919 225.619 272.844 225.619H33.9394C27.8644 225.619 22.4844 222.646 19.1785 218.077C17.0103 215.085 15.7334 211.407 15.7334 207.429V206.63H291.05Z" fill="#124559"/>
<path d="M122.535 206.63V206.812C122.535 208.253 123.501 209.42 124.691 209.42H180.895C182.086 209.42 183.051 208.252 183.051 206.812V206.63H122.535Z" fill="white"/>
<path d="M287.606 218.076C284.3 222.645 278.92 225.618 272.845 225.618H33.9397C27.8646 225.618 22.4846 222.645 19.1787 218.076H287.606Z" fill="#124559"/>
<path d="M36.6565 194.889L34.2451 200.045L39.3435 200.125L41.3102 195.432L36.6565 194.889Z" fill="#FAB083"/>
<path d="M35.8497 199.723C35.8497 199.723 34.8027 198.317 33.9711 198.378C33.1395 198.438 26.7244 203.534 24.5265 203.955C22.3285 204.376 22.5326 206.613 23.4523 206.613C26.1016 206.613 40.6909 206.507 40.6909 206.507C40.6909 206.507 41.1614 201.413 40.6015 199.855C40.0422 198.296 37.5686 200.092 35.8497 199.723Z" fill="#6D998F"/>
<path d="M32.3041 203.279C32.3823 203.302 32.4691 203.295 32.5446 203.252C32.6924 203.168 32.7434 202.98 32.6599 202.832C32.6321 202.782 31.9608 201.618 31.057 201.163C29.855 200.557 28.918 201.235 28.8782 201.265C28.7417 201.366 28.7132 201.559 28.8146 201.695C28.916 201.832 29.1088 201.86 29.2453 201.759C29.2705 201.74 29.9232 201.283 30.7794 201.713C31.5156 202.084 32.1186 203.127 32.1245 203.137C32.1663 203.208 32.2312 203.257 32.3041 203.279Z" fill="white"/>
<path d="M33.2211 202.413C33.2986 202.436 33.3854 202.429 33.4616 202.386C33.6094 202.302 33.6611 202.114 33.5769 201.966C33.5491 201.916 32.8778 200.752 31.974 200.297C30.7713 199.69 29.835 200.369 29.7952 200.398C29.6587 200.5 29.6302 200.692 29.7316 200.829C29.833 200.965 30.0258 200.993 30.1623 200.892C30.1882 200.874 30.8409 200.416 31.6964 200.846C32.4359 201.218 33.0349 202.259 33.0408 202.27C33.0826 202.342 33.1482 202.391 33.2211 202.413Z" fill="white"/>
<path d="M31.06 203.982C31.1381 204.005 31.225 203.998 31.3005 203.955C31.4483 203.871 31.4999 203.683 31.4158 203.535C31.3873 203.486 30.716 202.321 29.8129 201.866C28.6102 201.259 27.6739 201.938 27.6341 201.967C27.4976 202.069 27.4691 202.261 27.5705 202.398C27.6719 202.534 27.8647 202.563 28.0012 202.461C28.0271 202.443 28.6798 201.985 29.5352 202.416C30.2747 202.788 30.8738 203.829 30.8797 203.84C30.9215 203.911 30.9871 203.96 31.06 203.982Z" fill="white"/>
<path d="M35.2041 196.57L37.463 197.307L38.7187 197.381L40.8763 197.508C43.7276 195.255 51.4196 188.475 52.9178 184.477C52.9178 184.477 60.0982 203.996 73.781 203.996C74.669 203.996 75.0387 196.028 72.8083 193.649C72.8083 193.649 60.1962 170.166 52.0206 172.658C48.3588 173.774 44.6547 179.099 35.2041 196.57Z" fill="#124559"/>
<path d="M37.4619 197.306L38.7176 197.381C47.1106 191.031 50.999 185.654 52.7888 182.21C52.8504 182.09 52.9505 182.051 53.0187 182.053C53.077 182.055 53.1194 182.087 53.1466 182.155C57.1655 191.607 61.9889 197.28 65.3273 200.376C68.9658 203.75 71.6277 204.861 71.7377 204.908L71.8914 204.533L72.0451 204.159C72.0193 204.148 69.3787 203.039 65.8388 199.746C62.5694 196.707 57.8427 191.132 53.8914 181.837C53.741 181.479 53.4249 181.258 53.0492 181.243C52.6443 181.227 52.2653 181.46 52.0692 181.836C50.2648 185.309 46.2671 190.798 37.4619 197.306Z" fill="#124559"/>
<path d="M43.1392 195.969C42.78 196.64 42.1631 197.588 41.5733 198.046C41.5733 198.046 36.74 197.823 34.3896 196.643L35.4439 194.188C35.4439 194.188 39.2912 195.592 43.1392 195.969Z" fill="#124559"/>
<path d="M73.4393 153.722C73.4393 153.722 64.0728 164.892 60.1387 166.728C58.4119 167.533 56.7063 167.817 55.4466 167.862C55.0238 167.878 53.9238 167.789 53.8635 167.788C53.8582 167.788 53.8543 167.789 53.8543 167.789C49.1806 167.21 43.6874 165.805 36.8145 163.008L37.8389 159.828C37.8389 159.828 41.9685 160.704 47.0291 161.065C48.8951 161.197 53.1996 161.393 54.7912 161.65C55.1855 161.474 55.5738 161.282 55.9522 161.075C62.9364 157.309 67.5457 149.64 67.5457 149.64C69.7556 150.469 72.2935 152.017 73.4393 153.722Z" fill="#124559"/>
<path d="M38.0125 159.575C38.0125 159.575 37.0557 157.16 35.7536 156.47C34.4515 155.781 30.746 153.354 29.9555 154.08C29.1643 154.807 29.328 158.294 32.6498 161.209C34.7656 163.066 36.898 162.987 36.898 162.987L38.0125 159.575Z" fill="#FAB083"/>
<path d="M29.7176 156.299L35.187 161.404C35.3924 161.597 35.7635 161.652 36.0173 161.53L39.3696 159.91C39.4736 159.859 39.5419 159.787 39.571 159.705L39.579 159.678L39.7433 159.119L38.854 158.782L30.249 155.516L29.7825 155.341L29.6076 155.932L29.5943 155.973C29.5916 155.978 29.591 155.982 29.593 155.988C29.5724 156.091 29.6142 156.204 29.7176 156.299Z" fill="#124559"/>
<path d="M36.1837 160.962L39.5373 159.342C39.7904 159.22 39.8289 158.966 39.6241 158.775L34.1547 153.67C33.9499 153.479 33.5788 153.422 33.3257 153.545L29.9721 155.165C29.719 155.287 29.6805 155.541 29.886 155.732L35.3554 160.837C35.5601 161.029 35.9312 161.084 36.1837 160.962Z" fill="#124559"/>
<path d="M35.7768 160.047L38.375 158.792C38.6281 158.67 38.6666 158.416 38.4618 158.225L34.2077 154.255C34.0029 154.063 33.6312 154.007 33.3787 154.129L30.7805 155.385C30.528 155.507 30.4889 155.761 30.6943 155.952L34.9478 159.922C35.1532 160.114 35.5243 160.169 35.7768 160.047Z" fill="#58619B"/>
<path d="M35.8463 155.248C35.8463 155.248 35.067 155.37 34.9875 156.039C34.908 156.708 35.6329 156.442 36.0987 156.295C36.5646 156.148 36.9847 156.296 37.0483 156.371C37.2524 156.611 37.2173 155.05 35.8463 155.248Z" fill="#FAB083"/>
<path d="M32.3638 158.883C32.3638 158.883 31.1412 156.876 30.2043 155.779C29.5801 155.048 29.2613 156.108 29.6887 156.846C30.1155 157.586 30.9583 159.091 32.3638 158.883Z" fill="#FAB083"/>
<path d="M80.0146 142.15C80.0146 142.15 85.9174 142.179 88.6084 144.61C91.2994 147.04 88.731 151.978 85.812 152.611C82.8931 153.244 73.7785 152.165 72.8309 150.604C71.8827 149.043 72.4837 142.269 80.0146 142.15Z" fill="#6D998F"/>
<path d="M89.3232 195.075L92.1924 176.59L91.5702 151.088L84.7052 148.769L84.3368 148.644L82.7961 148.124L81.5729 147.711L74.325 148.709L73.1455 148.871L72.7293 148.928L67.5441 149.641C67.4951 166.031 69.0702 169.571 66.038 182.904C64.5139 187.93 70.1119 205.739 89.3232 195.075Z" fill="#6D998F"/>
<path d="M79.522 152.683C84.7151 152.664 85.9205 148.091 85.9324 148.044C85.9583 147.942 85.896 147.838 85.7933 147.812C85.6912 147.786 85.5865 147.849 85.5607 147.951C85.5156 148.129 84.409 152.282 79.522 152.299C79.4949 152.299 79.469 152.299 79.4412 152.299C79.3385 152.305 79.249 152.384 79.249 152.49C79.2484 152.596 79.3338 152.682 79.4399 152.683C79.467 152.683 79.4955 152.683 79.522 152.683Z" fill="#124559"/>
<path d="M74.6433 151.966C74.7473 151.966 74.8321 151.882 74.8341 151.778C74.8354 151.673 74.7513 151.585 74.6459 151.583C74.5777 151.582 73.0675 151.521 72.6772 149.482C72.6573 149.378 72.5579 149.31 72.4532 149.329C72.3492 149.349 72.281 149.45 72.3015 149.553C72.7528 151.911 74.6207 151.966 74.64 151.966C74.64 151.966 74.6419 151.966 74.6433 151.966Z" fill="#124559"/>
<path d="M83.0277 177.838C83.0277 177.838 83.8713 184.271 82.1537 187.419C82.1537 187.419 73.6129 188.017 67.4033 185.578C67.4033 185.578 68.9546 181.087 68.9784 176.703L83.0277 177.838Z" fill="#124559"/>
<path d="M78.4672 171.03C78.4725 171.03 78.4784 171.03 78.4837 171.029C78.5891 171.02 78.6666 170.926 78.6574 170.821C78.228 166.052 80.0164 154.011 80.0343 153.89C80.0502 153.785 79.978 153.688 79.8733 153.672C79.7686 153.656 79.6712 153.728 79.6553 153.833C79.6367 153.955 77.8416 166.04 78.2757 170.855C78.285 170.955 78.3691 171.03 78.4672 171.03Z" fill="white"/>
<path d="M72.1503 170.095C72.1556 170.095 72.1616 170.096 72.1669 170.095C72.2722 170.086 72.3498 169.992 72.3405 169.887C71.9111 165.118 73.7599 152.983 73.7784 152.861C73.7943 152.756 73.7228 152.659 73.6181 152.643C73.5134 152.627 73.416 152.699 73.3994 152.803C73.3808 152.926 71.5248 165.107 71.9581 169.922C71.9681 170.021 72.0522 170.096 72.1503 170.095Z" fill="white"/>
<path d="M96.7421 201.529C96.7421 201.529 94.615 204.41 94.7906 205.901C94.9662 207.392 96.8918 210.201 98.4311 210.337C99.9704 210.473 96.6625 206.728 97.4431 206.848C98.3881 206.994 104.766 212.223 106.112 212.223C107.458 212.223 104.529 209.793 103.388 209.178C103.388 209.178 106.405 210.527 107.108 211.229C107.81 211.931 108.32 210.426 104.809 208.291C104.809 208.291 108.029 210.118 108.249 210.147C108.965 210.242 106.922 207.848 105.162 206.982C105.162 206.982 107.743 208.238 108.006 208.244C108.369 208.252 107.589 207.408 105.674 206.347C103.95 205.392 101.125 201.009 101.125 201.009L96.7421 201.529Z" fill="#FAB083"/>
<path d="M91.57 151.088C91.57 151.088 98.7278 164.824 100.358 179.192L101.126 201.009C101.126 201.009 100.39 202.563 96.7432 201.53L93.2153 179.716L90.5117 169.735C90.5117 169.735 89.2825 157.452 91.57 151.088Z" fill="#6D998F"/>
<path d="M77.3741 142.763C81.7423 142.763 85.2834 139.225 85.2834 134.86C85.2834 130.496 81.7423 126.958 77.3741 126.958C73.0059 126.958 69.4648 130.496 69.4648 134.86C69.4648 139.225 73.0059 142.763 77.3741 142.763Z" fill="#124559"/>
<path d="M69.4659 134.818C69.4659 134.818 67.1527 134.599 67.0652 132.409C66.991 130.544 69.3394 131.347 68.9001 129.958C68.4601 128.568 67.8133 127.349 69.5925 126.668C71.1484 126.072 71.371 127.171 73.2032 125.196C75.3681 122.864 78.063 126.903 80.3173 126.641C83.6418 126.254 84.3866 128.04 84.9731 129.47C85.5595 130.9 84.4781 132.167 84.4781 132.167L69.4659 134.818Z" fill="#124559"/>
<path d="M71.2796 138.182C71.2796 138.182 69.7548 136.756 69.0783 138.277C68.4011 139.799 70.4082 143.583 72.4809 142.206L71.2796 138.182Z" fill="#FC8664"/>
<path d="M71.7709 141.053C71.688 141.068 71.6019 141.027 71.5634 140.947C70.9962 139.769 69.6226 139.494 69.6087 139.491C69.504 139.472 69.4357 139.371 69.4556 139.266C69.4755 139.162 69.5762 139.094 69.6802 139.113C69.7445 139.125 71.258 139.424 71.9113 140.78C71.9571 140.876 71.9173 140.991 71.8212 141.037C71.8046 141.045 71.7881 141.05 71.7709 141.053Z" fill="#FD664D"/>
<path d="M70.3631 140.658C70.328 140.664 70.2908 140.661 70.2551 140.646C70.157 140.605 70.1106 140.492 70.1517 140.394C70.1583 140.377 70.3246 139.991 70.7626 139.694C70.8501 139.634 70.9707 139.658 71.0304 139.745C71.09 139.833 71.0668 139.953 70.9787 140.012C70.6401 140.241 70.5082 140.539 70.5069 140.542C70.481 140.606 70.4254 140.647 70.3631 140.658Z" fill="#FD664D"/>
<path d="M81.5562 144.115L82.2625 148.106C82.2625 148.106 80.9313 150.155 79.3443 150.578C77.7592 151.003 76.4419 149.265 76.4419 149.265L75.7627 145.427L81.5562 144.115Z" fill="#FAB083"/>
<path d="M81.5565 144.115L81.8699 145.885C81.0005 147.275 79.1339 147.914 76.2182 147.996L75.7637 145.427L81.5565 144.115Z" fill="#FC8664"/>
<path d="M83.9552 133.119C84.1553 134.684 84.3508 136.649 84.3289 138.253C84.3236 138.653 84.3044 139.031 84.2686 139.374C83.9486 142.464 82.7379 147.88 76.4786 146.818C73.7141 146.35 71.9972 143.669 70.9396 140.821C70.222 138.887 69.8091 136.878 69.5805 135.43C69.3486 133.951 69.9145 132.463 71.0695 131.51C74.1965 128.928 77.9934 129.014 80.5717 129.515C82.3609 129.862 83.7239 131.316 83.9552 133.119Z" fill="#FAB083"/>
<path d="M73.9686 139.036C74.2396 138.988 74.3982 138.604 74.3228 138.178C74.2475 137.752 73.9668 137.445 73.6958 137.493C73.4248 137.541 73.2661 137.925 73.3415 138.351C73.4168 138.777 73.6976 139.084 73.9686 139.036Z" fill="#124559"/>
<path d="M79.7285 138.015C79.9995 137.967 80.1581 137.583 80.0827 137.157C80.0073 136.731 79.7265 136.424 79.4555 136.472C79.1845 136.52 79.0259 136.904 79.1013 137.33C79.1767 137.756 79.4575 138.062 79.7285 138.015Z" fill="#124559"/>
<path d="M71.8245 136.18C71.8245 136.18 73.7256 135.012 75.4193 135.413L75.4173 136.166C75.4173 136.166 73.6461 136.087 72.0875 137.003C71.9225 136.686 71.7529 136.549 71.8245 136.18Z" fill="#124559"/>
<path d="M81.175 134.528C81.175 134.528 78.989 134.082 77.5352 135.039L77.7956 135.745C77.7956 135.745 79.4323 135.064 81.2108 135.391C81.2559 135.037 81.3692 134.85 81.175 134.528Z" fill="#124559"/>
<path d="M77.5883 140.735C77.9083 140.679 78.2039 140.498 78.2496 140.469C78.3397 140.412 78.3662 140.294 78.3092 140.204C78.2529 140.114 78.1336 140.087 78.0435 140.143C77.8845 140.243 77.4922 140.425 77.2947 140.35C77.2563 140.335 77.2026 140.303 77.1702 140.19C76.9846 139.54 76.7732 137.288 76.7712 137.265C76.7613 137.16 76.6672 137.082 76.5619 137.092C76.4552 137.101 76.3776 137.195 76.3876 137.301C76.3962 137.395 76.6043 139.612 76.7997 140.296C76.8733 140.553 77.035 140.663 77.1576 140.71C77.2927 140.761 77.4432 140.761 77.5883 140.735Z" fill="#FC8664"/>
<path d="M75.4062 142.318C75.6991 143.07 76.4685 144.414 78.2059 144.106C79.9467 143.799 80.2031 142.402 80.2111 141.469L75.4062 142.318Z" fill="white"/>
<path d="M78.3568 145.101C78.8478 145.014 79.2202 144.692 79.2361 144.679C79.3163 144.608 79.3242 144.487 79.254 144.407C79.1838 144.327 79.0618 144.319 78.9823 144.389C78.9797 144.392 78.6729 144.655 78.2899 144.722C77.9387 144.785 77.5669 144.642 77.5629 144.641C77.4642 144.602 77.3522 144.649 77.3125 144.749C77.2734 144.847 77.3211 144.959 77.4205 144.999C77.4397 145.006 77.8929 145.183 78.3568 145.101Z" fill="#FC8664"/>
<path d="M71.3078 139.481C71.0262 138.725 70.7055 137.74 70.7174 137.205C70.7406 136.257 71.4039 135.584 70.995 134.746C70.5855 133.904 71.3515 132.79 72.0122 132.511C72.6709 132.231 74.3387 132.289 75.7872 131.259C77.1702 130.276 79.8857 130.325 80.4854 131.218C81.2103 132.299 80.5258 132.534 82.1625 133.552C82.8145 133.958 82.3792 135.388 82.4349 136.259C82.4614 136.659 82.4892 136.852 82.5793 137.271L82.623 137.484L84.3134 137.185C84.2657 135.829 84.114 134.351 83.9563 133.12C83.7257 131.316 82.3606 129.863 80.5715 129.516C77.9925 129.014 74.1969 128.928 71.0686 131.51C69.9149 132.464 69.3477 133.951 69.581 135.43C69.7619 136.578 70.0594 138.081 70.5332 139.619L71.3078 139.481Z" fill="#124559"/>
<path d="M83.6924 138.047C83.6089 137.606 83.5618 137.158 83.5625 136.71C83.5625 136.096 83.64 135.526 84.2053 135.171C84.6605 134.885 85.1833 134.788 85.6531 135.275C86.8108 136.472 86.5371 140.881 84.1178 140.298L83.6924 138.047Z" fill="#FAB083"/>
<path d="M84.3346 138.989C84.4127 138.958 84.4651 138.878 84.4565 138.79C84.3279 137.489 85.3583 136.54 85.3683 136.531C85.4471 136.46 85.4531 136.338 85.3822 136.259C85.3113 136.18 85.1894 136.174 85.1105 136.245C85.0621 136.289 83.925 137.33 84.0728 138.829C84.0834 138.934 84.1775 139.012 84.2835 139.001C84.3014 138.999 84.3187 138.995 84.3346 138.989Z" fill="#FC8664"/>
<path d="M85.3307 137.92C85.3638 137.907 85.3943 137.885 85.4168 137.854C85.4791 137.768 85.4599 137.647 85.3738 137.585C85.3592 137.575 85.0166 137.331 84.4878 137.305C84.3818 137.3 84.291 137.382 84.2864 137.488C84.2811 137.594 84.3632 137.685 84.4693 137.69C84.8781 137.71 85.1452 137.896 85.1478 137.897C85.2028 137.937 85.2717 137.943 85.3307 137.92Z" fill="#FC8664"/>
<path d="M89.8033 199.209C89.6787 199.773 89.4613 200.351 89.1287 200.925C88.1275 202.653 86.0746 204.377 82.2631 205.76C74.3624 208.628 59.2549 207.281 59.2549 207.281C59.4378 213.169 45.3924 233.006 45.3924 233.006L44.7026 232.561L44.0533 232.141L41.3457 230.392C41.3457 230.392 50.6233 197.071 56.9317 196.117C79.2501 192.743 89.3235 195.075 89.3235 195.075C89.8073 196.188 90.1505 197.652 89.8033 199.209Z" fill="#124559"/>
<path d="M89.8031 199.208C89.6785 199.773 89.4611 200.351 89.1285 200.925C85.8762 203.554 80.0868 205.078 71.8753 205.467C65.8108 205.752 60.2904 205.295 58.8312 205.156C57.3893 215.296 46.9044 229.641 44.7024 232.561C44.4937 232.838 44.3605 233.01 44.3148 233.07C44.2399 233.169 44.1253 233.22 44.0106 233.22C43.9285 233.22 43.845 233.193 43.7747 233.138C43.6071 233.01 43.5766 232.768 43.7065 232.6C43.7184 232.585 43.8417 232.426 44.053 232.141C46.139 229.362 56.9195 214.575 58.1169 204.692C58.1408 204.482 58.3303 204.333 58.539 204.355C58.7869 204.383 83.2164 206.937 89.8031 199.208Z" fill="#124559"/>
<path d="M41.8683 230.392L38.5664 234.252L42.5098 236.612L45.3923 233.006L41.8683 230.392Z" fill="#FAB083"/>
<path d="M46.3758 232.927C45.8901 234.061 45.5515 234.426 44.7828 234.987C44.7828 234.987 42.2979 233.848 39.7461 231.625L41.345 229.468C41.345 229.468 43.2336 230.677 46.3758 232.927Z" fill="#58619B"/>
<path d="M39.6862 234.517C39.6862 234.517 39.4834 232.777 38.7333 232.413C37.9832 232.05 29.8764 233.253 27.7626 232.518C25.6488 231.784 24.7052 233.823 25.501 234.282C27.7944 235.607 40.478 242.811 40.478 242.811C40.478 242.811 43.4367 238.635 43.7329 237.006C44.0304 235.379 40.9896 235.696 39.6862 234.517Z" fill="#6D998F"/>
<path d="M34.8347 235.823C34.8904 235.882 34.9693 235.919 35.0567 235.919C35.227 235.92 35.3649 235.784 35.3668 235.614C35.3675 235.557 35.3695 234.213 34.8149 233.368C34.078 232.242 32.9263 232.361 32.878 232.366C32.709 232.385 32.5877 232.538 32.6076 232.707C32.6268 232.876 32.7799 232.997 32.9489 232.977C32.98 232.974 33.7745 232.904 34.3 233.705C34.7519 234.394 34.7512 235.598 34.7512 235.61C34.7506 235.693 34.7824 235.768 34.8347 235.823Z" fill="white"/>
<path d="M36.0636 235.532C36.1192 235.591 36.1981 235.628 36.2856 235.629C36.4558 235.629 36.5943 235.493 36.5957 235.323C36.5957 235.266 36.5983 233.922 36.0444 233.077C35.3068 231.95 34.1565 232.07 34.1075 232.075C33.9385 232.094 33.8172 232.247 33.8371 232.416C33.8563 232.585 34.0087 232.706 34.1784 232.686C34.2095 232.683 35.004 232.613 35.5295 233.413C35.9827 234.105 35.9801 235.307 35.9801 235.319C35.9794 235.402 36.0112 235.476 36.0636 235.532Z" fill="white"/>
<path d="M33.406 235.809C33.4617 235.868 33.5405 235.905 33.628 235.906C33.7983 235.907 33.9368 235.77 33.9381 235.6C33.9381 235.543 33.9408 234.199 33.3861 233.354C32.6493 232.227 31.4983 232.347 31.4492 232.352C31.2803 232.371 31.159 232.524 31.1789 232.693C31.1981 232.861 31.3512 232.983 31.5202 232.963C31.5513 232.961 32.3465 232.89 32.8713 233.691C33.3245 234.383 33.3225 235.584 33.3219 235.596C33.3212 235.679 33.3537 235.754 33.406 235.809Z" fill="white"/>
<path d="M222.118 228.507L221.195 232.722C221.195 232.722 223.723 234.595 225.509 233.581L226.438 229.466L222.118 228.507Z" fill="#FAB083"/>
<path d="M222.058 232.469C222.058 232.469 221.351 231.034 220.595 230.951C219.838 230.867 213.235 234.381 211.192 234.395C209.149 234.409 208.829 236.89 209.56 237.302C210.394 237.772 225.105 239.982 225.105 239.982C225.105 239.982 226.547 234.864 226.303 233.373C226.058 231.882 223.54 233.084 222.058 232.469Z" fill="#6D998F"/>
<path d="M218.285 235.075C218.351 235.108 218.43 235.116 218.506 235.09C218.652 235.039 218.73 234.879 218.679 234.732C218.662 234.683 218.252 233.527 217.517 232.969C216.539 232.226 215.584 232.681 215.544 232.7C215.405 232.768 215.347 232.936 215.415 233.075C215.484 233.214 215.652 233.272 215.792 233.204C215.818 233.191 216.48 232.889 217.177 233.416C217.776 233.871 218.144 234.907 218.148 234.917C218.173 234.989 218.224 235.044 218.285 235.075Z" fill="white"/>
<path d="M219.252 234.449C219.318 234.483 219.397 234.491 219.473 234.464C219.619 234.413 219.697 234.253 219.646 234.107C219.629 234.058 219.219 232.901 218.483 232.343C217.504 231.599 216.551 232.054 216.511 232.074C216.372 232.142 216.314 232.31 216.382 232.45C216.45 232.589 216.619 232.646 216.759 232.578C216.785 232.566 217.446 232.263 218.144 232.791C218.745 233.247 219.111 234.281 219.115 234.291C219.139 234.363 219.19 234.417 219.252 234.449Z" fill="white"/>
<path d="M217.052 235.5C217.118 235.534 217.197 235.542 217.273 235.516C217.419 235.465 217.497 235.304 217.446 235.158C217.428 235.109 217.019 233.952 216.283 233.394C215.304 232.651 214.351 233.106 214.311 233.125C214.171 233.193 214.114 233.361 214.182 233.501C214.25 233.64 214.419 233.698 214.558 233.629C214.584 233.617 215.247 233.314 215.943 233.841C216.545 234.298 216.911 235.332 216.915 235.342C216.94 235.414 216.99 235.469 217.052 235.5Z" fill="white"/>
<path d="M242.984 164.116C242.607 165.74 242.229 167.411 241.845 169.125C239.585 179.249 237.138 190.889 233.541 202.541C232.228 212.989 229.938 219.626 226.856 230.146C226.55 230.205 226.106 230.218 225.591 230.187C225.398 230.175 225.195 230.158 224.985 230.128C223.702 229.972 222.167 229.552 221.195 228.822C221.195 228.822 223.066 216.086 225.656 201.75C227.035 194.1 229.482 175.367 230.645 166.297C231.041 163.182 231.287 161.211 231.287 161.211L241.096 163.649L241.257 163.685L241.677 163.793L242.984 164.116Z" fill="#124559"/>
<path d="M242.984 164.116C242.607 165.74 242.229 167.411 241.845 169.125L230.645 166.297C231.04 163.182 231.286 161.211 231.286 161.211L241.095 163.65L241.257 163.685L241.676 163.793L242.984 164.116Z" fill="#124559"/>
<path d="M241.676 163.787V163.793L232.382 202.361C232.371 202.463 230.571 215.091 225.589 230.188C225.397 230.176 225.193 230.158 224.983 230.128C229.972 215.032 231.777 202.38 231.795 202.248L241.094 163.65L241.256 163.686L241.676 163.787Z" fill="#124559"/>
<path d="M249.824 228.151L250.199 233.688L254.246 232.719V228.151H249.824Z" fill="#FAB083"/>
<path d="M251.62 232.543C251.62 232.543 253.769 231.972 254.362 231.985C254.956 231.998 258.93 236.447 260.27 236.711C262.699 237.188 262.698 240.979 261.219 241.166C256.942 241.705 249.629 239.892 249.629 239.892C249.629 239.892 248.96 235.027 249.255 233.502C249.549 231.976 250.424 232.991 251.62 232.543Z" fill="#6D998F"/>
<path d="M255.156 236.699C255.08 236.715 254.997 236.702 254.927 236.655C254.791 236.564 254.755 236.38 254.847 236.245C254.877 236.2 255.605 235.13 256.504 234.758C257.701 234.262 258.551 234.981 258.587 235.012C258.711 235.118 258.724 235.306 258.617 235.429C258.51 235.553 258.323 235.566 258.199 235.459C258.176 235.439 257.583 234.953 256.73 235.304C255.997 235.607 255.344 236.565 255.337 236.574C255.294 236.641 255.228 236.683 255.156 236.699Z" fill="white"/>
<path d="M254.338 235.802C254.261 235.819 254.179 235.806 254.108 235.759C253.973 235.667 253.937 235.483 254.028 235.348C254.059 235.303 254.787 234.233 255.686 233.862C256.883 233.366 257.733 234.085 257.769 234.116C257.893 234.223 257.906 234.409 257.799 234.533C257.692 234.657 257.504 234.67 257.381 234.563C257.358 234.544 256.764 234.057 255.912 234.409C255.176 234.713 254.526 235.669 254.519 235.679C254.475 235.744 254.409 235.786 254.338 235.802Z" fill="white"/>
<path d="M256.298 237.463C256.222 237.479 256.139 237.466 256.069 237.419C255.933 237.328 255.898 237.144 255.989 237.008C256.02 236.962 256.747 235.893 257.647 235.522C258.844 235.026 259.694 235.745 259.73 235.775C259.854 235.883 259.867 236.069 259.76 236.192C259.653 236.316 259.465 236.329 259.342 236.222C259.319 236.203 258.725 235.716 257.873 236.068C257.137 236.372 256.487 237.328 256.48 237.338C256.436 237.405 256.37 237.447 256.298 237.463Z" fill="white"/>
<path d="M254.8 228.75C253.852 229.157 252.485 229.277 251.167 229.253C250.963 229.253 250.759 229.247 250.561 229.229C250.075 229.212 249.607 229.169 249.182 229.121L243.384 169.053L242.91 164.117L244.025 164.033L244.625 163.991L254.573 163.266C254.573 163.266 254.567 164.477 254.567 166.448C254.561 173.217 254.596 188.984 254.98 195.796C255.471 204.596 254.8 228.75 254.8 228.75Z" fill="#124559"/>
<path d="M254.572 163.266C254.572 163.266 254.566 164.476 254.566 166.447L243.383 169.053L242.909 164.116L244.024 164.032L244.624 163.991L254.572 163.266Z" fill="#124559"/>
<path d="M251.165 229.253C250.961 229.253 250.757 229.247 250.559 229.229L244.023 164.033L244.623 163.991L251.165 229.253Z" fill="#124559"/>
<path d="M252.157 129.014L254.832 137.597L257.76 145.756C258.231 147.464 260.118 148.343 261.73 147.608C261.759 147.595 261.787 147.582 261.815 147.57C264.601 146.254 263.065 140.796 263.065 140.796L262.539 140.755C262.324 140.156 261.746 138.631 261.01 136.716C260.921 136.481 260.828 136.238 260.734 135.993C260.577 135.586 260.415 135.166 260.25 134.735C260.015 134.126 259.772 133.497 259.526 132.864C257.721 128.186 256.226 123.109 256.226 123.109L254.979 119.412L252.157 129.014Z" fill="#FAB083"/>
<path d="M260.067 142.669C260.067 142.669 260.451 136.452 261.779 135.129C263.107 133.807 264.319 133.302 265.565 133.347C266.81 133.392 267.981 133.547 267.904 134.059C267.904 134.059 270.765 133.627 272.043 134.367C273.32 135.108 268.26 135.756 266.757 135.795C265.255 135.834 264.461 136.673 264.401 137.567C264.34 138.462 263.473 144.387 263.473 144.387L260.067 142.669Z" fill="#FAB083"/>
<path d="M252.571 131.296C252.571 131.296 257.297 146.372 258.379 147.396C259.461 148.42 261.893 149.468 263.219 146.71C264.546 143.951 264.811 136.584 264.811 136.584L261.511 135.05L260.995 136.674L255.031 119.374C255.031 119.374 252.913 130.158 252.571 131.296Z" fill="#6D998F"/>
<path d="M259.668 142.543C259.68 142.544 259.69 142.544 259.702 142.545C259.809 142.545 259.904 142.469 259.92 142.36C260.327 139.773 260.723 137.821 260.994 136.674C260.905 136.439 260.843 136.21 260.75 135.965C260.495 136.976 259.98 139.155 259.485 142.291C259.467 142.411 259.549 142.523 259.668 142.543Z" fill="#124559"/>
<path d="M258.552 134.461L277.513 134.588C278.226 134.592 278.808 134.019 278.812 133.306V133.295C278.817 132.583 278.243 132.002 277.529 131.996L258.569 131.87C257.856 131.865 257.274 132.438 257.269 133.151V133.162C257.265 133.874 257.839 134.456 258.552 134.461Z" fill="#124559"/>
<path d="M278.799 134.596L282.95 119.472C283.183 118.623 282.547 117.783 281.665 117.777L272.755 117.718C272.154 117.714 271.623 118.11 271.457 118.687L266.892 134.517L278.799 134.596Z" fill="#124559"/>
<path d="M271.457 118.687L266.93 134.386L265.911 134.38L270.438 118.68C270.606 118.103 271.135 117.707 271.737 117.71L272.756 117.717C272.154 117.713 271.624 118.11 271.457 118.687Z" fill="#124559"/>
<path d="M273.693 126.822C273.455 127.819 274.072 128.634 275.072 128.64C276.072 128.647 277.077 127.843 277.315 126.845C277.553 125.848 276.935 125.033 275.935 125.027C274.935 125.02 273.931 125.824 273.693 126.822Z" fill="#58619B"/>
<path d="M202.144 113.445C201.772 113.489 201.415 113.448 201.111 113.289C200.31 112.87 199.643 112.453 199.258 112.2C199.029 112.044 198.898 111.953 198.898 111.953C198.898 111.953 198.889 111.953 198.882 111.96C198.795 111.975 198.363 112.038 197.636 111.625C196.819 111.156 196.393 110.364 196.497 109.929C196.597 109.494 197.163 109.382 197.163 109.382C197.163 109.382 196.878 108.969 197.02 108.519C197.161 108.065 198.065 107.833 198.065 107.833C198.065 107.833 197.811 107.264 198.265 106.892C198.697 106.532 199.658 107.214 199.743 107.267C199.614 107.133 196.735 104.118 197.589 104.099C198.463 104.08 201.496 106.854 201.64 106.917C201.781 106.983 202.52 106.932 203.236 107.03C203.953 107.124 204.307 107.452 204.63 108.534C204.953 109.616 204.85 111.363 204.85 111.363C205.072 111.528 205.501 111.915 205.758 112.102C205.758 112.102 205.916 112.188 205.932 112.198C206.471 112.507 214.92 117.227 217.628 119.338C217.632 119.338 217.632 119.341 217.635 119.341C217.732 119.416 217.885 119.479 218.089 119.535C220.872 120.289 232.865 119.385 232.865 119.385L233.485 125.938C233.485 125.938 221.441 126.651 215.699 123.795C211.17 121.543 203.91 114.763 203.91 114.763L202.144 113.445Z" fill="#FAB083"/>
<path d="M203.127 109.915C203.158 109.923 203.191 109.925 203.225 109.917C203.331 109.892 203.397 109.784 203.372 109.677L203.157 108.772C203.144 108.718 203.109 108.671 203.06 108.644C203.011 108.617 202.954 108.612 202.901 108.629C202.891 108.632 201.865 108.962 201.115 108.547C200.886 108.42 200.748 108.274 200.717 108.124C200.681 107.955 200.787 107.813 200.789 107.811C200.854 107.725 200.839 107.6 200.753 107.533C200.667 107.467 200.544 107.48 200.475 107.566C200.453 107.594 200.257 107.853 200.326 108.198C200.381 108.471 200.581 108.705 200.923 108.895C201.608 109.276 202.437 109.153 202.818 109.064L202.985 109.77C203.003 109.843 203.059 109.897 203.127 109.915Z" fill="#FC8664"/>
<path d="M198.881 111.957C198.891 111.953 198.897 111.952 198.897 111.952C198.897 111.952 199.028 112.045 199.259 112.197C199.703 111.89 199.855 111.421 199.984 111.027C200.095 110.685 200.193 110.388 200.435 110.218C200.685 110.043 200.829 109.814 200.907 109.579C200.985 109.354 201.001 109.122 200.992 108.929C200.989 108.857 200.984 108.789 200.976 108.731C200.957 108.577 200.928 108.475 200.924 108.462C200.894 108.356 200.784 108.293 200.678 108.325C200.573 108.354 200.511 108.464 200.541 108.57C200.541 108.571 200.545 108.587 200.551 108.617C200.579 108.736 200.633 109.065 200.548 109.382C200.497 109.573 200.394 109.76 200.205 109.893C199.854 110.139 199.726 110.527 199.604 110.904C199.465 111.331 199.333 111.738 198.881 111.957Z" fill="#FC8664"/>
<path d="M201.939 111.247C202.012 111.267 202.092 111.244 202.143 111.184C202.214 111.1 202.204 110.975 202.12 110.904C202.11 110.895 201.116 110.038 201.293 108.921C201.31 108.812 201.236 108.71 201.128 108.693C201.019 108.676 200.917 108.75 200.9 108.859C200.688 110.2 201.814 111.167 201.862 111.208C201.886 111.227 201.912 111.24 201.939 111.247Z" fill="#FC8664"/>
<path d="M255.578 163.449C250.84 164.544 247.011 165.104 243.23 165.138C243.207 165.138 243.183 165.141 243.161 165.138C243.138 165.141 243.115 165.138 243.091 165.138C239.308 165.104 235.482 164.544 230.742 163.449C230.08 154.962 232.981 149.59 232.659 140.076C232.656 139.994 232.653 139.911 232.65 139.828C232.635 139.417 232.617 139.01 232.597 138.604C232.559 137.833 232.514 137.07 232.461 136.319C232.432 135.907 232.402 135.499 232.37 135.095C231.716 126.875 230.413 120.363 231.12 119.472C231.887 118.504 233.839 117.362 235.823 116.302C237.705 115.299 239.614 114.369 240.571 113.733C241.52 114.146 242.276 114.372 243.091 114.368C243.112 114.368 243.137 114.368 243.161 114.366C243.183 114.368 243.207 114.368 243.23 114.368C244.043 114.372 244.8 114.147 245.75 113.733C246.638 114.323 248.31 115.146 250.015 116.043C252.089 117.135 254.212 118.337 255.031 119.372C255.768 120.302 254.447 127.422 253.861 136.162C253.835 136.555 253.811 136.949 253.788 137.348C253.737 138.21 253.695 139.084 253.665 139.968C253.664 140.004 253.662 140.039 253.662 140.075C253.65 140.424 253.642 140.768 253.639 141.106C253.546 149.988 256.216 155.274 255.578 163.449Z" fill="#6D998F"/>
<path d="M250.828 152.721H250.827C246.051 152.699 241.975 150.529 239.397 148.711C236.608 146.745 234.918 144.753 234.901 144.733C234.82 144.636 234.833 144.491 234.929 144.409C235.026 144.328 235.171 144.34 235.253 144.437C235.269 144.457 236.928 146.411 239.672 148.342C242.194 150.119 246.178 152.241 250.829 152.261C250.956 152.262 251.058 152.365 251.057 152.492C251.057 152.619 250.955 152.721 250.828 152.721Z" fill="#124559"/>
<path d="M245.852 154.342C241.708 154.342 237.576 151.982 237.388 151.874C237.278 151.81 237.241 151.67 237.305 151.56C237.368 151.45 237.509 151.413 237.619 151.476C237.667 151.504 242.53 154.278 246.841 153.833C246.969 153.818 247.08 153.912 247.093 154.037C247.107 154.164 247.014 154.276 246.889 154.29C246.544 154.325 246.197 154.342 245.852 154.342Z" fill="#124559"/>
<path d="M242.183 125.337C242.075 125.337 241.978 125.26 241.957 125.15C241.933 125.026 242.016 124.905 242.14 124.882C247.962 123.778 249.717 120.036 249.734 119.999C249.786 119.883 249.922 119.832 250.038 119.884C250.153 119.936 250.205 120.072 250.153 120.188C250.079 120.351 248.28 124.185 242.226 125.333C242.211 125.335 242.197 125.337 242.183 125.337Z" fill="#124559"/>
<path d="M243.642 118.167C240.299 118.512 239.073 114.467 239.061 114.425C239.036 114.337 239.086 114.246 239.174 114.22C239.262 114.195 239.354 114.245 239.38 114.333C239.427 114.495 240.587 118.311 243.802 117.813C246.616 117.38 246.459 114.225 246.451 114.092C246.446 114 246.514 113.922 246.606 113.916C246.698 113.911 246.776 113.98 246.782 114.071C246.784 114.107 246.967 117.66 243.852 118.14C243.781 118.151 243.711 118.16 243.642 118.167Z" fill="white"/>
<path d="M236.828 104.677C236.828 104.677 234.077 99.9773 236.397 96.3486C238.718 92.7199 243.646 93.0622 244.923 93.3475C246.2 93.6329 253.551 97.0762 249.105 105.427L236.828 104.677Z" fill="#124559"/>
<path d="M237.288 103.347C237.288 103.347 236.174 101.863 235.346 103.09C234.517 104.316 235.688 107.941 237.716 107.056L237.288 103.347Z" fill="#FC8664"/>
<path d="M237.274 105.936C237.199 105.936 237.13 105.887 237.109 105.811C236.795 104.692 235.634 104.239 235.622 104.234C235.534 104.201 235.489 104.102 235.523 104.014C235.557 103.926 235.655 103.881 235.744 103.915C235.798 103.935 237.076 104.431 237.438 105.719C237.464 105.81 237.41 105.905 237.319 105.931C237.305 105.934 237.289 105.936 237.274 105.936Z" fill="#FD664D"/>
<path d="M236.102 105.373C236.07 105.373 236.039 105.364 236.009 105.346C235.93 105.295 235.907 105.189 235.958 105.11C235.966 105.096 236.172 104.784 236.601 104.592C236.687 104.553 236.789 104.592 236.827 104.678C236.866 104.764 236.827 104.865 236.741 104.904C236.409 105.053 236.247 105.293 236.246 105.295C236.214 105.345 236.159 105.373 236.102 105.373Z" fill="#FD664D"/>
<path d="M248.766 103.347C248.766 103.347 249.88 101.863 250.708 103.09C251.536 104.316 250.366 107.941 248.338 107.056L248.766 103.347Z" fill="#FC8664"/>
<path d="M248.78 105.936C248.855 105.936 248.924 105.887 248.945 105.811C249.259 104.692 250.42 104.239 250.431 104.234C250.52 104.201 250.565 104.102 250.531 104.014C250.497 103.926 250.398 103.881 250.31 103.915C250.256 103.935 248.978 104.431 248.616 105.719C248.59 105.81 248.644 105.905 248.734 105.931C248.749 105.934 248.765 105.936 248.78 105.936Z" fill="#FD664D"/>
<path d="M249.951 105.373C249.983 105.373 250.015 105.364 250.044 105.346C250.123 105.295 250.147 105.189 250.095 105.11C250.086 105.096 249.881 104.784 249.451 104.592C249.365 104.553 249.264 104.592 249.225 104.678C249.186 104.764 249.225 104.865 249.311 104.904C249.643 105.053 249.805 105.293 249.806 105.295C249.84 105.345 249.895 105.373 249.951 105.373Z" fill="#FD664D"/>
<path d="M245.769 110.13V113.734C245.769 113.734 244.694 115.569 243.239 115.694C241.786 115.82 240.494 114.114 240.494 114.114V110.383L245.769 110.13Z" fill="#FAB083"/>
<path d="M245.769 110.13V111.729C244.793 112.811 243.06 113.081 240.494 112.703V110.383L245.769 110.13Z" fill="#FC8664"/>
<path d="M249.572 100.874C249.505 102.275 249.371 104.026 249.104 105.427C249.037 105.776 248.961 106.105 248.877 106.399C248.119 109.055 246.219 113.609 240.904 111.712C238.556 110.875 237.468 108.262 236.983 105.605C236.654 103.8 236.604 101.977 236.628 100.675C236.654 99.3444 237.38 98.1289 238.539 97.4728C241.676 95.6959 244.987 96.3579 247.166 97.1954C248.68 97.7761 249.649 99.2604 249.572 100.874Z" fill="#FAB083"/>
<path d="M241.595 95.7442C241.595 95.7442 248.609 106.985 249.576 102.862C250.947 97.0187 246.757 93.4046 241.595 95.7442Z" fill="#124559"/>
<path d="M241.303 95.7429C236.636 95.7773 234.314 101.076 236.479 101.704C239.49 102.577 242.103 98.317 242.907 96.8393C242.366 96.4824 241.825 96.1269 241.303 95.7429Z" fill="#124559"/>
<path d="M245.19 97.8343C247.739 97.8343 249.806 95.7695 249.806 93.2225C249.806 90.6754 247.739 88.6106 245.19 88.6106C242.641 88.6106 240.574 90.6754 240.574 93.2225C240.574 95.7695 242.641 97.8343 245.19 97.8343Z" fill="#124559"/>
<path d="M237.445 101.201C237.445 101.201 237.808 102.61 237.312 103.558C236.817 104.507 237.088 106.131 237.312 107.957C237.312 107.957 236.524 106.844 236.479 105.061C236.433 103.278 236.724 101.794 236.479 101.081L237.445 101.201Z" fill="#124559"/>
<path d="M248.467 101.201C248.467 101.201 248.104 102.61 248.6 103.558C249.095 104.507 248.823 106.131 248.6 107.957C248.6 107.957 249.388 106.844 249.433 105.061C249.479 103.278 249.187 101.794 249.433 101.081L248.467 101.201Z" fill="#124559"/>
<path d="M240.243 104.255C240.488 104.255 240.686 103.943 240.686 103.558C240.686 103.174 240.488 102.862 240.243 102.862C239.998 102.862 239.8 103.174 239.8 103.558C239.8 103.943 239.998 104.255 240.243 104.255Z" fill="#124559"/>
<path d="M245.717 104.255C245.962 104.255 246.16 103.943 246.16 103.558C246.16 103.174 245.962 102.862 245.717 102.862C245.472 102.862 245.273 103.174 245.273 103.558C245.273 103.943 245.472 104.255 245.717 104.255Z" fill="#124559"/>
<path d="M239.365 101.485C239.733 101.381 240.476 101.203 241.261 101.201C241.467 101.2 241.625 101.384 241.589 101.587L241.588 101.592C241.559 101.754 241.414 101.869 241.249 101.861C240.715 101.836 239.314 101.911 238.653 102.179C238.639 102.063 238.707 101.938 238.804 101.826C238.949 101.657 239.149 101.545 239.365 101.485Z" fill="#124559"/>
<path d="M246.527 101.499C246.158 101.395 245.415 101.217 244.631 101.215C244.424 101.214 244.267 101.397 244.303 101.601L244.304 101.606C244.333 101.768 244.478 101.883 244.642 101.875C245.176 101.85 246.577 101.925 247.239 102.193C247.252 102.077 247.184 101.952 247.088 101.84C246.942 101.672 246.742 101.56 246.527 101.499Z" fill="#124559"/>
<path d="M243.087 106.736C242.956 106.736 242.824 106.713 242.715 106.648C242.615 106.587 242.49 106.466 242.466 106.229C242.401 105.6 242.562 103.627 242.568 103.544C242.576 103.45 242.658 103.38 242.753 103.387C242.847 103.395 242.918 103.478 242.91 103.572C242.908 103.592 242.744 105.596 242.806 106.193C242.817 106.297 242.859 106.334 242.89 106.353C243.051 106.449 243.423 106.351 243.578 106.288C243.665 106.252 243.765 106.295 243.801 106.382C243.837 106.47 243.795 106.569 243.707 106.605C243.663 106.624 243.376 106.736 243.087 106.736Z" fill="#FC8664"/>
<path d="M240.91 107.817C241.039 108.469 241.47 109.666 242.921 109.666C244.374 109.666 244.783 108.571 244.922 107.817H240.91Z" fill="white"/>
<path d="M242.901 110.666C242.482 110.666 242.113 110.441 242.097 110.431C242.016 110.381 241.992 110.275 242.041 110.195C242.091 110.115 242.196 110.09 242.277 110.139C242.28 110.141 242.581 110.323 242.9 110.323C243.245 110.323 243.555 110.141 243.558 110.139C243.639 110.09 243.744 110.116 243.793 110.197C243.842 110.278 243.817 110.383 243.736 110.431C243.72 110.441 243.344 110.666 242.901 110.666Z" fill="#FC8664"/>
<path d="M205.763 111.912L203.378 115.058C203.378 115.058 212.367 122.753 216.808 124.275C221.25 125.796 231.553 127.207 231.553 127.207C232.303 124.632 231.954 122.053 231.121 119.473C231.121 119.473 220.513 119.724 217.466 118.188C210.936 114.897 205.763 111.912 205.763 111.912Z" fill="#6D998F"/>
<path d="M202.54 35.3193C202.48 35.3253 202.419 35.3173 202.36 35.2928C201.735 35.0293 201.368 34.9062 201.364 34.9055C201.173 34.8413 201.069 34.6347 201.133 34.4434C201.197 34.2521 201.404 34.1488 201.596 34.2123C201.611 34.2176 201.989 34.3441 202.643 34.6202C202.829 34.6983 202.916 34.9128 202.838 35.0988C202.785 35.2253 202.668 35.3061 202.54 35.3193Z" fill="#DBE6F7"/>
<path d="M221.176 54.9147C221.424 55.5774 221.657 56.2613 221.868 56.9466C221.92 57.1167 222.085 57.2207 222.256 57.2028C222.279 57.2001 222.302 57.1955 222.325 57.1889C222.518 57.1293 222.627 56.9254 222.567 56.7327C222.353 56.0329 222.115 55.3358 221.861 54.6592C221.79 54.4705 221.581 54.3745 221.39 54.4453C221.201 54.5155 221.105 54.726 221.176 54.9147Z" fill="#DBE6F7"/>
<path d="M222.438 59.0168C222.606 59.7034 222.757 60.4098 222.888 61.1175C222.923 61.3062 223.098 61.434 223.286 61.4141C223.295 61.4128 223.305 61.4115 223.314 61.4101C223.513 61.3731 223.644 61.1824 223.607 60.9844C223.473 60.2635 223.319 59.5438 223.149 58.844C223.101 58.648 222.903 58.5282 222.707 58.5759C222.511 58.6229 222.39 58.8202 222.438 59.0168Z" fill="#DBE6F7"/>
<path d="M223.537 62.8296C223.337 62.8554 223.195 63.0388 223.222 63.2387C223.265 63.5691 223.304 63.9028 223.339 64.2305C223.379 64.6085 223.414 64.9952 223.444 65.3778C223.46 65.5791 223.635 65.7294 223.837 65.7135C223.84 65.7135 223.843 65.7128 223.847 65.7122C224.043 65.6917 224.188 65.5182 224.173 65.3202C224.142 64.931 224.107 64.5377 224.065 64.153C224.03 63.8194 223.991 63.4797 223.947 63.1434C223.922 62.9461 223.743 62.8064 223.546 62.827C223.543 62.8289 223.54 62.8296 223.537 62.8296Z" fill="#DBE6F7"/>
<path d="M220.36 52.9299C220.426 53.0782 220.579 53.1603 220.732 53.1444C220.769 53.1404 220.807 53.1305 220.843 53.1146C221.027 53.0325 221.11 52.816 221.028 52.6319C220.73 51.9666 220.407 51.3032 220.069 50.6603C219.975 50.4816 219.754 50.4134 219.575 50.5067C219.397 50.6008 219.328 50.8219 219.422 51C219.752 51.6289 220.068 52.2784 220.36 52.9299Z" fill="#DBE6F7"/>
<path d="M204.302 36.2005C204.93 36.5209 205.564 36.8704 206.185 37.2379C206.256 37.2796 206.335 37.2948 206.41 37.2869C206.521 37.275 206.625 37.2127 206.686 37.1094C206.789 36.936 206.731 36.7116 206.558 36.6089C205.923 36.2336 205.276 35.8767 204.634 35.5497C204.455 35.4583 204.234 35.5291 204.142 35.7085C204.051 35.8886 204.123 36.1084 204.302 36.2005Z" fill="#DBE6F7"/>
<path d="M209.752 39.6405C209.829 39.6994 209.923 39.7232 210.012 39.7133C210.108 39.7033 210.201 39.655 210.264 39.5716C210.386 39.4114 210.356 39.1823 210.195 39.0598C209.616 38.6182 209.016 38.1879 208.413 37.7814C208.245 37.6689 208.019 37.7126 207.906 37.8801C207.792 38.0476 207.837 38.2746 208.004 38.3872C208.596 38.7857 209.184 39.2075 209.752 39.6405Z" fill="#DBE6F7"/>
<path d="M215.896 45.6221C215.977 45.7228 216.1 45.7698 216.22 45.7572C216.287 45.7499 216.353 45.7241 216.409 45.6791C216.567 45.5533 216.593 45.3229 216.466 45.1653C216.012 44.5986 215.533 44.0372 215.042 43.4976C214.906 43.348 214.675 43.3367 214.525 43.4731C214.376 43.6088 214.364 43.8399 214.5 43.9895C214.981 44.5178 215.451 45.0673 215.896 45.6221Z" fill="#DBE6F7"/>
<path d="M213.008 42.4456C213.089 42.5244 213.197 42.5582 213.301 42.5469C213.383 42.5383 213.463 42.5019 213.525 42.4384C213.665 42.294 213.662 42.0623 213.517 41.922C212.997 41.4161 212.453 40.9183 211.899 40.4416C211.746 40.3099 211.515 40.3271 211.384 40.48C211.252 40.6329 211.269 40.8633 211.422 40.9951C211.965 41.4618 212.498 41.9504 213.008 42.4456Z" fill="#DBE6F7"/>
<path d="M218.362 49.1337C218.438 49.2582 218.577 49.3211 218.712 49.3065C218.765 49.3012 218.816 49.284 218.864 49.2549C219.036 49.1496 219.091 48.9245 218.985 48.7524C218.606 48.1314 218.202 47.5143 217.783 46.9185C217.667 46.7536 217.439 46.7132 217.274 46.8291C217.109 46.945 217.068 47.1727 217.184 47.3382C217.594 47.9221 217.99 48.5259 218.362 49.1337Z" fill="#DBE6F7"/>
<path d="M186.94 24.507L183.994 35.629L200.109 39.8894L203.055 28.7674L186.94 24.507Z" fill="#51877B"/>
<path d="M195.028 32.7988L199.646 39.7616L200.112 39.8847L200.188 39.6014L195.479 32.5009L195.028 32.7988Z" fill="#3C796C"/>
<path d="M184.061 35.3781L183.996 35.6237L184.505 35.7588L191.965 31.9891L191.721 31.5071L184.061 35.3781Z" fill="#3C796C"/>
<path d="M203.058 28.7623L193.104 33.7926L186.942 24.502L203.058 28.7623Z" fill="#6D998F"/>
<path d="M249.1 48.7821C246.878 48.7821 245.07 46.976 245.07 44.7562C245.07 42.5363 246.878 40.7302 249.1 40.7302C251.322 40.7302 253.129 42.5363 253.129 44.7562C253.129 46.976 251.322 48.7821 249.1 48.7821ZM249.1 41.9934C247.575 41.9934 246.335 43.2328 246.335 44.7562C246.335 46.2796 247.575 47.5189 249.1 47.5189C250.625 47.5189 251.865 46.2796 251.865 44.7562C251.865 43.2328 250.625 41.9934 249.1 41.9934Z" fill="#6D998F"/>
<path d="M269.578 52.8776C267.357 52.8776 265.549 51.0715 265.549 48.8516C265.549 46.6318 267.357 44.8257 269.578 44.8257C271.8 44.8257 273.608 46.6318 273.608 48.8516C273.607 51.0715 271.8 52.8776 269.578 52.8776ZM269.578 46.0889C268.054 46.0889 266.813 47.3282 266.813 48.8516C266.813 50.375 268.054 51.6144 269.578 51.6144C271.103 51.6144 272.344 50.375 272.344 48.8516C272.344 47.3282 271.103 46.0889 269.578 46.0889Z" fill="#124559"/>
<path d="M279.282 61.097C278.932 61.097 278.649 60.8143 278.649 60.4654V57.6808C278.649 57.3319 278.932 57.0492 279.282 57.0492C279.631 57.0492 279.914 57.3319 279.914 57.6808V60.4654C279.914 60.8143 279.631 61.097 279.282 61.097Z" fill="#6D998F"/>
<path d="M279.282 65.9704C278.932 65.9704 278.649 65.6877 278.649 65.3388V62.5542C278.649 62.2053 278.932 61.9226 279.282 61.9226C279.631 61.9226 279.914 62.2053 279.914 62.5542V65.3388C279.914 65.6877 279.631 65.9704 279.282 65.9704Z" fill="#6D998F"/>
<path d="M283.194 62.1417H280.69C280.341 62.1417 280.058 61.859 280.058 61.5101C280.058 61.1612 280.341 60.8785 280.69 60.8785H283.194C283.543 60.8785 283.826 61.1612 283.826 61.5101C283.826 61.859 283.543 62.1417 283.194 62.1417Z" fill="#6D998F"/>
<path d="M277.874 62.1417H275.369C275.02 62.1417 274.737 61.859 274.737 61.5101C274.737 61.1612 275.02 60.8785 275.369 60.8785H277.874C278.223 60.8785 278.506 61.1612 278.506 61.5101C278.506 61.859 278.222 62.1417 277.874 62.1417Z" fill="#6D998F"/>
<path d="M257.761 56.556C257.412 56.556 257.129 56.2733 257.129 55.9244V53.1398C257.129 52.7909 257.412 52.5082 257.761 52.5082C258.11 52.5082 258.393 52.7909 258.393 53.1398V55.9244C258.393 56.2733 258.11 56.556 257.761 56.556Z" fill="#124559"/>
<path d="M257.761 61.4294C257.412 61.4294 257.129 61.1467 257.129 60.7978V58.0132C257.129 57.6643 257.412 57.3816 257.761 57.3816C258.11 57.3816 258.393 57.6643 258.393 58.0132V60.7978C258.393 61.1467 258.11 61.4294 257.761 61.4294Z" fill="#124559"/>
<path d="M261.673 57.6H259.169C258.82 57.6 258.537 57.3173 258.537 56.9684C258.537 56.6195 258.82 56.3368 259.169 56.3368H261.673C262.023 56.3368 262.306 56.6195 262.306 56.9684C262.306 57.3173 262.023 57.6 261.673 57.6Z" fill="#124559"/>
<path d="M256.353 57.6H253.849C253.5 57.6 253.217 57.3173 253.217 56.9684C253.217 56.6195 253.5 56.3368 253.849 56.3368H256.353C256.702 56.3368 256.985 56.6195 256.985 56.9684C256.985 57.3173 256.702 57.6 256.353 57.6Z" fill="#124559"/>
<path d="M13.3764 138.608C13.3764 140.828 11.5687 142.634 9.3469 142.634C7.12507 142.634 5.31738 140.828 5.31738 138.608C5.31738 136.388 7.12507 134.582 9.3469 134.582C11.5687 134.583 13.3764 136.388 13.3764 138.608ZM6.5817 138.608C6.5817 140.132 7.82216 141.371 9.3469 141.371C10.8716 141.371 12.1121 140.132 12.1121 138.608C12.1121 137.085 10.8716 135.845 9.3469 135.845C7.82216 135.845 6.5817 137.085 6.5817 138.608Z" fill="#6D998F"/>
<path d="M17.475 118.148C17.475 120.368 15.6674 122.174 13.4455 122.174C11.2237 122.174 9.41602 120.368 9.41602 118.148C9.41602 115.928 11.2237 114.122 13.4455 114.122C15.6674 114.122 17.475 115.928 17.475 118.148ZM10.6803 118.148C10.6803 119.672 11.9208 120.911 13.4455 120.911C14.9703 120.911 16.2107 119.672 16.2107 118.148C16.2107 116.625 14.9703 115.385 13.4455 115.385C11.9208 115.385 10.6803 116.625 10.6803 118.148Z" fill="#124559"/>
<path d="M25.7028 108.453C25.7028 108.802 25.4198 109.085 25.0706 109.085H22.2835C21.9343 109.085 21.6514 108.802 21.6514 108.453C21.6514 108.104 21.9343 107.821 22.2835 107.821H25.0706C25.4198 107.821 25.7028 108.104 25.7028 108.453Z" fill="#6D998F"/>
<path d="M30.5797 108.453C30.5797 108.802 30.2968 109.085 29.9475 109.085H27.1605C26.8113 109.085 26.5283 108.802 26.5283 108.453C26.5283 108.104 26.8113 107.821 27.1605 107.821H29.9475C30.2968 107.821 30.5797 108.104 30.5797 108.453Z" fill="#6D998F"/>
<path d="M26.7477 104.544V107.046C26.7477 107.395 26.4648 107.678 26.1156 107.678C25.7663 107.678 25.4834 107.395 25.4834 107.046V104.544C25.4834 104.195 25.7663 103.913 26.1156 103.913C26.4648 103.913 26.7477 104.195 26.7477 104.544Z" fill="#6D998F"/>
<path d="M26.7477 109.86V112.362C26.7477 112.711 26.4648 112.994 26.1156 112.994C25.7663 112.994 25.4834 112.711 25.4834 112.362V109.86C25.4834 109.512 25.7663 109.229 26.1156 109.229C26.4648 109.229 26.7477 109.512 26.7477 109.86Z" fill="#6D998F"/>
<path d="M21.1569 129.954C21.1569 130.303 20.8739 130.586 20.5247 130.586H17.7376C17.3884 130.586 17.1055 130.303 17.1055 129.954C17.1055 129.606 17.3884 129.323 17.7376 129.323H20.5247C20.8739 129.323 21.1569 129.606 21.1569 129.954Z" fill="#124559"/>
<path d="M26.0348 129.954C26.0348 130.303 25.7518 130.586 25.4026 130.586H22.6156C22.2663 130.586 21.9834 130.303 21.9834 129.954C21.9834 129.606 22.2663 129.323 22.6156 129.323H25.4026C25.7518 129.323 26.0348 129.606 26.0348 129.954Z" fill="#124559"/>
<path d="M22.2028 126.046V128.548C22.2028 128.896 21.9198 129.179 21.5706 129.179C21.2214 129.179 20.9385 128.896 20.9385 128.548V126.046C20.9385 125.697 21.2214 125.414 21.5706 125.414C21.9198 125.414 22.2028 125.697 22.2028 126.046Z" fill="#124559"/>
<path d="M22.2028 131.362V133.864C22.2028 134.213 21.9198 134.495 21.5706 134.495C21.2214 134.495 20.9385 134.213 20.9385 133.864V131.362C20.9385 131.013 21.2214 130.73 21.5706 130.73C21.9198 130.73 22.2028 131.013 22.2028 131.362Z" fill="#124559"/>
<path d="M76.9404 42.8461V55.3165C76.9404 56.965 78.279 58.3024 79.9289 58.3024H102.592L109.434 60.7553C110.136 61.0075 110.809 60.317 110.54 59.6232L107.951 52.9451V42.8461C107.951 41.1976 106.613 39.8602 104.962 39.8602H79.9289C78.279 39.8602 76.9404 41.1976 76.9404 42.8461Z" fill="#6D998F"/>
<path d="M98.7911 51.5964C99.9852 51.5964 100.953 50.6292 100.953 49.4362C100.953 48.2431 99.9852 47.2759 98.7911 47.2759C97.597 47.2759 96.6289 48.2431 96.6289 49.4362C96.6289 50.6292 97.597 51.5964 98.7911 51.5964Z" fill="#124559"/>
<path d="M91.9477 51.5957C93.1415 51.5957 94.1092 50.6288 94.1092 49.4361C94.1092 48.2434 93.1415 47.2765 91.9477 47.2765C90.7539 47.2765 89.7861 48.2434 89.7861 49.4361C89.7861 50.6288 90.7539 51.5957 91.9477 51.5957Z" fill="#124559"/>
<path d="M85.1036 51.5964C86.2977 51.5964 87.2658 50.6292 87.2658 49.4362C87.2658 48.2431 86.2977 47.2759 85.1036 47.2759C83.9095 47.2759 82.9414 48.2431 82.9414 49.4362C82.9414 50.6292 83.9095 51.5964 85.1036 51.5964Z" fill="#124559"/>
</g>
<defs>
<clipPath id="clip0_679_3445">
<rect width="310.606" height="250" fill="white"/>
</clipPath>
</defs>
</svg>
