<svg width="348" height="351" viewBox="0 0 348 351" fill="none" xmlns="http://www.w3.org/2000/svg">
<g opacity="0.8">
<path d="M329.281 239.565C296.975 316.746 210.917 359.984 136.288 348.321C124.144 346.423 90.852 340.769 61.3764 314.099C4.63381 262.756 -7.50104 161.09 38.2715 89.4439C71.5859 37.2982 131.305 7.73839 188.051 9.21701C200.273 9.53544 247.117 11.4983 288.284 45.9404C294.331 50.9992 307.667 63.0205 319.686 82.0913C347.91 126.873 350.336 189.264 329.281 239.565Z" fill="#F4F4F4"/>
<path d="M1.91725 225.162C7.43323 201.619 25.4705 183.138 48.433 177.485C64.2198 173.6 79.3659 175.685 92.1681 181.981C96.4142 184.07 101.46 181.706 102.636 177.03C113.953 132.054 153.782 98.8267 201.183 98.8267C257.389 98.8267 302.953 145.545 302.953 203.174C302.953 204.704 302.923 206.793 302.897 208.799C303.096 213.108 304.931 214.938 307.67 215.397C329.692 217.747 346.998 236.361 347.958 259.32C349.061 285.681 328.135 307.521 302.402 307.521H64.3689C23.6212 307.521 -8.28334 268.7 1.91725 225.162Z" fill="#124559"/>
<path d="M20.3525 233.986C25.2775 212.965 41.3825 196.463 61.885 191.416C75.9806 187.947 89.5041 189.809 100.935 195.431C104.726 197.295 109.231 195.185 110.282 191.01C120.386 150.852 155.948 121.185 198.27 121.185C248.455 121.185 289.138 162.898 289.138 214.353C289.138 215.719 289.111 217.585 289.088 219.375C289.265 223.223 290.904 224.857 293.35 225.267C313.012 227.365 328.464 243.985 329.322 264.484C330.306 288.021 311.622 307.521 288.646 307.521H76.1137C39.7312 307.521 11.2446 272.859 20.3525 233.986Z" fill="#598392"/>
<path d="M47.99 335.723C47.99 337.653 49.5699 339.231 51.5011 339.231H241.361C243.292 339.231 244.872 337.653 244.872 335.723L246.452 226.616C246.452 224.687 244.179 220.921 240.013 221.204L54.4614 216.403C52.0385 216.34 49.6959 217.273 47.9801 218.983C46.2644 220.693 45.3256 223.031 45.3828 225.452L47.99 335.723Z" fill="#124559"/>
<path d="M51.4563 332.358C51.4563 334.185 52.9511 335.68 54.7779 335.68H236.782C238.609 335.68 240.104 334.185 240.104 332.358L241.595 233.31C241.419 227.349 236.193 225.207 233.026 225.334L55.191 220.563C53.4889 220.517 51.843 221.173 50.6375 222.375C49.4319 223.578 48.7689 225.223 48.8115 226.926L51.4563 332.358Z" fill="#AEC3B0"/>
<path d="M238.137 285.304C238.135 285.304 238.132 285.304 238.132 285.304C237.861 285.3 237.646 285.079 237.65 284.81L237.768 276.777C237.772 276.511 237.989 276.297 238.255 276.297C238.257 276.297 238.26 276.297 238.26 276.297C238.531 276.301 238.746 276.522 238.742 276.792L238.624 284.824C238.62 285.09 238.403 285.304 238.137 285.304Z" fill="white"/>
<path d="M238.426 265.619C238.426 265.619 238.421 265.619 238.419 265.619C238.15 265.615 237.935 265.394 237.939 265.125L238.391 234.36C238.383 232.532 237.828 231.073 236.742 230.033C234.716 228.091 231.498 228.19 231.362 228.197L174.523 226.672C174.254 226.666 174.042 226.442 174.049 226.173C174.056 225.904 174.263 225.675 174.549 225.7L231.355 227.224C231.708 227.203 235.134 227.144 237.415 229.33C238.699 230.559 239.355 232.254 239.364 234.364L238.912 265.139C238.909 265.406 238.691 265.619 238.426 265.619Z" fill="white"/>
<path d="M33.2951 348.288H255.718C256.107 348.288 256.425 347.97 256.425 347.581V339.409C256.425 339.02 256.107 338.702 255.718 338.702H33.2951C32.9061 338.702 32.5879 339.02 32.5879 339.409V347.581C32.5879 347.97 32.9061 348.288 33.2951 348.288Z" fill="#124559"/>
<path d="M130.418 330.848H60.3419C57.7582 330.848 55.6636 328.753 55.6636 326.17V234.699C55.6636 232.045 57.8689 229.922 60.5208 230.024L130.597 232.705C133.109 232.802 135.096 234.866 135.096 237.38V326.17C135.096 328.753 133.002 330.848 130.418 330.848Z" fill="#598392"/>
<path opacity="0.51" d="M116.48 272.076H70.062C69.6937 272.076 69.395 271.777 69.395 271.409V266.574C69.395 266.206 69.6937 265.907 70.062 265.907H116.48C116.848 265.907 117.147 266.206 117.147 266.574V271.409C117.147 271.777 116.848 272.076 116.48 272.076Z" fill="white"/>
<path opacity="0.51" d="M116.574 281.927H70.1563C69.7879 281.927 69.4893 281.628 69.4893 281.26V276.425C69.4893 276.057 69.7879 275.758 70.1563 275.758H116.574C116.942 275.758 117.241 276.057 117.241 276.425V281.26C117.241 281.628 116.942 281.927 116.574 281.927Z" fill="white"/>
<path opacity="0.51" d="M116.853 291.985H70.4361C70.0677 291.985 69.769 291.686 69.769 291.318V286.483C69.769 286.114 70.0677 285.816 70.4361 285.816H116.853C117.222 285.816 117.52 286.114 117.52 286.483V291.318C117.521 291.686 117.222 291.985 116.853 291.985Z" fill="white"/>
<path opacity="0.51" d="M116.947 301.836H70.5293C70.1609 301.836 69.8623 301.537 69.8623 301.169V296.334C69.8623 295.966 70.161 295.667 70.5293 295.667H116.947C117.315 295.667 117.614 295.966 117.614 296.334V301.169C117.614 301.537 117.315 301.836 116.947 301.836Z" fill="white"/>
<path opacity="0.51" d="M218.278 272.069H150.959C150.591 272.069 150.292 271.77 150.292 271.402V266.567C150.292 266.198 150.591 265.9 150.959 265.9H218.278C218.647 265.9 218.945 266.198 218.945 266.567V271.402C218.945 271.77 218.646 272.069 218.278 272.069Z" fill="white"/>
<path opacity="0.51" d="M218.49 281.927H151.171C150.803 281.927 150.504 281.628 150.504 281.26V276.425C150.504 276.057 150.803 275.758 151.171 275.758H218.49C218.858 275.758 219.157 276.057 219.157 276.425V281.26C219.157 281.628 218.858 281.927 218.49 281.927Z" fill="white"/>
<path opacity="0.51" d="M190.518 291.985H151.171C150.803 291.985 150.504 291.686 150.504 291.318V286.483C150.504 286.114 150.803 285.816 151.171 285.816H190.518C190.886 285.816 191.185 286.114 191.185 286.483V291.318C191.185 291.686 190.886 291.985 190.518 291.985Z" fill="white"/>
<g opacity="0.51">
<path d="M186.736 242.908H185.691C185.171 242.908 184.75 242.487 184.75 241.968V238.394C184.75 237.114 183.713 236.077 182.434 236.077H175.954C174.675 236.077 173.638 237.114 173.638 238.394V241.968C173.638 242.487 173.217 242.908 172.697 242.908H171.652C171.132 242.908 170.711 242.487 170.711 241.968V238.394C170.711 235.498 173.059 233.151 175.954 233.151H182.434C185.329 233.151 187.677 235.498 187.677 238.394V241.968C187.677 242.487 187.256 242.908 186.736 242.908Z" fill="white"/>
<path d="M188.032 243.752H170.355C169.272 243.752 168.394 244.63 168.394 245.714V259.28C168.394 260.363 169.272 261.242 170.355 261.242H188.032C189.116 261.242 189.994 260.363 189.994 259.28V245.714C189.994 244.63 189.116 243.752 188.032 243.752ZM181.723 256.864C181.833 257.322 181.486 257.761 181.016 257.761H177.371C176.901 257.761 176.555 257.322 176.665 256.864L177.515 253.324C176.511 252.723 175.855 251.602 175.922 250.332C176.009 248.688 177.341 247.342 178.984 247.239C180.889 247.121 182.47 248.631 182.47 250.51C182.47 251.706 181.829 252.752 180.872 253.324L181.723 256.864Z" fill="white"/>
</g>
<path d="M238.193 84.5258C238.124 84.5258 238.054 84.509 237.989 84.4728C237.786 84.3598 237.712 84.1036 237.826 83.9005C238.097 83.4128 238.359 82.9218 238.614 82.4276C238.721 82.2213 238.974 82.1406 239.182 82.2466C239.388 82.3532 239.469 82.6072 239.363 82.8141C239.104 83.3158 238.837 83.8142 238.562 84.3092C238.485 84.4477 238.341 84.5258 238.193 84.5258Z" fill="#AEC3B0"/>
<path d="M188.936 113.518C188.687 113.518 188.439 113.516 188.19 113.513C187.958 113.51 187.772 113.319 187.775 113.086C187.778 112.856 187.966 112.671 188.196 112.671H188.202C189.291 112.686 190.391 112.668 191.478 112.618C191.695 112.604 191.907 112.787 191.918 113.02C191.928 113.252 191.748 113.449 191.516 113.46C190.661 113.498 189.793 113.518 188.936 113.518ZM182.842 113.189C182.827 113.189 182.812 113.189 182.796 113.187C181.696 113.068 180.588 112.915 179.501 112.733C179.272 112.694 179.117 112.477 179.156 112.248C179.194 112.019 179.412 111.862 179.64 111.902C180.711 112.082 181.803 112.233 182.887 112.35C183.118 112.375 183.285 112.583 183.26 112.814C183.237 113.03 183.054 113.189 182.842 113.189ZM196.838 112.964C196.631 112.964 196.451 112.812 196.422 112.602C196.389 112.371 196.549 112.158 196.78 112.126C197.857 111.974 198.944 111.788 200.01 111.574C200.236 111.528 200.46 111.675 200.506 111.903C200.552 112.131 200.404 112.353 200.176 112.399C199.094 112.617 197.991 112.806 196.897 112.96C196.877 112.962 196.857 112.964 196.838 112.964ZM174.33 111.603C174.294 111.603 174.257 111.598 174.221 111.588C173.154 111.303 172.082 110.983 171.034 110.636C170.813 110.564 170.693 110.325 170.767 110.104C170.839 109.884 171.076 109.765 171.299 109.837C172.331 110.178 173.387 110.494 174.438 110.775C174.663 110.835 174.796 111.066 174.736 111.29C174.686 111.478 174.516 111.603 174.33 111.603ZM205.296 111.099C205.115 111.099 204.948 110.982 204.893 110.8C204.825 110.577 204.951 110.342 205.174 110.275C206.217 109.959 207.262 109.608 208.281 109.233C208.498 109.152 208.741 109.264 208.822 109.482C208.902 109.701 208.79 109.942 208.572 110.023C207.538 110.404 206.477 110.76 205.418 111.081C205.377 111.093 205.336 111.099 205.296 111.099ZM166.16 108.731C166.103 108.731 166.046 108.72 165.991 108.695C164.978 108.249 163.968 107.768 162.988 107.265C162.781 107.159 162.7 106.905 162.806 106.698C162.913 106.492 163.166 106.41 163.373 106.516C164.338 107.011 165.333 107.485 166.33 107.925C166.543 108.019 166.639 108.267 166.546 108.48C166.476 108.637 166.322 108.731 166.16 108.731ZM213.365 107.954C213.208 107.954 213.058 107.867 212.985 107.716C212.884 107.507 212.972 107.255 213.182 107.154C214.162 106.682 215.141 106.174 216.092 105.644C216.297 105.532 216.552 105.604 216.665 105.808C216.778 106.011 216.705 106.267 216.502 106.38C215.536 106.918 214.542 107.434 213.547 107.913C213.489 107.941 213.426 107.954 213.365 107.954ZM158.533 104.637C158.455 104.637 158.376 104.615 158.306 104.57C157.376 103.974 156.453 103.342 155.561 102.693C155.373 102.557 155.331 102.293 155.468 102.105C155.606 101.917 155.869 101.876 156.057 102.012C156.935 102.652 157.845 103.274 158.761 103.861C158.956 103.987 159.013 104.247 158.888 104.443C158.807 104.569 158.672 104.637 158.533 104.637ZM220.853 103.602C220.719 103.602 220.588 103.539 220.506 103.42C220.374 103.229 220.422 102.966 220.613 102.834C221.509 102.216 222.399 101.564 223.257 100.894C223.44 100.751 223.705 100.784 223.848 100.967C223.991 101.151 223.959 101.416 223.775 101.559C222.904 102.238 222.001 102.9 221.092 103.528C221.019 103.578 220.935 103.602 220.853 103.602ZM151.63 99.4158C151.53 99.4158 151.431 99.3809 151.351 99.3101C150.526 98.5807 149.71 97.815 148.925 97.0342C148.76 96.8701 148.76 96.6037 148.924 96.4387C149.088 96.2742 149.354 96.273 149.519 96.4371C150.292 97.206 151.097 97.9606 151.909 98.6794C152.083 98.8336 152.099 99.0996 151.945 99.274C151.862 99.3678 151.746 99.4158 151.63 99.4158ZM227.59 98.1518C227.478 98.1518 227.366 98.1074 227.283 98.0199C227.124 97.8505 227.131 97.584 227.3 97.4244C228.093 96.6768 228.873 95.8976 229.618 95.1077C229.778 94.9391 230.045 94.9317 230.214 95.0904C230.383 95.2504 230.391 95.5168 230.231 95.6859C229.474 96.4873 228.683 97.2784 227.879 98.0371C227.797 98.1135 227.693 98.1518 227.59 98.1518ZM145.6 93.1989C145.479 93.1989 145.359 93.1471 145.276 93.0472C144.57 92.2001 143.879 91.3197 143.222 90.4308C143.084 90.2437 143.124 89.9802 143.311 89.8416C143.499 89.7034 143.762 89.7436 143.9 89.93C144.547 90.8063 145.228 91.6739 145.923 92.5086C146.072 92.6871 146.047 92.9528 145.869 93.1016C145.79 93.1668 145.695 93.1989 145.6 93.1989ZM233.417 91.7482C233.327 91.7482 233.236 91.7194 233.159 91.6594C232.976 91.5167 232.943 91.2519 233.085 91.0685C233.756 90.207 234.408 89.3176 235.022 88.4249C235.154 88.2333 235.417 88.1847 235.607 88.3163C235.799 88.4483 235.848 88.7107 235.716 88.9019C235.092 89.8086 234.431 90.7116 233.75 91.5858C233.667 91.6923 233.543 91.7482 233.417 91.7482ZM140.583 86.1398C140.44 86.1398 140.3 86.067 140.221 85.9354C139.651 84.9851 139.103 84.0089 138.593 83.034C138.486 82.828 138.565 82.5735 138.772 82.4656C138.977 82.3583 139.232 82.4377 139.34 82.6441C139.842 83.6043 140.381 84.5656 140.943 85.5019C141.063 85.7013 140.999 85.9599 140.799 86.0796C140.731 86.1204 140.656 86.1398 140.583 86.1398ZM136.712 78.3928C136.546 78.3928 136.388 78.2937 136.321 78.13C135.905 77.104 135.515 76.055 135.161 75.0123C135.087 74.7923 135.205 74.553 135.425 74.4786C135.644 74.4042 135.884 74.5221 135.959 74.7426C136.307 75.7693 136.691 76.8023 137.102 77.8134C137.189 78.0289 137.085 78.2744 136.87 78.362C136.818 78.3829 136.765 78.3928 136.712 78.3928Z" fill="#AEC3B0"/>
<path d="M134.078 70.1191C133.886 70.1191 133.714 69.9884 133.668 69.7943C133.539 69.2432 133.418 68.691 133.305 68.1376C133.258 67.9098 133.406 67.6873 133.634 67.6413C133.861 67.5953 134.084 67.7412 134.13 67.9699C134.241 68.5152 134.36 69.0591 134.488 69.6019C134.541 69.8286 134.4 70.0551 134.174 70.1081C134.142 70.1154 134.11 70.1191 134.078 70.1191Z" fill="#AEC3B0"/>
<path d="M141.216 27.1795C141.139 27.1795 141.062 27.1585 140.992 27.1145C140.795 26.9906 140.736 26.7304 140.86 26.5339C141.161 26.0569 141.469 25.5828 141.785 25.1128C141.915 24.9199 142.177 24.8678 142.37 24.9981C142.563 25.1281 142.614 25.3896 142.484 25.5824C142.173 26.0458 141.869 26.5126 141.573 26.983C141.493 27.11 141.356 27.1795 141.216 27.1795Z" fill="#AEC3B0"/>
<path d="M242.984 41.2852C242.802 41.2852 242.634 41.1663 242.58 40.9825C242.259 39.885 241.898 38.7833 241.509 37.7077C241.43 37.4893 241.543 37.2479 241.762 37.1686C241.98 37.0888 242.222 37.2028 242.301 37.4215C242.696 38.5129 243.062 39.6313 243.389 40.7457C243.454 40.969 243.326 41.203 243.103 41.2684C243.063 41.2798 243.024 41.2852 242.984 41.2852ZM239.721 32.7859C239.564 32.7859 239.414 32.6979 239.342 32.5474C238.845 31.5144 238.311 30.4856 237.753 29.4897C237.64 29.287 237.712 29.0305 237.915 28.9165C238.118 28.8039 238.375 28.8758 238.488 29.0785C239.054 30.0892 239.596 31.1337 240.101 32.1823C240.201 32.3921 240.113 32.6437 239.904 32.7444C239.845 32.7728 239.783 32.7859 239.721 32.7859ZM235.123 24.928C234.99 24.928 234.86 24.8654 234.778 24.7482C234.123 23.8128 233.429 22.8839 232.716 21.9879C232.571 21.8058 232.601 21.5409 232.783 21.3961C232.966 21.2506 233.23 21.2814 233.375 21.4632C234.098 22.3732 234.803 23.3156 235.468 24.2656C235.601 24.4559 235.555 24.7183 235.364 24.8519C235.291 24.9032 235.207 24.928 235.123 24.928ZM145.514 21.2529C145.419 21.2529 145.324 21.2213 145.245 21.1559C145.067 21.0074 145.042 20.7418 145.19 20.5629C145.929 19.673 146.708 18.791 147.505 17.9419C147.664 17.772 147.93 17.7638 148.1 17.923C148.27 18.0826 148.278 18.349 148.119 18.5185C147.333 19.3552 146.566 20.2241 145.838 21.1008C145.755 21.2012 145.635 21.2529 145.514 21.2529ZM229.32 17.912C229.21 17.912 229.101 17.8692 229.018 17.7842C228.225 16.9663 227.393 16.16 226.545 15.3873C226.373 15.2305 226.361 14.9641 226.518 14.7923C226.674 14.6196 226.941 14.6077 227.113 14.7648C227.973 15.5493 228.817 16.3676 229.622 17.1978C229.784 17.3648 229.78 17.6312 229.613 17.7933C229.532 17.8725 229.426 17.912 229.32 17.912ZM151.871 14.7362C151.754 14.7362 151.637 14.6873 151.554 14.5923C151.401 14.4171 151.419 14.151 151.594 13.9981C152.471 13.2329 153.38 12.4857 154.298 11.7771C154.484 11.6357 154.747 11.6698 154.889 11.8532C155.031 12.0374 154.997 12.3018 154.813 12.444C153.908 13.1418 153.012 13.8779 152.149 14.6321C152.069 14.7021 151.97 14.7362 151.871 14.7362ZM222.478 11.9121C222.391 11.9121 222.303 11.885 222.227 11.829C221.309 11.1469 220.359 10.4853 219.401 9.86189C219.206 9.7352 219.151 9.47417 219.278 9.27918C219.405 9.08469 219.664 9.02916 219.861 9.15623C220.832 9.7891 221.798 10.4605 222.73 11.153C222.916 11.2916 222.955 11.5556 222.816 11.7422C222.734 11.8533 222.606 11.9121 222.478 11.9121ZM159.188 9.3137C159.048 9.3137 158.91 9.24341 158.831 9.11508C158.708 8.91772 158.768 8.65819 158.966 8.53524C159.95 7.92213 160.968 7.33079 161.991 6.77859C162.197 6.66715 162.452 6.74482 162.562 6.94881C162.672 7.15356 162.596 7.40896 162.392 7.51952C161.384 8.06359 160.381 8.64581 159.41 9.24991C159.341 9.29319 159.264 9.3137 159.188 9.3137ZM214.755 7.09653C214.69 7.09653 214.625 7.08177 214.563 7.04962C213.548 6.52619 212.502 6.0274 211.455 5.56688C211.242 5.47358 211.145 5.22518 211.239 5.01218C211.332 4.79918 211.58 4.70175 211.793 4.79631C212.856 5.26345 213.918 5.76963 214.949 6.30131C215.155 6.40787 215.236 6.6619 215.13 6.86839C215.055 7.01348 214.908 7.09653 214.755 7.09653ZM167.284 5.14451C167.119 5.14451 166.962 5.04708 166.895 4.88498C166.806 4.67036 166.908 4.42396 167.122 4.33441C168.192 3.8899 169.292 3.47166 170.392 3.09256C170.613 3.01727 170.852 3.13333 170.928 3.35321C171.004 3.57322 170.887 3.81298 170.667 3.88865C169.583 4.26249 168.499 4.67411 167.445 5.11237C167.393 5.13425 167.338 5.14451 167.284 5.14451ZM206.355 3.5951C206.312 3.5951 206.268 3.58847 206.225 3.57459C205.138 3.22213 204.025 2.89895 202.917 2.61365C202.692 2.55562 202.556 2.32586 202.614 2.10085C202.672 1.87547 202.905 1.74027 203.127 1.7978C204.251 2.08772 205.381 2.41579 206.485 2.77362C206.706 2.84516 206.827 3.0828 206.755 3.30406C206.697 3.48204 206.532 3.5951 206.355 3.5951ZM175.947 2.34425C175.756 2.34425 175.583 2.21354 175.537 2.01981C175.484 1.79367 175.624 1.56667 175.85 1.51326C176.983 1.24635 178.136 1.01197 179.278 0.816728C179.512 0.779706 179.725 0.93142 179.764 1.16043C179.804 1.38994 179.649 1.60744 179.42 1.64646C178.295 1.83895 177.159 2.06996 176.043 2.33311C176.011 2.34062 175.979 2.34425 175.947 2.34425ZM197.498 1.49475C197.477 1.49475 197.455 1.49312 197.434 1.48975C196.303 1.31627 195.153 1.17594 194.014 1.07238C193.782 1.05137 193.611 0.846245 193.632 0.614735C193.654 0.383224 193.854 0.211749 194.09 0.233512C195.246 0.338823 196.414 0.481407 197.561 0.65751C197.791 0.692905 197.949 0.907531 197.914 1.13742C197.882 1.34591 197.702 1.49475 197.498 1.49475ZM184.948 0.978197C184.729 0.978197 184.544 0.808348 184.529 0.586718C184.512 0.354332 184.687 0.15334 184.919 0.13733C186.075 0.0559077 187.251 0.00988078 188.413 0H188.417C188.648 0 188.836 0.186234 188.838 0.417369C188.84 0.65013 188.653 0.840116 188.421 0.842118C187.275 0.851998 186.117 0.89715 184.978 0.976946C184.968 0.977822 184.958 0.978197 184.948 0.978197Z" fill="#AEC3B0"/>
<path d="M244.585 48.4538C244.381 48.4538 244.202 48.3054 244.169 48.0978C244.084 47.5479 243.99 46.999 243.887 46.4509C243.845 46.2223 243.995 46.0023 244.224 45.9595C244.451 45.92 244.672 46.0681 244.715 46.2963C244.819 46.8526 244.914 47.4098 245.001 47.9679C245.037 48.1978 244.88 48.4133 244.65 48.4491C244.628 48.4522 244.606 48.4538 244.585 48.4538Z" fill="#AEC3B0"/>
<path d="M232.182 55.4997C232.204 55.2122 232.042 54.9419 231.777 54.8269L224.229 51.5479C223.646 47.7491 222.453 44.0157 220.635 40.5029L224.8 33.4113C224.947 33.1625 224.919 32.8486 224.731 32.6293L218.314 25.1279C218.127 24.9087 217.821 24.8326 217.552 24.9383L209.901 27.9552C206.712 25.6154 203.209 23.8582 199.546 22.6938L197.476 14.7285C197.403 14.4493 197.161 14.247 196.874 14.2244L187.032 13.4576C186.744 13.4352 186.474 13.5978 186.359 13.8624L183.08 21.4108C179.281 21.9939 175.548 23.1871 172.035 25.0049L164.944 20.8393C164.695 20.6931 164.381 20.7209 164.162 20.9085L156.66 27.3256C156.441 27.5131 156.365 27.819 156.471 28.0874L159.487 35.7388C157.147 38.9276 155.39 42.4307 154.226 46.0936L146.261 48.1639C145.982 48.2366 145.779 48.4782 145.757 48.7658L144.99 58.6075C144.967 58.8952 145.13 59.1654 145.395 59.2803L152.943 62.5593C153.526 66.3582 154.719 70.0915 156.537 73.6043L152.371 80.6961C152.225 80.9447 152.253 81.2588 152.44 81.4779L158.858 88.9795C159.045 89.1987 159.351 89.2747 159.619 89.1689L167.271 86.152C170.46 88.4921 173.963 90.2492 177.626 91.4135L179.696 99.3786C179.768 99.6579 180.01 99.8603 180.298 99.8827L190.14 100.649C190.427 100.672 190.698 100.509 190.813 100.245L194.092 92.6965C197.891 92.1134 201.624 90.9202 205.137 89.1022L212.229 93.2681C212.477 93.414 212.791 93.3862 213.01 93.1988L220.512 86.7818C220.731 86.5943 220.807 86.2883 220.702 86.0199L217.685 78.3686C220.025 75.1797 221.782 71.6763 222.946 68.0138L230.911 65.9433C231.191 65.8708 231.393 65.6291 231.415 65.3413L232.182 55.4997Z" fill="#AEC3B0"/>
<path opacity="0.7" d="M188.566 66.4527C186.639 66.4531 184.762 65.8597 183.157 64.7241C178.928 61.731 177.922 55.8549 180.915 51.6253C182.365 49.5762 184.526 48.2148 187.001 47.7913C189.475 47.3691 191.965 47.9336 194.014 49.3831C196.063 50.8335 197.425 52.9943 197.848 55.468C198.272 57.9422 197.706 60.4333 196.256 62.4819C194.806 64.531 192.645 65.8924 190.171 66.3159C189.636 66.4074 189.099 66.4527 188.566 66.4527ZM188.603 48.9175C188.142 48.9175 187.677 48.957 187.214 49.0363C185.072 49.4026 183.201 50.5812 181.946 52.3547C179.355 56.0156 180.226 61.1022 183.887 63.6929C185.661 64.9482 187.816 65.4364 189.958 65.0708C192.1 64.7045 193.97 63.5259 195.225 61.7523C196.48 59.9788 196.97 57.8229 196.603 55.6813C196.237 53.5398 195.058 51.6692 193.285 50.4142C191.895 49.431 190.271 48.9175 188.603 48.9175Z" fill="white"/>
<path opacity="0.7" d="M188.416 81.5078C187.772 81.5078 187.126 81.4826 186.477 81.4321C179.966 80.925 174.041 77.9121 169.796 72.949C165.973 68.4805 163.923 62.9124 163.923 57.0942C163.923 56.4502 163.948 55.8038 163.999 55.155C164.506 48.6435 167.519 42.7194 172.482 38.4737C177.445 34.2285 183.764 32.1695 190.276 32.6769C196.788 33.184 202.712 36.1969 206.957 41.16C208.091 42.4849 209.083 43.9286 209.905 45.4505L208.794 46.0509C208.014 44.6075 207.073 43.2382 205.998 41.9813C201.971 37.2743 196.353 34.4172 190.178 33.936C184.003 33.459 178.01 35.4078 173.303 39.4334C168.597 43.4599 165.74 49.0782 165.258 55.2531C165.21 55.8683 165.187 56.4814 165.187 57.0921C165.187 62.6096 167.131 67.8903 170.756 72.1281C174.782 76.8348 180.4 79.6918 186.575 80.1728C192.755 80.6544 198.744 78.7016 203.45 74.6755C206.645 71.9427 209.035 68.4026 210.362 64.4383L211.56 64.8396C210.16 69.0207 207.639 72.754 204.271 75.6353C199.802 79.4579 194.234 81.5078 188.416 81.5078Z" fill="white"/>
<path d="M285.688 98.3482C285.615 98.3482 285.541 98.3293 285.474 98.2894C285.273 98.171 285.208 97.9127 285.326 97.7125C285.609 97.2347 285.879 96.7465 286.13 96.2614C286.236 96.0549 286.49 95.9743 286.697 96.0804C286.904 96.187 286.985 96.441 286.878 96.6479C286.62 97.1475 286.342 97.6499 286.051 98.1417C285.972 98.2747 285.832 98.3482 285.688 98.3482Z" fill="#AEC3B0"/>
<path d="M258.512 112.441C258.501 112.441 258.49 112.44 258.479 112.439C257.337 112.349 256.189 112.192 255.068 111.97C254.84 111.925 254.692 111.703 254.737 111.476C254.782 111.247 255.004 111.099 255.231 111.144C256.32 111.359 257.435 111.513 258.544 111.6C258.776 111.618 258.949 111.821 258.931 112.053C258.914 112.273 258.729 112.441 258.512 112.441ZM264.019 112.352C263.807 112.352 263.625 112.192 263.601 111.977C263.575 111.746 263.741 111.538 263.972 111.512C265.081 111.388 266.19 111.198 267.269 110.947C267.493 110.892 267.721 111.034 267.774 111.261C267.827 111.488 267.686 111.714 267.46 111.767C266.348 112.025 265.207 112.221 264.066 112.349C264.05 112.351 264.035 112.352 264.019 112.352ZM249.871 110.401C249.818 110.401 249.765 110.391 249.712 110.37C248.654 109.94 247.609 109.442 246.605 108.889C246.402 108.777 246.328 108.521 246.44 108.317C246.552 108.114 246.807 108.04 247.012 108.151C247.986 108.688 249.002 109.172 250.03 109.59C250.245 109.677 250.349 109.923 250.261 110.139C250.195 110.302 250.037 110.401 249.871 110.401ZM272.587 110.023C272.426 110.023 272.272 109.93 272.202 109.774C272.107 109.562 272.202 109.313 272.415 109.218C273.43 108.764 274.429 108.245 275.383 107.676C275.581 107.556 275.84 107.622 275.96 107.821C276.079 108.021 276.014 108.279 275.815 108.399C274.832 108.985 273.804 109.52 272.758 109.987C272.702 110.012 272.644 110.023 272.587 110.023ZM242.264 105.832C242.169 105.832 242.073 105.8 241.994 105.734C241.119 105.003 240.275 104.211 239.486 103.378C239.326 103.209 239.333 102.943 239.501 102.783C239.67 102.623 239.937 102.63 240.097 102.798C240.864 103.608 241.683 104.378 242.534 105.088C242.712 105.237 242.737 105.502 242.587 105.681C242.504 105.78 242.384 105.832 242.264 105.832ZM280.038 105.197C279.923 105.197 279.807 105.149 279.724 105.056C279.569 104.883 279.584 104.616 279.758 104.462L280.005 104.239C280.746 103.563 281.458 102.842 282.122 102.096C282.276 101.921 282.542 101.905 282.716 102.061C282.89 102.215 282.906 102.482 282.751 102.655C282.068 103.424 281.335 104.166 280.573 104.861L280.319 105.09C280.238 105.162 280.138 105.197 280.038 105.197ZM236.393 99.1733C236.255 99.1733 236.119 99.105 236.038 98.9792C235.421 98.0162 234.855 97.0058 234.355 95.9753C234.253 95.7661 234.341 95.5144 234.55 95.4128C234.76 95.3116 235.011 95.3988 235.112 95.6076C235.598 96.6081 236.148 97.5897 236.747 98.5251C236.873 98.7208 236.816 98.9811 236.62 99.1065C236.549 99.1519 236.471 99.1733 236.393 99.1733Z" fill="#AEC3B0"/>
<path d="M232.811 91.0315C232.625 91.0315 232.455 90.9069 232.404 90.7181C232.259 90.1708 232.129 89.6111 232.015 89.0557C231.969 88.8279 232.116 88.6058 232.344 88.5594C232.572 88.5129 232.795 88.6597 232.84 88.888C232.95 89.4274 233.078 89.9706 233.219 90.5028C233.278 90.7273 233.144 90.9579 232.919 91.0176C232.883 91.027 232.847 91.0315 232.811 91.0315Z" fill="#AEC3B0"/>
<path d="M236.28 68.1806C236.203 68.1806 236.126 68.1596 236.056 68.1155C235.859 67.9917 235.8 67.7319 235.924 67.5349C236.227 67.0547 236.547 66.5776 236.877 66.1167C237.012 65.928 237.275 65.884 237.464 66.0189C237.653 66.1543 237.697 66.417 237.562 66.6061C237.242 67.0539 236.93 67.5174 236.637 67.9841C236.557 68.111 236.42 68.1806 236.28 68.1806Z" fill="#AEC3B0"/>
<path d="M287.43 72.2754C287.266 72.2754 287.11 72.1792 287.042 72.0187C286.615 71.0129 286.124 70.0211 285.582 69.0709C285.467 68.869 285.538 68.6116 285.74 68.4964C285.942 68.3812 286.199 68.452 286.314 68.6539C286.872 69.6326 287.378 70.6539 287.818 71.6898C287.908 71.9037 287.809 72.1512 287.594 72.242C287.541 72.2646 287.485 72.2754 287.43 72.2754ZM282.835 64.8465C282.717 64.8465 282.598 64.7964 282.515 64.6986C282.3 64.446 282.08 64.1965 281.855 63.9494C281.341 63.3864 280.799 62.8375 280.243 62.3177C280.073 62.1586 280.064 61.892 280.223 61.7223C280.382 61.5521 280.648 61.5435 280.818 61.7026C281.39 62.2375 281.948 62.8026 282.476 63.3819C282.708 63.6356 282.935 63.8926 283.156 64.1525C283.306 64.3297 283.285 64.5954 283.108 64.7462C283.029 64.8136 282.932 64.8465 282.835 64.8465ZM240.771 62.6869C240.66 62.6869 240.549 62.6432 240.466 62.5566C240.306 62.388 240.312 62.1216 240.48 61.9611C240.651 61.7986 240.823 61.6375 240.997 61.4779C241.655 60.8776 242.348 60.3006 243.056 59.7632C243.241 59.6221 243.505 59.6579 243.645 59.8437C243.787 60.0287 243.75 60.2927 243.565 60.4334C242.877 60.9561 242.204 61.5166 241.565 62.0997C241.395 62.2551 241.227 62.4122 241.061 62.5704C240.979 62.6482 240.875 62.6869 240.771 62.6869ZM276.243 59.1161C276.166 59.1161 276.088 59.095 276.018 59.051C275.094 58.4667 274.126 57.9309 273.142 57.458C272.932 57.3573 272.844 57.106 272.945 56.8963C273.045 56.6865 273.295 56.5969 273.506 56.6989C274.52 57.1858 275.517 57.7376 276.468 58.3387C276.665 58.4633 276.724 58.7232 276.599 58.9198C276.519 59.0465 276.383 59.1161 276.243 59.1161ZM247.915 57.6616C247.76 57.6616 247.611 57.576 247.538 57.4281C247.434 57.2196 247.519 56.967 247.727 56.8635C248.734 56.3634 249.782 55.9164 250.843 55.5341C251.063 55.4559 251.303 55.569 251.382 55.7879C251.461 56.0066 251.348 56.248 251.129 56.3265C250.098 56.6979 249.079 57.1321 248.102 57.6177C248.042 57.6477 247.978 57.6616 247.915 57.6616ZM268.241 55.6233C268.206 55.6233 268.169 55.6188 268.133 55.6093C267.077 55.3288 265.992 55.1067 264.91 54.9492C264.68 54.916 264.52 54.7021 264.554 54.4722C264.587 54.2416 264.8 54.0766 265.031 54.1161C266.145 54.2781 267.261 54.5064 268.349 54.795C268.574 54.8547 268.708 55.0853 268.648 55.3102C268.598 55.4987 268.428 55.6233 268.241 55.6233ZM256.236 55.0073C256.032 55.0073 255.853 54.8592 255.82 54.6519C255.784 54.4221 255.94 54.2066 256.17 54.1704C257.279 53.9948 258.413 53.8817 259.54 53.8341C259.773 53.8292 259.969 54.0043 259.979 54.2371C259.989 54.4695 259.808 54.6656 259.576 54.6755C258.481 54.7215 257.379 54.8317 256.302 55.0019C256.279 55.0056 256.257 55.0073 256.236 55.0073Z" fill="#AEC3B0"/>
<path d="M289.379 79.1082C289.175 79.1082 288.996 78.9597 288.963 78.7521C288.878 78.208 288.776 77.6596 288.66 77.1212C288.611 76.8939 288.756 76.6697 288.983 76.6208C289.214 76.5719 289.435 76.7166 289.484 76.9436C289.603 77.4976 289.708 78.0625 289.795 78.6221C289.831 78.852 289.674 79.0674 289.444 79.1033C289.422 79.1065 289.4 79.1082 289.379 79.1082Z" fill="#AEC3B0"/>
<path d="M283.008 82.5227C283.02 82.375 282.936 82.2362 282.8 82.1772L278.923 80.4928C278.623 78.5414 278.01 76.6236 277.076 74.8192L279.216 71.1763C279.291 71.0486 279.277 70.8873 279.181 70.7746L275.884 66.9212C275.788 66.8087 275.631 66.7696 275.493 66.8239L271.563 68.3737C269.925 67.1717 268.125 66.2691 266.244 65.671L265.18 61.5793C265.143 61.436 265.019 61.3321 264.871 61.3206L259.815 60.9266C259.668 60.9151 259.529 60.9985 259.47 61.1345L257.786 65.0119C255.834 65.3114 253.916 65.9243 252.112 66.8582L248.469 64.7183C248.341 64.6431 248.18 64.6575 248.067 64.7538L244.214 68.0503C244.101 68.1466 244.062 68.3037 244.117 68.4416L245.666 72.3719C244.464 74.01 243.562 75.8095 242.964 77.691L238.872 78.7545C238.729 78.7918 238.625 78.916 238.613 79.0637L238.219 84.1193C238.208 84.267 238.291 84.4058 238.427 84.4649L242.305 86.1492C242.604 88.1006 243.217 90.0184 244.151 91.8228L242.011 95.4657C241.936 95.5934 241.95 95.7547 242.046 95.8673L245.343 99.7208C245.439 99.8334 245.596 99.8724 245.734 99.8181L249.665 98.2683C251.302 99.4704 253.102 100.373 254.984 100.971L256.047 105.063C256.084 105.206 256.208 105.31 256.356 105.322L261.412 105.715C261.559 105.727 261.698 105.644 261.757 105.508L263.442 101.63C265.393 101.33 267.311 100.718 269.115 99.7837L272.758 101.924C272.886 101.998 273.047 101.984 273.16 101.888L277.013 98.5918C277.126 98.4954 277.165 98.3382 277.111 98.2004L275.561 94.2701C276.763 92.632 277.665 90.8325 278.263 88.951L282.355 87.8875C282.498 87.8502 282.602 87.7261 282.614 87.5783L283.008 82.5227Z" fill="#AEC3B0"/>
<path opacity="0.7" d="M260.603 88.4566C259.55 88.4566 258.525 88.1325 257.648 87.512C255.337 85.8767 254.788 82.666 256.423 80.3551C257.215 79.2354 258.396 78.4915 259.748 78.2605C261.1 78.029 262.461 78.3381 263.58 79.1301C264.699 79.9224 265.443 81.103 265.674 82.4547C265.906 83.8067 265.597 85.1678 264.805 86.287C264.012 87.4067 262.832 88.1506 261.48 88.3816C261.187 88.4319 260.894 88.4566 260.603 88.4566ZM260.619 79.4512C259.404 79.4512 258.208 80.0199 257.454 81.0845C256.221 82.8271 256.635 85.2479 258.378 86.4806C259.222 87.0781 260.25 87.3113 261.267 87.1365C262.286 86.9622 263.176 86.4014 263.773 85.5575C264.371 84.7132 264.604 83.6869 264.429 82.6679C264.255 81.6486 263.694 80.7583 262.85 80.1612C262.172 79.6814 261.392 79.4512 260.619 79.4512Z" fill="white"/>
<path opacity="0.7" d="M260.527 96.1901C260.188 96.1901 259.847 96.177 259.506 96.1502C256.079 95.8833 252.962 94.2978 250.728 91.6857C248.657 89.2654 247.644 86.2907 247.644 83.3301C247.644 79.6971 249.17 76.0847 252.141 73.5435C257.533 68.9307 265.672 69.565 270.284 74.9572C270.32 74.9991 270.356 75.0419 270.391 75.0843C270.891 75.6846 271.336 76.3286 271.717 77.0034C271.719 77.0063 271.721 77.0088 271.722 77.0113C271.728 77.0215 271.734 77.0314 271.739 77.0413C271.749 77.0589 271.759 77.0767 271.769 77.0939C271.774 77.1038 271.779 77.1137 271.785 77.1231C271.801 77.1535 271.818 77.1844 271.834 77.2148L270.723 77.8151C270.333 77.0931 269.862 76.408 269.324 75.778C266.379 72.3354 261.839 71.0446 257.714 72.0591C256.013 72.4777 254.382 73.289 252.962 74.5033C250.283 76.7954 248.907 80.0529 248.906 83.3293C248.906 85.9993 249.82 88.682 251.687 90.865C255.847 95.7266 263.187 96.2994 268.049 92.1397C269.647 90.7724 270.843 89.001 271.507 87.017L272.706 87.4184C271.969 89.6191 270.643 91.5834 268.87 93.0995C266.519 95.1111 263.588 96.1901 260.527 96.1901Z" fill="white"/>
<path d="M178.532 141.365C179.57 140.393 180.974 139.91 182.391 140.037C197.547 141.4 225.823 134.1 244.303 115.191C245.587 113.878 247.926 114.62 249.397 115.719C269.949 131.08 304.018 134.261 315.845 134.912C318.291 135.046 320.276 136.944 320.529 139.381C331.284 243.26 263.649 280.902 249.622 287.546C248.088 288.273 246.283 288.167 244.843 287.27C174.93 243.723 177.921 187.091 176.954 145.129C176.921 143.707 177.494 142.338 178.532 141.365Z" fill="url(#paint0_linear_384_4355)"/>
<path opacity="0.61" d="M247.73 280.001C247.417 280.001 247.105 279.913 246.833 279.74C220.031 262.606 202.561 242.122 193.428 217.119C185.27 194.787 184.871 172.048 184.519 151.985L184.471 149.31C184.463 148.864 184.63 148.443 184.943 148.125C185.258 147.804 185.681 147.627 186.132 147.627H186.133C202.732 147.627 227.646 140.298 245.919 123.924C246.48 123.421 247.31 123.361 247.94 123.778C268.018 137.1 296.657 140.98 311.942 142.106C312.755 142.166 313.397 142.8 313.469 143.614C317.021 184.146 308.591 218.42 288.411 245.485C273.34 265.698 255.468 276.229 248.484 279.82C248.248 279.941 247.989 280.001 247.73 280.001ZM248.173 279.214C255.115 275.646 272.88 265.177 287.866 245.078C307.942 218.151 316.328 184.034 312.791 143.673C312.749 143.194 312.371 142.82 311.892 142.785C296.541 141.653 267.77 137.753 247.564 124.345C247.193 124.099 246.704 124.135 246.373 124.431C227.966 140.925 202.862 148.308 186.147 148.308H186.147C185.865 148.308 185.615 148.412 185.428 148.602C185.245 148.788 185.147 149.036 185.152 149.298L185.2 151.973C185.551 171.982 185.949 194.661 194.067 216.886C203.148 241.744 220.527 262.116 247.2 279.166C247.492 279.353 247.865 279.372 248.173 279.214Z" fill="white"/>
<path opacity="0.61" d="M272.169 180.578H269.007C267.437 180.578 266.165 179.306 266.165 177.736V166.93C266.165 163.062 263.029 159.926 259.161 159.926H239.571C235.703 159.926 232.567 163.062 232.567 166.93V177.736C232.567 179.306 231.295 180.578 229.725 180.578H226.563C224.993 180.578 223.721 179.306 223.721 177.736V166.93C223.721 158.176 230.817 151.08 239.571 151.08H259.161C267.915 151.08 275.011 158.176 275.011 166.93V177.736C275.011 179.306 273.738 180.578 272.169 180.578Z" fill="white"/>
<path opacity="0.61" d="M276.087 183.129H222.645C219.37 183.129 216.715 185.784 216.715 189.059V230.074C216.715 233.348 219.37 236.003 222.645 236.003H276.087C279.362 236.003 282.017 233.348 282.017 230.074V189.059C282.017 185.784 279.362 183.129 276.087 183.129ZM257.012 222.77C257.344 224.152 256.297 225.48 254.876 225.48H243.856C242.435 225.48 241.388 224.152 241.72 222.77L244.291 212.066C241.256 210.251 239.271 206.859 239.474 203.021C239.737 198.05 243.765 193.98 248.733 193.672C254.491 193.314 259.272 197.878 259.272 203.558C259.272 207.174 257.334 210.336 254.441 212.066L257.012 222.77Z" fill="white"/>
<path d="M44.5112 169.721C44.5112 169.721 48.8396 169.95 49.3704 178.855C49.3704 178.855 39.3335 187.852 25.7757 189.994C24.7579 190.155 27.1987 183.046 27.5655 182.083C29.3115 177.501 34.8099 174.55 44.5112 169.721Z" fill="#598392"/>
<path d="M93.2579 159.25H84.1239C84.1239 159.25 56.0891 128.288 37.7019 125.165C37.7019 125.165 24.9025 141.503 38.3835 172.03C39.468 174.486 42.501 175.577 44.7635 174.132C45.4401 173.7 45.926 173.12 46.2212 172.394L45.1372 146.329C45.1372 146.329 69.0509 167.244 73.2076 171.28C77.3642 175.317 98.4927 172.856 93.2579 159.25Z" fill="#AEC3B0"/>
<path d="M4.95146 224.256C8.77908 220.902 14.8778 217.139 23.682 216.06L26.6595 217.881C26.6595 217.881 24.7608 220.681 21.2923 223.64C18.1045 225.491 13.182 227.999 9.10102 228.542C5.13332 229.071 4.54823 226.673 4.95146 224.256Z" fill="#598392"/>
<path d="M27.565 182.083C29.9231 182.846 30.9603 186.187 36.9438 183.978C42.7327 181.84 47.0362 179.084 49.2502 177.494C49.2996 177.925 49.3413 178.375 49.3699 178.855C49.3699 178.855 38.7871 188.921 25.2293 191.062C24.2115 191.223 23.4047 190.207 23.7718 189.244C24.43 187.516 25.6169 184.896 27.565 182.083Z" fill="#899F8B"/>
<path d="M2.06786 227.12C2.82242 226.263 3.78549 225.278 4.95142 224.256C4.54818 226.673 5.1334 229.071 9.1011 228.542C13.182 227.999 18.1045 225.491 21.2924 223.639C17.2969 227.047 11.2177 230.664 3.54485 230.451C1.84047 230.404 0.941574 228.4 2.06786 227.12Z" fill="#899F8B"/>
<path d="M92.9237 165.859L50.1498 166.322C50.1498 166.322 25.7226 186.532 21.292 217.349C21.292 217.349 20.5566 219.615 24.972 220.003C24.972 220.003 39.7404 210.358 49.3701 193.304C61.1775 172.394 84.5694 181.807 84.5694 181.807C95.8075 184.287 104.752 183.364 111.298 173.291L92.9237 165.859Z" fill="#AEC3B0"/>
<path d="M91.9137 131.403C91.9137 131.403 87.3089 154.48 64.7473 163.609L56.7219 162.663L54.8281 165.683L73.6533 166.282C73.6533 166.282 89.7448 159.909 98.2705 142.542C98.5523 141.968 103.247 132.274 91.9137 131.403Z" fill="url(#paint1_linear_384_4355)"/>
<path d="M89.4459 165.482C89.4459 165.482 94.6821 151.248 95.8075 137.418C95.8075 137.418 91.9768 134.125 89.5824 132.705C88.807 132.245 88.5144 131.272 88.9062 130.46C90.6666 126.814 101.312 112.494 102.11 112.295C106.444 111.214 124.221 102.761 136.741 119.887C142.114 127.236 135.675 149.861 111.298 173.291C103.454 174.568 96.1204 172.308 89.4459 165.482Z" fill="url(#paint2_linear_384_4355)"/>
<path d="M109.623 140.537C109.623 140.537 95.0752 157.762 76.4753 160.281C76.4753 160.281 71.6683 155.898 68.0939 157.463C64.5194 159.027 59.6182 165.934 59.6182 165.934H83.5004C83.5004 165.934 106.082 165.138 117.366 151.445C116.458 146.653 113.739 143.791 109.623 140.537Z" fill="url(#paint3_linear_384_4355)"/>
<path d="M118.11 100.213L121.293 110.83C121.439 111.316 121.259 111.843 120.84 112.13C119.307 113.18 115.302 115.267 109.807 113.238C109.179 113.006 108.748 112.42 108.694 111.752L107.939 102.503L118.11 100.213Z" fill="url(#paint4_linear_384_4355)"/>
<path d="M99.4707 91.6155C99.4707 91.6155 101.036 102.621 105.263 106.005C109.491 109.39 117.728 106.841 120.51 98.5446L114.966 84.3589L99.4707 91.6155Z" fill="url(#paint5_linear_384_4355)"/>
<path d="M115.591 93.5383C115.269 93.642 114.933 93.4359 114.883 93.1018C114.73 92.0859 114.349 90.0753 113.578 88.7059C113.578 88.7059 113.981 87.2621 109.929 89.4432C105.876 91.6244 99.7896 94.8285 96.2059 92.9205C92.7121 91.0603 89.173 81.6984 98.4067 83.4329C98.758 83.499 99.0811 83.2191 99.0548 82.8625C98.9414 81.3238 99.0939 77.784 102.679 76.6478C106.033 75.5845 107.87 77.0989 108.626 78.0129C108.849 78.2818 109.262 78.2764 109.475 77.9993C110.479 76.6874 113.208 73.8951 117.226 75.6655C120.535 77.1237 121.05 79.1619 120.995 80.4321C120.977 80.8435 121.395 81.1225 121.769 80.9501C122.782 80.4833 124.412 80.2409 125.974 82.1973C128.133 84.902 125.048 87.2475 124.122 87.8625C123.971 87.9633 123.876 88.1303 123.875 88.3124C123.867 89.719 123.648 95.8547 120.572 99.3157C120.306 99.6154 119.814 99.5276 119.659 99.1579L117.291 93.5163C117.181 93.2543 116.889 93.1201 116.618 93.2073L115.591 93.5383Z" fill="#124559"/>
<path d="M115.541 94.6839C115.541 94.6839 116.987 88.7949 119.183 90.7069C121.38 92.6188 118.611 96.8273 116.095 97.6294L115.541 94.6839Z" fill="url(#paint6_linear_384_4355)"/>
<path d="M60.8205 167.271L50.0975 131.51C49.6601 130.051 48.364 129.016 46.8446 128.913L32.367 127.922C30.8954 127.821 29.8007 129.259 30.2894 130.651L42.2768 164.801C42.663 165.902 43.6507 166.679 44.8108 166.796L59.0673 168.38L60.8205 167.271Z" fill="#124559"/>
<path d="M41.2306 139.891C40.3257 140.339 40.2411 142.012 41.0416 143.629C41.8422 145.245 43.2247 146.191 44.1296 145.743C45.0345 145.295 45.1191 143.621 44.3185 142.005C43.518 140.389 42.1355 139.443 41.2306 139.891Z" fill="#91B3FA"/>
<path d="M59.067 168.379C59.0902 168.379 59.1135 168.379 59.1369 168.378L89.5145 166.842C90.2655 166.804 90.8434 166.165 90.8055 165.414C90.7676 164.663 90.1253 164.072 89.377 164.123L58.9993 165.658C58.2484 165.696 57.6704 166.336 57.7083 167.087C57.7452 167.814 58.3467 168.379 59.067 168.379Z" fill="#124559"/>
<path d="M95.8078 137.629C95.6919 137.629 95.5977 137.535 95.5973 137.419C95.5762 131.006 98.0437 122.519 98.0686 122.434C98.1013 122.323 98.2178 122.259 98.3299 122.291C98.4416 122.324 98.5055 122.441 98.4727 122.553C98.4479 122.637 95.9973 131.067 96.0183 137.417C96.0187 137.534 95.9248 137.628 95.8084 137.629H95.8078Z" fill="url(#paint7_linear_384_4355)"/>
<path d="M109.623 140.747C109.577 140.747 109.531 140.732 109.493 140.702C109.402 140.63 109.386 140.497 109.458 140.406C109.524 140.322 116.127 131.928 118.387 126.201C118.43 126.093 118.551 126.038 118.66 126.083C118.768 126.126 118.822 126.248 118.779 126.356C116.496 132.14 109.855 140.583 109.788 140.667C109.747 140.72 109.685 140.747 109.623 140.747Z" fill="url(#paint8_linear_384_4355)"/>
<path d="M118.983 153.654L117.782 151.955C117.715 151.86 117.737 151.728 117.832 151.661C117.927 151.594 118.058 151.617 118.126 151.712L119.13 153.132C128.499 149.024 134.3 137.816 134.357 137.702C134.41 137.599 134.537 137.557 134.641 137.611C134.744 137.663 134.785 137.79 134.732 137.894C134.674 138.009 128.742 149.475 119.14 153.587L118.983 153.654Z" fill="url(#paint9_linear_384_4355)"/>
</g>
<defs>
<linearGradient id="paint0_linear_384_4355" x1="400.851" y1="35.9122" x2="342.746" y2="92.754" gradientUnits="userSpaceOnUse">
<stop stop-color="#FF928E"/>
<stop offset="1" stop-color="#FE7062"/>
</linearGradient>
<linearGradient id="paint1_linear_384_4355" x1="67.2746" y1="138.812" x2="87.425" y2="162.774" gradientUnits="userSpaceOnUse">
<stop stop-color="#FEBBBA"/>
<stop offset="1" stop-color="#FF928E"/>
</linearGradient>
<linearGradient id="paint2_linear_384_4355" x1="167.187" y1="79.8316" x2="106.553" y2="142.992" gradientUnits="userSpaceOnUse">
<stop stop-color="#FF928E"/>
<stop offset="1" stop-color="#FE7062"/>
</linearGradient>
<linearGradient id="paint3_linear_384_4355" x1="90.771" y1="160.614" x2="50.4935" y2="105.513" gradientUnits="userSpaceOnUse">
<stop stop-color="#FEBBBA"/>
<stop offset="1" stop-color="#FF928E"/>
</linearGradient>
<linearGradient id="paint4_linear_384_4355" x1="115.41" y1="114.952" x2="113.926" y2="101.6" gradientUnits="userSpaceOnUse">
<stop stop-color="#FEBBBA"/>
<stop offset="1" stop-color="#FF928E"/>
</linearGradient>
<linearGradient id="paint5_linear_384_4355" x1="107.496" y1="103.305" x2="114.036" y2="81.7369" gradientUnits="userSpaceOnUse">
<stop stop-color="#FEBBBA"/>
<stop offset="1" stop-color="#FF928E"/>
</linearGradient>
<linearGradient id="paint6_linear_384_4355" x1="114.27" y1="105.358" x2="120.809" y2="83.7905" gradientUnits="userSpaceOnUse">
<stop stop-color="#FEBBBA"/>
<stop offset="1" stop-color="#FF928E"/>
</linearGradient>
<linearGradient id="paint7_linear_384_4355" x1="102.466" y1="45.8812" x2="92.9928" y2="191.775" gradientUnits="userSpaceOnUse">
<stop stop-color="#E1473D"/>
<stop offset="1" stop-color="#E9605A"/>
</linearGradient>
<linearGradient id="paint8_linear_384_4355" x1="119.714" y1="47.0008" x2="110.24" y2="192.895" gradientUnits="userSpaceOnUse">
<stop stop-color="#E1473D"/>
<stop offset="1" stop-color="#E9605A"/>
</linearGradient>
<linearGradient id="paint9_linear_384_4355" x1="132.547" y1="47.8343" x2="123.073" y2="193.728" gradientUnits="userSpaceOnUse">
<stop stop-color="#E1473D"/>
<stop offset="1" stop-color="#E9605A"/>
</linearGradient>
</defs>
</svg>
