<svg width="388" height="350" viewBox="0 0 388 350" fill="none" xmlns="http://www.w3.org/2000/svg">
<g opacity="0.8" clip-path="url(#clip0_348_2748)">
<path d="M271.539 322.497C298.38 319.423 318.3 292.561 326.823 274.877C335.07 257.764 365.795 275.306 355.73 283.482C345.665 291.657 331.045 270.582 337.528 252.473C342.274 239.216 364.222 225.943 360.29 210.082" stroke="#AEC3B0" stroke-width="2" stroke-miterlimit="10" stroke-linecap="round" stroke-dasharray="6 6"/>
<path d="M22.95 179.335C35.2172 154.759 43.7091 106.723 37.1039 89.8637C30.4986 73.0043 6.97703 71.217 9.35688 88.8356C11.8728 107.462 49.2654 101.305 54.6651 84.9528C60.0647 68.6011 85.4622 34.3627 139.759 29.7853" stroke="#AEC3B0" stroke-width="2" stroke-miterlimit="10" stroke-linecap="round" stroke-dasharray="6 6"/>
<path d="M160.763 309.736C135.869 304.241 94.7685 317.009 48.9514 308.573C3.13438 300.138 -7.34988 253.956 6.90868 225.477" stroke="#AEC3B0" stroke-width="2" stroke-miterlimit="10" stroke-linecap="round" stroke-dasharray="6 6"/>
<path d="M236.349 47.9039C250.989 66.4 339.059 61.8168 370.513 95.2384C401.967 128.66 379.95 179.568 373.658 187.76" stroke="#AEC3B0" stroke-width="2" stroke-miterlimit="10" stroke-linecap="round" stroke-dasharray="6 6"/>
<path d="M167.353 15.7824C232.247 10.7736 236.314 60.6624 285.349 89.5282C306.728 102.113 381.977 100.307 381.896 166.847C381.831 220.13 319.593 235.816 312.217 257.09C304.84 278.363 307.141 337.275 249.058 347.975C172.416 362.094 154.312 297.922 108.032 294.184C61.752 290.446 10.2192 286.217 1.98078 227.88C-6.73034 166.201 65.997 140.481 76.8717 108.61C87.7464 76.7383 94.2715 21.4221 167.353 15.7824Z" fill="#F4F4F4"/>
<path opacity="0.74" d="M194.205 282.533C249.348 282.533 294.051 237.843 294.051 182.716C294.051 127.589 249.348 82.8994 194.205 82.8994C139.061 82.8994 94.3584 127.589 94.3584 182.716C94.3584 237.843 139.061 282.533 194.205 282.533Z" fill="#124559"/>
<path d="M345.646 22.3202H207.371V102.743H345.646V22.3202Z" fill="#01161E"/>
<path d="M343.322 24.6445H209.696V100.419H343.322V24.6445Z" fill="white"/>
<path d="M310.93 35.201H240.275C239.059 35.201 238.073 36.1862 238.073 37.4022V89.8638H313.132V37.4022C313.132 36.1862 312.146 35.201 310.93 35.201Z" fill="#01161E"/>
<path d="M309.517 41.5549H241.686C240.47 41.5549 239.484 42.54 239.484 43.756V88.8356H311.719V43.756C311.719 42.54 310.733 41.5549 309.517 41.5549Z" fill="white"/>
<path d="M319.583 46.0951L313.133 89.8687H238.069L232.241 50.3319C232.052 49.0533 233.043 47.9048 234.337 47.9048H288.916C290.086 47.9048 291.035 46.9569 291.035 45.7869C291.035 44.6169 291.983 43.6689 293.153 43.6689H317.488C318.78 43.6689 319.771 44.8165 319.583 46.0951Z" fill="#01161E"/>
<path d="M280.066 112.1V102.744H272.952V112.1L252.187 116.639V118.334H272.952H280.066H300.831V116.639L280.066 112.1Z" fill="#01161E"/>
<path d="M332.102 187.76L329.063 173.01L318.871 123.634L342.889 173.303L332.102 187.76Z" fill="#AEC3B0"/>
<path d="M318.865 123.64L362.276 162.236L349.407 169.845L318.865 123.64Z" fill="#AEC3B0"/>
<path d="M349.407 169.845L341.489 170.395L318.865 123.64L349.407 169.845Z" fill="#124559"/>
<path d="M329.063 173.01L323.827 172.906L318.871 123.634L329.063 173.01Z" fill="#124559"/>
<path d="M330.458 234.674L331.38 225.477L334.455 194.688L339.426 228.181L330.458 234.674Z" fill="#AEC3B0"/>
<path d="M334.451 194.691L352.809 225.247L343.877 227.349L334.451 194.691Z" fill="#AEC3B0"/>
<path d="M343.877 227.349L339.138 226.221L334.451 194.691L343.877 227.349Z" fill="#124559"/>
<path d="M331.38 225.477L328.332 224.459L334.455 194.688L331.38 225.477Z" fill="#124559"/>
<path d="M305.95 255.657L310.325 251.485L324.969 237.516L313.166 256.253L305.95 255.657Z" fill="#AEC3B0"/>
<path d="M324.965 237.515L321.057 260.495L315.729 257.735L324.965 237.515Z" fill="#AEC3B0"/>
<path d="M315.729 257.735L313.858 255.158L324.965 237.515L315.729 257.735Z" fill="#124559"/>
<path d="M310.325 251.485L309.247 249.681L324.969 237.516L310.325 251.485Z" fill="#124559"/>
<path d="M316.907 270.388H209.731V332.723H316.907V270.388Z" fill="#01161E"/>
<path d="M315.107 272.189H211.534V330.921H315.107V272.189Z" fill="white"/>
<path d="M266.077 339.975V332.722H260.563V339.975L244.467 343.493V344.806H260.563H266.077H282.172V343.493L266.077 339.975Z" fill="#01161E"/>
<path d="M229.54 289.413H237.289C237.289 293.663 233.791 297.16 229.54 297.16C225.289 297.16 221.791 293.663 221.791 289.413C221.791 285.163 225.289 281.666 229.54 281.666C231.938 281.666 234.205 282.778 235.671 284.674L229.54 289.413Z" fill="#01161E"/>
<path d="M291.171 283.482H251.578V284.813H291.171V283.482Z" fill="#AEC3B0"/>
<path d="M283.831 286.508H251.578V287.84H283.831V286.508Z" fill="#AEC3B0"/>
<path d="M291.171 289.534H251.578V290.866H291.171V289.534Z" fill="#AEC3B0"/>
<path d="M286.555 292.561H251.578V293.892H286.555V292.561Z" fill="#AEC3B0"/>
<path d="M260.296 309.736H220.702V311.068H260.296V309.736Z" fill="#AEC3B0"/>
<path d="M258.722 312.762H220.702V314.094H258.722V312.762Z" fill="#AEC3B0"/>
<path d="M260.296 315.788H220.702V317.119H260.296V315.788Z" fill="#AEC3B0"/>
<path d="M255.68 318.815H220.702V320.146H255.68V318.815Z" fill="#AEC3B0"/>
<path d="M285.117 307.933H271.375V323.186H285.117V307.933Z" fill="#124559"/>
<path d="M304.248 307.933H290.505V323.186H304.248V307.933Z" fill="#AEC3B0"/>
<path d="M110.803 203.92L83.4582 240.431C82.5129 241.694 80.7221 241.951 79.4588 241.005L11.5107 190.145C10.2474 189.2 9.99004 187.41 10.9363 186.147L38.2811 149.636C39.2264 148.373 41.0172 148.116 42.2805 149.062L110.229 199.922C111.492 200.867 111.749 202.657 110.803 203.92Z" fill="#01161E"/>
<path d="M42.7992 151.599L14.1001 189.921L75.8316 236.123L104.531 197.801L42.7992 151.599Z" fill="white"/>
<path d="M93.5913 221.899C94.9018 221.899 95.9643 220.837 95.9643 219.526C95.9643 218.216 94.9018 217.154 93.5913 217.154C92.2807 217.154 91.2183 218.216 91.2183 219.526C91.2183 220.837 92.2807 221.899 93.5913 221.899Z" fill="#598392"/>
<path d="M66.0231 182.056L65.4507 182.82C60.7125 179.274 53.9957 180.238 50.4474 184.975C48.1243 188.077 47.7368 192.028 49.0765 195.382C48.9395 195.528 48.8084 195.683 48.6851 195.847C46.8278 198.327 47.3337 201.842 49.8133 203.698L49.8163 203.7C48.1009 206.064 48.5931 209.375 50.9397 211.131C53.3087 212.904 56.6672 212.421 58.4413 210.053L74.6012 188.477C76.3753 186.109 75.8919 182.751 73.5228 180.978C71.1557 179.205 67.7973 179.687 66.0231 182.056Z" fill="#F4F4F4"/>
<path d="M66.5222 199.265L57.5605 199.693L64.4095 190.547L66.5222 199.265Z" fill="#AEC3B0"/>
<path d="M58.9616 190.905L56.3667 194.37L60.7745 197.669L63.3694 194.205L58.9616 190.905Z" fill="#AEC3B0"/>
<path d="M77.5632 131.213C89.2227 115.904 90.0926 81.1102 90.0926 81.1102C90.0926 81.1102 80.8697 83.7202 71.9942 82.6764C63.1187 81.6326 54.4183 84.2417 54.4183 84.2417C54.4183 84.2417 55.6366 116.774 50.416 133.301C50.416 133.301 55.2452 130.865 60.9874 130.604C66.7295 130.343 77.5632 131.213 77.5632 131.213Z" fill="#AEC3B0"/>
<path d="M83.7987 89.4138C83.788 89.7552 83.7655 90.1298 83.7547 90.5476C79.9657 91.3517 73.0366 91.8692 68.1457 91.3517C63.6737 90.889 59.6861 92.1999 57.7583 93.003C57.7583 92.6068 57.7476 92.2106 57.7368 91.8134C59.8847 90.9653 63.8058 89.7875 68.2563 90.2609C73.1687 90.7794 80.1849 90.2394 83.7987 89.4138Z" fill="#124559"/>
<path d="M83.4452 95.2384C83.4237 95.6013 83.3904 95.9868 83.3571 96.3722C79.5349 97.1979 73.3876 97.6166 67.528 96.7469C63.6284 96.1746 59.5312 97.7046 57.6367 98.5635C57.6582 98.1566 57.67 97.7486 57.6915 97.3407C59.8502 96.4045 63.7938 95.0829 67.6934 95.6561C73.5872 96.5385 79.7668 96.0758 83.4452 95.2384Z" fill="#124559"/>
<path d="M82.9058 100.866C82.8726 101.252 82.8178 101.637 82.7737 102.023C79.7774 102.563 76.7595 102.375 73.5978 102.166C71.5712 102.033 69.4888 101.891 67.3301 101.945C63.1439 102.056 58.9478 103.608 57.2402 104.313C57.2735 103.906 57.3068 103.498 57.3508 103.079C59.3559 102.275 63.277 100.943 67.2979 100.844C69.5123 100.789 71.627 100.932 73.6643 101.064C76.8691 101.273 79.931 101.472 82.9058 100.866Z" fill="#124559"/>
<path d="M82.0909 106.648C82.0254 107.023 81.9588 107.386 81.8923 107.749C80.7248 107.728 79.3588 107.672 77.8381 107.617C74.7204 107.507 70.8326 107.364 66.7011 107.419C62.8124 107.474 58.6926 108.883 56.6553 109.665C56.7101 109.269 56.7659 108.85 56.8099 108.421C59.0459 107.584 62.9239 106.372 66.6904 106.317C70.8434 106.262 74.7429 106.405 77.8821 106.516C79.4801 106.581 80.901 106.636 82.0909 106.648Z" fill="#124559"/>
<path d="M80.956 111.978C80.8679 112.352 80.7691 112.715 80.6692 113.067C77.7942 112.925 71.7693 112.659 67.3844 112.748C63.2421 112.826 58.1096 114.521 55.8511 115.336C55.9059 114.961 55.9724 114.543 56.038 114.092C58.5607 113.199 63.3302 111.713 67.3618 111.647C71.9014 111.559 78.169 111.834 80.956 111.978Z" fill="#124559"/>
<path d="M181.467 49.2891C171.378 38.8471 164.722 42.8511 164.722 42.8511C165.299 40.3291 166.041 37.8844 166.902 35.5307C173.653 27.4062 181.473 22.0433 188.959 18.501C180.332 32.6869 181.44 48.8724 181.467 49.2891Z" fill="#124559"/>
<path d="M218.597 11.6394C218.597 11.6394 204.509 11.1327 188.965 18.4893L188.955 18.5C181.476 22.0463 173.654 27.4091 166.902 35.5248C169.149 29.4244 172.245 23.9294 175.527 19.1721C175.747 18.8415 175.978 18.5108 176.21 18.1919C177.377 16.5396 178.556 14.9978 179.724 13.5559C179.988 13.237 180.252 12.9171 180.506 12.6089C181.828 11.0231 183.117 9.58018 184.339 8.27028H184.35C184.658 7.93963 184.955 7.62071 185.264 7.30082C186.442 6.07896 187.554 4.98819 188.535 4.05199C188.898 3.71057 189.251 3.39166 189.581 3.09426C191.786 1.07903 193.196 0 193.196 0C205.203 0.054783 218.597 11.6394 218.597 11.6394Z" fill="#AEC3B0"/>
<path d="M203.738 8.8533C203.308 8.91983 202.824 8.99613 202.317 9.08418C198.164 5.7473 191.048 4.42566 188.537 4.05196C188.9 3.71055 189.253 3.39163 189.583 3.09424C192.887 3.65576 199.838 5.20925 203.738 8.8533Z" fill="#124559"/>
<path d="M193.769 11.3753C193.384 11.4966 192.998 11.6395 192.602 11.794C190.046 9.44814 186.29 8.57846 184.352 8.27031C184.66 7.93965 184.957 7.62074 185.266 7.30084C187.567 7.7303 191.268 8.79857 193.769 11.3753Z" fill="#124559"/>
<path d="M185.694 14.8227C185.33 15.0096 184.967 15.1974 184.592 15.4067C182.984 14.3932 181.034 13.8435 179.724 13.5568C179.988 13.2379 180.253 12.918 180.506 12.6099C182.016 12.9611 184.053 13.6331 185.694 14.8227Z" fill="#124559"/>
<path d="M178.546 19.0508C178.204 19.2817 177.852 19.5243 177.51 19.7669C176.871 19.5028 176.1 19.2934 175.528 19.1721C175.748 18.8415 175.979 18.5108 176.211 18.1919C176.915 18.368 177.829 18.6439 178.546 19.0508Z" fill="#124559"/>
<path d="M150.106 26.2694C150.106 26.2694 144.62 35.4426 136.777 44.8467C128.703 54.515 118.117 64.4376 108.423 64.823C108.423 64.823 103.105 64.823 94.7754 63.5561C94.7754 63.5561 108.314 51.9607 117.17 22.5139C117.17 22.5139 137.163 30.8722 150.106 26.2694Z" fill="#124559"/>
<path d="M136.777 44.8467C128.703 54.515 118.117 64.4375 108.423 64.823C108.423 64.823 111.721 64.823 108.952 59.3613C108.952 59.3613 126.004 55.3416 136.777 44.8467Z" fill="#AEC3B0"/>
<path d="M86.5564 290.321L63.6757 285.459C61.3614 284.967 59.8848 282.693 60.376 280.38L65.2395 257.505C65.7317 255.191 68.0058 253.715 70.3201 254.206L93.2008 259.068C95.515 259.56 96.9917 261.834 96.5005 264.147L91.637 287.021C91.1448 289.336 88.8706 290.813 86.5564 290.321Z" fill="#124559"/>
<path d="M84.8684 287.095L66.5292 283.199C64.4762 282.763 63.165 280.745 63.6014 278.693L67.499 260.359C67.9354 258.307 69.9532 256.996 72.0062 257.432L90.3454 261.329C92.3984 261.765 93.7096 263.782 93.2732 265.836L89.3756 284.168C88.9402 286.222 86.9214 287.532 84.8684 287.095Z" stroke="white" stroke-miterlimit="10"/>
<path d="M75.8528 262.773L73.7029 272.884C73.3085 272.432 72.7782 272.094 72.147 271.96C70.597 271.63 69.0733 272.619 68.7446 274.169C68.4148 275.718 69.4041 277.241 70.9541 277.57C72.5042 277.9 74.0278 276.911 74.3566 275.361L76.1258 267.041L85.2303 273.036L84.1451 278.14C83.7439 277.626 83.1763 277.235 82.4884 277.09C80.9384 276.76 79.4147 277.749 79.0859 279.299C78.7562 280.848 79.7455 282.371 81.2955 282.7C82.8456 283.03 84.3692 282.041 84.698 280.491L86.8293 270.468L75.8528 262.773Z" fill="white"/>
<path d="M179.719 294.728L177.494 305.196C177.086 304.729 176.537 304.377 175.882 304.239C174.277 303.898 172.701 304.921 172.359 306.526C172.019 308.13 173.042 309.707 174.647 310.048C176.252 310.389 177.829 309.365 178.17 307.76L180.002 299.147L189.427 305.353L188.304 310.637C187.889 310.104 187.302 309.701 186.589 309.55C184.984 309.209 183.406 310.232 183.066 311.837C182.724 313.441 183.749 315.018 185.354 315.359C186.958 315.7 188.536 314.676 188.876 313.071L191.083 302.695L179.719 294.728Z" fill="#124559"/>
<path d="M169.093 318.162L176.454 318.152L174.561 314.794L166.488 314.577L170.236 324.611C169.639 324.437 168.987 324.432 168.355 324.672C166.824 325.24 166.031 326.946 166.605 328.486C167.18 330.026 168.89 330.802 170.43 330.229C171.971 329.655 172.748 327.945 172.174 326.405L169.093 318.162Z" fill="#124559"/>
<path d="M184.389 321.289L188.341 323.126L188.166 320.851L183.889 318.713L183.387 325.035C183.11 324.792 182.761 324.627 182.362 324.596C181.398 324.518 180.546 325.235 180.469 326.206C180.391 327.176 181.114 328.02 182.084 328.099C183.055 328.176 183.899 327.453 183.978 326.483L184.389 321.289Z" fill="#124559"/>
<path d="M140.491 318.938L118.514 326.947C116.292 327.757 113.832 326.613 113.022 324.39L105.011 302.419C104.2 300.197 105.345 297.739 107.569 296.929L129.546 288.92C131.768 288.11 134.228 289.254 135.038 291.477L143.049 313.448C143.859 315.67 142.715 318.128 140.491 318.938Z" fill="#AEC3B0"/>
<path d="M119.881 304.891L122.813 312.931C123.084 313.675 124.076 313.812 124.539 313.17L128.994 306.992C129.401 306.428 129.111 305.63 128.436 305.459L121.049 303.597C120.281 303.404 119.61 304.148 119.881 304.891Z" fill="#124559"/>
<path d="M124.03 318.342C129.78 318.342 134.442 313.682 134.442 307.933C134.442 302.185 129.78 297.525 124.03 297.525C118.28 297.525 113.618 302.185 113.618 307.933C113.618 313.682 118.28 318.342 124.03 318.342Z" stroke="white" stroke-miterlimit="10"/>
<path d="M213.63 131.693C193.461 121.557 169.531 127.03 155.603 143.569L144.728 138.103L149.643 152.532L154.973 168.193L169.727 163.45L185.241 158.463L176.844 154.244C186.954 145.516 202.859 143.65 216.873 150.692C230.099 157.34 237.961 170.064 237.977 182.677C237.977 182.677 237.973 182.685 237.977 182.697C237.997 182.975 238.186 185.488 238.803 184.932C238.807 184.924 238.807 184.924 238.807 184.924L238.811 184.916C243.549 163.999 233.672 141.765 213.63 131.693Z" fill="#F4F4F4"/>
<path d="M174.78 233.74C194.95 243.875 218.879 238.401 232.806 221.863L243.681 227.329L238.766 212.901L233.436 197.239L218.682 201.982L203.168 206.969L211.565 211.189C201.454 219.916 185.549 221.782 171.536 214.74C158.31 208.093 150.448 195.368 150.431 182.755C150.431 182.755 150.435 182.747 150.431 182.736C150.412 182.457 150.223 179.945 149.605 180.5C149.602 180.508 149.602 180.508 149.602 180.508L149.598 180.516C144.86 201.433 154.737 223.667 174.78 233.74Z" fill="#F4F4F4"/>
</g>
<defs>
<clipPath id="clip0_348_2748">
<rect width="388" height="350" fill="white"/>
</clipPath>
</defs>
</svg>
