<svg width="418" height="352" viewBox="0 0 418 352" fill="none" xmlns="http://www.w3.org/2000/svg">
<g opacity="0.8" clip-path="url(#clip0_348_2363)">
<path d="M371.117 246.243H220.013C217.311 246.243 215.113 244.045 215.113 241.344V21.2995C215.113 18.5982 217.311 16.4 220.013 16.4H371.117C373.819 16.4 376.018 18.5974 376.018 21.2995V241.343C376.019 244.045 373.82 246.243 371.117 246.243ZM220.013 16.6098C217.426 16.6098 215.322 18.7144 215.322 21.3003V241.344C215.322 243.93 217.427 246.034 220.013 246.034H371.117C373.705 246.034 375.809 243.93 375.809 241.344V21.2995C375.809 18.7135 373.704 16.609 371.117 16.609L220.013 16.6098Z" fill="#E0E0E0"/>
<path d="M196.872 246.243H45.7676C43.0656 246.243 40.8669 244.045 40.8669 241.344V21.2995C40.8669 18.5982 43.0648 16.4 45.7676 16.4H196.872C199.574 16.4 201.773 18.5974 201.773 21.2995V241.343C201.773 244.045 199.574 246.243 196.872 246.243ZM45.7676 16.6098C43.181 16.6098 41.0759 18.7144 41.0759 21.3003V241.344C41.0759 243.93 43.181 246.034 45.7676 246.034H196.872C199.459 246.034 201.564 243.93 201.564 241.344V21.2995C201.564 18.7135 199.459 16.609 196.872 16.609L45.7676 16.6098Z" fill="#E0E0E0"/>
<path d="M418 297.285H0V297.494H418V297.285Z" fill="#E0E0E0"/>
<path d="M56.6239 309.207H43.1978V309.416H56.6239V309.207Z" fill="#E0E0E0"/>
<path d="M187.165 306.942H142.414V307.151H187.165V306.942Z" fill="#E0E0E0"/>
<path d="M87.765 316.972H57.46V317.181H87.765V316.972Z" fill="#E0E0E0"/>
<path d="M352.409 306.833H316.302V307.042H352.409V306.833Z" fill="#E0E0E0"/>
<path d="M365.15 306.833H359.858V307.042H365.15V306.833Z" fill="#E0E0E0"/>
<path d="M309.405 312.04H264.353V312.249H309.405V312.04Z" fill="#E0E0E0"/>
<path d="M159.184 138.08C157.178 141.134 155.829 144.489 155.11 147.949L149.597 148.468L149.596 159.14L155.11 159.659C155.828 163.119 157.177 166.473 159.183 169.528L155.662 173.779L163.212 181.326L167.464 177.806C170.519 179.811 173.875 181.16 177.335 181.878L177.854 187.389L188.529 187.389L189.048 181.878C192.509 181.159 195.864 179.81 198.92 177.805L203.172 181.325L210.721 173.778L207.2 169.527C209.206 166.472 210.555 163.118 211.273 159.658L216.785 159.139L216.786 148.466L211.273 147.947C210.554 144.488 209.205 141.133 207.199 138.079L210.72 133.827L203.172 126.281L198.919 129.8C195.863 127.795 192.507 126.445 189.048 125.728L188.529 120.216L177.854 120.217L177.335 125.728C173.875 126.445 170.519 127.794 167.464 129.8L163.212 126.28L155.662 133.827L159.184 138.08ZM193.41 143.588C199.053 149.229 199.054 158.378 193.41 164.021C187.767 169.663 178.616 169.662 172.973 164.021C167.329 158.378 167.329 149.231 172.973 143.588C178.617 137.946 187.767 137.945 193.41 143.588Z" fill="#EBEBEB"/>
<path d="M117.105 111.262C115.901 113.097 115.09 115.111 114.658 117.19L111.348 117.502V123.911L114.659 124.223C115.09 126.301 115.901 128.315 117.105 130.151L114.991 132.704L119.525 137.236L122.079 135.123C123.914 136.327 125.929 137.137 128.007 137.568L128.319 140.879H134.731L135.042 137.569C137.121 137.138 139.136 136.327 140.971 135.123L143.525 137.236L148.059 132.704L145.945 130.151C147.149 128.316 147.959 126.302 148.391 124.223L151.701 123.911L151.702 117.502L148.392 117.19C147.96 115.112 147.149 113.097 145.945 111.263L148.059 108.71L143.525 104.177L140.971 106.291C139.136 105.087 137.121 104.276 135.042 103.845L134.731 100.535H128.319L128.007 103.845C125.929 104.276 123.914 105.086 122.079 106.29L119.525 104.176L114.991 108.709L117.105 111.262ZM137.662 114.57C141.052 117.959 141.052 123.453 137.662 126.842C134.272 130.232 128.777 130.231 125.387 126.842C121.997 123.453 121.997 117.96 125.387 114.57C128.777 111.182 134.273 111.181 137.662 114.57Z" fill="#F5F5F5"/>
<path d="M273.532 261.174C272.327 263.008 271.517 265.023 271.085 267.101L267.774 267.413V273.823L271.086 274.134C271.517 276.212 272.327 278.227 273.532 280.062L271.417 282.615L275.951 287.148L278.505 285.034C280.34 286.239 282.356 287.048 284.434 287.48L284.746 290.79H291.157L291.469 287.481C293.547 287.049 295.563 286.239 297.398 285.034L299.952 287.148L304.485 282.615L302.371 280.062C303.576 278.227 304.386 276.213 304.817 274.134L308.128 273.823L308.129 267.413L304.818 267.101C304.387 265.023 303.576 263.008 302.371 261.175L304.486 258.621L299.953 254.089L297.399 256.202C295.564 254.998 293.548 254.187 291.47 253.756L291.158 250.446H284.747L284.435 253.756C282.357 254.187 280.341 254.997 278.506 256.202L275.952 254.088L271.418 258.62L273.532 261.174ZM294.089 264.482C297.478 267.87 297.479 273.365 294.089 276.754C290.699 280.143 285.203 280.142 281.814 276.754C278.424 273.365 278.424 267.871 281.814 264.482C285.204 261.093 290.699 261.093 294.089 264.482Z" fill="#F5F5F5"/>
<path d="M43.3208 189.868C42.3602 191.33 41.714 192.937 41.3696 194.594L38.7295 194.842V199.953L41.3696 200.202C41.7132 201.859 42.3594 203.465 43.32 204.929L41.6338 206.965L45.2486 210.579L47.2851 208.893C48.7481 209.853 50.3549 210.499 52.0127 210.843L52.261 213.482H57.3731L57.6223 210.843C59.28 210.498 60.8868 209.852 62.3498 208.892L64.3863 210.578L68.0012 206.964L66.315 204.928C67.2755 203.465 67.9218 201.859 68.2654 200.201L70.9055 199.952V194.841L68.2654 194.592C67.9209 192.936 67.2747 191.329 66.3141 189.866L68.0004 187.83L64.3855 184.216L62.349 185.902C60.886 184.941 59.2784 184.294 57.6214 183.951L57.3723 181.312H52.2602L52.0119 183.951C50.3549 184.295 48.7473 184.941 47.2843 185.901L45.2478 184.215L41.6329 187.829L43.3208 189.868ZM59.7131 192.505C62.4159 195.207 62.4159 199.589 59.7131 202.291C57.0103 204.993 52.628 204.993 49.9252 202.291C47.2224 199.589 47.2224 195.207 49.9252 192.505C52.628 189.803 57.0095 189.803 59.7131 192.505Z" fill="#F5F5F5"/>
<path d="M43.3918 280.736C42.4313 282.199 41.7851 283.806 41.4406 285.463L38.8005 285.711V290.823L41.4406 291.072C41.7842 292.729 42.4305 294.335 43.391 295.798L41.7048 297.834L45.3197 301.448L47.3562 299.763C48.8192 300.723 50.426 301.369 52.0837 301.713L52.332 304.352H57.4442L57.6933 301.713C59.3511 301.368 60.9579 300.722 62.4209 299.762L64.4574 301.448L68.0722 297.834L66.386 295.798C67.3466 294.335 67.9928 292.729 68.3364 291.071L70.9765 290.822V285.711L68.3364 285.462C67.992 283.806 67.3458 282.199 66.3852 280.736L68.0714 278.7L64.4565 275.086L62.42 276.772C60.957 275.812 59.3494 275.166 57.6925 274.822L57.4433 272.182H52.3304L52.0821 274.822C50.4251 275.166 48.8175 275.811 47.3545 276.772L45.318 275.086L41.7023 278.701L43.3918 280.736ZM59.7841 283.374C62.4869 286.076 62.4869 290.458 59.7841 293.16C57.0814 295.862 52.699 295.862 49.9963 293.16C47.2935 290.458 47.2935 286.076 49.9963 283.374C52.699 280.672 57.0814 280.672 59.7841 283.374Z" fill="#F5F5F5"/>
<path d="M314.822 163.998C313.617 165.833 312.807 167.847 312.375 169.925L309.064 170.237V176.647L312.376 176.959C312.807 179.036 313.617 181.052 314.822 182.886L312.707 185.44L317.241 189.972L319.795 187.858C321.63 189.063 323.646 189.873 325.724 190.304L326.036 193.614H332.447L332.759 190.305C334.838 189.873 336.853 189.063 338.688 187.858L341.242 189.972L345.775 185.44L343.661 182.886C344.866 181.052 345.676 179.037 346.107 176.959L349.418 176.647L349.419 170.237L346.108 169.925C345.677 167.848 344.866 165.833 343.661 163.999L345.775 161.445L341.242 156.913L338.688 159.027C336.853 157.822 334.837 157.011 332.759 156.58L332.447 153.27L326.036 153.271L325.724 156.581C323.646 157.012 321.63 157.822 319.796 159.027L317.242 156.913L312.708 161.445L314.822 163.998ZM335.379 167.306C338.768 170.694 338.768 176.189 335.379 179.578C331.989 182.967 326.493 182.966 323.104 179.578C319.714 176.189 319.714 170.695 323.104 167.306C326.494 163.917 331.989 163.917 335.379 167.306Z" fill="#F5F5F5"/>
<path d="M102.546 153.637C101.342 155.471 100.532 157.485 100.099 159.564L96.7888 159.876V166.286L100.1 166.597C100.532 168.675 101.342 170.69 102.546 172.525L100.431 175.078L104.965 179.611L107.519 177.497C109.354 178.701 111.369 179.511 113.448 179.942L113.76 183.253H120.171L120.483 179.943C122.561 179.512 124.577 178.701 126.412 177.497L128.966 179.611L133.499 175.078L131.385 172.525C132.59 170.69 133.4 168.676 133.831 166.597L137.142 166.286L137.143 159.876L133.832 159.564C133.401 157.486 132.59 155.472 131.385 153.637L133.499 151.084L128.966 146.551L126.412 148.665C124.577 147.461 122.561 146.65 120.483 146.219L120.171 142.909L113.76 142.91L113.448 146.22C111.369 146.651 109.354 147.461 107.519 148.665L104.965 146.551L100.431 151.084L102.546 153.637ZM123.104 156.945C126.493 160.333 126.493 165.827 123.104 169.217C119.714 172.606 114.218 172.605 110.829 169.217C107.439 165.827 107.439 160.334 110.829 156.945C114.219 153.556 119.714 153.556 123.104 156.945Z" fill="#EBEBEB"/>
<path d="M56.2309 236.59C55.0262 238.425 54.2162 240.439 53.7839 242.518L50.4734 242.83V249.239L53.7848 249.551C54.2162 251.629 55.0262 253.644 56.2309 255.479L54.1167 258.032L58.6503 262.565L61.2043 260.451C63.0393 261.655 65.0549 262.465 67.1332 262.896L67.445 266.207H73.8563L74.1681 262.897C76.2464 262.465 78.262 261.655 80.097 260.451L82.651 262.565L87.1847 258.032L85.0704 255.479C86.2751 253.644 87.0852 251.63 87.5165 249.551L90.8271 249.239L90.8279 242.83L87.5174 242.518C87.086 240.44 86.2751 238.426 85.0704 236.591L87.1847 234.038L82.651 229.505L80.097 231.619C78.262 230.415 76.2464 229.604 74.1681 229.173L73.8563 225.863H67.445L67.1332 229.173C65.0549 229.604 63.0393 230.414 61.2051 231.618L58.6511 229.504L54.1175 234.037L56.2309 236.59ZM76.7882 239.898C80.1773 243.287 80.1773 248.781 76.7882 252.171C73.3982 255.56 67.9023 255.559 64.5132 252.171C61.1232 248.781 61.1232 243.288 64.5132 239.898C67.9032 236.509 73.3982 236.509 76.7882 239.898Z" fill="#EBEBEB"/>
<path d="M249.369 193.874C247.489 196.736 246.225 199.88 245.552 203.123L240.386 203.609V213.61L245.552 214.097C246.225 217.338 247.489 220.481 249.37 223.344L246.071 227.328L253.144 234.4L257.129 231.102C259.992 232.981 263.137 234.245 266.379 234.918L266.865 240.082L276.868 240.082L277.355 234.918C280.598 234.244 283.742 232.981 286.605 231.102L290.59 234.4L297.664 227.328L294.365 223.344C296.244 220.482 297.508 217.339 298.182 214.097L303.347 213.61L303.348 203.61L298.182 203.123C297.509 199.882 296.244 196.739 294.365 193.876L297.664 189.892L290.59 182.82L286.605 186.118C283.742 184.239 280.598 182.974 277.356 182.301L276.869 177.137L266.865 177.138L266.379 182.302C263.136 182.975 259.992 184.238 257.129 186.118L253.144 182.82L246.071 189.892L249.369 193.874ZM281.442 199.036C286.73 204.324 286.73 212.896 281.442 218.183C276.153 223.47 267.579 223.47 262.291 218.183C257.002 212.896 257.002 204.324 262.291 199.036C267.579 193.749 276.153 193.748 281.442 199.036Z" fill="#EBEBEB"/>
<path d="M202.64 58.2042C218.616 58.2042 231.567 45.2561 231.567 29.2839C231.567 13.3116 218.616 0.363571 202.64 0.363571C186.664 0.363571 173.712 13.3116 173.712 29.2839C173.712 45.2561 186.664 58.2042 202.64 58.2042Z" fill="#E0E0E0"/>
<path d="M200.488 57.8448C216.464 57.8448 229.415 44.8967 229.415 28.9245C229.415 12.9522 216.464 0.00418091 200.488 0.00418091C184.512 0.00418091 171.561 12.9522 171.561 28.9245C171.561 44.8967 184.512 57.8448 200.488 57.8448Z" fill="#F0F0F0"/>
<path d="M200.488 52.9512C213.761 52.9512 224.52 42.1941 224.52 28.9245C224.52 15.6549 213.761 4.89778 200.488 4.89778C187.215 4.89778 176.455 15.6549 176.455 28.9245C176.455 42.1941 187.215 52.9512 200.488 52.9512Z" fill="white"/>
<path d="M201.314 49.4902L201.079 43.79C201.192 43.785 201.304 43.7791 201.417 43.7725L201.789 49.4651C201.631 49.4751 201.472 49.4835 201.314 49.4902ZM192.092 47.7166C191.946 47.6514 191.801 47.5845 191.655 47.5152L194.114 42.3683C194.216 42.4168 194.318 42.4636 194.42 42.5096L192.092 47.7166ZM210.777 46.7529L207.918 41.8167L208.224 41.6362L211.174 46.5181C211.042 46.5975 210.91 46.676 210.777 46.7529ZM184.319 41.6696C184.221 41.5459 184.125 41.4205 184.029 41.2943L188.59 37.865L188.8 38.1383L184.319 41.6696ZM217.879 39.9345L213.054 36.888L213.237 36.5938L218.172 39.4581L218.096 39.5834C218.045 39.6695 217.963 39.8024 217.879 39.9345ZM180.253 32.7065C180.224 32.5502 180.196 32.3939 180.17 32.2376L185.801 31.3124C185.818 31.4235 185.838 31.5355 185.859 31.6467L180.253 32.7065ZM215.325 30.0779C215.334 29.9709 215.341 29.8631 215.347 29.7561L221.045 30.062C221.037 30.2258 221.025 30.3888 221.012 30.5518L215.325 30.0779ZM186.262 24.5541L180.812 22.865L180.952 22.4295L186.371 24.2131L186.262 24.5541ZM214.165 23.0655L214.024 22.7471L219.224 20.3985C219.289 20.5406 219.351 20.6835 219.412 20.8273L214.165 23.0655ZM189.926 18.4411L185.874 14.4251C185.981 14.3164 186.091 14.2077 186.201 14.1016L190.18 18.1887L189.926 18.4411ZM209.879 17.3846C209.793 17.3144 209.707 17.2459 209.619 17.1782L213.107 12.6632C213.235 12.7618 213.361 12.8621 213.486 12.9632L209.879 17.3846ZM196.006 14.7393L194.286 9.29994C194.443 9.25063 194.598 9.20382 194.755 9.15869L196.319 14.6457C196.213 14.675 196.109 14.7067 196.006 14.7393ZM203.445 14.3415L203.11 14.278L204.115 8.66222C204.271 8.68981 204.427 8.71989 204.582 8.75082L203.445 14.3415Z" fill="#E6E6E6"/>
<path d="M190.32 25.3197L200.831 29.6165L202.948 16.8464" stroke="#E0E0E0" stroke-miterlimit="10" stroke-linecap="round" stroke-linejoin="round"/>
<path d="M200.615 30.8711C201.606 30.8711 202.409 30.068 202.409 29.0774C202.409 28.0868 201.606 27.2838 200.615 27.2838C199.624 27.2838 198.821 28.0868 198.821 29.0774C198.821 30.068 199.624 30.8711 200.615 30.8711Z" fill="#E0E0E0"/>
<path d="M83.3592 105.384C95.4361 105.384 105.226 95.5963 105.226 83.5222C105.226 71.4482 95.4361 61.6602 83.3592 61.6602C71.2822 61.6602 61.4919 71.4482 61.4919 83.5222C61.4919 95.5963 71.2822 105.384 83.3592 105.384Z" fill="#E0E0E0"/>
<path d="M81.8519 104.715C93.9288 104.715 103.719 94.9268 103.719 82.8527C103.719 70.7787 93.9288 60.9907 81.8519 60.9907C69.7749 60.9907 59.9846 70.7787 59.9846 82.8527C59.9846 94.9268 69.7749 104.715 81.8519 104.715Z" fill="#F0F0F0"/>
<path d="M81.8519 101.015C91.8853 101.015 100.019 92.8837 100.019 82.8527C100.019 72.8217 91.8853 64.69 81.8519 64.69C71.8185 64.69 63.6848 72.8217 63.6848 82.8527C63.6848 92.8837 71.8185 101.015 81.8519 101.015Z" fill="white"/>
<path d="M78.5646 98.0601L79.4717 93.8443C79.5553 93.8627 79.6389 93.8794 79.7225 93.8953L78.9183 98.132C78.8004 98.1094 78.6817 98.0852 78.5646 98.0601ZM72.1508 95.0186C72.0564 94.9434 71.9627 94.8673 71.8699 94.7888L74.6438 91.4865C74.709 91.5409 74.775 91.5952 74.8411 91.6478L72.1508 95.0186ZM86.0084 97.847L84.8497 93.693L85.108 93.6187L86.3436 97.75C86.2324 97.7834 86.1204 97.816 86.0084 97.847ZM67.6063 89.1221C67.5578 89.0126 67.511 88.9031 67.4659 88.7928L71.4528 87.1462L71.5548 87.3853L67.6063 89.1221ZM92.4966 94.1995L89.5421 91.0578L89.7311 90.8772L92.8009 93.9062L92.7214 93.9839C92.6688 94.0374 92.5827 94.1185 92.4966 94.1995ZM66.3264 81.7938C66.3339 81.6734 66.344 81.5547 66.354 81.4352L70.6502 81.823C70.6419 81.9083 70.636 81.9935 70.6301 82.0788L66.3264 81.7938ZM92.4924 86.5027C92.5191 86.4258 92.5442 86.3489 92.5693 86.2712L96.6816 87.5725C96.644 87.6903 96.6055 87.8082 96.5645 87.9252L92.4924 86.5027ZM72.2662 76.9637L68.5978 74.6962L68.7826 74.4036L72.4108 76.7339L72.2662 76.9637ZM92.9706 81.1511L92.9279 80.8911L97.1782 80.1556C97.1982 80.2718 97.2175 80.3888 97.235 80.505L92.9706 81.1511ZM76.1051 73.1817L73.8989 69.4766C73.9984 69.4173 74.0995 69.3588 74.1999 69.3019L76.3384 73.0463L76.1051 73.1817ZM90.909 76.1822C90.8597 76.1145 90.8095 76.0485 90.7577 75.9816L94.1644 73.3372C94.2396 73.4341 94.3124 73.5311 94.3843 73.6289L90.909 76.1822ZM81.2557 71.6229L81.0266 67.3169C81.1504 67.3102 81.2733 67.3052 81.397 67.3019L81.5032 71.6129C81.4196 71.6146 81.3368 71.6188 81.2557 71.6229ZM86.775 72.7387L86.5417 72.6284L88.34 68.7085C88.4486 68.7587 88.5573 68.8096 88.6643 68.8623L86.775 72.7387Z" fill="#E6E6E6"/>
<path d="M75.092 78.2909L81.9715 83.4236L85.9375 74.478" stroke="#E0E0E0" stroke-miterlimit="10" stroke-linecap="round" stroke-linejoin="round"/>
<path d="M81.9164 84.3446C82.6658 84.3446 83.2732 83.7373 83.2732 82.9881C83.2732 82.239 82.6658 81.6316 81.9164 81.6316C81.167 81.6316 80.5596 82.239 80.5596 82.9881C80.5596 83.7373 81.167 84.3446 81.9164 84.3446Z" fill="#E0E0E0"/>
<path d="M363.264 256.32C372.45 256.32 379.898 248.875 379.898 239.69C379.898 230.506 372.45 223.06 363.264 223.06C354.077 223.06 346.63 230.506 346.63 239.69C346.63 248.875 354.077 256.32 363.264 256.32Z" fill="#E0E0E0"/>
<path d="M362.118 255.81C371.304 255.81 378.751 248.365 378.751 239.181C378.751 229.996 371.304 222.551 362.118 222.551C352.931 222.551 345.484 229.996 345.484 239.181C345.484 248.365 352.931 255.81 362.118 255.81Z" fill="#F0F0F0"/>
<path d="M362.118 252.996C369.75 252.996 375.937 246.811 375.937 239.181C375.937 231.55 369.75 225.365 362.118 225.365C354.486 225.365 348.299 231.55 348.299 239.181C348.299 246.811 354.486 252.996 362.118 252.996Z" fill="white"/>
<path d="M359.617 250.749L360.307 247.542C360.37 247.555 360.434 247.569 360.497 247.58L359.885 250.803C359.797 250.786 359.706 250.768 359.617 250.749ZM354.738 248.435C354.666 248.378 354.595 248.319 354.524 248.26L356.634 245.748C356.683 245.79 356.734 245.831 356.784 245.87L354.738 248.435ZM365.28 250.586L364.399 247.427L364.595 247.37L365.535 250.512C365.45 250.538 365.364 250.562 365.28 250.586ZM351.281 243.95C351.244 243.867 351.209 243.783 351.174 243.699L354.207 242.446L354.284 242.628L351.281 243.95ZM370.215 247.812L367.968 245.422L368.112 245.285L370.447 247.59L370.386 247.649C370.345 247.688 370.28 247.75 370.215 247.812ZM350.308 238.375C350.314 238.284 350.321 238.193 350.329 238.102L353.597 238.397C353.591 238.461 353.586 238.526 353.582 238.591L350.308 238.375ZM370.212 241.957C370.232 241.899 370.251 241.84 370.27 241.781L373.398 242.771C373.37 242.861 373.341 242.95 373.309 243.039L370.212 241.957ZM354.827 234.701L352.036 232.976L352.177 232.754L354.937 234.527L354.827 234.701ZM370.575 237.887L370.543 237.689L373.775 237.13C373.791 237.219 373.806 237.308 373.819 237.396L370.575 237.887ZM357.747 231.825L356.069 229.006C356.145 228.961 356.221 228.917 356.298 228.873L357.925 231.721L357.747 231.825ZM369.007 234.107C368.969 234.055 368.931 234.005 368.892 233.955L371.483 231.943C371.54 232.017 371.596 232.09 371.65 232.165L369.007 234.107ZM361.664 230.639L361.49 227.363C361.583 227.358 361.677 227.354 361.771 227.351L361.852 230.631C361.789 230.633 361.726 230.635 361.664 230.639ZM365.863 231.487L365.685 231.403L367.053 228.422C367.136 228.461 367.219 228.499 367.3 228.539L365.863 231.487Z" fill="#E6E6E6"/>
<path d="M356.975 235.711L362.209 239.615L365.226 232.81" stroke="#E0E0E0" stroke-miterlimit="10" stroke-linecap="round" stroke-linejoin="round"/>
<path d="M362.167 240.315C362.737 240.315 363.198 239.853 363.198 239.283C363.198 238.714 362.737 238.252 362.167 238.252C361.597 238.252 361.135 238.714 361.135 239.283C361.135 239.853 361.597 240.315 362.167 240.315Z" fill="#E0E0E0"/>
<path d="M345.43 123.522C357.731 123.522 367.704 113.552 367.704 101.254C367.704 88.9553 357.731 78.9855 345.43 78.9855C333.129 78.9855 323.156 88.9553 323.156 101.254C323.156 113.552 333.129 123.522 345.43 123.522Z" fill="#E0E0E0"/>
<path d="M343.894 122.839C356.196 122.839 366.168 112.869 366.168 100.571C366.168 88.2725 356.196 78.3026 343.894 78.3026C331.593 78.3026 321.621 88.2725 321.621 100.571C321.621 112.869 331.593 122.839 343.894 122.839Z" fill="#F0F0F0"/>
<path d="M343.895 119.071C354.114 119.071 362.399 110.788 362.399 100.571C362.399 90.3533 354.114 82.0704 343.895 82.0704C333.675 82.0704 325.39 90.3533 325.39 100.571C325.39 110.788 333.675 119.071 343.895 119.071Z" fill="white"/>
<path d="M340.547 116.062L341.471 111.767C341.556 111.786 341.64 111.803 341.726 111.819L340.906 116.134C340.787 116.112 340.667 116.087 340.547 116.062ZM334.014 112.963C333.918 112.886 333.822 112.809 333.728 112.729L336.553 109.366C336.619 109.422 336.686 109.476 336.753 109.53L334.014 112.963ZM348.129 115.844L346.949 111.613L347.212 111.537L348.471 115.746C348.357 115.78 348.243 115.812 348.129 115.844ZM329.385 106.957C329.335 106.846 329.288 106.734 329.242 106.622L333.302 104.945L333.406 105.189L329.385 106.957ZM354.738 112.129L351.728 108.929L351.921 108.745L355.047 111.831L354.966 111.91C354.913 111.964 354.826 112.047 354.738 112.129ZM328.081 99.4927C328.089 99.3706 328.098 99.2486 328.109 99.1274L332.485 99.5227C332.476 99.6097 332.47 99.6966 332.464 99.7835L328.081 99.4927ZM354.734 104.288C354.761 104.211 354.787 104.131 354.812 104.053L359.001 105.378C358.962 105.499 358.923 105.618 358.881 105.738L354.734 104.288ZM334.132 94.5723L330.395 92.263L330.583 91.9654L334.279 94.3391L334.132 94.5723ZM355.22 98.8382L355.177 98.5741L359.507 97.8252C359.527 97.9439 359.547 98.0626 359.564 98.1813L355.22 98.8382ZM338.041 90.7209L335.794 86.9465C335.895 86.8855 335.998 86.827 336.101 86.7685L338.28 90.5822L338.041 90.7209ZM353.12 93.7775C353.069 93.7089 353.018 93.6412 352.967 93.5735L356.437 90.8797C356.513 90.9784 356.588 91.077 356.661 91.1765L353.12 93.7775ZM343.287 89.1329L343.054 84.7467C343.18 84.74 343.305 84.735 343.431 84.7316L343.539 89.1229C343.455 89.1246 343.371 89.1287 343.287 89.1329ZM348.909 90.2688L348.672 90.1568L350.504 86.1642C350.615 86.2152 350.725 86.267 350.834 86.3205L348.909 90.2688Z" fill="#E6E6E6"/>
<path d="M337.009 95.9255L344.017 101.153L348.057 92.0407" stroke="#E0E0E0" stroke-miterlimit="10" stroke-linecap="round" stroke-linejoin="round"/>
<path d="M343.96 102.091C344.723 102.091 345.342 101.473 345.342 100.71C345.342 99.9466 344.723 99.328 343.96 99.328C343.197 99.328 342.578 99.9466 342.578 100.71C342.578 101.473 343.197 102.091 343.96 102.091Z" fill="#E0E0E0"/>
<path d="M209 352C305.44 352 383.62 349.705 383.62 346.875C383.62 344.044 305.44 341.75 209 341.75C112.56 341.75 34.3806 344.044 34.3806 346.875C34.3806 349.705 112.56 352 209 352Z" fill="#F5F5F5"/>
<path d="M87.2349 345.467C99.5492 345.467 109.532 335.487 109.532 323.176C109.532 310.865 99.5492 300.884 87.2349 300.884C74.9207 300.884 64.938 310.865 64.938 323.176C64.938 335.487 74.9207 345.467 87.2349 345.467Z" fill="#263238"/>
<path opacity="0.3" d="M87.2349 345.467C99.5492 345.467 109.532 335.487 109.532 323.176C109.532 310.865 99.5492 300.884 87.2349 300.884C74.9207 300.884 64.938 310.865 64.938 323.176C64.938 335.487 74.9207 345.467 87.2349 345.467Z" fill="black"/>
<path d="M85.5755 345.19C97.8898 345.19 107.872 335.21 107.872 322.898C107.872 310.587 97.8898 300.607 85.5755 300.607C73.2612 300.607 63.2786 310.587 63.2786 322.898C63.2786 335.21 73.2612 345.19 85.5755 345.19Z" fill="#263238"/>
<path d="M85.5756 341.418C95.8062 341.418 104.1 333.126 104.1 322.898C104.1 312.67 95.8062 304.379 85.5756 304.379C75.345 304.379 67.0515 312.67 67.0515 322.898C67.0515 333.126 75.345 341.418 85.5756 341.418Z" fill="white"/>
<path d="M86.2126 338.751L86.032 334.357C86.119 334.354 86.2059 334.349 86.2929 334.343L86.5805 338.731C86.4576 338.739 86.3347 338.745 86.2126 338.751ZM79.1041 337.384C78.9921 337.333 78.8801 337.282 78.768 337.228L80.6632 333.261C80.7418 333.298 80.8204 333.334 80.899 333.369L79.1041 337.384ZM93.5067 336.641L91.303 332.836L91.5388 332.696L93.8127 336.46C93.7115 336.521 93.6095 336.581 93.5067 336.641ZM73.1125 332.722C73.0373 332.627 72.9629 332.53 72.8893 332.433L76.4047 329.79L76.566 330.001L73.1125 332.722ZM98.9808 331.385L95.2623 329.036L95.4028 328.81L99.2066 331.017L99.148 331.114C99.1096 331.181 99.0452 331.283 98.9808 331.385ZM69.9792 325.814C69.9566 325.693 69.9357 325.573 69.9148 325.453L74.2553 324.74C74.2687 324.826 74.2846 324.912 74.3005 324.997L69.9792 325.814ZM97.0129 323.788C97.0196 323.705 97.0246 323.622 97.0296 323.539L101.422 323.775C101.415 323.901 101.407 324.027 101.396 324.153L97.0129 323.788ZM74.6106 319.53L70.4105 318.228L70.5184 317.892L74.695 319.267L74.6106 319.53ZM96.1184 318.383L96.0097 318.137L100.018 316.326C100.068 316.436 100.117 316.546 100.164 316.657L96.1184 318.383ZM77.4346 314.818L74.3113 311.723C74.3941 311.638 74.4794 311.556 74.5638 311.474L77.6311 314.624L77.4346 314.818ZM92.8145 314.003C92.7485 313.949 92.6816 313.896 92.6139 313.844L95.3024 310.364C95.4011 310.44 95.4981 310.517 95.5942 310.595L92.8145 314.003ZM82.1212 311.964L80.7962 307.772C80.9166 307.734 81.0361 307.698 81.1573 307.663L82.362 311.892C82.2817 311.915 82.2007 311.939 82.1212 311.964ZM87.8554 311.658L87.597 311.608L88.372 307.28C88.4924 307.302 88.6119 307.324 88.7315 307.348L87.8554 311.658Z" fill="black"/>
<path d="M77.738 320.12L85.8397 323.432L87.4724 313.589" stroke="black" stroke-miterlimit="10" stroke-linecap="round" stroke-linejoin="round"/>
<path d="M85.6741 324.399C86.4382 324.399 87.0577 323.78 87.0577 323.016C87.0577 322.252 86.4382 321.633 85.6741 321.633C84.91 321.633 84.2905 322.252 84.2905 323.016C84.2905 323.78 84.91 324.399 85.6741 324.399Z" fill="black"/>
<path d="M344.323 327.618C355.834 327.618 365.166 318.289 365.166 306.78C365.166 295.271 355.834 285.942 344.323 285.942C332.812 285.942 323.48 295.271 323.48 306.78C323.48 318.289 332.812 327.618 344.323 327.618Z" fill="#598392"/>
<path opacity="0.3" d="M344.323 327.618C355.834 327.618 365.166 318.289 365.166 306.78C365.166 295.271 355.834 285.942 344.323 285.942C332.812 285.942 323.48 295.271 323.48 306.78C323.48 318.289 332.812 327.618 344.323 327.618Z" fill="black"/>
<path d="M342.773 327.36C354.285 327.36 363.616 318.03 363.616 306.522C363.616 295.013 354.285 285.684 342.773 285.684C331.262 285.684 321.93 295.013 321.93 306.522C321.93 318.03 331.262 327.36 342.773 327.36Z" fill="#598392"/>
<path d="M342.773 323.834C352.337 323.834 360.09 316.083 360.09 306.522C360.09 296.96 352.337 289.209 342.773 289.209C333.209 289.209 325.456 296.96 325.456 306.522C325.456 316.083 333.209 323.834 342.773 323.834Z" fill="white"/>
<path d="M343.368 321.34L343.199 317.232C343.28 317.229 343.361 317.225 343.442 317.22L343.711 321.321C343.597 321.329 343.482 321.335 343.368 321.34ZM336.723 320.062C336.618 320.015 336.513 319.966 336.409 319.916L338.18 316.208C338.254 316.243 338.327 316.276 338.4 316.309L336.723 320.062ZM350.187 319.368L348.127 315.811L348.348 315.68L350.474 319.198C350.378 319.256 350.283 319.312 350.187 319.368ZM331.122 315.705C331.052 315.615 330.982 315.525 330.914 315.435L334.2 312.964L334.351 313.16L331.122 315.705ZM355.304 314.454L351.828 312.259L351.959 312.048L355.515 314.112L355.46 314.202C355.424 314.264 355.364 314.359 355.304 314.454ZM328.193 309.246C328.171 309.134 328.152 309.022 328.132 308.909L332.189 308.243C332.202 308.323 332.217 308.403 332.232 308.483L328.193 309.246ZM353.464 307.352C353.471 307.275 353.475 307.197 353.479 307.119L357.585 307.34C357.578 307.458 357.57 307.576 357.56 307.693L353.464 307.352ZM332.522 303.372L328.595 302.155L328.696 301.841L332.601 303.127L332.522 303.372ZM352.628 302.299L352.527 302.07L356.274 300.378C356.32 300.481 356.366 300.583 356.409 300.687L352.628 302.299ZM335.162 298.967L332.242 296.073C332.32 295.995 332.399 295.917 332.478 295.84L335.345 298.786L335.162 298.967ZM349.54 298.205C349.478 298.155 349.416 298.106 349.353 298.057L351.866 294.804C351.957 294.875 352.049 294.947 352.138 295.02L349.54 298.205ZM339.544 296.3L338.305 292.381C338.417 292.346 338.529 292.311 338.643 292.279L339.769 296.232C339.693 296.254 339.618 296.276 339.544 296.3ZM344.903 296.013L344.662 295.967L345.386 291.921C345.498 291.941 345.611 291.963 345.722 291.985L344.903 296.013Z" fill="black"/>
<path d="M335.447 303.924L343.02 307.02L344.546 297.819" stroke="black" stroke-miterlimit="10" stroke-linecap="round" stroke-linejoin="round"/>
<path d="M342.864 307.924C343.579 307.924 344.158 307.345 344.158 306.631C344.158 305.917 343.579 305.338 342.864 305.338C342.15 305.338 341.571 305.917 341.571 306.631C341.571 307.345 342.15 307.924 342.864 307.924Z" fill="black"/>
<path d="M374.133 338.174H327.562V343.439H374.133V338.174Z" fill="#598392"/>
<path d="M372.27 327.529H325.699V332.793H372.27V327.529Z" fill="#598392"/>
<path d="M376.715 332.867H330.144V338.173H376.715V332.867Z" fill="#598392"/>
<path opacity="0.2" d="M376.715 332.867H330.144V338.173H376.715V332.867Z" fill="black"/>
<path d="M244.205 343.465L240.716 298.605L211.237 324.435L220.662 343.465H244.205Z" fill="#598392"/>
<path opacity="0.2" d="M244.205 343.465L240.716 298.605L211.237 324.435L220.662 343.465H244.205Z" fill="black"/>
<path d="M92.9072 188.77C92.9072 188.77 78.2964 163.69 82.8953 160.388C87.4949 157.086 101.344 155.923 117.879 167.239C113.078 177.701 103.964 185.559 92.9072 188.77Z" fill="#598392"/>
<path opacity="0.2" d="M94.3166 187.226C94.3166 187.226 86.0544 169.594 88.6268 168.062C91.1992 166.529 100.696 169.461 110.008 178.606C105.481 188.832 94.3166 187.226 94.3166 187.226Z" fill="black"/>
<path d="M262.97 243.523C270.442 250.055 281.378 249.506 287.678 241.65C290.558 238.06 291.65 233.476 290.824 228.99C290.038 224.722 284.619 221.676 280.739 224.041C272.427 229.105 271.32 242.434 279.434 248.266C287.552 254.101 298.43 249.637 299.642 239.62C300.029 236.414 295.009 236.452 294.626 239.62C293.906 245.578 287.521 247.287 282.901 244.608C277.928 241.726 278.172 235.18 280.69 230.828C281.743 228.638 283.509 228.47 285.987 230.323C286.521 231.764 286.03 233.539 285.658 234.947C285.008 237.405 283.192 239.55 281.21 241.054C276.78 244.417 270.515 243.472 266.516 239.977C264.093 237.857 260.53 241.39 262.97 243.523Z" fill="#598392"/>
<path d="M168.041 150.41C223.563 150.41 268.57 191.805 268.57 242.88C268.57 293.955 223.564 335.35 168.041 335.35C112.519 335.35 74.0562 293.955 74.0562 242.88C74.057 191.805 112.519 150.41 168.041 150.41Z" fill="#598392"/>
<path opacity="0.2" d="M254.218 195.24C254.218 195.24 247.76 215.192 248.971 225.737C250.742 241.156 259.458 281.394 259.458 281.394C259.458 281.394 266.878 270.846 267.724 256.863C268.57 242.88 258.333 201.076 258.333 201.076L254.218 195.24Z" fill="black"/>
<path opacity="0.1" d="M176.603 335.001C179.6 334.788 182.553 334.445 185.462 333.972L181.438 325.557L176.603 335.001Z" fill="black"/>
<path d="M217.689 345.226L212.955 310.918L175.965 324.435L187.53 345.226H217.689Z" fill="#598392"/>
<path d="M106.119 345.226L108.455 310.918L143.676 324.435L133.654 345.226H106.119Z" fill="#598392"/>
<path d="M228.06 184.881C228.06 184.881 242.455 155.8 236.919 153.104C231.383 150.409 215.342 151.561 197.428 166.395C208.407 183.729 228.06 184.881 228.06 184.881Z" fill="#598392"/>
<path opacity="0.2" d="M226.301 183.472C226.301 183.472 234.152 163.392 231.055 162.219C227.957 161.047 217.338 165.758 207.512 177.074C213.645 187.114 226.301 183.472 226.301 183.472Z" fill="black"/>
<path opacity="0.4" d="M185.815 154.545C179.58 153.348 171.313 151.956 160.581 153.732C149.407 154.833 146.115 158.453 146.115 158.453H161.25C167.044 154.483 185.815 154.545 185.815 154.545Z" fill="black"/>
<path d="M103.316 226.04C102.898 231.334 105.286 236.031 108.65 236.534C112.013 237.036 115.078 233.153 115.496 227.86C115.915 222.567 113.527 217.869 110.164 217.366C106.801 216.863 103.737 220.746 103.316 226.04Z" fill="#263238"/>
<path d="M101.875 215.54C102.268 215.583 102.666 215.47 102.971 215.189C107.717 210.796 113.061 212.339 113.122 212.356C113.914 212.587 114.716 212.139 114.897 211.331C115.076 210.524 114.574 209.676 113.771 209.434C113.492 209.352 106.786 207.408 100.896 212.863C100.31 213.406 100.297 214.369 100.869 215.012C101.146 215.32 101.508 215.499 101.875 215.54Z" fill="#263238"/>
<path d="M179.55 227.768C179.968 233.062 177.581 237.759 174.217 238.261C170.853 238.763 167.789 234.88 167.371 229.586C166.952 224.294 169.339 219.595 172.703 219.093C176.066 218.591 179.131 222.474 179.55 227.768Z" fill="#263238"/>
<path d="M180.992 217.268C180.599 217.312 180.201 217.198 179.896 216.917C175.15 212.524 169.807 214.066 169.745 214.084C168.953 214.315 168.151 213.867 167.97 213.058C167.791 212.252 168.294 211.404 169.096 211.161C169.375 211.079 176.082 209.136 181.971 214.59C182.558 215.134 182.57 216.097 181.998 216.739C181.721 217.048 181.359 217.227 180.992 217.268Z" fill="#263238"/>
<path opacity="0.2" d="M141.701 231.434C157.868 231.434 170.979 243.491 170.979 258.37C170.979 273.249 157.879 285.305 141.701 285.305C125.522 285.305 112.367 273.249 112.367 258.37C112.367 243.491 125.533 231.434 141.701 231.434Z" fill="black"/>
<path d="M136.743 231.434C152.91 231.434 166.021 243.491 166.021 258.37C166.021 273.249 152.921 285.305 136.743 285.305C120.565 285.305 107.409 273.249 107.409 258.37C107.409 243.491 120.576 231.434 136.743 231.434Z" fill="#598392"/>
<path opacity="0.2" d="M144.62 264.707C146.947 264.707 148.834 261.195 148.834 256.863C148.834 252.531 146.947 249.019 144.62 249.019C142.292 249.019 140.406 252.531 140.406 256.863C140.406 261.195 142.292 264.707 144.62 264.707Z" fill="black"/>
<path opacity="0.2" d="M126.413 264.707C128.74 264.707 130.627 261.195 130.627 256.863C130.627 252.531 128.74 249.019 126.413 249.019C124.085 249.019 122.198 252.531 122.198 256.863C122.198 261.195 124.085 264.707 126.413 264.707Z" fill="black"/>
<path d="M136.743 285.305C136.743 285.305 136.398 285.297 135.75 285.282C135.426 285.274 135.027 285.265 134.558 285.253C134.323 285.247 134.071 285.241 133.802 285.235C133.534 285.212 133.249 285.17 132.948 285.135C132.346 285.061 131.678 284.979 130.952 284.89C130.233 284.758 129.464 284.572 128.636 284.396C126.995 283.994 125.167 283.407 123.271 282.532C122.783 282.342 122.315 282.087 121.84 281.822C121.363 281.562 120.876 281.297 120.382 281.028C119.895 280.745 119.433 280.404 118.945 280.085C118.469 279.751 117.951 279.457 117.502 279.057C117.038 278.677 116.567 278.292 116.09 277.902C115.603 277.524 115.195 277.046 114.736 276.614C113.796 275.767 113.036 274.716 112.19 273.713C110.658 271.583 109.329 269.195 108.397 266.591C107.527 263.967 107.052 261.18 106.992 258.369C107.047 255.591 107.526 252.762 108.396 250.146C109.329 247.542 110.658 245.154 112.191 243.024C113.8 240.95 115.591 239.135 117.503 237.682C117.952 237.282 118.469 236.987 118.946 236.653C119.434 236.335 119.897 235.994 120.382 235.71C120.877 235.441 121.364 235.176 121.841 234.916C122.316 234.651 122.783 234.396 123.272 234.207C125.168 233.332 126.996 232.742 128.637 232.34C129.465 232.165 130.235 231.978 130.953 231.847C131.678 231.758 132.345 231.676 132.947 231.602C133.248 231.567 133.531 231.525 133.799 231.502C134.069 231.495 134.322 231.49 134.558 231.484C135.027 231.473 135.427 231.463 135.751 231.455C136.398 231.44 136.744 231.432 136.744 231.432C136.744 231.432 136.399 231.456 135.753 231.5C135.43 231.523 135.032 231.551 134.564 231.583C134.331 231.599 134.079 231.617 133.812 231.635C133.545 231.667 133.264 231.719 132.966 231.763C132.371 231.856 131.712 231.961 130.995 232.074C130.286 232.228 129.529 232.44 128.716 232.64C127.107 233.097 125.325 233.74 123.472 234.63C122.996 234.826 122.541 235.088 122.079 235.358C121.615 235.623 121.143 235.893 120.662 236.167C120.191 236.456 119.744 236.801 119.272 237.122C118.812 237.459 118.312 237.757 117.88 238.159C117.433 238.539 116.981 238.926 116.522 239.316C116.054 239.695 115.665 240.172 115.225 240.601C114.33 241.451 113.587 242.47 112.773 243.454C111.297 245.538 110.021 247.867 109.133 250.398C108.308 252.955 107.872 255.616 107.827 258.367C107.867 261.086 108.307 263.786 109.132 266.336C110.02 268.867 111.295 271.196 112.771 273.28C113.586 274.264 114.327 275.285 115.223 276.134C115.662 276.563 116.05 277.04 116.519 277.419C116.977 277.809 117.43 278.196 117.878 278.577C118.309 278.978 118.81 279.276 119.271 279.613C119.742 279.934 120.189 280.28 120.661 280.568C121.141 280.843 121.614 281.113 122.078 281.378C122.539 281.648 122.995 281.909 123.471 282.105C125.323 282.996 127.105 283.639 128.715 284.094C129.527 284.294 130.285 284.506 130.993 284.661C131.709 284.773 132.367 284.877 132.962 284.971C133.259 285.015 133.54 285.068 133.808 285.098C134.076 285.117 134.328 285.134 134.562 285.15C135.03 285.183 135.429 285.21 135.751 285.233C136.398 285.282 136.743 285.305 136.743 285.305Z" fill="#263238"/>
<path opacity="0.2" d="M108.152 315.364C108.152 315.364 119.239 326.508 140.205 331.637L137.436 337.379L107.446 325.735L108.152 315.364Z" fill="black"/>
<path d="M182.037 268.089C188.911 264.758 192.329 256.654 189.973 249.4C189.475 247.869 187.053 248.524 187.554 250.067C189.589 256.332 186.688 263.057 180.77 265.924C179.315 266.629 180.588 268.791 182.037 268.089Z" fill="#263238"/>
<path d="M87.4482 187.956L86.6147 187.318C83.1553 191.855 80.114 196.696 77.5291 201.782L78.4654 202.255C81.026 197.23 84.0323 192.444 87.4482 187.956Z" fill="#598392"/>
<path d="M76.1396 207.152L75.1723 206.73C74.2051 208.951 73.3206 211.246 72.5381 213.54L73.5672 213.879C74.3388 211.596 75.2141 209.332 76.1396 207.152Z" fill="#598392"/>
<path d="M282.705 271.418L283.296 290.831L276.884 291.298L271.614 272.692L282.705 271.418Z" fill="#E9B376"/>
<path d="M284.267 300.313L278.72 300.272C278.72 300.272 277.603 299.667 276.943 299.742C276.286 299.817 273.999 300.236 273.999 300.236L259.27 300.125C259.392 299.508 259.541 298.96 259.711 298.474C259.917 297.881 260.156 297.38 260.419 296.956C261.343 295.474 262.592 294.953 263.947 294.878C266.01 294.765 272.534 290.482 272.534 290.482L275.306 288.782C275.223 287.845 275.075 286.613 276.071 286.243C277.346 285.768 278.45 285.52 279.024 286.917L279.646 288.594L281.103 288.378C281.103 288.378 283.963 286.476 283.798 288.022C283.703 288.905 285.117 292.921 284.76 296.037C284.676 296.764 284.598 297.452 284.529 298.054L284.528 298.055C284.374 299.394 284.267 300.313 284.267 300.313Z" fill="#263238"/>
<g opacity="0.2">
<path d="M259.27 300.125L274 300.237C274 300.237 276.287 299.819 276.944 299.743C277.604 299.668 278.721 300.272 278.721 300.272L284.268 300.314C284.268 300.314 284.374 299.395 284.527 298.056L259.712 298.475C259.542 298.96 259.392 299.509 259.27 300.125Z" fill="white"/>
</g>
<path d="M269.29 292.065C269.358 291.999 269.464 291.992 269.543 292.046C269.907 292.291 270.21 292.636 270.416 293.066C270.524 293.294 270.192 293.509 270.083 293.28C269.901 292.897 269.635 292.593 269.317 292.377C269.211 292.306 269.195 292.157 269.287 292.068L269.29 292.065Z" fill="#598392"/>
<path d="M270.467 291.384C270.535 291.318 270.641 291.311 270.72 291.364C271.084 291.609 271.387 291.955 271.593 292.385C271.701 292.612 271.369 292.828 271.26 292.599C271.078 292.216 270.812 291.911 270.495 291.696C270.388 291.624 270.372 291.476 270.464 291.387L270.467 291.384Z" fill="#598392"/>
<path d="M271.681 290.749C271.749 290.683 271.855 290.677 271.934 290.73C272.298 290.975 272.601 291.32 272.807 291.751C272.916 291.978 272.583 292.194 272.474 291.965C272.292 291.582 272.026 291.278 271.708 291.063C271.602 290.991 271.585 290.842 271.678 290.754C271.678 290.751 271.679 290.75 271.681 290.749Z" fill="#598392"/>
<path d="M302.377 271.554L305.079 291.375L311.54 291.7L313.632 272.594L302.377 271.554Z" fill="#E9B376"/>
<path d="M317.04 300.576H302.589C302.589 300.576 302.274 299.969 302.634 298.353C302.69 298.102 302.761 297.825 302.854 297.524C302.859 297.508 302.863 297.493 302.868 297.478C303.003 297.031 303.158 296.481 303.322 295.888C303.985 293.469 304.763 290.308 304.763 290.308C304.763 290.308 307.167 285.162 309.98 286.447C312.448 287.574 311.863 290.8 311.863 290.8C311.863 290.8 312.105 292.694 313.976 294.364C315.133 295.396 316.283 296.195 316.837 297.478C316.941 297.718 317.022 297.973 317.08 298.25C317.087 298.283 317.094 298.318 317.099 298.353C317.214 298.973 317.208 299.697 317.04 300.576Z" fill="#263238"/>
<g opacity="0.2">
<path d="M302.634 298.354C302.274 299.97 302.589 300.577 302.589 300.577H317.04C317.207 299.698 317.214 298.973 317.099 298.354H302.634Z" fill="white"/>
</g>
<path d="M311.281 291.611C310.469 290.978 309.402 291.06 308.671 291.773C308.475 291.965 308.173 291.664 308.369 291.471C309.282 290.581 310.585 290.532 311.583 291.309C311.8 291.478 311.495 291.777 311.281 291.611Z" fill="#598392"/>
<path d="M311.689 292.96C310.877 292.327 309.81 292.409 309.078 293.122C308.882 293.314 308.58 293.013 308.776 292.82C309.689 291.93 310.992 291.881 311.99 292.658C312.207 292.827 311.904 293.127 311.689 292.96Z" fill="#598392"/>
<path d="M312.099 294.201C311.286 293.568 310.219 293.65 309.488 294.363C309.291 294.556 308.99 294.254 309.186 294.062C310.099 293.172 311.402 293.122 312.4 293.899C312.617 294.067 312.314 294.368 312.099 294.201Z" fill="#598392"/>
<path d="M316.371 145.844L286.114 146.101L267.126 145.525C267.126 145.525 258.705 204.638 257.574 215.461C256.443 226.285 271.181 285.341 271.181 285.341H287.091C287.091 285.341 278.271 225.581 279.481 219.726C280.536 214.621 287.284 180.262 290.263 171.942C290.562 173.646 290.87 175.357 291.184 177.055C291.938 184.726 294.354 209.184 295.405 218.286C295.405 218.286 297.691 270.276 300.344 285.374L314.239 285.398C316.073 263.964 317.25 188.68 317.25 188.68L317.248 188.678C318.277 172.327 316.371 145.844 316.371 145.844Z" fill="#263238"/>
<g opacity="0.5">
<path d="M277.105 154.119C275.341 159.917 270.623 164.574 264.803 166.267C264.489 166.358 264.622 166.85 264.938 166.758C270.93 165.014 275.779 160.222 277.596 154.253C277.692 153.941 277.201 153.806 277.105 154.119Z" fill="black"/>
<path d="M290.76 154.118C290.416 159.19 290.08 164.271 289.736 169.344C289.72 169.671 289.213 169.671 289.229 169.344C289.409 166.742 289.581 164.132 289.752 161.522C288.5 162.488 287.035 161.318 286.627 160.025C285.955 157.931 286.209 155.444 286.733 153.349C286.815 153.03 287.305 153.169 287.223 153.48C286.856 154.953 286.7 156.458 286.806 157.972C286.856 158.741 286.929 159.624 287.289 160.328C287.691 161.114 288.705 161.776 289.516 161.064C289.606 160.991 289.704 160.982 289.786 161.023C289.941 158.724 290.097 156.417 290.252 154.118C290.269 153.791 290.776 153.791 290.76 154.118Z" fill="black"/>
<path d="M305.68 154.982C305.608 161.706 310.786 167.338 317.481 167.866C317.802 167.891 317.8 167.391 317.481 167.366C311.056 166.859 306.111 161.417 306.18 154.982C306.184 154.66 305.683 154.66 305.68 154.982Z" fill="black"/>
</g>
<path d="M284.084 65.5158C284.084 65.5158 282.32 60.6414 283.418 51.313C283.415 51.3038 282.913 51.1735 282.91 51.1643C283.058 49.8604 283.246 48.6477 283.436 47.5912C283.44 47.5611 283.438 47.5511 283.438 47.5511L272.517 57.1026C273.277 59.9009 273.173 65.5692 272.95 67.9931C272.95 67.9931 272.114 72.4546 277.74 71.7065C281.851 71.1591 284.084 65.5158 284.084 65.5158Z" fill="#E9B376"/>
<path opacity="0.2" d="M272.976 61.1378L279.72 58.3914C279.447 60.6756 277.949 63.5792 273.108 64.6031C273.108 64.6031 273.187 62.084 272.976 61.1378Z" fill="black"/>
<path d="M282.547 41.6228C283.013 49.4759 283.433 53.8965 279.968 58.3388C274.755 65.0218 264.918 62.6791 262.108 55.1009C259.578 48.2791 259.242 36.5821 266.523 32.6271C273.695 28.7306 282.081 33.7688 282.547 41.6228Z" fill="#E9B376"/>
<path d="M280.313 30.4649C277.004 25.995 270.035 29.2204 267.293 31.7796C266.883 32.1624 273.649 34.5929 273.246 34.4993L275.3 36.4592C275.589 36.3573 275.984 39.0728 276.315 41.4247C276.618 43.5844 277.498 45.6154 278.87 47.3096C280.021 48.7296 281.576 50.443 283.356 51.8688C285.918 50.2123 285.503 45.4558 286.02 42.5305C286.79 38.1726 287.261 29.9475 280.313 30.4649Z" fill="#263238"/>
<path d="M286.414 47.7484C286.033 49.8312 284.721 51.5354 283.268 52.4907C281.081 53.9283 279.905 51.4894 279.828 49.0071C279.759 46.7721 280.078 44.0015 282.602 43.561C285.089 43.1264 286.848 45.3672 286.414 47.7484Z" fill="#E9B376"/>
<path d="M271.659 45.2242C271.756 46.0216 271.41 46.7161 270.887 46.7738C270.365 46.8323 269.861 46.2322 269.765 45.4349C269.668 44.6375 270.014 43.943 270.537 43.8853C271.059 43.8276 271.562 44.4269 271.659 45.2242Z" fill="#263238"/>
<path d="M263.851 46.3283C263.948 47.1257 263.603 47.8194 263.08 47.8779C262.557 47.9356 262.054 47.3363 261.958 46.539C261.861 45.7408 262.207 45.047 262.73 44.9894C263.252 44.9309 263.755 45.5301 263.851 46.3283Z" fill="#263238"/>
<path d="M266.343 45.5769C266.343 45.5769 264.298 49.8462 263.683 51.5588C264.916 52.4272 266.772 51.7334 266.772 51.7334L266.343 45.5769Z" fill="#D58745"/>
<path d="M273.154 41.2283C273.039 41.2918 272.894 41.2943 272.772 41.2208C271.329 40.3524 270.07 40.9324 270.058 40.9383C269.871 41.0277 269.644 40.9483 269.553 40.7619C269.462 40.5755 269.541 40.3515 269.728 40.2629C269.794 40.2312 271.37 39.5032 273.161 40.5814C273.34 40.6892 273.398 40.919 273.291 41.0962C273.256 41.1539 273.208 41.1982 273.154 41.2283Z" fill="#263238"/>
<path d="M269.696 53.9583C270.991 53.8112 271.917 53.0448 272.803 51.9591" stroke="#263238" stroke-width="0.75" stroke-miterlimit="10" stroke-linecap="round" stroke-linejoin="round"/>
<path opacity="0.2" d="M284.371 45.8085C284.001 45.3814 283.339 45.2878 282.81 45.4875C282.281 45.6881 281.876 46.1319 281.597 46.625C281.264 47.2159 281.088 47.8955 281.093 48.575" stroke="black" stroke-width="0.5" stroke-miterlimit="10" stroke-linecap="round" stroke-linejoin="round"/>
<path d="M259.991 43.3788C259.92 43.3721 259.85 43.3454 259.789 43.2969C259.627 43.1665 259.599 42.9291 259.728 42.767C261.021 41.1439 262.742 41.3144 262.82 41.3119C263.026 41.3336 263.179 41.5183 263.159 41.7247C263.14 41.9312 262.959 42.0808 262.754 42.0616C262.683 42.0515 261.355 41.9379 260.318 43.24C260.236 43.3429 260.111 43.3905 259.991 43.3788Z" fill="#263238"/>
<path d="M280.313 30.4649C280.313 30.4649 275.934 24.2097 267.508 25.5846C260.731 26.6904 256.913 31.3241 256.458 35.9811C256.262 37.982 256.603 39.5049 257.056 40.5906C257.398 41.4105 258.545 41.3712 258.86 40.5404C258.949 40.3047 259.053 40.0732 259.17 39.8484C259.193 39.9027 259.218 39.957 259.245 40.0097C259.674 40.8572 260.987 40.6482 261.073 39.7021C261.1 39.4037 261.155 39.107 261.237 38.8153C261.242 38.8229 261.245 38.8295 261.249 38.8371C261.644 39.5818 262.772 39.443 263.007 38.634C264.045 35.0626 268.655 32.6463 272.536 34.5469L275.298 36.4592C278.737 34.7592 280.313 30.4649 280.313 30.4649Z" fill="#263238"/>
<path d="M215.917 118.317C216.194 118.543 250.287 116.97 250.287 116.97L253.478 92.6383C253.478 92.6383 267.904 98.0459 267.628 98.3443C267.352 98.6427 267.67 117.241 264.145 126.909C261.192 135.007 234.05 131.821 218.649 128.08L215.917 118.317Z" fill="#D58745"/>
<path d="M258.251 71.5795C264.865 71.6388 268.299 82.7165 268.595 111.496L250.175 109.614C250.175 109.614 249.829 96.8992 249.778 88.1626C250.833 73.1491 258.251 71.5795 258.251 71.5795Z" fill="#263238"/>
<path opacity="0.5" d="M258.251 71.5795C264.865 71.6388 268.299 82.7165 268.595 111.496L250.175 109.614C250.175 109.614 249.829 96.8992 249.778 88.1626C250.833 73.1491 258.251 71.5795 258.251 71.5795Z" fill="white"/>
<path d="M260.972 70.4411C265.07 69.3044 281.26 64.4159 298.933 64.2286L312.736 124.723C312.736 124.723 315.599 136.661 316.953 146.018C300.673 156.622 277.449 159.415 264.666 154.77C264.846 155.023 264.07 147.771 262.972 137.143C261.038 118.413 258.104 89.1973 257.638 72.0826C257.633 71.6589 260.564 70.554 260.972 70.4411Z" fill="#263238"/>
<path opacity="0.2" d="M260.081 107.668L258.372 86.4626L256.811 110.292L260.395 110.658L260.081 107.668Z" fill="black"/>
<path opacity="0.5" d="M260.972 70.4411C265.07 69.3044 281.26 64.4159 298.933 64.2286L312.736 124.723C312.736 124.723 315.599 136.661 316.953 146.018C300.673 156.622 277.449 159.415 264.666 154.77C264.846 155.023 264.07 147.771 262.972 137.143C261.038 118.413 258.104 89.1973 257.638 72.0826C257.633 71.6589 260.564 70.554 260.972 70.4411Z" fill="white"/>
<path d="M283.161 59.671L275.953 66.8898L272.751 64.0899L269.544 67.9321L275.953 74.7388L287.058 65.0059L283.161 59.671Z" fill="#263238"/>
<path opacity="0.7" d="M283.161 59.671L275.953 66.8898L272.751 64.0899L269.544 67.9321L275.953 74.7388L287.058 65.0059L283.161 59.671Z" fill="white"/>
<path d="M237.396 136.908C249.71 136.908 259.693 126.928 259.693 114.616C259.693 102.305 249.71 92.3248 237.396 92.3248C225.081 92.3248 215.099 102.305 215.099 114.616C215.099 126.928 225.081 136.908 237.396 136.908Z" fill="#598392"/>
<path opacity="0.3" d="M237.396 136.908C249.71 136.908 259.693 126.928 259.693 114.616C259.693 102.305 249.71 92.3248 237.396 92.3248C225.081 92.3248 215.099 102.305 215.099 114.616C215.099 126.928 225.081 136.908 237.396 136.908Z" fill="black"/>
<path d="M235.812 136.341C248.126 136.341 258.109 126.36 258.109 114.049C258.109 101.738 248.126 91.7573 235.812 91.7573C223.498 91.7573 213.515 101.738 213.515 114.049C213.515 126.36 223.498 136.341 235.812 136.341Z" fill="#598392"/>
<path d="M235.812 132.569C246.043 132.569 254.336 124.277 254.336 114.049C254.336 103.821 246.043 95.5293 235.812 95.5293C225.582 95.5293 217.288 103.821 217.288 114.049C217.288 124.277 225.582 132.569 235.812 132.569Z" fill="white"/>
<path d="M233.619 129.761L234.223 125.406C234.309 125.417 234.395 125.428 234.482 125.438L233.985 129.807C233.863 129.794 233.741 129.778 233.619 129.761ZM226.867 127.153C226.765 127.083 226.665 127.012 226.563 126.94L229.134 123.373C229.204 123.424 229.275 123.473 229.346 123.522L226.867 127.153ZM241.173 128.982L239.68 124.846L239.937 124.75L241.505 128.858C241.395 128.901 241.284 128.942 241.173 128.982ZM221.801 121.5C221.744 121.392 221.688 121.284 221.633 121.176L225.562 119.2L225.683 119.436L221.801 121.5ZM247.494 124.783L244.253 121.811L244.432 121.613L247.782 124.461L247.708 124.547C247.657 124.605 247.575 124.695 247.494 124.783ZM219.946 114.145C219.945 114.022 219.946 113.9 219.946 113.778L224.345 113.848C224.343 113.935 224.343 114.023 224.344 114.11L219.946 114.145ZM246.908 116.957C246.93 116.876 246.949 116.796 246.969 116.715L251.249 117.728C251.22 117.851 251.189 117.973 251.156 118.095L246.908 116.957ZM225.62 108.784L221.719 106.756L221.884 106.445L225.75 108.54L225.62 108.784ZM246.99 111.479L246.928 111.218L251.194 110.149C251.223 110.266 251.251 110.383 251.277 110.5L246.99 111.479ZM229.239 104.65L226.716 101.048C226.813 100.98 226.91 100.914 227.008 100.847L229.466 104.493L229.239 104.65ZM244.518 106.583C244.463 106.518 244.406 106.454 244.349 106.391L247.614 103.444C247.698 103.537 247.779 103.63 247.86 103.724L244.518 106.583ZM234.357 102.675L233.799 98.3142C233.924 98.2983 234.048 98.2841 234.174 98.2707L234.607 102.647C234.524 102.654 234.44 102.665 234.357 102.675ZM240.055 103.392L239.81 103.298L241.342 99.1759C241.457 99.2185 241.57 99.262 241.683 99.3071L240.055 103.392Z" fill="black"/>
<path d="M228.594 109.921L235.912 114.801L239.27 105.406" stroke="black" stroke-miterlimit="10" stroke-linecap="round" stroke-linejoin="round"/>
<path d="M235.888 115.564C236.652 115.564 237.271 114.945 237.271 114.182C237.271 113.418 236.652 112.799 235.888 112.799C235.124 112.799 234.505 113.418 234.505 114.182C234.505 114.945 235.124 115.564 235.888 115.564Z" fill="black"/>
<path opacity="0.3" d="M219.462 108.79C222.913 99.1617 233.519 94.1544 243.15 97.6054C245.516 98.4538 247.599 99.7367 249.35 101.328C247.395 99.2177 244.927 97.5252 242.031 96.4871C232.4 93.0361 221.795 98.0434 218.343 107.672C215.74 114.934 217.953 122.747 223.329 127.631C218.782 122.724 217.048 115.523 219.462 108.79Z" fill="black"/>
<path d="M213.868 117.996C213.868 117.996 223.013 118.271 224.187 119.795C225.36 121.32 222.655 121.788 222.655 121.788C222.655 121.788 225.664 121.455 225.978 122.713C226.356 124.222 223.519 124.702 223.519 124.702C223.519 124.702 225.987 124.53 226.191 125.667C226.404 126.848 223.24 127.616 223.24 127.616C223.24 127.616 225.001 127.824 224.696 128.695C224.39 129.567 217.708 131.327 215.44 130.512C213.173 129.696 211.224 121.04 211.187 119.064C211.15 117.088 211.421 115.74 213.465 114.896L213.868 117.996Z" fill="#E9B376"/>
<path opacity="0.2" d="M222.68 121.932C222.676 121.933 222.672 121.934 222.668 121.934L217.395 122.265C217.324 122.269 217.261 122.208 217.254 122.128C217.248 122.048 217.302 121.977 217.371 121.975L222.643 121.644C222.714 121.64 222.777 121.701 222.784 121.781C222.79 121.856 222.744 121.92 222.68 121.932Z" fill="black"/>
<path opacity="0.2" d="M223.396 124.871C223.396 124.871 223.394 124.871 223.392 124.872L218.353 125.592C218.283 125.602 218.217 125.546 218.204 125.467C218.192 125.387 218.232 125.329 218.309 125.305L223.349 124.584C223.419 124.574 223.485 124.631 223.498 124.71C223.51 124.788 223.464 124.859 223.396 124.871Z" fill="black"/>
<path opacity="0.2" d="M223.094 127.789L219.365 128.432C219.294 128.444 219.227 128.39 219.213 128.31C219.2 128.232 219.245 128.157 219.314 128.145L223.044 127.502C223.114 127.49 223.182 127.545 223.195 127.624C223.209 127.703 223.164 127.778 223.094 127.789Z" fill="black"/>
<path d="M261.202 116.338C261.202 116.338 258.544 114.147 255.711 114.452C252.877 114.758 250.534 114.248 248.444 114.621C246.354 114.993 248.818 116.457 250.286 116.97C251.754 117.483 253.413 118.08 252.849 119.12C252.286 120.16 243.626 125.509 243.008 127.041C242.391 128.572 244.062 128.145 244.062 128.145C244.062 128.145 241.994 129.5 242.308 130.466C242.39 130.716 242.986 131.167 244.025 130.697C246.363 129.639 251.155 127.167 251.155 127.167C250.878 127.303 245.18 130.777 244.395 131.409C243.368 132.235 243.305 133.148 243.804 133.727C244.512 134.552 251.724 130.485 252.148 130.526C252.148 130.526 247.918 132.728 247.889 134.132C247.861 135.534 250.599 134.293 252.805 132.74C254.827 131.317 259.168 129.052 261.084 127.406C263.444 125.377 264.573 123.484 263.756 120.682C262.941 117.879 261.202 116.338 261.202 116.338Z" fill="#E9B376"/>
<path opacity="0.3" d="M244.3 127.913C245.985 126.868 247.717 125.9 249.49 125.012" stroke="black" stroke-width="0.25" stroke-miterlimit="10" stroke-linecap="round" stroke-linejoin="round"/>
<path d="M292.646 96.4846L291.865 110.613L260.977 116.062L262.514 126.729C251.148 127.558 297.464 126.227 303.223 124.172C308.245 122.381 306.943 96.0492 306.943 96.0492L292.646 96.4846Z" fill="#E9B376"/>
<path d="M298.933 64.2286C298.933 64.2286 307.639 64.9549 308.111 73.6456C308.546 81.6484 308.654 101.136 308.654 101.136L291.432 101.02L290.79 80.2735L298.933 64.2286Z" fill="#263238"/>
<path opacity="0.5" d="M298.933 64.2286C298.933 64.2286 307.639 64.9549 308.111 73.6456C308.546 81.6484 308.654 101.136 308.654 101.136L291.432 101.02L290.79 80.2735L298.933 64.2286Z" fill="white"/>
<path d="M259.869 305.023H254.227V343.464H259.869V305.023Z" fill="#263238"/>
<path d="M294.972 305.023H289.33V343.464H294.972V305.023Z" fill="#263238"/>
<path d="M320.422 305.023H314.78V343.464H320.422V305.023Z" fill="#263238"/>
<path d="M284.062 305.023H278.42V343.464H284.062V305.023Z" fill="#263238"/>
<path d="M321.926 298.757H251.217V306.689H321.926V298.757Z" fill="#263238"/>
</g>
<defs>
<clipPath id="clip0_348_2363">
<rect width="418" height="352" fill="white"/>
</clipPath>
</defs>
</svg>
