<svg width="418" height="275" viewBox="0 0 418 275" fill="none" xmlns="http://www.w3.org/2000/svg">
<g opacity="0.8">
<path d="M406.173 149.025C398.926 141.238 390.355 133.643 388.121 123.07C384.253 104.775 400.79 89.1744 406.203 71.3054C409.947 58.9498 408.016 44.8822 401.096 34.1015C394.177 23.3211 382.411 16.0465 369.978 14.8631C348.586 12.8271 327.651 27.7804 306.578 23.4497C289.706 19.9824 276.372 4.68571 259.245 3.04717C239.09 1.11894 222.367 18.3784 203.121 24.8766C180.099 32.6496 155.14 24.5266 132.507 15.6127C109.873 6.69867 86.0599 -3.24668 62.2021 1.01951C35.6454 5.76833 13.3791 29.7737 9.82726 57.4849C6.30725 84.9481 35.8294 106.994 10.699 139.969C2.84563 150.274 -2.37799 164.622 1.09374 177.254C4.4668 189.529 18.8215 197.292 18.9257 210.055C19.0079 220.131 9.85016 228.148 9.11257 238.195C8.47937 246.818 14.4581 254.791 21.8056 258.878C29.1531 262.965 37.678 263.964 45.9671 264.891C45.9671 264.891 127.287 270.638 169.198 269.769C235.292 268.399 301.386 267.029 367.48 265.659C374.273 265.518 381.23 265.345 387.56 262.782C393.889 260.22 399.565 254.735 400.529 247.759C402.17 235.885 390.206 225.581 391.312 213.641C392.724 198.395 413.419 192.514 417.357 177.752C420.14 167.32 413.42 156.813 406.173 149.025Z" fill="#F4F4F4"/>
<path d="M370.512 46.0367C376.582 58.9045 408.851 135.231 342.667 178.377C342.667 178.377 308.488 133.597 368.43 45.8676C368.954 45.1 370.115 45.196 370.512 46.0367Z" fill="#AEC3B0"/>
<path d="M367.82 60.0464C368.178 69.1379 368.253 78.2289 368.157 87.3225C368.051 96.415 367.742 105.508 367.154 114.587C366.558 123.665 365.698 132.734 364.342 141.745C363.678 146.252 362.851 150.738 361.852 155.192C360.847 159.643 359.664 164.066 358.129 168.388C357.987 168.786 357.55 168.995 357.152 168.853C356.753 168.712 356.545 168.274 356.687 167.876L356.689 167.87L356.69 167.867C358.231 163.636 359.437 159.275 360.468 154.874C361.493 150.47 362.352 146.021 363.048 141.544C364.468 132.594 365.399 123.561 366.067 114.512C366.728 105.461 367.109 96.3868 367.288 87.309C367.458 78.2321 367.456 69.144 367.173 60.0735L367.172 60.0693C367.167 59.8903 367.307 59.7407 367.486 59.7351C367.664 59.7298 367.813 59.8689 367.82 60.0464Z" fill="#C6DEC8"/>
<path d="M346.229 203.422C346.229 203.422 339.342 181.956 354.402 163.486C368.376 146.348 403.722 107.147 406.703 82.9898C406.835 81.9198 408.719 82.5202 409.161 83.7759C413.896 97.2452 423.018 130.601 410.344 160.546C393.999 199.161 346.229 203.422 346.229 203.422Z" fill="#AEC3B0"/>
<path d="M406.784 105.851C407.316 108.175 407.551 110.56 407.649 112.944C407.747 115.329 407.702 117.725 407.486 120.109C407.269 122.492 406.919 124.866 406.42 127.211C405.923 129.556 405.266 131.868 404.495 134.141C404.126 135.283 403.669 136.394 403.235 137.514C402.758 138.615 402.299 139.726 401.765 140.802C401.266 141.896 400.684 142.947 400.13 144.013C399.84 144.539 399.529 145.053 399.23 145.574L398.776 146.352L398.294 147.113L397.326 148.633L396.3 150.115C395.633 151.114 394.877 152.049 394.161 153.014C393.42 153.957 392.644 154.878 391.874 155.793C391.087 156.689 390.313 157.595 389.515 158.481C386.35 162.046 383.094 165.531 379.739 168.915C378.064 170.61 376.375 172.29 374.668 173.95C372.955 175.603 371.23 177.243 369.503 178.878C366.051 182.149 362.584 185.398 359.305 188.811C357.673 190.522 356.1 192.29 354.696 194.183C354.002 195.135 353.353 196.117 352.765 197.136C352.188 198.16 351.678 199.222 351.265 200.325L351.264 200.328C351.227 200.427 351.117 200.477 351.018 200.44C350.922 200.404 350.872 200.299 350.902 200.202C351.271 199.058 351.742 197.948 352.283 196.875C352.837 195.807 353.474 194.786 354.146 193.792C355.51 191.817 357.044 189.972 358.634 188.189C360.224 186.405 361.905 184.712 363.582 183.021C365.264 181.335 366.962 179.669 368.656 178.001C370.35 176.334 372.04 174.663 373.716 172.982C375.402 171.311 377.072 169.624 378.724 167.922C382.025 164.514 385.266 161.05 388.412 157.502C389.205 156.621 389.974 155.718 390.755 154.827C391.144 154.38 391.509 153.922 391.887 153.47C392.257 153.012 392.651 152.574 393.007 152.105C393.715 151.166 394.463 150.256 395.123 149.282L396.139 147.839L397.098 146.358L397.576 145.616L398.025 144.858L398.922 143.338C399.481 142.304 400.069 141.284 400.576 140.221C401.117 139.176 401.584 138.096 402.071 137.024C402.517 135.936 402.975 134.85 403.369 133.741C405.009 129.326 406.128 124.713 406.725 120.026C407.024 117.683 407.201 115.32 407.211 112.951C407.22 111.767 407.191 110.581 407.112 109.398C407.038 108.215 406.936 107.031 406.738 105.86C406.735 105.847 406.743 105.835 406.756 105.832C406.769 105.83 406.781 105.839 406.784 105.851Z" fill="url(#paint0_linear_384_4168)"/>
<path d="M408.716 166.731L413.419 166.971C415.745 167.089 417.568 169.013 417.561 171.343L417.218 268.014C417.21 270.555 415.135 272.604 412.594 272.579L380.306 272.265L408.716 166.731Z" fill="url(#paint1_linear_384_4168)"/>
<path d="M352.338 167.48L411.899 163.906C413.131 163.832 414.164 164.825 414.139 166.059L411.8 266.151C411.75 268.605 409.709 270.548 407.256 270.478L365.349 269.282L352.338 167.48Z" fill="#AEC3B0"/>
<path d="M355.547 169.86L407.884 162.562C409.229 162.375 410.427 163.428 410.413 164.786L409.212 265.854C409.195 267.489 407.9 268.824 406.266 268.891L367.718 270.468L355.547 169.86Z" fill="#C6DEC8"/>
<path d="M341.704 164.257L399.128 160.011C401.989 159.799 404.437 162.046 404.47 164.916L405.848 268.408C405.876 270.809 403.952 272.778 401.551 272.806L348.569 273.423C346.07 273.452 343.984 271.521 343.82 269.026L336.381 170.379C336.174 167.223 338.55 164.49 341.704 164.257Z" fill="url(#paint2_linear_384_4168)"/>
<path d="M407.605 206.547L402.305 206.609C401.302 206.62 400.479 205.816 400.467 204.813L400.099 173.114C400.087 172.111 400.891 171.288 401.894 171.277L407.194 171.215C408.197 171.203 409.02 172.007 409.032 173.01L409.401 204.709C409.412 205.712 408.608 206.535 407.605 206.547Z" fill="url(#paint3_linear_384_4168)"/>
<path d="M368.12 166.731L372.822 166.971C375.148 167.089 376.971 169.013 376.964 171.343L376.622 268.014C376.614 270.555 374.539 272.604 371.998 272.579L339.709 272.265L368.12 166.731Z" fill="url(#paint4_linear_384_4168)"/>
<path d="M311.742 167.48L371.303 163.906C372.535 163.832 373.568 164.825 373.543 166.059L371.204 266.151C371.154 268.605 369.113 270.548 366.659 270.478L324.753 269.282L311.742 167.48Z" fill="#AEC3B0"/>
<path d="M314.951 169.86L367.288 162.562C368.633 162.375 369.831 163.428 369.817 164.786L368.617 265.854C368.6 267.489 367.305 268.824 365.671 268.891L327.123 270.468L314.951 169.86Z" fill="#C6DEC8"/>
<path d="M301.108 164.257L358.532 160.011C361.394 159.799 363.841 162.046 363.874 164.916L365.252 268.408C365.28 270.809 363.356 272.778 360.955 272.806L307.973 273.423C305.474 273.452 303.388 271.521 303.224 269.026L295.785 170.379C295.577 167.223 297.954 164.49 301.108 164.257Z" fill="url(#paint5_linear_384_4168)"/>
<path d="M367.009 206.547L361.709 206.609C360.706 206.62 359.883 205.816 359.871 204.813L359.502 173.114C359.491 172.111 360.294 171.288 361.298 171.277L366.598 171.215C367.601 171.203 368.424 172.007 368.435 173.01L368.804 204.709C368.816 205.712 368.012 206.535 367.009 206.547Z" fill="url(#paint6_linear_384_4168)"/>
<path d="M339.236 117.683L343.938 117.923C346.264 118.042 348.087 119.966 348.08 122.295L347.738 218.967C347.73 221.508 345.655 223.556 343.114 223.532L310.825 223.218L339.236 117.683Z" fill="url(#paint7_linear_384_4168)"/>
<path d="M282.858 118.433L342.419 114.858C343.651 114.784 344.684 115.777 344.659 117.011L342.32 217.104C342.27 219.558 340.229 221.501 337.775 221.431L295.869 220.234L282.858 118.433Z" fill="#AEC3B0"/>
<path d="M286.067 120.813L338.404 113.515C339.749 113.327 340.947 114.38 340.933 115.738L339.733 216.806C339.716 218.441 338.421 219.777 336.787 219.844L298.238 221.42L286.067 120.813Z" fill="#C6DEC8"/>
<path d="M272.224 115.209L329.647 110.963C332.509 110.752 334.957 112.998 334.99 115.868L336.367 219.36C336.395 221.761 334.472 223.73 332.071 223.758L279.089 224.375C276.589 224.404 274.503 222.473 274.34 219.978L266.9 121.331C266.694 118.175 269.07 115.442 272.224 115.209Z" fill="url(#paint8_linear_384_4168)"/>
<path d="M338.125 157.499L332.825 157.561C331.821 157.573 330.999 156.769 330.987 155.766L330.618 124.067C330.607 123.063 331.41 122.241 332.414 122.229L337.714 122.167C338.717 122.156 339.54 122.96 339.551 123.963L339.92 155.662C339.932 156.665 339.128 157.488 338.125 157.499Z" fill="url(#paint9_linear_384_4168)"/>
<path d="M221.811 49.9763C216.089 67.5603 186.975 171.249 279.367 216.047C279.367 216.047 316.107 152.719 224.467 49.4175C223.665 48.5139 222.184 48.8276 221.811 49.9763Z" fill="#AEC3B0"/>
<path d="M228.316 67.5527C228.603 73.824 229.171 80.0963 229.851 86.3451C230.538 92.5956 231.394 98.8273 232.392 105.035C233.392 111.242 234.562 117.421 235.893 123.564C237.229 129.705 238.704 135.818 240.429 141.859C243.837 153.948 248.043 165.829 253.418 177.165L253.912 178.232C254.079 178.587 254.264 178.932 254.439 179.283L255.504 181.379L256.569 183.475C256.919 184.176 257.324 184.847 257.699 185.535C258.471 186.898 259.21 188.28 260.008 189.627L262.473 193.625C265.868 198.884 269.611 203.912 273.77 208.575L273.778 208.584C274.06 208.899 274.032 209.383 273.717 209.664C273.402 209.945 272.918 209.918 272.637 209.603L272.634 209.599C268.436 204.839 264.675 199.722 261.274 194.386L258.807 190.332C258.01 188.967 257.271 187.568 256.501 186.188C256.127 185.492 255.722 184.812 255.373 184.103L254.312 181.984L253.251 179.864C253.076 179.51 252.892 179.16 252.726 178.802L252.234 177.725C246.886 166.272 242.73 154.308 239.38 142.151C237.683 136.077 236.24 129.936 234.935 123.769C233.637 117.6 232.5 111.399 231.534 105.171C230.571 98.9433 229.749 92.6939 229.097 86.4266C228.452 80.1574 227.92 73.8815 227.668 67.5741C227.661 67.3953 227.801 67.2445 227.979 67.2374C228.157 67.2304 228.308 67.3684 228.316 67.5462L228.316 67.5527Z" fill="#C6DEC8"/>
<path d="M69.942 223.119C80.6724 221.312 143.566 213.371 162.079 271.544C162.079 271.544 122.103 287.521 69.397 224.629C68.9359 224.078 69.241 223.237 69.942 223.119Z" fill="#AEC3B0"/>
<path d="M79.7536 227.98C86.8427 229.397 93.8231 231.232 100.736 233.315C107.643 235.411 114.465 237.805 121.143 240.567C127.818 243.335 134.351 246.477 140.588 250.167C143.693 252.032 146.748 253.994 149.657 256.17C152.561 258.35 155.35 260.694 157.955 263.246C158.257 263.541 158.261 264.026 157.966 264.328C157.67 264.63 157.185 264.634 156.884 264.339L156.878 264.333L156.871 264.326C154.352 261.808 151.639 259.479 148.803 257.305C145.962 255.134 142.966 253.166 139.915 251.29C133.782 247.577 127.329 244.39 120.721 241.572C114.109 238.757 107.341 236.304 100.48 234.145C93.617 232 86.6606 230.097 79.6311 228.616L79.6229 228.615C79.4477 228.578 79.3357 228.406 79.3725 228.231C79.4097 228.057 79.5797 227.945 79.7536 227.98Z" fill="url(#paint10_linear_384_4168)"/>
<path d="M272.258 77.7703L196.52 105.336C193.343 106.492 191.825 110.109 193.224 113.186L193.454 113.691C194.692 116.414 197.91 117.608 200.625 116.352L274.166 82.3319L272.258 77.7703Z" fill="#124559"/>
<g opacity="0.43">
<path d="M307.071 97.9024C327.72 97.9024 344.459 81.4652 344.459 61.1888C344.459 40.9124 327.72 24.4751 307.071 24.4751C286.422 24.4751 269.683 40.9124 269.683 61.1888C269.683 81.4652 286.422 97.9024 307.071 97.9024Z" fill="#AEC3B0"/>
</g>
<path d="M307.071 20.3363C284.094 20.3363 265.468 38.6266 265.468 61.1885C265.468 83.7507 284.094 102.041 307.071 102.041C330.048 102.041 348.674 83.7507 348.674 61.1885C348.674 38.6266 330.048 20.3363 307.071 20.3363ZM307.071 96.0398C287.469 96.0398 271.579 80.4364 271.579 61.1885C271.579 41.9407 287.469 26.3372 307.071 26.3372C326.672 26.3372 342.562 41.9407 342.562 61.1885C342.562 80.4364 326.672 96.0398 307.071 96.0398Z" fill="#124559"/>
<path d="M268.631 66.1612C268.536 66.1612 268.454 66.0906 268.441 65.9942C268.318 65.0314 268.232 64.0482 268.183 63.0717C268.178 62.9664 268.259 62.8767 268.365 62.8715C268.475 62.8555 268.56 62.9473 268.565 63.053C268.613 64.0194 268.699 64.9929 268.821 65.9455C268.834 66.0505 268.76 66.1461 268.655 66.1597C268.647 66.1608 268.639 66.1612 268.631 66.1612ZM268.917 54.7382C268.905 54.7382 268.894 54.737 268.883 54.7351C268.779 54.7164 268.71 54.6172 268.728 54.5132C269.198 51.8918 269.952 49.3134 270.967 46.8497L270.968 46.8485C276.951 32.333 291.123 22.9535 307.071 22.9535C314.507 22.9535 321.736 25.0193 327.978 28.9281C328.067 28.9842 328.094 29.1021 328.038 29.1918C327.982 29.2815 327.864 29.3088 327.774 29.2523C321.595 25.3817 314.435 23.3361 307.071 23.3361C291.278 23.3361 277.246 32.6231 271.321 46.9955C270.316 49.4342 269.57 51.9863 269.105 54.5804C269.088 54.6731 269.008 54.7382 268.917 54.7382Z" fill="#AEC3B0"/>
<path d="M198.014 115.204C197.993 115.204 197.972 115.201 197.952 115.194C195.614 114.386 194.388 113.047 194.309 111.216C194.229 109.374 195.387 107.665 197.19 106.961L206.284 103.415C206.382 103.377 206.493 103.425 206.532 103.524C206.57 103.622 206.522 103.733 206.423 103.771L197.329 107.318C195.678 107.962 194.618 109.522 194.691 111.2C194.763 112.858 195.902 114.081 198.077 114.833C198.176 114.867 198.23 114.976 198.195 115.076C198.168 115.155 198.094 115.204 198.014 115.204Z" fill="#AEC3B0"/>
<path d="M209.156 102.692C209.079 102.692 209.007 102.645 208.977 102.57C208.939 102.472 208.988 102.361 209.086 102.322L210.265 101.863C210.363 101.824 210.474 101.873 210.513 101.972C210.551 102.07 210.502 102.181 210.404 102.219L209.225 102.679C209.202 102.688 209.179 102.692 209.156 102.692Z" fill="#AEC3B0"/>
<path d="M298.639 166.731L303.342 166.971C305.668 167.089 307.491 169.013 307.484 171.343L307.141 268.014C307.133 270.555 305.058 272.604 302.518 272.579L270.229 272.265L298.639 166.731Z" fill="url(#paint11_linear_384_4168)"/>
<path d="M242.262 167.48L301.822 163.906C303.054 163.832 304.087 164.825 304.062 166.059L301.723 266.151C301.673 268.605 299.633 270.548 297.179 270.478L255.273 269.282L242.262 167.48Z" fill="#AEC3B0"/>
<path d="M245.471 169.86L297.808 162.562C299.153 162.375 300.351 163.428 300.337 164.786L299.136 265.854C299.12 267.489 297.824 268.824 296.191 268.891L257.642 270.468L245.471 169.86Z" fill="#C6DEC8"/>
<path d="M231.711 163.646L289.135 159.4C291.996 159.189 294.444 161.435 294.477 164.305L295.855 267.797C295.882 270.198 293.959 272.167 291.558 272.195L238.576 272.812C236.076 272.841 233.99 270.909 233.827 268.415L226.388 169.768C226.181 166.612 228.557 163.879 231.711 163.646Z" fill="url(#paint12_linear_384_4168)"/>
<path d="M297.529 206.547L292.229 206.609C291.225 206.62 290.403 205.816 290.391 204.813L290.022 173.114C290.011 172.111 290.815 171.288 291.818 171.277L297.118 171.215C298.121 171.203 298.944 172.007 298.955 173.01L299.324 204.709C299.336 205.712 298.532 206.535 297.529 206.547Z" fill="url(#paint13_linear_384_4168)"/>
<path d="M258.043 166.731L262.746 166.971C265.072 167.089 266.895 169.013 266.888 171.343L266.545 268.014C266.538 270.555 264.463 272.604 261.922 272.579L229.633 272.265L258.043 166.731Z" fill="url(#paint14_linear_384_4168)"/>
<path d="M201.666 167.48L261.226 163.906C262.458 163.832 263.491 164.825 263.466 166.059L261.128 266.151C261.078 268.605 259.037 270.548 256.583 270.478L214.677 269.282L201.666 167.48Z" fill="#AEC3B0"/>
<path d="M204.875 169.86L257.212 162.562C258.557 162.375 259.755 163.428 259.741 164.786L258.54 265.854C258.524 267.489 257.228 268.824 255.595 268.891L217.046 270.468L204.875 169.86Z" fill="#C6DEC8"/>
<path d="M191.032 164.257L248.455 160.011C251.317 159.799 253.765 162.046 253.798 164.916L255.176 268.408C255.203 270.809 253.28 272.778 250.879 272.806L197.897 273.423C195.397 273.452 193.311 271.521 193.148 269.026L185.708 170.379C185.501 167.223 187.878 164.49 191.032 164.257Z" fill="url(#paint15_linear_384_4168)"/>
<path d="M256.933 206.547L251.633 206.609C250.629 206.62 249.807 205.816 249.795 204.813L249.426 173.114C249.415 172.111 250.218 171.288 251.222 171.277L256.522 171.215C257.525 171.203 258.347 172.007 258.359 173.01L258.728 204.709C258.74 205.712 257.936 206.535 256.933 206.547Z" fill="url(#paint16_linear_384_4168)"/>
<path d="M217.447 166.731L222.15 166.971C224.476 167.089 226.299 169.013 226.292 171.343L225.949 268.014C225.941 270.555 223.866 272.604 221.325 272.579L189.037 272.265L217.447 166.731Z" fill="url(#paint17_linear_384_4168)"/>
<path d="M161.07 167.48L220.63 163.906C221.862 163.832 222.895 164.825 222.87 166.059L220.531 266.151C220.481 268.605 218.441 270.548 215.987 270.478L174.081 269.282L161.07 167.48Z" fill="#AEC3B0"/>
<path d="M164.279 169.86L216.615 162.562C217.961 162.375 219.158 163.428 219.144 164.786L217.944 265.854C217.927 267.489 216.632 268.824 214.998 268.891L176.45 270.468L164.279 169.86Z" fill="#C6DEC8"/>
<path d="M150.436 164.257L207.859 160.011C210.721 159.799 213.168 162.046 213.202 164.916L214.579 268.408C214.607 270.809 212.683 272.778 210.282 272.806L157.301 273.423C154.801 273.452 152.715 271.521 152.552 269.026L145.112 170.379C144.905 167.223 147.282 164.49 150.436 164.257Z" fill="url(#paint18_linear_384_4168)"/>
<path d="M216.336 206.547L211.036 206.609C210.033 206.62 209.21 205.816 209.199 204.813L208.83 173.114C208.818 172.111 209.622 171.288 210.625 171.277L215.925 171.215C216.929 171.203 217.751 172.007 217.763 173.01L218.132 204.709C218.143 205.712 217.34 206.535 216.336 206.547Z" fill="url(#paint19_linear_384_4168)"/>
<path d="M159.084 117.994L60.7794 117.357C56.4035 117.328 52.8462 113.725 52.8747 109.349C52.9031 104.973 56.5067 101.416 60.8824 101.444L159.187 102.082C163.563 102.11 167.12 105.713 167.092 110.089C167.064 114.465 163.46 118.022 159.084 117.994Z" fill="#124559"/>
<path d="M149.896 30.2346L72.1654 29.7306C53.6715 29.6107 38.442 44.644 38.322 63.138L38.1223 93.9263C38.0771 100.897 43.7435 106.637 53.0043 105.784L172.638 106.56C177.318 107.503 183.059 101.837 183.104 94.8663L183.304 64.078C183.424 45.5841 168.39 30.3546 149.896 30.2346Z" fill="#598392"/>
<path d="M165.156 111.668L55.85 110.959C46.0392 110.896 37.9603 118.871 37.8967 128.682L37.8038 143.023C37.5452 182.893 69.7205 251.793 109.59 252.052H109.591C149.461 252.311 182.527 183.833 182.785 143.963L182.878 129.622C182.942 119.811 174.967 111.732 165.156 111.668Z" fill="#598392"/>
<path d="M163.155 74.4239C163.12 79.804 159.006 84.2927 153.647 84.7624C124.637 87.3038 94.5618 87.191 63.6182 84.1507C58.2489 83.6233 54.164 79.0794 54.199 73.6844L54.2356 68.0283C54.2703 62.6652 58.3634 58.1899 63.7037 57.6943C93.8101 54.8998 123.914 54.5714 154.013 58.1349C159.281 58.7586 163.227 63.2702 163.193 68.5743L163.155 74.4239Z" fill="#124559"/>
<path d="M79.2928 77.6693C82.9481 77.6693 85.9112 74.7061 85.9112 71.0508C85.9112 67.3956 82.9481 64.4324 79.2928 64.4324C75.6375 64.4324 72.6743 67.3956 72.6743 71.0508C72.6743 74.7061 75.6375 77.6693 79.2928 77.6693Z" fill="#598392"/>
<path d="M138.098 78.0505C141.753 78.0505 144.716 75.0873 144.716 71.4321C144.716 67.7768 141.753 64.8136 138.098 64.8136C134.443 64.8136 131.479 67.7768 131.479 71.4321C131.479 75.0873 134.443 78.0505 138.098 78.0505Z" fill="#598392"/>
<path d="M79.4324 80.2561C79.4196 80.0368 79.5835 79.854 79.7959 79.8414C80.0152 79.8286 80.198 79.9925 80.2108 80.2118C80.2236 80.4238 80.0596 80.6068 79.8404 80.6196C79.8335 80.6196 79.8263 80.6194 79.8192 80.6194C79.6142 80.6181 79.4385 80.4612 79.4324 80.2561ZM77.4436 80.4625C77.2318 80.4187 77.099 80.2127 77.1354 80.0009C77.1793 79.7889 77.3852 79.6488 77.5971 79.6927C77.8093 79.7366 77.9423 79.9353 77.9057 80.1543C77.8688 80.3379 77.7053 80.4711 77.5217 80.47C77.4933 80.4696 77.4721 80.4627 77.4436 80.4625ZM81.7121 79.9314C81.6495 79.7259 81.7573 79.5072 81.9697 79.445C82.1755 79.3755 82.394 79.4902 82.4562 79.6958C82.5257 79.9013 82.411 80.1198 82.2054 80.1891C82.1629 80.203 82.1207 80.2026 82.0852 80.2024C81.9154 80.2013 81.7677 80.1017 81.7121 79.9314ZM75.1641 79.7053C74.9667 79.6118 74.8906 79.3782 74.9837 79.1877C75.07 78.9902 75.3036 78.9066 75.5013 79.0002C75.6986 79.0933 75.7751 79.3272 75.6816 79.5175C75.6171 79.6656 75.4751 79.7423 75.3265 79.7414C75.2772 79.7412 75.2206 79.7339 75.1641 79.7053ZM83.8465 79.0542C83.7276 78.8694 83.7856 78.6294 83.9701 78.5105C84.1476 78.3984 84.3881 78.4566 84.5069 78.6341C84.619 78.8185 84.5676 79.0589 84.3833 79.1778C84.3192 79.2198 84.2413 79.2335 84.1705 79.233C84.0436 79.2322 83.9165 79.1677 83.8465 79.0542ZM73.1429 78.4047C72.9809 78.2692 72.9544 78.0215 73.0967 77.8528C73.232 77.691 73.4799 77.6712 73.6488 77.8067C73.8106 77.9423 73.8301 78.1899 73.6946 78.3587C73.6164 78.4502 73.5028 78.4988 73.3895 78.4981C73.3051 78.4975 73.2129 78.4691 73.1429 78.4047ZM85.6875 77.6727C85.5327 77.5233 85.5274 77.2755 85.677 77.1139C85.8264 76.9595 86.0737 76.9538 86.2287 77.1034C86.3835 77.2528 86.3888 77.5005 86.2392 77.6553C86.1609 77.7395 86.0615 77.7744 85.9556 77.7736C85.8564 77.7729 85.7648 77.7368 85.6875 77.6727ZM71.5065 76.6473C71.3801 76.4696 71.4242 76.2294 71.5946 76.1032C71.7723 75.9769 72.0196 76.0137 72.146 76.1914C72.2723 76.3689 72.2282 76.6095 72.0505 76.7353C71.9864 76.7845 71.9015 76.8124 71.8234 76.8118C71.7032 76.8112 71.5834 76.7538 71.5065 76.6473ZM87.1346 75.8716C86.9443 75.7643 86.8823 75.5305 86.9823 75.3401C87.0899 75.1498 87.3308 75.0878 87.5138 75.1882C87.7041 75.2954 87.7733 75.5362 87.6661 75.7196C87.5943 75.8536 87.4596 75.9235 87.3182 75.9225C87.2617 75.9221 87.1911 75.9074 87.1346 75.8716ZM70.3601 74.5391C70.2836 74.3408 70.384 74.1078 70.5826 74.0315C70.7811 73.9548 71.0069 74.0553 71.0903 74.2538C71.167 74.4525 71.0664 74.6853 70.8679 74.7618C70.8181 74.7756 70.7687 74.7895 70.7189 74.7891C70.5706 74.7882 70.4227 74.6954 70.3601 74.5391ZM88.089 73.77C87.877 73.7193 87.7512 73.5061 87.8092 73.2945C87.8668 73.0897 88.08 72.9636 88.2848 73.0147C88.4964 73.0727 88.6226 73.2855 88.5645 73.4903C88.5645 73.4903 88.5645 73.4903 88.5645 73.4971C88.521 73.6668 88.3575 73.7859 88.1808 73.7847C88.1523 73.7845 88.1172 73.7775 88.089 73.77ZM69.774 72.2086C69.7469 71.9964 69.904 71.7991 70.1162 71.7722C70.3288 71.7456 70.5257 71.9023 70.5527 72.1145C70.5796 72.3271 70.4225 72.5239 70.2103 72.5508C70.1962 72.5508 70.175 72.5506 70.1609 72.5504C69.97 72.5492 69.8009 72.4069 69.774 72.2086ZM88.0989 71.1111C88.0989 71.1038 88.0989 71.1038 88.0989 71.097C88.0989 71.0897 88.0991 71.0828 88.0991 71.0687C88.1004 70.8563 88.2716 70.6806 88.4907 70.6821C88.7027 70.6834 88.8785 70.8615 88.8769 71.0739C88.8769 71.0807 88.877 71.088 88.8768 71.0951C88.8768 71.1023 88.8768 71.1092 88.8766 71.1164C88.8752 71.3285 88.7044 71.5042 88.4852 71.5027C88.2733 71.501 88.0976 71.3231 88.0989 71.1111ZM88.0993 71.0685V71.0754C88.0993 71.0685 88.0993 71.0754 88.0993 71.0685ZM70.1261 70.2447C69.9071 70.2149 69.7599 70.0229 69.7826 69.8107C69.8124 69.592 70.0113 69.4447 70.2231 69.4741C70.4353 69.497 70.5893 69.6958 70.5597 69.9079C70.5374 70.1056 70.3668 70.2531 70.1687 70.2517C70.1544 70.2517 70.1403 70.2449 70.1261 70.2447ZM87.8306 68.8811C87.7752 68.676 87.9041 68.4575 88.1096 68.4092C88.322 68.3539 88.5336 68.4827 88.589 68.6882C88.6369 68.9006 88.5155 69.1121 88.3027 69.1674C88.2674 69.1741 88.2392 69.1739 88.2039 69.1737C88.0338 69.1726 87.872 69.0582 87.8306 68.8811ZM70.6076 67.9916C70.4099 67.9123 70.3126 67.6855 70.3916 67.4808C70.4706 67.2834 70.6977 67.1859 70.9025 67.2647C71.0998 67.3438 71.1975 67.5709 71.1181 67.7754C71.0536 67.9235 70.9046 68.0216 70.7487 68.0207C70.7067 68.0207 70.657 68.0062 70.6076 67.9916ZM87.0233 66.8321C86.9186 66.6405 86.9909 66.4002 87.1756 66.3025C87.3672 66.1978 87.6 66.2628 87.705 66.4544C87.8098 66.646 87.7443 66.8791 87.5527 66.984C87.489 67.0188 87.4252 67.0325 87.3619 67.0321C87.2272 67.0314 87.0934 66.9598 87.0233 66.8321ZM71.6463 65.9331C71.4704 65.7976 71.4299 65.5569 71.5582 65.381C71.6866 65.2123 71.9347 65.1714 72.1032 65.2997C72.2792 65.4283 72.3202 65.669 72.1916 65.8449C72.1131 65.9504 71.9925 66.0064 71.8725 66.0056C71.7948 66.0048 71.7099 65.9831 71.6463 65.9331ZM85.7268 65.0415C85.5793 64.8848 85.5878 64.6373 85.7445 64.4898C85.9081 64.3422 86.1552 64.3512 86.3031 64.5075C86.4506 64.6642 86.4417 64.9117 86.2854 65.0592C86.2069 65.1295 86.1079 65.164 86.0157 65.1634C85.9098 65.1629 85.8041 65.127 85.7268 65.0415ZM73.1572 64.1888C73.024 64.0253 73.0471 63.7781 73.2105 63.6377C73.3809 63.5045 73.6211 63.5272 73.7616 63.6907C73.8948 63.8615 73.8721 64.109 73.7087 64.2422C73.6303 64.3052 73.5456 64.3331 73.4532 64.3325C73.3471 64.3316 73.2345 64.2816 73.1572 64.1888ZM84.0314 63.63C83.8486 63.5155 83.8003 63.2676 83.9148 63.0915C84.0293 62.9085 84.2768 62.8535 84.4529 62.9678C84.6361 63.0892 84.6913 63.3298 84.5768 63.5132C84.4984 63.6256 84.3705 63.6886 84.243 63.6879C84.1726 63.6877 84.102 63.673 84.0314 63.63ZM75.054 62.8789C74.9633 62.68 75.05 62.4472 75.2414 62.3566C75.4398 62.2659 75.6727 62.3524 75.7633 62.5508C75.8543 62.7424 75.7679 62.9753 75.569 63.0659C75.5196 63.094 75.4627 63.1077 75.4061 63.1073C75.2576 63.1064 75.1169 63.0205 75.054 62.8789ZM82.0432 62.6835C81.8386 62.6117 81.7266 62.3917 81.7915 62.1869C81.8568 61.9822 82.0768 61.8703 82.2883 61.9426C82.2883 61.9426 82.2883 61.9426 82.281 61.9426C82.493 62.0075 82.6049 62.2276 82.5327 62.4323C82.482 62.6018 82.3259 62.707 82.1631 62.7058C82.1207 62.7052 82.0783 62.6978 82.0432 62.6835ZM77.2165 62.0793C77.1755 61.8669 77.3183 61.6627 77.5307 61.6289C77.7431 61.5879 77.9473 61.7236 77.9883 61.9358C78.0225 62.1484 77.8864 62.3528 77.6742 62.3938C77.6459 62.4005 77.6247 62.4003 77.5965 62.4001C77.4196 62.3989 77.2505 62.2703 77.2165 62.0793ZM79.8743 62.2665C79.6623 62.2509 79.4938 62.0661 79.5093 61.8468C79.5247 61.6346 79.71 61.4732 79.9291 61.4818C80.1411 61.4972 80.3026 61.682 80.2942 61.9012C80.2787 62.1062 80.1009 62.2676 79.9028 62.2665C79.8885 62.2665 79.8816 62.2665 79.8743 62.2665Z" fill="#598392"/>
<path d="M138.205 80.6372C138.193 80.418 138.357 80.2353 138.569 80.2223C138.788 80.2096 138.971 80.3735 138.984 80.5928C138.996 80.805 138.833 80.9878 138.613 81.0006C138.606 81.0006 138.599 81.0006 138.592 81.0004C138.387 80.9993 138.211 80.8424 138.205 80.6372ZM136.217 80.8437C136.005 80.7998 135.872 80.5939 135.909 80.3821C135.952 80.1701 136.159 80.03 136.37 80.0739C136.582 80.1176 136.716 80.3164 136.679 80.5355C136.642 80.7189 136.479 80.8523 136.295 80.8512C136.266 80.8508 136.245 80.8439 136.217 80.8437ZM140.485 80.3124C140.422 80.1069 140.53 79.8884 140.743 79.8262C140.948 79.7567 141.167 79.8714 141.229 80.0769C141.298 80.2827 141.184 80.5012 140.978 80.5702C140.936 80.5842 140.893 80.5838 140.858 80.5836C140.688 80.5825 140.541 80.4828 140.485 80.3124ZM133.937 80.0863C133.74 79.9928 133.664 79.7592 133.757 79.5687C133.843 79.371 134.077 79.2876 134.274 79.3811C134.472 79.4743 134.548 79.7082 134.455 79.8985C134.39 80.0466 134.248 80.1233 134.1 80.1225C134.05 80.1224 133.994 80.1151 133.937 80.0863ZM142.619 79.4353C142.5 79.2504 142.559 79.0105 142.743 78.8916C142.921 78.7796 143.161 78.8376 143.28 79.0153C143.392 79.1996 143.341 79.4401 143.156 79.559C143.092 79.601 143.014 79.6147 142.943 79.6143C142.817 79.6136 142.689 79.5489 142.619 79.4353ZM131.916 78.7859C131.754 78.6504 131.727 78.4027 131.87 78.234C132.005 78.0722 132.253 78.0523 132.422 78.1878C132.584 78.3235 132.603 78.571 132.468 78.7399C132.389 78.8313 132.276 78.88 132.163 78.8792C132.078 78.8787 131.986 78.8502 131.916 78.7859ZM144.46 78.0539C144.306 77.9044 144.3 77.6567 144.45 77.4951C144.599 77.3407 144.847 77.335 145.001 77.4846C145.156 77.634 145.162 77.8817 145.012 78.0365C144.934 78.1206 144.834 78.1556 144.728 78.1548C144.629 78.154 144.538 78.118 144.46 78.0539ZM130.279 77.0285C130.153 76.8508 130.197 76.6104 130.368 76.4844C130.545 76.3581 130.793 76.3949 130.919 76.5726C131.045 76.7502 131.001 76.9907 130.823 77.1165C130.759 77.1659 130.674 77.1936 130.596 77.193C130.476 77.1924 130.356 77.135 130.279 77.0285ZM145.908 76.2527C145.717 76.1455 145.655 75.9117 145.755 75.7212C145.863 75.531 146.104 75.469 146.287 75.5693C146.477 75.6766 146.546 75.9174 146.439 76.1008C146.368 76.2348 146.233 76.3046 146.091 76.3037C146.035 76.3033 145.964 76.2886 145.908 76.2527ZM129.133 74.9203C129.057 74.722 129.157 74.4892 129.356 74.4127C129.554 74.3359 129.78 74.4365 129.864 74.635C129.94 74.8337 129.84 75.0665 129.641 75.143C129.592 75.1567 129.542 75.1707 129.492 75.1703C129.344 75.1693 129.196 75.0764 129.133 74.9203ZM146.862 74.1512C146.65 74.1004 146.524 73.8873 146.582 73.6756C146.64 73.4709 146.853 73.3447 147.058 73.3959C147.27 73.4539 147.396 73.6669 147.338 73.8714C147.338 73.8714 147.338 73.8714 147.338 73.8783C147.294 74.048 147.131 74.1671 146.954 74.1659C146.925 74.1657 146.89 74.1587 146.862 74.1512ZM128.547 72.5896C128.52 72.3774 128.677 72.18 128.889 72.1531C129.102 72.1266 129.299 72.2833 129.326 72.4955C129.352 72.7081 129.195 72.9048 128.983 72.9319C128.969 72.9318 128.948 72.9318 128.934 72.9316C128.743 72.9304 128.574 72.7881 128.547 72.5896ZM146.872 71.4921C146.872 71.4848 146.872 71.4848 146.872 71.478C146.872 71.4707 146.872 71.4638 146.872 71.4497C146.874 71.2373 147.045 71.0617 147.264 71.0631C147.476 71.0644 147.652 71.2425 147.65 71.4549C147.65 71.4617 147.65 71.469 147.65 71.4758C147.65 71.4831 147.65 71.49 147.65 71.4972C147.649 71.7092 147.478 71.885 147.258 71.8835C147.046 71.8821 146.871 71.7043 146.872 71.4921ZM146.872 71.4497V71.4566C146.872 71.4497 146.872 71.4566 146.872 71.4497ZM128.899 70.6259C128.68 70.5961 128.533 70.4043 128.556 70.1921C128.585 69.9734 128.784 69.8261 128.996 69.8554C129.208 69.8783 129.362 70.0772 129.333 70.2892C129.31 70.4869 129.14 70.6344 128.942 70.6331C128.927 70.6329 128.913 70.626 128.899 70.6259ZM146.604 69.2623C146.548 69.0572 146.677 68.8387 146.882 68.7904C147.095 68.735 147.307 68.8638 147.362 69.0694C147.41 69.2818 147.288 69.4934 147.076 69.5486C147.04 69.5553 147.012 69.5551 146.977 69.5549C146.807 69.5537 146.645 69.4394 146.604 69.2623ZM129.381 68.3728C129.183 68.2934 129.086 68.0667 129.165 67.8621C129.244 67.6648 129.471 67.5671 129.675 67.6461C129.873 67.7251 129.97 67.9522 129.891 68.157C129.827 68.3051 129.677 68.4032 129.522 68.4022C129.48 68.4018 129.43 68.3873 129.381 68.3728ZM145.796 67.2133C145.692 67.0217 145.764 66.7814 145.949 66.6839C146.14 66.5791 146.373 66.6442 146.478 66.8358C146.583 67.0274 146.518 67.2604 146.326 67.3654C146.262 67.4001 146.199 67.4139 146.135 67.4135C146 67.4125 145.866 67.341 145.796 67.2133ZM130.419 66.3142C130.243 66.1788 130.203 65.9381 130.331 65.7621C130.46 65.5934 130.707 65.5526 130.876 65.6807C131.052 65.8093 131.093 66.0499 130.965 66.2259C130.886 66.3314 130.766 66.3873 130.646 66.3866C130.568 66.386 130.483 66.3644 130.419 66.3142ZM144.5 65.4226C144.352 65.266 144.361 65.0185 144.518 64.8709C144.681 64.7234 144.929 64.7324 145.076 64.8887C145.224 65.0456 145.215 65.2931 145.058 65.4404C144.98 65.5106 144.881 65.5454 144.789 65.5446C144.683 65.544 144.577 65.5081 144.5 65.4226ZM131.93 64.57C131.797 64.4064 131.82 64.1593 131.983 64.0188C132.154 63.8856 132.394 63.9083 132.535 64.0719C132.668 64.2427 132.645 64.49 132.481 64.6234C132.403 64.6864 132.318 64.7143 132.226 64.7137C132.12 64.7127 132.008 64.6627 131.93 64.57ZM142.804 64.0112C142.621 63.8967 142.573 63.6488 142.688 63.4729C142.802 63.2898 143.05 63.2347 143.226 63.3492C143.409 63.4706 143.464 63.7112 143.35 63.8946C143.271 64.007 143.144 64.07 143.016 64.0692C142.946 64.0688 142.875 64.0541 142.804 64.0112ZM133.827 63.2601C133.736 63.0612 133.823 62.8284 134.014 62.7377C134.213 62.6471 134.446 62.7335 134.536 62.932C134.627 63.1236 134.541 63.3564 134.342 63.4471C134.293 63.4751 134.236 63.4889 134.179 63.4885C134.031 63.4876 133.89 63.4017 133.827 63.2601ZM140.816 63.0647C140.611 62.9929 140.5 62.7729 140.564 62.5681C140.63 62.3633 140.85 62.2515 141.061 62.3236C141.061 62.3236 141.061 62.3236 141.054 62.3236C141.266 62.3885 141.378 62.6085 141.306 62.8133C141.255 62.9828 141.099 63.0879 140.936 63.0868C140.894 63.0866 140.851 63.079 140.816 63.0647ZM135.989 62.4605C135.948 62.2481 136.091 62.0439 136.304 62.0101C136.516 61.9691 136.72 62.1047 136.761 62.317C136.795 62.5295 136.659 62.7339 136.447 62.775C136.419 62.7818 136.398 62.7816 136.369 62.7814C136.193 62.7801 136.023 62.6517 135.989 62.4605ZM138.647 62.6475C138.435 62.632 138.267 62.4471 138.282 62.2278C138.298 62.0156 138.483 61.8542 138.702 61.8628C138.914 61.8782 139.075 62.0629 139.067 62.2822C139.052 62.4872 138.874 62.6488 138.676 62.6475C138.662 62.6477 138.655 62.6477 138.647 62.6475Z" fill="#598392"/>
<path d="M45.0154 17.8044C47.0439 17.8044 48.6883 16.16 48.6883 14.1315C48.6883 12.103 47.0439 10.4586 45.0154 10.4586C42.9869 10.4586 41.3425 12.103 41.3425 14.1315C41.3425 16.16 42.9869 17.8044 45.0154 17.8044Z" fill="#AEC3B0"/>
<path d="M44.8186 44.479C44.8186 44.479 53.5823 45.6582 58.4527 34.239L56.1525 29.4185C55.3695 27.7776 53.397 27.0927 51.7657 27.8952L46.7146 30.3799C45.6052 30.9257 44.8993 32.0513 44.8913 33.2877L44.8186 44.479Z" fill="#124559"/>
<path d="M45.7319 15.8342C45.6376 15.6099 45.3006 15.7101 45.3439 15.9494L48.2618 32.0886C48.3282 32.4558 48.5744 32.7652 48.9174 32.9123C49.2603 33.0594 49.6542 33.0245 49.9658 32.8195L50.9038 32.2029C51.6836 31.6904 51.9868 30.6942 51.6248 29.8341L45.7319 15.8342Z" fill="#AEC3B0"/>
<path d="M177.232 18.6613C179.26 18.6613 180.904 17.017 180.904 14.9886C180.904 12.9602 179.26 11.3159 177.232 11.3159C175.203 11.3159 173.559 12.9602 173.559 14.9886C173.559 17.017 175.203 18.6613 177.232 18.6613Z" fill="#AEC3B0"/>
<path d="M177.035 45.3365C177.035 45.3365 168.257 46.402 163.535 34.9208L165.897 30.1303C166.702 28.4998 168.683 27.8405 170.304 28.6641L175.322 31.2141C176.425 31.7742 177.116 32.9089 177.108 34.1454L177.035 45.3365Z" fill="#124559"/>
<path d="M176.88 16.8022L173.766 32.8323C173.692 33.2141 173.431 33.5332 173.072 33.6819C172.713 33.8305 172.303 33.7889 171.98 33.5712L171.11 32.9825C170.337 32.4597 170.046 31.4599 170.42 30.6044L176.493 16.682C176.591 16.4591 176.926 16.5635 176.88 16.8022Z" fill="#AEC3B0"/>
<path d="M69.8553 48.4715C67.8624 48.4585 66.1748 46.9243 66.0082 44.9003C65.832 42.7591 67.4253 40.8807 69.5662 40.7047C97.8553 38.3786 123.696 38.4647 148.562 40.9681C150.699 41.183 152.258 43.0904 152.042 45.2276C151.827 47.3652 149.927 48.9249 147.783 48.7083C123.393 46.2537 98.0169 46.1717 70.204 48.4583C70.0868 48.4678 69.9706 48.4722 69.8553 48.4715Z" fill="#AEC3B0"/>
<path d="M109.147 88.6803C93.4289 88.5784 77.5901 87.6969 61.7343 86.036C55.9209 85.4271 51.5675 80.2575 51.6082 74.0113L51.649 67.7085C51.6893 61.5107 56.0694 56.4025 61.8381 55.8265C95.8605 52.4308 126.633 52.5773 155.915 56.2756C161.581 56.9912 165.824 62.1475 165.785 68.2698L165.742 74.7884C165.702 81.0191 161.303 86.1296 155.509 86.6754C140.251 88.1131 124.758 88.7814 109.147 88.6803ZM111.35 54.126C95.5539 54.0235 79.1505 54.8334 61.9104 56.5546C56.5154 57.0929 52.4187 61.89 52.3809 67.7129L52.3401 74.0157C52.3021 79.8838 56.3732 84.7383 61.8106 85.3082C93.3657 88.6129 124.867 88.8276 155.44 85.9465C160.858 85.4361 164.972 80.6369 165.01 74.7833L165.052 68.2644C165.089 62.5124 161.122 57.6702 155.823 57.001C141.43 55.1834 126.676 54.2254 111.35 54.126Z" fill="#AEC3B0"/>
<path d="M135.326 155.325L84.4052 154.995C79.5306 154.963 75.5906 150.971 75.6223 146.097L75.7163 131.599C75.7478 126.724 79.7394 122.784 84.614 122.816L135.534 123.146C140.409 123.178 144.349 127.169 144.317 132.044L144.223 146.542C144.192 151.416 140.2 155.356 135.326 155.325ZM84.6094 123.523C80.1247 123.494 76.4526 127.118 76.4236 131.603L76.3295 146.101C76.3005 150.586 79.9251 154.258 84.4098 154.287L135.33 154.617C139.815 154.647 143.487 151.022 143.516 146.537L143.61 132.039C143.639 127.554 140.014 123.882 135.53 123.853L84.6094 123.523Z" fill="#AEC3B0"/>
<path d="M89.3867 131.687C89.2949 131.687 89.2031 131.679 89.1113 131.657C89.0195 131.642 88.9348 131.613 88.85 131.578C88.7653 131.542 88.6809 131.498 88.6033 131.441C88.5258 131.392 88.4554 131.334 88.3924 131.263C88.1323 131 87.9794 130.631 87.9817 130.264C87.9842 129.889 88.1418 129.529 88.4054 129.262C88.9319 128.742 89.8798 128.748 90.4069 129.275C90.4701 129.346 90.5262 129.417 90.5823 129.495C90.6311 129.573 90.6731 129.651 90.7078 129.737C90.7428 129.829 90.7706 129.914 90.7842 130.006C90.8046 130.098 90.8109 130.19 90.8103 130.282C90.8097 130.374 90.8021 130.465 90.7805 130.557C90.7659 130.649 90.737 130.734 90.7008 130.818C90.6649 130.91 90.622 130.988 90.5721 131.065C90.5151 131.143 90.458 131.213 90.3939 131.276C90.3296 131.347 90.2514 131.403 90.1735 131.451C90.0951 131.508 90.0172 131.55 89.9319 131.585C89.8472 131.619 89.7548 131.647 89.6628 131.661C89.5777 131.681 89.4787 131.688 89.3867 131.687Z" fill="#AEC3B0"/>
<path d="M121.384 130.48C121.389 129.702 122.022 129.07 122.8 129.075C123.585 129.08 124.218 129.721 124.213 130.499C124.208 131.277 123.567 131.909 122.782 131.904C122.004 131.899 121.379 131.258 121.384 130.48ZM114.701 130.437C114.706 129.659 115.346 129.027 116.124 129.032C116.909 129.037 117.535 129.677 117.53 130.455C117.525 131.233 116.891 131.866 116.106 131.861C115.328 131.855 114.696 131.215 114.701 130.437ZM108.024 130.394C108.029 129.616 108.663 128.983 109.448 128.988C110.226 128.993 110.858 129.634 110.853 130.412C110.848 131.19 110.208 131.822 109.43 131.817C108.645 131.812 108.019 131.172 108.024 130.394ZM101.341 130.35C101.346 129.572 101.987 128.94 102.765 128.945C103.55 128.95 104.175 129.591 104.17 130.369C104.165 131.147 103.531 131.779 102.746 131.774C101.968 131.769 101.336 131.128 101.341 130.35ZM94.6648 130.307C94.6698 129.529 95.3036 128.897 96.0885 128.902C96.8665 128.907 97.4988 129.547 97.4938 130.325C97.4887 131.103 96.8482 131.736 96.0702 131.731C95.2852 131.725 94.6599 131.085 94.6648 130.307Z" fill="#AEC3B0"/>
<path d="M129.466 131.947C129.091 131.944 128.731 131.794 128.471 131.523C128.401 131.459 128.345 131.388 128.296 131.31C128.247 131.232 128.198 131.153 128.163 131.068C128.128 130.976 128.1 130.891 128.087 130.799C128.066 130.707 128.06 130.615 128.06 130.523C128.063 130.148 128.214 129.789 128.484 129.529C128.548 129.458 128.619 129.402 128.697 129.353C128.776 129.297 128.853 129.255 128.946 129.22C129.031 129.186 129.116 129.158 129.208 129.144C129.668 129.055 130.155 129.207 130.486 129.541C130.746 129.805 130.892 130.166 130.889 130.541C130.889 130.633 130.881 130.725 130.859 130.817C130.844 130.909 130.816 130.993 130.779 131.085C130.744 131.17 130.701 131.248 130.644 131.325C130.594 131.402 130.537 131.473 130.473 131.536C130.401 131.606 130.33 131.662 130.252 131.711C130.174 131.767 130.096 131.809 130.011 131.844C129.919 131.879 129.834 131.907 129.741 131.92C129.649 131.941 129.558 131.948 129.466 131.947Z" fill="#AEC3B0"/>
<path d="M48.7826 132.477L54.7208 133.553C56.0167 133.788 56.8625 135.047 56.5893 136.336L43.9575 196.776C43.6955 198.011 42.4989 198.815 41.256 198.59L38.1577 198.028L48.7826 132.477Z" fill="#124559"/>
<path d="M25.1453 210.081L31.405 211.215C33.9298 211.672 36.3569 210.026 36.866 207.512L51.4472 132.96L33.9905 129.797C32.5749 129.54 31.2256 130.5 31.0035 131.921L21.3307 204.697C20.9251 207.23 22.6203 209.623 25.1453 210.081Z" fill="#124559"/>
<path d="M28.0146 184.98L32.5556 153.006C32.9556 150.798 35.0699 149.332 37.278 149.732C39.486 150.132 40.9517 152.247 40.5517 154.455L36.0107 186.429C35.6107 188.637 33.4964 190.103 31.2882 189.702C29.08 189.302 27.6144 187.188 28.0146 184.98Z" fill="#124559"/>
<path d="M36.3553 149.565L38.2005 149.9L32.2107 189.869L30.3655 189.535L36.3553 149.565Z" fill="#124559"/>
<path d="M44.0967 149.104C53.2834 149.104 60.7306 141.657 60.7306 132.47C60.7306 123.284 53.2834 115.836 44.0967 115.836C34.9101 115.836 27.4629 123.284 27.4629 132.47C27.4629 141.657 34.9101 149.104 44.0967 149.104Z" fill="#124559"/>
<path d="M44.0966 145.176C51.114 145.176 56.8027 139.488 56.8027 132.47C56.8027 125.453 51.114 119.764 44.0966 119.764C37.0793 119.764 31.3906 125.453 31.3906 132.47C31.3906 139.488 37.0793 145.176 44.0966 145.176Z" fill="#124559"/>
<path d="M69.276 194.928L67.6333 190.212C66.9707 188.31 65.2817 187.157 63.8329 187.618L24.7832 199.151L29.3647 212.301C29.7362 213.368 30.6977 213.994 31.4933 213.688L67.91 199.322C69.3315 198.783 69.9386 196.83 69.276 194.928Z" fill="#124559"/>
<path d="M30.0675 218.804C37.2786 218.804 43.1244 212.959 43.1244 205.747C43.1244 198.536 37.2786 192.69 30.0675 192.69C22.8563 192.69 17.0105 198.536 17.0105 205.747C17.0105 212.959 22.8563 218.804 30.0675 218.804Z" fill="#598392"/>
<path d="M30.0675 215.721C35.5759 215.721 40.0413 211.256 40.0413 205.747C40.0413 200.239 35.5759 195.773 30.0675 195.773C24.5592 195.773 20.0938 200.239 20.0938 205.747C20.0938 211.256 24.5592 215.721 30.0675 215.721Z" fill="#AEC3B0"/>
<path d="M78.9709 182.163L84.0709 169.712L106.618 177.332L106.103 180.841L86.7531 175.616L82.8513 185.323L78.9709 182.163Z" fill="#84A5B1"/>
<path d="M129.258 198.74L129.247 198.755C129.058 199.028 128.683 199.096 128.41 198.906L123.886 195.769L124.582 194.766L129.106 197.903C129.379 198.092 129.447 198.467 129.258 198.74Z" fill="url(#paint20_linear_384_4168)"/>
<path d="M62.5648 151.168L61.2175 153.111L57.3463 150.426C57.0826 150.243 57.0169 149.881 57.1997 149.617L57.8843 148.629C58.0671 148.365 58.4291 148.3 58.6929 148.483L62.5648 151.168Z" fill="#124559"/>
<path d="M126.126 196.684C125.753 197.221 125.035 197.39 124.462 197.075L117.722 193.37L120.077 189.975L125.909 194.988C126.405 195.414 126.498 196.146 126.126 196.684Z" fill="url(#paint21_linear_384_4168)"/>
<path d="M69.0699 153.567L61.2781 149.2L58.9236 152.596L65.7445 158.362L80.703 168.735L117.722 193.37L120.077 189.975L84.0284 163.94L69.0699 153.567Z" fill="url(#paint22_linear_384_4168)"/>
<path d="M70.0008 154.213L66.6755 159.008L65.7444 158.362L69.0697 153.567L70.0008 154.213Z" fill="#124559"/>
<path d="M86.4937 165.314L85.9797 166.056C85.8425 166.254 85.5708 166.303 85.3729 166.166L69.59 155.221C69.3919 155.084 69.3427 154.812 69.4797 154.614L69.993 153.872C70.1301 153.674 70.4018 153.624 70.5997 153.762L86.3837 164.707C86.5818 164.844 86.6311 165.116 86.4937 165.314Z" fill="#124559"/>
<path d="M74.3113 199.402L69.4363 201.079C69.2185 201.154 68.9813 201.038 68.9063 200.821L63.6022 185.404C63.5272 185.186 63.643 184.949 63.8608 184.874L68.7357 183.197C68.9535 183.122 69.1907 183.238 69.2657 183.455L74.57 198.872C74.6448 199.09 74.5292 199.327 74.3113 199.402Z" fill="#84A5B1"/>
<path d="M82.7104 194.505L94.7802 200.451L106.618 179.804L103.907 177.518L92.8772 194.252L83.5225 189.567L82.7104 194.505Z" fill="#84A5B1"/>
<path d="M74.0156 181.748C76.5954 180.421 79.7908 180.459 82.4165 182.127C86.355 184.628 87.5201 189.848 85.0188 193.787C83.753 195.78 81.7908 197.063 79.6505 197.519L74.0156 181.748Z" fill="#124559"/>
<path d="M68.7006 183.639L67.8312 181.112C67.6743 180.656 67.9426 180.151 68.4304 179.983L73.1157 178.371C73.6035 178.203 74.126 178.437 74.2828 178.892L81.215 199.04C81.3719 199.496 81.1036 200.002 80.6158 200.169L75.9305 201.781C75.4428 201.949 74.9202 201.716 74.7634 201.26L73.9668 198.945L68.7006 183.639Z" fill="#84A5B1"/>
<path d="M172.053 132.477L166.115 133.553C164.819 133.788 163.973 135.047 164.246 136.336L176.878 196.776C177.14 198.011 178.336 198.815 179.579 198.59L182.678 198.028L172.053 132.477Z" fill="url(#paint23_linear_384_4168)"/>
<path d="M195.69 210.081L189.43 211.215C186.905 211.672 184.478 210.026 183.969 207.512L169.388 132.96L186.845 129.797C188.261 129.54 189.61 130.5 189.832 131.921L199.505 204.697C199.91 207.23 198.215 209.623 195.69 210.081Z" fill="#124559"/>
<path d="M192.821 184.98L188.28 153.006C187.88 150.798 185.766 149.332 183.557 149.732C181.349 150.132 179.884 152.247 180.284 154.455L184.825 186.429C185.225 188.637 187.339 190.103 189.547 189.702C191.755 189.302 193.221 187.188 192.821 184.98Z" fill="#598392"/>
<path d="M184.48 149.565L182.635 149.9L188.624 189.869L190.47 189.535L184.48 149.565Z" fill="#AEC3B0"/>
<path d="M176.738 149.104C185.925 149.104 193.372 141.657 193.372 132.47C193.372 123.284 185.925 115.836 176.738 115.836C167.552 115.836 160.104 123.284 160.104 132.47C160.104 141.657 167.552 149.104 176.738 149.104Z" fill="#124559"/>
<path d="M176.738 145.176C183.755 145.176 189.444 139.488 189.444 132.47C189.444 125.453 183.755 119.764 176.738 119.764C169.72 119.764 164.032 125.453 164.032 132.47C164.032 139.488 169.72 145.176 176.738 145.176Z" fill="#598392"/>
<path d="M190.767 218.804C197.978 218.804 203.824 212.959 203.824 205.747C203.824 198.536 197.978 192.69 190.767 192.69C183.556 192.69 177.71 198.536 177.71 205.747C177.71 212.959 183.556 218.804 190.767 218.804Z" fill="#124559"/>
<path d="M190.767 215.721C196.275 215.721 200.741 211.256 200.741 205.747C200.741 200.239 196.275 195.773 190.767 195.773C185.258 195.773 180.793 200.239 180.793 205.747C180.793 211.256 185.258 215.721 190.767 215.721Z" fill="#598392"/>
<path d="M120.991 224.904L172.314 230.985C175.145 231.32 177.743 229.378 178.222 226.567L190.827 152.608C191.201 150.408 189.681 148.335 187.47 148.033L128.775 139.994C126.697 139.71 124.791 141.184 124.544 143.266L115.671 218.153C115.276 221.487 117.658 224.509 120.991 224.904Z" fill="#124559"/>
<path d="M125.042 155.683C124.729 155.64 124.507 155.354 124.544 155.039L125.721 145.101C126.01 142.663 128.232 140.889 130.674 141.146L137.266 141.841C137.565 141.861 137.816 142.16 137.783 142.479C137.749 142.798 137.463 143.03 137.144 142.996L130.552 142.3C128.739 142.11 127.09 143.427 126.875 145.238L125.698 155.175C125.66 155.494 125.371 155.721 125.052 155.684C125.049 155.684 125.045 155.683 125.042 155.683Z" fill="#AEC3B0"/>
<path d="M124.486 160.37C124.173 160.327 123.951 160.041 123.988 159.726L124.179 158.117C124.217 157.798 124.506 157.571 124.825 157.608C125.15 157.636 125.371 157.935 125.333 158.254L125.142 159.863C125.104 160.182 124.816 160.409 124.497 160.372C124.493 160.371 124.49 160.371 124.486 160.37Z" fill="#AEC3B0"/>
<path d="M161.474 132.001C159.716 130.557 158.096 130.454 156.931 130.699C155.867 130.923 155.114 131.872 155.126 132.959L155.189 138.36L160.993 139.345C160.993 139.345 164.921 134.831 161.474 132.001ZM158.558 136.121C157.753 136.056 157.153 135.352 157.217 134.547C157.281 133.742 157.986 133.141 158.791 133.206C159.596 133.27 160.196 133.975 160.132 134.779C160.068 135.585 159.363 136.185 158.558 136.121Z" fill="#AEC3B0"/>
<path d="M155.843 136.274C155.745 136.228 155.675 136.129 155.674 136.013L155.664 135.153C155.662 134.993 155.791 134.861 155.951 134.859C156.111 134.857 156.243 134.985 156.245 135.146L156.255 136.006C156.257 136.167 156.128 136.298 155.968 136.3C155.923 136.301 155.881 136.291 155.843 136.274ZM155.824 134.588C155.725 134.543 155.656 134.444 155.654 134.327L155.647 133.674C155.634 132.568 156.407 131.601 157.484 131.374C158.222 131.219 158.967 131.248 159.7 131.46C159.851 131.506 159.943 131.665 159.898 131.819C159.853 131.973 159.692 132.062 159.538 132.018C158.898 131.832 158.247 131.807 157.604 131.943C156.796 132.112 156.218 132.838 156.227 133.668L156.235 134.321C156.237 134.481 156.108 134.613 155.948 134.615C155.904 134.615 155.862 134.606 155.824 134.588Z" fill="url(#paint24_linear_384_4168)"/>
<path d="M146.935 141.188L147.15 138.492C147.224 137.562 148.055 136.878 148.983 136.984L167.517 139.104C168.34 139.198 168.956 139.903 168.939 140.731L168.888 143.333L146.935 141.188Z" fill="#AEC3B0"/>
<path d="M153.262 138.788C152.96 138.746 152.739 138.475 152.763 138.166C152.788 137.846 153.068 137.608 153.388 137.633L154.187 137.697C154.502 137.735 154.746 138.002 154.721 138.322C154.695 138.642 154.415 138.88 154.095 138.855L153.296 138.791C153.285 138.79 153.274 138.789 153.262 138.788Z" fill="url(#paint25_linear_384_4168)"/>
<path d="M147.898 140.544C147.79 140.495 147.72 140.382 147.73 140.257L147.817 139.167C147.853 138.719 148.06 138.312 148.402 138.021C148.744 137.729 149.179 137.588 149.627 137.624L152.566 137.859C152.725 137.872 152.845 138.012 152.832 138.172C152.819 138.332 152.679 138.451 152.519 138.438L149.581 138.203C148.976 138.155 148.444 138.608 148.396 139.213L148.309 140.304C148.296 140.464 148.156 140.583 147.996 140.57C147.961 140.567 147.928 140.558 147.898 140.544Z" fill="url(#paint26_linear_384_4168)"/>
<path d="M141.19 139.736L173.69 142.33C174.859 142.423 175.791 143.344 175.898 144.511L175.913 144.672C176.03 145.951 174.967 147.027 173.687 146.925L140.344 144.263C139.578 144.202 139.019 143.513 139.117 142.751L139.307 141.264C139.427 140.334 140.255 139.662 141.19 139.736Z" fill="#AEC3B0"/>
<path d="M167.092 181.506L186.552 183.913L182.477 211.291L163.535 208.752L163.978 204.103L177.108 204.357L178.939 187.517L167.092 185.491V181.506Z" fill="#AEC3B0"/>
<path d="M382.98 152.308C382.769 152.308 382.598 152.137 382.598 151.926V150.778C382.598 150.567 382.769 150.396 382.98 150.396C383.191 150.396 383.363 150.567 383.363 150.778V151.926C383.363 152.137 383.191 152.308 382.98 152.308ZM382.98 148.483C382.769 148.483 382.598 148.312 382.598 148.1V146.953C382.598 146.741 382.769 146.57 382.98 146.57C383.191 146.57 383.363 146.741 383.363 146.953V148.1C383.363 148.312 383.191 148.483 382.98 148.483ZM382.98 144.658C382.769 144.658 382.598 144.486 382.598 144.275V143.127C382.598 142.916 382.769 142.745 382.98 142.745C383.191 142.745 383.363 142.916 383.363 143.127V144.275C383.363 144.486 383.191 144.658 382.98 144.658ZM382.98 140.832C382.769 140.832 382.598 140.661 382.598 140.45V139.302C382.598 139.091 382.769 138.92 382.98 138.92C383.191 138.92 383.363 139.091 383.363 139.302V140.45C383.363 140.661 383.191 140.832 382.98 140.832ZM382.98 137.007C382.769 137.007 382.598 136.836 382.598 136.624V135.477C382.598 135.265 382.769 135.094 382.98 135.094C383.191 135.094 383.363 135.265 383.363 135.477V136.624C383.363 136.836 383.191 137.007 382.98 137.007ZM382.98 133.181C382.769 133.181 382.598 133.01 382.598 132.799V131.651C382.598 131.44 382.769 131.269 382.98 131.269C383.191 131.269 383.363 131.44 383.363 131.651V132.799C383.363 133.01 383.191 133.181 382.98 133.181ZM382.98 129.356C382.769 129.356 382.598 129.185 382.598 128.973V127.826C382.598 127.615 382.769 127.443 382.98 127.443C383.191 127.443 383.363 127.615 383.363 127.826V128.973C383.363 129.185 383.191 129.356 382.98 129.356ZM382.98 125.531C382.769 125.531 382.598 125.36 382.598 125.148V124.001C382.598 123.789 382.769 123.618 382.98 123.618C383.191 123.618 383.363 123.789 383.363 124.001V125.148C383.363 125.36 383.191 125.531 382.98 125.531ZM382.98 121.705C382.769 121.705 382.598 121.534 382.598 121.323V120.175C382.598 119.964 382.769 119.793 382.98 119.793C383.191 119.793 383.363 119.964 383.363 120.175V121.323C383.363 121.534 383.191 121.705 382.98 121.705ZM382.98 117.88C382.769 117.88 382.598 117.709 382.598 117.497V116.35C382.598 116.138 382.769 115.967 382.98 115.967C383.191 115.967 383.363 116.138 383.363 116.35V117.497C383.363 117.709 383.191 117.88 382.98 117.88ZM382.98 114.055C382.769 114.055 382.598 113.884 382.598 113.672V112.525C382.598 112.313 382.769 112.142 382.98 112.142C383.191 112.142 383.363 112.313 383.363 112.525V113.672C383.363 113.884 383.191 114.055 382.98 114.055ZM382.98 110.229C382.769 110.229 382.598 110.058 382.598 109.847V108.699C382.598 108.488 382.769 108.317 382.98 108.317C383.191 108.317 383.363 108.488 383.363 108.699V109.847C383.363 110.058 383.191 110.229 382.98 110.229ZM382.98 106.404C382.769 106.404 382.598 106.233 382.598 106.021V104.874C382.598 104.662 382.769 104.491 382.98 104.491C383.191 104.491 383.363 104.662 383.363 104.874V106.021C383.363 106.233 383.191 106.404 382.98 106.404ZM382.98 102.579C382.769 102.579 382.598 102.407 382.598 102.196V101.049C382.598 100.837 382.769 100.666 382.98 100.666C383.191 100.666 383.363 100.837 383.363 101.049V102.196C383.363 102.407 383.191 102.579 382.98 102.579ZM382.98 98.7533C382.769 98.7533 382.598 98.5821 382.598 98.3707V97.223C382.598 97.0115 382.769 96.8405 382.98 96.8405C383.191 96.8405 383.363 97.0117 383.363 97.223V98.3707C383.363 98.5821 383.191 98.7533 382.98 98.7533ZM382.98 94.9279C382.769 94.9279 382.598 94.757 382.598 94.5455V93.3978C382.598 93.1864 382.769 93.0154 382.98 93.0154C383.191 93.0154 383.363 93.1865 383.363 93.3978V94.5455C383.363 94.7568 383.191 94.9279 382.98 94.9279ZM382.98 91.1026C382.769 91.1026 382.598 90.9314 382.598 90.72V89.5725C382.598 89.361 382.769 89.1898 382.98 89.1898C383.191 89.1898 383.363 89.361 383.363 89.5725V90.72C383.363 90.9314 383.191 91.1026 382.98 91.1026ZM382.98 87.2772C382.769 87.2772 382.598 87.1061 382.598 86.8948V85.7471C382.598 85.5357 382.769 85.3647 382.98 85.3647C383.191 85.3647 383.363 85.5357 383.363 85.7471V86.8948C383.363 87.1061 383.191 87.2772 382.98 87.2772ZM381.452 84.9794H380.305C380.094 84.9794 379.922 84.8082 379.922 84.5969C379.922 84.3855 380.094 84.2145 380.305 84.2145H381.452C381.664 84.2145 381.835 84.3855 381.835 84.5969C381.835 84.8082 381.664 84.9794 381.452 84.9794ZM377.627 84.9794H376.479C376.268 84.9794 376.097 84.8082 376.097 84.5969C376.097 84.3855 376.268 84.2145 376.479 84.2145H377.627C377.838 84.2145 378.01 84.3855 378.01 84.5969C378.01 84.8082 377.838 84.9794 377.627 84.9794ZM373.802 84.9794H372.654C372.443 84.9794 372.271 84.8082 372.271 84.5969C372.271 84.3855 372.443 84.2145 372.654 84.2145H373.802C374.013 84.2145 374.184 84.3855 374.184 84.5969C374.184 84.8082 374.013 84.9794 373.802 84.9794ZM369.976 84.9794H368.829C368.618 84.9794 368.446 84.8082 368.446 84.5969C368.446 84.3855 368.618 84.2145 368.829 84.2145H369.976C370.188 84.2145 370.359 84.3855 370.359 84.5969C370.359 84.8082 370.188 84.9794 369.976 84.9794ZM366.151 84.9794H365.004C364.792 84.9794 364.621 84.8082 364.621 84.5969C364.621 84.3855 364.792 84.2145 365.004 84.2145H366.151C366.362 84.2145 366.534 84.3855 366.534 84.5969C366.534 84.8082 366.362 84.9794 366.151 84.9794ZM362.326 84.9794H361.178C360.967 84.9794 360.795 84.8082 360.795 84.5969C360.795 84.3855 360.967 84.2145 361.178 84.2145H362.326C362.537 84.2145 362.708 84.3855 362.708 84.5969C362.708 84.8082 362.537 84.9794 362.326 84.9794ZM358.5 84.9794H357.353C357.141 84.9794 356.97 84.8082 356.97 84.5969C356.97 84.3855 357.141 84.2145 357.353 84.2145H358.5C358.711 84.2145 358.883 84.3855 358.883 84.5969C358.883 84.8082 358.711 84.9794 358.5 84.9794ZM354.675 84.9794H353.527C353.316 84.9794 353.145 84.8082 353.145 84.5969C353.145 84.3855 353.316 84.2145 353.527 84.2145H354.675C354.886 84.2145 355.057 84.3855 355.057 84.5969C355.057 84.8082 354.886 84.9794 354.675 84.9794ZM350.85 84.9794H349.702C349.491 84.9794 349.319 84.8082 349.319 84.5969C349.319 84.3855 349.491 84.2145 349.702 84.2145H350.85C351.061 84.2145 351.232 84.3855 351.232 84.5969C351.232 84.8082 351.061 84.9794 350.85 84.9794ZM347.024 84.9794H345.877C345.665 84.9794 345.494 84.8082 345.494 84.5969C345.494 84.3855 345.665 84.2145 345.877 84.2145H347.024C347.235 84.2145 347.407 84.3855 347.407 84.5969C347.407 84.8082 347.235 84.9794 347.024 84.9794ZM343.199 84.9794H342.051C341.84 84.9794 341.669 84.8082 341.669 84.5969C341.669 84.3855 341.84 84.2145 342.051 84.2145H343.199C343.41 84.2145 343.581 84.3855 343.581 84.5969C343.581 84.8082 343.41 84.9794 343.199 84.9794ZM339.373 84.9794H338.226C338.014 84.9794 337.843 84.8082 337.843 84.5969C337.843 84.3855 338.015 84.2145 338.226 84.2145H339.373C339.585 84.2145 339.756 84.3855 339.756 84.5969C339.756 84.8082 339.585 84.9794 339.373 84.9794ZM335.548 84.9794H334.401C334.189 84.9794 334.018 84.8082 334.018 84.5969C334.018 84.3855 334.189 84.2145 334.401 84.2145H335.548C335.759 84.2145 335.931 84.3855 335.931 84.5969C335.931 84.8082 335.759 84.9794 335.548 84.9794ZM331.723 84.9794H330.575C330.364 84.9794 330.192 84.8082 330.192 84.5969C330.192 84.3855 330.364 84.2145 330.575 84.2145H331.723C331.934 84.2145 332.105 84.3855 332.105 84.5969C332.105 84.8082 331.934 84.9794 331.723 84.9794ZM327.897 84.9794H326.75C326.539 84.9794 326.367 84.8082 326.367 84.5969C326.367 84.3855 326.538 84.2145 326.75 84.2145H327.897C328.109 84.2145 328.28 84.3855 328.28 84.5969C328.28 84.8082 328.109 84.9794 327.897 84.9794ZM324.072 84.9794H322.925C322.713 84.9794 322.542 84.8082 322.542 84.5969C322.542 84.3855 322.713 84.2145 322.925 84.2145H324.072C324.283 84.2145 324.455 84.3855 324.455 84.5969C324.455 84.8082 324.283 84.9794 324.072 84.9794ZM320.247 84.9794H319.099C318.888 84.9794 318.717 84.8082 318.717 84.5969C318.717 84.3855 318.888 84.2145 319.099 84.2145H320.247C320.458 84.2145 320.629 84.3855 320.629 84.5969C320.629 84.8082 320.458 84.9794 320.247 84.9794ZM316.421 84.9794H315.274C315.063 84.9794 314.891 84.8082 314.891 84.5969C314.891 84.3855 315.062 84.2145 315.274 84.2145H316.421C316.633 84.2145 316.804 84.3855 316.804 84.5969C316.804 84.8082 316.633 84.9794 316.421 84.9794ZM312.596 84.9794H311.448C311.237 84.9794 311.066 84.8082 311.066 84.5969C311.066 84.3855 311.237 84.2145 311.448 84.2145H312.596C312.807 84.2145 312.979 84.3855 312.979 84.5969C312.979 84.8082 312.807 84.9794 312.596 84.9794ZM308.771 84.9794H307.623C307.412 84.9794 307.24 84.8082 307.24 84.5969C307.24 84.3855 307.412 84.2145 307.623 84.2145H308.771C308.982 84.2145 309.153 84.3855 309.153 84.5969C309.153 84.8082 308.982 84.9794 308.771 84.9794ZM304.945 84.9794H303.798C303.586 84.9794 303.415 84.8082 303.415 84.5969C303.415 84.3855 303.586 84.2145 303.798 84.2145H304.945C305.157 84.2145 305.328 84.3855 305.328 84.5969C305.328 84.8082 305.157 84.9794 304.945 84.9794ZM301.12 84.9794H299.972C299.761 84.9794 299.59 84.8082 299.59 84.5969C299.59 84.3855 299.761 84.2145 299.972 84.2145H301.12C301.331 84.2145 301.503 84.3855 301.503 84.5969C301.503 84.8082 301.331 84.9794 301.12 84.9794ZM297.295 84.9794H296.147C295.936 84.9794 295.764 84.8082 295.764 84.5969C295.764 84.3855 295.936 84.2145 296.147 84.2145H297.295C297.506 84.2145 297.677 84.3855 297.677 84.5969C297.677 84.8082 297.506 84.9794 297.295 84.9794ZM293.469 84.9794H292.322C292.11 84.9794 291.939 84.8082 291.939 84.5969C291.939 84.3855 292.11 84.2145 292.322 84.2145H293.469C293.68 84.2145 293.852 84.3855 293.852 84.5969C293.852 84.8082 293.68 84.9794 293.469 84.9794ZM289.644 84.9794H288.496C288.285 84.9794 288.114 84.8082 288.114 84.5969C288.114 84.3855 288.285 84.2145 288.496 84.2145H289.644C289.855 84.2145 290.026 84.3855 290.026 84.5969C290.026 84.8082 289.855 84.9794 289.644 84.9794ZM285.818 84.9794H284.671C284.46 84.9794 284.288 84.8082 284.288 84.5969C284.288 84.3855 284.46 84.2145 284.671 84.2145H285.818C286.03 84.2145 286.201 84.3855 286.201 84.5969C286.201 84.8082 286.03 84.9794 285.818 84.9794ZM281.993 84.9794H280.845C280.634 84.9794 280.463 84.8082 280.463 84.5969C280.463 84.3855 280.634 84.2145 280.845 84.2145H281.993C282.204 84.2145 282.376 84.3855 282.376 84.5969C282.376 84.8082 282.204 84.9794 281.993 84.9794ZM278.168 84.9794H277.02C276.809 84.9794 276.638 84.8082 276.638 84.5969C276.638 84.3855 276.809 84.2145 277.02 84.2145H278.168C278.379 84.2145 278.55 84.3855 278.55 84.5969C278.55 84.8082 278.379 84.9794 278.168 84.9794ZM274.342 84.9794H273.195C272.983 84.9794 272.812 84.8082 272.812 84.5969C272.812 84.3855 272.983 84.2145 273.195 84.2145H274.342C274.554 84.2145 274.725 84.3855 274.725 84.5969C274.725 84.8082 274.554 84.9794 274.342 84.9794ZM270.517 84.9794H269.37C269.158 84.9794 268.987 84.8082 268.987 84.5969C268.987 84.3855 269.158 84.2145 269.37 84.2145H270.517C270.728 84.2145 270.9 84.3855 270.9 84.5969C270.9 84.8082 270.728 84.9794 270.517 84.9794ZM266.692 84.9794H265.544C265.333 84.9794 265.161 84.8082 265.161 84.5969C265.161 84.3855 265.333 84.2145 265.544 84.2145H266.692C266.903 84.2145 267.074 84.3855 267.074 84.5969C267.074 84.8082 266.903 84.9794 266.692 84.9794ZM262.866 84.9794H261.719C261.507 84.9794 261.336 84.8082 261.336 84.5969C261.336 84.3855 261.507 84.2145 261.719 84.2145H262.866C263.078 84.2145 263.249 84.3855 263.249 84.5969C263.249 84.8082 263.078 84.9794 262.866 84.9794ZM259.041 84.9794H257.894C257.682 84.9794 257.511 84.8082 257.511 84.5969C257.511 84.3855 257.682 84.2145 257.894 84.2145H259.041C259.252 84.2145 259.424 84.3855 259.424 84.5969C259.423 84.8082 259.252 84.9794 259.041 84.9794ZM255.216 84.9794H254.068C253.857 84.9794 253.685 84.8082 253.685 84.5969C253.685 84.3855 253.857 84.2145 254.068 84.2145H255.216C255.427 84.2145 255.598 84.3855 255.598 84.5969C255.598 84.8082 255.427 84.9794 255.216 84.9794ZM251.39 84.9794H250.243C250.031 84.9794 249.86 84.8082 249.86 84.5969C249.86 84.3855 250.031 84.2145 250.243 84.2145H251.39C251.602 84.2145 251.773 84.3855 251.773 84.5969C251.773 84.8082 251.602 84.9794 251.39 84.9794ZM247.565 84.9794H246.417C246.206 84.9794 246.035 84.8082 246.035 84.5969C246.035 84.3855 246.206 84.2145 246.417 84.2145H247.565C247.776 84.2145 247.947 84.3855 247.947 84.5969C247.947 84.8082 247.776 84.9794 247.565 84.9794ZM243.74 84.9794H242.592C242.381 84.9794 242.209 84.8082 242.209 84.5969C242.209 84.3855 242.381 84.2145 242.592 84.2145H243.74C243.951 84.2145 244.122 84.3855 244.122 84.5969C244.122 84.8082 243.951 84.9794 243.74 84.9794ZM239.914 84.9794H238.767C238.555 84.9794 238.384 84.8082 238.384 84.5969C238.384 84.3855 238.555 84.2145 238.767 84.2145H239.914C240.126 84.2145 240.297 84.3855 240.297 84.5969C240.297 84.8082 240.126 84.9794 239.914 84.9794ZM236.089 84.9794H234.941C234.73 84.9794 234.559 84.8082 234.559 84.5969C234.559 84.3855 234.73 84.2145 234.941 84.2145H236.089C236.3 84.2145 236.472 84.3855 236.472 84.5969C236.471 84.8082 236.3 84.9794 236.089 84.9794ZM232.264 84.9794H231.116C230.905 84.9794 230.733 84.8082 230.733 84.5969C230.733 84.3855 230.905 84.2145 231.116 84.2145H232.264C232.475 84.2145 232.646 84.3855 232.646 84.5969C232.646 84.8082 232.475 84.9794 232.264 84.9794ZM228.438 84.9794H227.291C227.079 84.9794 226.908 84.8082 226.908 84.5969C226.908 84.3855 227.079 84.2145 227.291 84.2145H228.438C228.649 84.2145 228.821 84.3855 228.821 84.5969C228.821 84.8082 228.649 84.9794 228.438 84.9794ZM224.613 84.9794H223.465C223.254 84.9794 223.083 84.8082 223.083 84.5969C223.083 84.3855 223.254 84.2145 223.465 84.2145H224.613C224.824 84.2145 224.995 84.3855 224.995 84.5969C224.995 84.8082 224.824 84.9794 224.613 84.9794ZM220.787 84.9794H219.64C219.429 84.9794 219.257 84.8082 219.257 84.5969C219.257 84.3855 219.429 84.2145 219.64 84.2145H220.787C220.999 84.2145 221.17 84.3855 221.17 84.5969C221.17 84.8082 220.999 84.9794 220.787 84.9794ZM216.962 84.9794H215.814C215.603 84.9794 215.432 84.8082 215.432 84.5969C215.432 84.3855 215.603 84.2145 215.814 84.2145H216.962C217.173 84.2145 217.345 84.3855 217.345 84.5969C217.345 84.8082 217.173 84.9794 216.962 84.9794ZM213.137 84.9794H211.989C211.778 84.9794 211.607 84.8082 211.607 84.5969C211.607 84.3855 211.778 84.2145 211.989 84.2145H213.137C213.348 84.2145 213.519 84.3855 213.519 84.5969C213.519 84.8082 213.348 84.9794 213.137 84.9794ZM209.311 84.9794H208.164C207.952 84.9794 207.781 84.8082 207.781 84.5969C207.781 84.3855 207.952 84.2145 208.164 84.2145H209.311C209.523 84.2145 209.694 84.3855 209.694 84.5969C209.694 84.8082 209.523 84.9794 209.311 84.9794ZM205.486 84.9794H204.338C204.127 84.9794 203.956 84.8082 203.956 84.5969C203.956 84.3855 204.127 84.2145 204.338 84.2145H205.486C205.697 84.2145 205.869 84.3855 205.869 84.5969C205.869 84.8082 205.697 84.9794 205.486 84.9794ZM201.661 84.9794H200.513C200.302 84.9794 200.131 84.8082 200.131 84.5969C200.131 84.3855 200.302 84.2145 200.513 84.2145H201.661C201.872 84.2145 202.043 84.3855 202.043 84.5969C202.043 84.8082 201.872 84.9794 201.661 84.9794ZM197.835 84.9794H196.688C196.476 84.9794 196.305 84.8082 196.305 84.5969C196.305 84.3855 196.476 84.2145 196.688 84.2145H197.835C198.047 84.2145 198.218 84.3855 198.218 84.5969C198.218 84.8082 198.047 84.9794 197.835 84.9794ZM194.01 84.9794H192.863C192.651 84.9794 192.48 84.8082 192.48 84.5969C192.48 84.3855 192.651 84.2145 192.863 84.2145H194.01C194.221 84.2145 194.393 84.3855 194.393 84.5969C194.392 84.8082 194.221 84.9794 194.01 84.9794ZM190.185 84.9794H189.037C188.826 84.9794 188.655 84.8082 188.655 84.5969C188.655 84.3855 188.826 84.2145 189.037 84.2145H190.185C190.396 84.2145 190.567 84.3855 190.567 84.5969C190.567 84.8082 190.396 84.9794 190.185 84.9794Z" fill="white"/>
<path d="M204.875 155.707C204.664 155.707 204.492 155.536 204.492 155.325V154.177C204.492 153.966 204.664 153.794 204.875 153.794C205.086 153.794 205.257 153.966 205.257 154.177V155.325C205.257 155.536 205.086 155.707 204.875 155.707ZM204.875 151.882C204.664 151.882 204.492 151.711 204.492 151.499V150.352C204.492 150.14 204.664 149.969 204.875 149.969C205.086 149.969 205.257 150.14 205.257 150.352V151.499C205.257 151.711 205.086 151.882 204.875 151.882ZM204.875 148.057C204.664 148.057 204.492 147.885 204.492 147.674V146.526C204.492 146.315 204.664 146.144 204.875 146.144C205.086 146.144 205.257 146.315 205.257 146.526V147.674C205.257 147.886 205.086 148.057 204.875 148.057ZM204.875 144.231C204.664 144.231 204.492 144.06 204.492 143.849V142.701C204.492 142.49 204.664 142.318 204.875 142.318C205.086 142.318 205.257 142.49 205.257 142.701V143.849C205.257 144.06 205.086 144.231 204.875 144.231ZM204.875 140.406C204.664 140.406 204.492 140.235 204.492 140.023V138.876C204.492 138.664 204.664 138.493 204.875 138.493C205.086 138.493 205.257 138.664 205.257 138.876V140.023C205.257 140.235 205.086 140.406 204.875 140.406ZM204.875 136.58C204.664 136.58 204.492 136.41 204.492 136.198V135.05C204.492 134.839 204.664 134.668 204.875 134.668C205.086 134.668 205.257 134.839 205.257 135.05V136.198C205.257 136.41 205.086 136.58 204.875 136.58ZM204.875 132.755C204.664 132.755 204.492 132.584 204.492 132.373V131.225C204.492 131.014 204.664 130.842 204.875 130.842C205.086 130.842 205.257 131.013 205.257 131.225V132.373C205.257 132.584 205.086 132.755 204.875 132.755ZM204.875 128.93C204.664 128.93 204.492 128.759 204.492 128.547V127.4C204.492 127.188 204.664 127.017 204.875 127.017C205.086 127.017 205.257 127.188 205.257 127.4V128.547C205.257 128.759 205.086 128.93 204.875 128.93ZM204.875 125.104C204.664 125.104 204.492 124.933 204.492 124.722V123.574C204.492 123.363 204.664 123.192 204.875 123.192C205.086 123.192 205.257 123.363 205.257 123.574V124.722C205.257 124.933 205.086 125.104 204.875 125.104ZM204.875 121.279C204.664 121.279 204.492 121.108 204.492 120.896V119.749C204.492 119.537 204.664 119.366 204.875 119.366C205.086 119.366 205.257 119.537 205.257 119.749V120.896C205.257 121.108 205.086 121.279 204.875 121.279ZM204.875 117.454C204.664 117.454 204.492 117.283 204.492 117.071V115.924C204.492 115.712 204.664 115.541 204.875 115.541C205.086 115.541 205.257 115.712 205.257 115.924V117.071C205.257 117.283 205.086 117.454 204.875 117.454ZM204.875 113.628C204.664 113.628 204.492 113.457 204.492 113.246V112.098C204.492 111.887 204.664 111.716 204.875 111.716C205.086 111.716 205.257 111.887 205.257 112.098V113.246C205.257 113.457 205.086 113.628 204.875 113.628ZM204.875 109.803C204.664 109.803 204.492 109.632 204.492 109.42V108.273C204.492 108.061 204.664 107.89 204.875 107.89C205.086 107.89 205.257 108.061 205.257 108.273V109.42C205.257 109.632 205.086 109.803 204.875 109.803ZM204.875 105.978C204.664 105.978 204.492 105.806 204.492 105.595V104.448C204.492 104.236 204.664 104.065 204.875 104.065C205.086 104.065 205.257 104.236 205.257 104.448V105.595C205.257 105.807 205.086 105.978 204.875 105.978ZM204.875 102.152C204.664 102.152 204.492 101.981 204.492 101.77V100.622C204.492 100.411 204.664 100.24 204.875 100.24C205.086 100.24 205.257 100.411 205.257 100.622V101.77C205.257 101.981 205.086 102.152 204.875 102.152ZM204.875 98.327C204.664 98.327 204.492 98.1558 204.492 97.9443V96.7968C204.492 96.5854 204.664 96.4142 204.875 96.4142C205.086 96.4142 205.257 96.5854 205.257 96.7968V97.9443C205.257 98.156 205.086 98.327 204.875 98.327ZM204.875 94.5016C204.664 94.5016 204.492 94.3304 204.492 94.119V92.9715C204.492 92.76 204.664 92.589 204.875 92.589C205.086 92.589 205.257 92.76 205.257 92.9715V94.119C205.257 94.3306 205.086 94.5016 204.875 94.5016ZM204.875 90.6763C204.664 90.6763 204.492 90.5051 204.492 90.2938V89.1463C204.492 88.9349 204.664 88.7637 204.875 88.7637C205.086 88.7637 205.257 88.9349 205.257 89.1463V90.2938C205.257 90.5051 205.086 90.6763 204.875 90.6763Z" fill="white"/>
<path d="M252.026 155.707C251.815 155.707 251.643 155.536 251.643 155.325V154.177C251.643 153.966 251.814 153.794 252.026 153.794C252.237 153.794 252.409 153.966 252.409 154.177V155.325C252.408 155.536 252.237 155.707 252.026 155.707ZM252.026 151.882C251.815 151.882 251.643 151.711 251.643 151.499V150.352C251.643 150.14 251.814 149.969 252.026 149.969C252.237 149.969 252.409 150.14 252.409 150.352V151.499C252.408 151.711 252.237 151.882 252.026 151.882ZM252.026 148.057C251.815 148.057 251.643 147.885 251.643 147.674V146.526C251.643 146.315 251.814 146.144 252.026 146.144C252.237 146.144 252.409 146.315 252.409 146.526V147.674C252.408 147.886 252.237 148.057 252.026 148.057ZM252.026 144.231C251.815 144.231 251.643 144.06 251.643 143.849V142.701C251.643 142.49 251.814 142.318 252.026 142.318C252.237 142.318 252.409 142.49 252.409 142.701V143.849C252.408 144.06 252.237 144.231 252.026 144.231ZM252.026 140.406C251.815 140.406 251.643 140.235 251.643 140.023V138.876C251.643 138.664 251.814 138.493 252.026 138.493C252.237 138.493 252.409 138.664 252.409 138.876V140.023C252.408 140.235 252.237 140.406 252.026 140.406ZM252.026 136.58C251.815 136.58 251.643 136.41 251.643 136.198V135.05C251.643 134.839 251.814 134.668 252.026 134.668C252.237 134.668 252.409 134.839 252.409 135.05V136.198C252.408 136.41 252.237 136.58 252.026 136.58ZM252.026 132.755C251.815 132.755 251.643 132.584 251.643 132.373V131.225C251.643 131.014 251.814 130.842 252.026 130.842C252.237 130.842 252.409 131.013 252.409 131.225V132.373C252.408 132.584 252.237 132.755 252.026 132.755ZM252.026 128.93C251.815 128.93 251.643 128.759 251.643 128.547V127.4C251.643 127.188 251.814 127.017 252.026 127.017C252.237 127.017 252.409 127.188 252.409 127.4V128.547C252.408 128.759 252.237 128.93 252.026 128.93ZM252.026 125.104C251.815 125.104 251.643 124.933 251.643 124.722V123.574C251.643 123.363 251.814 123.192 252.026 123.192C252.237 123.192 252.409 123.363 252.409 123.574V124.722C252.408 124.933 252.237 125.104 252.026 125.104ZM252.026 121.279C251.815 121.279 251.643 121.108 251.643 120.896V119.749C251.643 119.537 251.814 119.366 252.026 119.366C252.237 119.366 252.409 119.537 252.409 119.749V120.896C252.408 121.108 252.237 121.279 252.026 121.279ZM252.026 117.454C251.815 117.454 251.643 117.283 251.643 117.071V115.924C251.643 115.712 251.814 115.541 252.026 115.541C252.237 115.541 252.409 115.712 252.409 115.924V117.071C252.408 117.283 252.237 117.454 252.026 117.454ZM252.026 113.628C251.815 113.628 251.643 113.457 251.643 113.246V112.098C251.643 111.887 251.814 111.716 252.026 111.716C252.237 111.716 252.409 111.887 252.409 112.098V113.246C252.408 113.457 252.237 113.628 252.026 113.628ZM252.026 109.803C251.815 109.803 251.643 109.632 251.643 109.42V108.273C251.643 108.061 251.814 107.89 252.026 107.89C252.237 107.89 252.409 108.061 252.409 108.273V109.42C252.408 109.632 252.237 109.803 252.026 109.803ZM252.026 105.978C251.815 105.978 251.643 105.806 251.643 105.595V104.448C251.643 104.236 251.814 104.065 252.026 104.065C252.237 104.065 252.409 104.236 252.409 104.448V105.595C252.408 105.807 252.237 105.978 252.026 105.978ZM252.026 102.152C251.815 102.152 251.643 101.981 251.643 101.77V100.622C251.643 100.411 251.814 100.24 252.026 100.24C252.237 100.24 252.409 100.411 252.409 100.622V101.77C252.408 101.981 252.237 102.152 252.026 102.152ZM252.026 98.327C251.815 98.327 251.643 98.1558 251.643 97.9443V96.7968C251.643 96.5854 251.814 96.4142 252.026 96.4142C252.237 96.4142 252.409 96.5854 252.409 96.7968V97.9443C252.408 98.156 252.237 98.327 252.026 98.327ZM252.026 94.5016C251.815 94.5016 251.643 94.3304 251.643 94.119V92.9715C251.643 92.76 251.814 92.589 252.026 92.589C252.237 92.589 252.409 92.76 252.409 92.9715V94.119C252.408 94.3306 252.237 94.5016 252.026 94.5016ZM252.026 90.6763C251.815 90.6763 251.643 90.5051 251.643 90.2938V89.1463C251.643 88.9349 251.814 88.7637 252.026 88.7637C252.237 88.7637 252.409 88.9349 252.409 89.1463V90.2938C252.408 90.5051 252.237 90.6763 252.026 90.6763Z" fill="white"/>
<path d="M307.055 107.841C306.843 107.841 306.672 107.67 306.672 107.459V106.311C306.672 106.1 306.843 105.928 307.055 105.928C307.266 105.928 307.437 106.1 307.437 106.311V107.459C307.437 107.67 307.266 107.841 307.055 107.841ZM307.055 104.016C306.843 104.016 306.672 103.845 306.672 103.633V102.486C306.672 102.274 306.843 102.103 307.055 102.103C307.266 102.103 307.437 102.274 307.437 102.486V103.633C307.437 103.845 307.266 104.016 307.055 104.016ZM307.055 100.19C306.843 100.19 306.672 100.019 306.672 99.8078V98.6603C306.672 98.4489 306.843 98.2777 307.055 98.2777C307.266 98.2777 307.437 98.4489 307.437 98.6603V99.8078C307.437 100.019 307.266 100.19 307.055 100.19ZM307.055 96.3651C306.843 96.3651 306.672 96.1939 306.672 95.9827V94.835C306.672 94.6235 306.843 94.4525 307.055 94.4525C307.266 94.4525 307.437 94.6237 307.437 94.835V95.9827C307.437 96.1941 307.266 96.3651 307.055 96.3651ZM307.055 92.5398C306.843 92.5398 306.672 92.3688 306.672 92.1573V91.0098C306.672 90.7984 306.843 90.6272 307.055 90.6272C307.266 90.6272 307.437 90.7984 307.437 91.0098V92.1573C307.437 92.3688 307.266 92.5398 307.055 92.5398Z" fill="white"/>
<path d="M306.039 126.721C307.084 126.721 307.931 125.874 307.931 124.829C307.931 123.784 307.084 122.937 306.039 122.937C304.994 122.937 304.147 123.784 304.147 124.829C304.147 125.874 304.994 126.721 306.039 126.721Z" fill="url(#paint27_linear_384_4168)"/>
<path d="M306.039 126.659C307.049 126.659 307.868 125.84 307.868 124.829C307.868 123.819 307.049 123 306.039 123C305.028 123 304.209 123.819 304.209 124.829C304.209 125.84 305.028 126.659 306.039 126.659Z" fill="#C6DEC8"/>
<path d="M306.039 138.192C307.084 138.192 307.931 137.345 307.931 136.3C307.931 135.255 307.084 134.408 306.039 134.408C304.994 134.408 304.147 135.255 304.147 136.3C304.147 137.345 304.994 138.192 306.039 138.192Z" fill="url(#paint28_linear_384_4168)"/>
<path d="M306.039 138.129C307.049 138.129 307.868 137.31 307.868 136.3C307.868 135.29 307.049 134.471 306.039 134.471C305.028 134.471 304.209 135.29 304.209 136.3C304.209 137.31 305.028 138.129 306.039 138.129Z" fill="#C6DEC8"/>
<path d="M306.039 149.663C307.084 149.663 307.931 148.816 307.931 147.771C307.931 146.726 307.084 145.878 306.039 145.878C304.994 145.878 304.147 146.726 304.147 147.771C304.147 148.816 304.994 149.663 306.039 149.663Z" fill="url(#paint29_linear_384_4168)"/>
<path d="M306.039 149.6C307.049 149.6 307.868 148.781 307.868 147.771C307.868 146.76 307.049 145.941 306.039 145.941C305.028 145.941 304.209 146.76 304.209 147.771C304.209 148.781 305.028 149.6 306.039 149.6Z" fill="#C6DEC8"/>
<path d="M301.236 124.743L301.227 125.065C301.203 125.938 300.658 126.63 299.992 126.634L249.312 126.71C248.625 126.714 248.066 125.983 248.068 125.082C248.069 124.198 248.608 123.477 249.283 123.459L299.971 123.06C300.683 123.041 301.261 123.81 301.236 124.743Z" fill="#F4F4F4"/>
<path d="M301.236 136.158L301.227 136.481C301.203 137.353 300.658 138.045 299.992 138.049L249.312 138.126C248.625 138.129 248.066 137.398 248.068 136.497C248.069 135.613 248.608 134.892 249.283 134.875L299.971 134.476C300.683 134.456 301.261 135.225 301.236 136.158Z" fill="#F4F4F4"/>
<path d="M301.236 147.573L301.227 147.895C301.203 148.768 300.658 149.46 299.992 149.463L249.312 149.54C248.625 149.543 248.066 148.813 248.068 147.911C248.069 147.027 248.608 146.307 249.283 146.289L299.971 145.89C300.683 145.871 301.261 146.64 301.236 147.573Z" fill="#F4F4F4"/>
<path d="M391.084 267.192C391.084 267.192 391.5 269.546 391.704 271.876C391.783 272.786 391.081 273.577 390.168 273.615C387.066 273.744 380.429 273.995 378.048 273.889C377.69 273.873 377.456 273.507 377.588 273.174C377.699 272.895 377.913 272.669 378.186 272.544L389.149 267.506L391.084 267.192Z" fill="#124559"/>
<path d="M391.425 265.81L391.091 268.625C391.091 268.625 389.171 269.519 387.859 268.512L388.654 265.375L391.425 265.81Z" fill="url(#paint30_linear_384_4168)"/>
<path d="M391.174 212.884C391.318 213.619 391.948 249.57 388.105 265.681C388.043 265.944 388.176 266.215 388.426 266.317C389.015 266.558 390.171 266.907 391.556 266.953C391.985 266.968 392.369 266.689 392.49 266.277C393.589 262.539 398.852 243.811 399.539 225.92C400.306 205.93 399.539 225.24 399.539 225.24L399.089 212.883L391.174 212.884Z" fill="#124559"/>
<path d="M403.694 268.42C403.694 268.42 404.356 269.609 404.997 272.766C405.112 273.336 404.714 273.882 404.135 273.939C403.111 274.039 401.533 274.169 400.27 274.16C399.688 274.156 399.233 273.649 399.304 273.071C399.443 271.918 399.88 270.028 401.226 268.554L403.694 268.42Z" fill="#124559"/>
<path d="M404.275 264.799L403.495 269.056C403.495 269.056 402.723 269.63 401.197 269.214L401.569 264.634L404.275 264.799Z" fill="url(#paint31_linear_384_4168)"/>
<path d="M406.384 213.987C409.527 232.955 405.702 260.868 404.412 266.332C404.333 266.666 404.063 266.922 403.724 266.979C403.148 267.074 402.2 267.152 401.266 266.881C400.944 266.787 400.717 266.497 400.704 266.162C400.531 261.745 400.843 234.629 397.914 223.913C397.766 223.37 397.434 222.897 396.975 222.57L391.291 218.529L390.855 211.998L406.384 213.987Z" fill="#124559"/>
<path d="M386.357 178.046C395.776 177.891 406.168 180.52 406.168 180.52C408.976 196.902 406.659 215.797 406.659 215.797C399.367 217.709 391.142 214.628 391.142 214.628C389.93 207.781 384.275 188.51 384.275 188.51C379.673 187.939 375.882 186.611 372.76 184.856C375.142 182.095 376.264 178.583 376.752 176.507C380.082 177.542 383.452 178.095 386.357 178.046Z" fill="#124559"/>
<path d="M358.535 164.173C359.46 163.056 360.631 163.584 360.631 163.584C362.017 169.439 369.285 174.187 376.752 176.507C376.264 178.583 375.141 182.096 372.76 184.856C360.368 177.889 358.535 164.173 358.535 164.173Z" fill="url(#paint32_linear_384_4168)"/>
<path d="M358.759 164.458C358.662 164.765 359.783 165.234 360.444 163.975C360.467 163.372 360.834 160.787 360.473 160.296C358.553 157.678 354.831 154.397 354.831 154.397C354.201 155.018 354.72 155.628 354.72 155.628L356.525 157.509C356.148 158.192 355.687 158.768 355.471 159.593C355.308 160.218 355.408 160.887 355.723 161.456C356.04 162.027 356.473 162.769 356.882 163.35C357.656 164.449 358.759 164.458 358.759 164.458Z" fill="url(#paint33_linear_384_4168)"/>
<path d="M357.316 158.729L358.961 160.124L359.478 161.513L358.011 163.141C358.011 163.141 357.518 160.385 357.151 159.788C356.784 159.192 356.974 158.904 357.316 158.729Z" fill="url(#paint34_linear_384_4168)"/>
<path d="M402.555 189.64L406.168 180.52C406.168 180.52 414.966 186.498 416.413 194.077C414.75 194.199 411.725 194.632 408.765 196.127C408.114 192.548 402.555 189.64 402.555 189.64Z" fill="#124559"/>
<path d="M394.867 198.222C394.867 198.222 404.745 203.804 408.078 199.037C408.77 198.048 408.935 197.064 408.765 196.126C411.726 194.631 414.751 194.199 416.413 194.076C416.849 196.361 416.618 198.791 415.276 201.247C409.438 211.927 393.56 200.657 393.56 200.657L394.867 198.222Z" fill="url(#paint35_linear_384_4168)"/>
<path d="M396.054 205.284L390.663 186.458C390.602 186.244 390.419 186.089 390.198 186.063C389.222 185.949 386.392 185.629 383.124 185.353C379.188 185.02 374.617 184.75 371.885 184.979C371.497 185.012 371.262 185.423 371.435 185.772C372.988 188.915 379.378 201.697 382.577 205.885C382.683 206.024 382.847 206.105 383.022 206.103L395.529 205.987C395.893 205.983 396.154 205.634 396.054 205.284Z" fill="#C6DEC8"/>
<path d="M382.565 183.72L378.656 183.069C378.448 183.034 378.278 183.233 378.344 183.434L378.731 184.606C378.764 184.708 378.853 184.782 378.96 184.796L382.721 185.299C382.916 185.325 383.076 185.148 383.031 184.957L382.792 183.933C382.766 183.823 382.677 183.739 382.565 183.72Z" fill="#AEC3B0"/>
<path d="M385.491 187.029L385.17 185.352C385.137 185.184 384.998 185.057 384.828 185.04L376.934 184.238C376.668 184.212 376.455 184.455 376.517 184.715L377.019 186.805C377.059 186.972 377.205 187.093 377.377 187.101L385.091 187.49C385.342 187.502 385.539 187.276 385.491 187.029Z" fill="#AEC3B0"/>
<path d="M394.751 200.736C394.751 200.736 395.502 197.648 395.199 196.553C394.897 195.457 394.31 194.049 392.353 194.361C390.397 194.674 388.089 195.498 388.089 195.498C388.089 195.498 388.206 196.925 389.693 196.465L388.771 197.178C388.771 197.178 388.903 198.321 390.159 197.711L389.301 198.657C389.301 198.657 389.84 199.595 390.764 198.993C391.688 198.391 392.131 201.108 394.751 200.736Z" fill="url(#paint36_linear_384_4168)"/>
<path d="M395.897 170.4L398.894 179.067C398.944 179.21 398.885 179.369 398.752 179.443C397.935 179.895 394.992 181.2 391.445 178.951C391.075 178.717 390.824 178.335 390.768 177.901L389.797 170.4H395.897Z" fill="url(#paint37_linear_384_4168)"/>
<path d="M389.376 162.374C389.376 162.374 386.085 168.569 386.507 171.071C386.929 173.574 391.008 173.394 394.569 171.362L397.058 164.672L389.376 162.374Z" fill="url(#paint38_linear_384_4168)"/>
<path d="M394.412 168.077C394.267 168.013 394.214 167.836 394.3 167.703C394.564 167.3 395.058 166.478 395.216 165.759C395.216 165.759 395.808 165.38 393.71 164.878C391.613 164.376 388.485 163.597 387.828 161.812C387.187 160.071 388.871 155.694 391.558 159.182C391.66 159.314 391.86 159.317 391.962 159.184C392.403 158.611 393.561 157.421 395.169 158.143C396.673 158.818 396.843 159.92 396.822 160.476C396.816 160.639 396.962 160.766 397.123 160.736C397.883 160.591 399.709 160.466 400.561 162.339C401.263 163.881 400.807 164.754 400.391 165.181C400.257 165.32 400.316 165.547 400.5 165.604C401 165.757 401.646 166.181 401.581 167.352C401.492 168.971 399.681 168.829 399.166 168.755C399.082 168.743 398.997 168.772 398.939 168.835C398.497 169.324 396.506 171.401 394.351 171.651C394.164 171.673 394.02 171.489 394.081 171.311L395.013 168.6C395.057 168.474 394.996 168.336 394.875 168.282L394.412 168.077Z" fill="#124559"/>
<path d="M394.037 168.462C394.037 168.462 396.38 166.854 396.551 168.208C396.723 169.562 394.441 170.169 393.312 169.664L394.037 168.462Z" fill="url(#paint39_linear_384_4168)"/>
</g>
<defs>
<linearGradient id="paint0_linear_384_4168" x1="350.894" y1="153.142" x2="407.699" y2="153.142" gradientUnits="userSpaceOnUse">
<stop stop-color="#DAE3FE"/>
<stop offset="1" stop-color="#E9EFFD"/>
</linearGradient>
<linearGradient id="paint1_linear_384_4168" x1="488.271" y1="159.526" x2="430.256" y2="204.945" gradientUnits="userSpaceOnUse">
<stop stop-color="#E1473D"/>
<stop offset="1" stop-color="#E9605A"/>
</linearGradient>
<linearGradient id="paint2_linear_384_4168" x1="362.033" y1="232.329" x2="437.987" y2="120.879" gradientUnits="userSpaceOnUse">
<stop stop-color="#FE7062"/>
<stop offset="1" stop-color="#FF928E"/>
</linearGradient>
<linearGradient id="paint3_linear_384_4168" x1="370.997" y1="238.438" x2="446.951" y2="126.989" gradientUnits="userSpaceOnUse">
<stop stop-color="#FE7062"/>
<stop offset="1" stop-color="#FF928E"/>
</linearGradient>
<linearGradient id="paint4_linear_384_4168" x1="390.575" y1="219.298" x2="456.223" y2="218.153" gradientUnits="userSpaceOnUse">
<stop stop-color="#E1473D"/>
<stop offset="1" stop-color="#E9605A"/>
</linearGradient>
<linearGradient id="paint5_linear_384_4168" x1="276.437" y1="289.338" x2="358.879" y2="182.087" gradientUnits="userSpaceOnUse">
<stop stop-color="#E1473D"/>
<stop offset="1" stop-color="#E9605A"/>
</linearGradient>
<linearGradient id="paint6_linear_384_4168" x1="401.415" y1="86.641" x2="383.476" y2="135.877" gradientUnits="userSpaceOnUse">
<stop stop-color="#E1473D"/>
<stop offset="1" stop-color="#E9605A"/>
</linearGradient>
<linearGradient id="paint7_linear_384_4168" x1="354.668" y1="156.4" x2="311.92" y2="205.254" gradientUnits="userSpaceOnUse">
<stop stop-color="#FE7062"/>
<stop offset="1" stop-color="#FF928E"/>
</linearGradient>
<linearGradient id="paint8_linear_384_4168" x1="278.312" y1="210.418" x2="331.365" y2="118.434" gradientUnits="userSpaceOnUse">
<stop stop-color="#FE7062"/>
<stop offset="0.7204" stop-color="#FF8882"/>
<stop offset="1" stop-color="#FF928E"/>
</linearGradient>
<linearGradient id="paint9_linear_384_4168" x1="290.516" y1="217.457" x2="343.569" y2="125.473" gradientUnits="userSpaceOnUse">
<stop stop-color="#FE7062"/>
<stop offset="1" stop-color="#FF928E"/>
</linearGradient>
<linearGradient id="paint10_linear_384_4168" x1="79.3659" y1="246.266" x2="158.184" y2="246.266" gradientUnits="userSpaceOnUse">
<stop stop-color="#DAE3FE"/>
<stop offset="1" stop-color="#E9EFFD"/>
</linearGradient>
<linearGradient id="paint11_linear_384_4168" x1="443.219" y1="229.042" x2="348.182" y2="223.316" gradientUnits="userSpaceOnUse">
<stop stop-color="#E1473D"/>
<stop offset="1" stop-color="#E9605A"/>
</linearGradient>
<linearGradient id="paint12_linear_384_4168" x1="242.246" y1="254.123" x2="284.231" y2="174.734" gradientUnits="userSpaceOnUse">
<stop stop-color="#FE7062"/>
<stop offset="1" stop-color="#FF928E"/>
</linearGradient>
<linearGradient id="paint13_linear_384_4168" x1="256.266" y1="261.537" x2="298.25" y2="182.148" gradientUnits="userSpaceOnUse">
<stop stop-color="#FE7062"/>
<stop offset="1" stop-color="#FF928E"/>
</linearGradient>
<linearGradient id="paint14_linear_384_4168" x1="351.186" y1="205.019" x2="296.606" y2="213.798" gradientUnits="userSpaceOnUse">
<stop stop-color="#E1473D"/>
<stop offset="1" stop-color="#E9605A"/>
</linearGradient>
<linearGradient id="paint15_linear_384_4168" x1="196.208" y1="262.098" x2="252.696" y2="161.717" gradientUnits="userSpaceOnUse">
<stop stop-color="#FE7062"/>
<stop offset="1" stop-color="#FF928E"/>
</linearGradient>
<linearGradient id="paint16_linear_384_4168" x1="208.88" y1="269.229" x2="265.368" y2="168.848" gradientUnits="userSpaceOnUse">
<stop stop-color="#FE7062"/>
<stop offset="1" stop-color="#FF928E"/>
</linearGradient>
<linearGradient id="paint17_linear_384_4168" x1="364.708" y1="214.703" x2="263.945" y2="218.138" gradientUnits="userSpaceOnUse">
<stop stop-color="#E1473D"/>
<stop offset="1" stop-color="#E9605A"/>
</linearGradient>
<linearGradient id="paint18_linear_384_4168" x1="145.588" y1="268.246" x2="188.336" y2="206.796" gradientUnits="userSpaceOnUse">
<stop stop-color="#FE7062"/>
<stop offset="1" stop-color="#FF928E"/>
</linearGradient>
<linearGradient id="paint19_linear_384_4168" x1="154.149" y1="274.201" x2="196.897" y2="212.751" gradientUnits="userSpaceOnUse">
<stop stop-color="#FE7062"/>
<stop offset="1" stop-color="#FF928E"/>
</linearGradient>
<linearGradient id="paint20_linear_384_4168" x1="123.886" y1="196.89" x2="129.365" y2="196.89" gradientUnits="userSpaceOnUse">
<stop stop-color="#09005D"/>
<stop offset="1" stop-color="#1A0F91"/>
</linearGradient>
<linearGradient id="paint21_linear_384_4168" x1="118.83" y1="190.465" x2="125.192" y2="198.343" gradientUnits="userSpaceOnUse">
<stop stop-color="#FE7062"/>
<stop offset="1" stop-color="#FF928E"/>
</linearGradient>
<linearGradient id="paint22_linear_384_4168" x1="65.6277" y1="141.719" x2="114.589" y2="202.358" gradientUnits="userSpaceOnUse">
<stop stop-color="#FE7062"/>
<stop offset="1" stop-color="#FF928E"/>
</linearGradient>
<linearGradient id="paint23_linear_384_4168" x1="164.195" y1="165.552" x2="182.678" y2="165.552" gradientUnits="userSpaceOnUse">
<stop stop-color="#09005D"/>
<stop offset="1" stop-color="#1A0F91"/>
</linearGradient>
<linearGradient id="paint24_linear_384_4168" x1="155.647" y1="133.788" x2="159.909" y2="133.788" gradientUnits="userSpaceOnUse">
<stop stop-color="#DAE3FE"/>
<stop offset="1" stop-color="#E9EFFD"/>
</linearGradient>
<linearGradient id="paint25_linear_384_4168" x1="152.761" y1="138.244" x2="154.722" y2="138.244" gradientUnits="userSpaceOnUse">
<stop stop-color="#DAE3FE"/>
<stop offset="1" stop-color="#E9EFFD"/>
</linearGradient>
<linearGradient id="paint26_linear_384_4168" x1="147.729" y1="139.095" x2="152.833" y2="139.095" gradientUnits="userSpaceOnUse">
<stop stop-color="#DAE3FE"/>
<stop offset="1" stop-color="#E9EFFD"/>
</linearGradient>
<linearGradient id="paint27_linear_384_4168" x1="302.94" y1="121.854" x2="308.762" y2="127.444" gradientUnits="userSpaceOnUse">
<stop stop-color="#53D8FF"/>
<stop offset="1" stop-color="#3840F7"/>
</linearGradient>
<linearGradient id="paint28_linear_384_4168" x1="302.94" y1="133.325" x2="308.762" y2="138.915" gradientUnits="userSpaceOnUse">
<stop stop-color="#53D8FF"/>
<stop offset="1" stop-color="#3840F7"/>
</linearGradient>
<linearGradient id="paint29_linear_384_4168" x1="302.94" y1="144.795" x2="308.762" y2="150.385" gradientUnits="userSpaceOnUse">
<stop stop-color="#53D8FF"/>
<stop offset="1" stop-color="#3840F7"/>
</linearGradient>
<linearGradient id="paint30_linear_384_4168" x1="391.425" y1="267.183" x2="387.859" y2="267.183" gradientUnits="userSpaceOnUse">
<stop stop-color="#FF928E"/>
<stop offset="1" stop-color="#FEB3B1"/>
</linearGradient>
<linearGradient id="paint31_linear_384_4168" x1="404.275" y1="267" x2="401.197" y2="267" gradientUnits="userSpaceOnUse">
<stop stop-color="#FF928E"/>
<stop offset="1" stop-color="#FEB3B1"/>
</linearGradient>
<linearGradient id="paint32_linear_384_4168" x1="376.752" y1="174.158" x2="358.535" y2="174.158" gradientUnits="userSpaceOnUse">
<stop stop-color="#FF928E"/>
<stop offset="1" stop-color="#FEB3B1"/>
</linearGradient>
<linearGradient id="paint33_linear_384_4168" x1="371.932" y1="138.763" x2="363.917" y2="150.213" gradientUnits="userSpaceOnUse">
<stop stop-color="#FF928E"/>
<stop offset="1" stop-color="#FEB3B1"/>
</linearGradient>
<linearGradient id="paint34_linear_384_4168" x1="364.338" y1="149.437" x2="354.16" y2="167.503" gradientUnits="userSpaceOnUse">
<stop stop-color="#FF928E"/>
<stop offset="1" stop-color="#FEB3B1"/>
</linearGradient>
<linearGradient id="paint35_linear_384_4168" x1="416.613" y1="199.961" x2="393.56" y2="199.961" gradientUnits="userSpaceOnUse">
<stop stop-color="#FF928E"/>
<stop offset="1" stop-color="#FEB3B1"/>
</linearGradient>
<linearGradient id="paint36_linear_384_4168" x1="395.271" y1="197.544" x2="388.089" y2="197.544" gradientUnits="userSpaceOnUse">
<stop stop-color="#FF928E"/>
<stop offset="1" stop-color="#FEB3B1"/>
</linearGradient>
<linearGradient id="paint37_linear_384_4168" x1="393.399" y1="163.452" x2="395.18" y2="184.571" gradientUnits="userSpaceOnUse">
<stop stop-color="#FF928E"/>
<stop offset="1" stop-color="#FEB3B1"/>
</linearGradient>
<linearGradient id="paint38_linear_384_4168" x1="-937.743" y1="-1060.07" x2="-926.808" y2="-1049.97" gradientUnits="userSpaceOnUse">
<stop stop-color="#FF928E"/>
<stop offset="1" stop-color="#FEB3B1"/>
</linearGradient>
<linearGradient id="paint39_linear_384_4168" x1="-936.627" y1="-1061.29" x2="-925.692" y2="-1051.19" gradientUnits="userSpaceOnUse">
<stop stop-color="#FF928E"/>
<stop offset="1" stop-color="#FEB3B1"/>
</linearGradient>
</defs>
</svg>
