<svg width="415" height="352" viewBox="0 0 415 352" fill="none" xmlns="http://www.w3.org/2000/svg">
<g opacity="0.8" clip-path="url(#clip0_348_2641)">
<path opacity="0.31" d="M406.107 273.041H8.89306C3.98133 273.041 0 269.064 0 264.158C0 259.252 3.98133 255.275 8.89306 255.275H406.107C411.019 255.275 415 259.252 415 264.158C415 269.064 411.019 273.041 406.107 273.041Z" fill="#AEC3B0"/>
<path d="M15.4707 259.746V150.18H76.462V166.867H33.4374V196.148H70.4737V212.52H33.4374V242.745H76.462V259.746H15.4707Z" fill="#598392"/>
<path d="M138.399 259.746L122.008 214.093H107.982V259.746H90.0142V150.18H125.317C129.833 150.18 134.036 150.836 137.925 152.148C141.811 153.461 145.147 155.429 147.932 158.051C150.715 160.676 152.897 163.955 154.472 167.89C156.048 171.825 156.836 176.419 156.836 181.664C156.836 188.591 155.364 194.573 152.424 199.611C149.481 204.648 145.121 208.48 139.344 211.103L158.098 259.746H138.399ZM139.186 181.664C139.186 176.524 137.871 172.718 135.245 170.252C132.619 167.787 128.836 166.552 123.898 166.552H107.981V197.88H123.741C128.469 197.88 132.224 196.517 135.009 193.787C137.792 191.057 139.186 187.017 139.186 181.664Z" fill="#598392"/>
<path d="M221.611 259.746L205.221 214.093H191.195V259.746H173.229V150.18H208.531C213.046 150.18 217.251 150.836 221.138 152.148C225.025 153.461 228.362 155.429 231.147 158.051C233.93 160.676 236.11 163.955 237.687 167.89C239.263 171.825 240.051 176.419 240.051 181.664C240.051 188.591 238.579 194.573 235.637 199.611C232.696 204.648 228.335 208.48 222.557 211.103L241.311 259.746H221.611ZM222.401 181.664C222.401 176.524 221.085 172.718 218.46 170.252C215.833 167.787 212.051 166.552 207.112 166.552H191.195V197.88H206.955C211.684 197.88 215.437 196.517 218.224 193.787C221.008 191.057 222.401 187.017 222.401 181.664Z" fill="#598392"/>
<path d="M320.742 226.531C320.742 231.78 319.927 236.502 318.3 240.698C316.669 244.898 314.36 248.491 311.365 251.482C308.371 254.473 304.825 256.756 300.728 258.33C296.63 259.904 292.11 260.691 287.174 260.691C281.185 260.691 276.036 259.721 271.729 257.778C267.42 255.838 263.929 253.214 261.249 249.908C258.571 246.602 256.6 242.772 255.339 238.416C254.079 234.062 253.448 229.469 253.448 224.642V183.239C253.448 179.358 254.051 175.421 255.261 171.432C256.467 167.445 258.412 163.824 261.092 160.57C263.77 157.318 267.238 154.642 271.493 152.541C275.748 150.443 280.974 149.392 287.174 149.392C292.952 149.392 297.942 150.391 302.146 152.384C306.347 154.379 309.842 156.976 312.626 160.177C315.409 163.379 317.457 167 318.772 171.039C320.084 175.081 320.742 179.146 320.742 183.239V226.531ZM302.461 182.958C302.461 181.59 302.224 179.987 301.751 178.147C301.279 176.307 300.464 174.543 299.309 172.861C298.151 171.179 296.602 169.735 294.66 168.525C292.715 167.313 290.219 166.708 287.174 166.708C284.126 166.708 281.579 167.262 279.53 168.366C277.482 169.47 275.851 170.838 274.645 172.466C273.436 174.097 272.569 175.859 272.045 177.752C271.518 179.646 271.256 181.432 271.256 183.115L271.414 225.076C271.414 230.335 272.621 234.751 275.039 238.327C277.454 241.903 281.552 243.69 287.332 243.69C291.429 243.69 294.975 242.297 297.97 239.51C300.964 236.723 302.461 232.911 302.461 228.072V182.958Z" fill="#598392"/>
<path d="M386.145 259.746L369.755 214.093H355.729V259.746H337.764V150.18H373.066C377.582 150.18 381.787 150.836 385.674 152.148C389.56 153.461 392.896 155.429 395.682 158.051C398.464 160.676 400.645 163.955 402.222 167.89C403.798 171.825 404.586 176.419 404.586 181.664C404.586 188.591 403.114 194.573 400.172 199.611C397.23 204.648 392.869 208.48 387.092 211.103L405.846 259.746H386.145ZM386.934 181.664C386.934 176.524 385.619 172.718 382.994 170.252C380.366 167.787 376.584 166.552 371.647 166.552H355.729V197.88H371.489C376.217 197.88 379.972 196.517 382.758 193.787C385.54 191.057 386.934 187.017 386.934 181.664Z" fill="#598392"/>
<path d="M138.333 33.168V55.5789" stroke="#01161E" stroke-width="3" stroke-miterlimit="10"/>
<path d="M180.961 0H95.7041V39.4434H180.961V0Z" fill="#598392"/>
<path d="M127.4 25.9206V29.4739H123.526V25.9206H114.688V22.5093L121.519 4.99237H125.604L118.878 22.263H123.526V16.0717H127.4V22.263H129.195V25.9206H127.4Z" fill="white"/>
<path d="M144.76 23.5288C144.76 24.5139 144.59 25.3815 144.251 26.1314C143.911 26.8824 143.449 27.5209 142.864 28.0489C142.279 28.577 141.605 28.9752 140.845 29.2448C140.084 29.5134 139.282 29.6492 138.439 29.6492C137.596 29.6492 136.795 29.5134 136.035 29.2448C135.274 28.9752 134.606 28.5759 134.033 28.0489C133.46 27.5209 133.003 26.8824 132.663 26.1314C132.324 25.3815 132.154 24.5139 132.154 23.5288V10.9719C132.154 9.98679 132.323 9.11317 132.663 8.35104C133.003 7.58992 133.465 6.94434 134.05 6.41632C134.636 5.8883 135.302 5.49 136.052 5.22042C136.801 4.95185 137.597 4.81604 138.439 4.81604C139.282 4.81604 140.09 4.95185 140.863 5.22042C141.635 5.49 142.309 5.88931 142.882 6.41632C143.456 6.94434 143.912 7.58891 144.252 8.35104C144.591 9.11317 144.761 9.98679 144.761 10.9719V23.5288H144.76ZM140.887 10.9709C140.887 10.1966 140.663 9.59356 140.217 9.15878C139.77 8.72501 139.184 8.50813 138.457 8.50813C137.728 8.50813 137.142 8.72501 136.696 9.15878C136.25 9.59255 136.027 10.1966 136.027 10.9709V23.4924C136.027 24.29 136.25 24.9001 136.696 25.3217C137.142 25.7433 137.729 25.9541 138.457 25.9541C139.184 25.9541 139.77 25.7433 140.217 25.3217C140.662 24.8991 140.887 24.29 140.887 23.4924V10.9709Z" fill="white"/>
<path d="M160.148 25.9206V29.4739H156.274V25.9206H147.436V22.5093L154.267 4.99237H158.352L151.626 22.263H156.274V16.0717H160.148V22.263H161.944V25.9206H160.148Z" fill="white"/>
<path d="M298.547 142.949C299.448 143.857 299.934 145.393 300.315 146.476C301.069 148.623 301.775 150.786 302.481 152.948C303.192 155.127 303.912 157.415 303.518 159.673C303.361 160.572 302.969 161.509 302.168 161.95C301.647 162.237 301.012 162.271 300.43 162.141C298.902 161.796 297.81 160.421 297.206 158.978C296.602 157.534 296.36 155.964 295.8 154.503C294.815 151.94 292.84 149.316 289.991 149.006C288.53 148.847 286.637 148.698 285.623 147.478C284.582 146.224 284.511 143.461 285.953 142.492C286.426 142.174 286.989 142.018 287.549 141.913C289.361 141.57 291.159 141.753 292.978 141.898C294.556 142.023 296.27 141.718 297.761 142.388C298.054 142.521 298.315 142.714 298.547 142.949Z" fill="white" stroke="#01161E" stroke-miterlimit="10"/>
<path d="M143.242 63.2499C143.525 61.9699 143.797 60.6879 144.056 59.4038C144.606 56.6836 146.095 53.8702 143.983 51.4734C142.11 49.3471 138.223 50.0798 135.99 51.369C133.805 52.6318 132.294 55.2344 132.83 57.7001C133.291 59.8234 135.301 61.5088 137.476 61.5939C136.888 63.4881 136.35 65.3975 135.862 67.32C135.165 70.0625 136.85 71.0324 139.308 70.5094C139.925 70.3787 140.564 70.2328 141.06 69.8436C141.792 69.271 142.06 68.3011 142.279 67.3991C142.614 66.0187 142.935 64.6364 143.242 63.2499Z" fill="white" stroke="#01161E" stroke-miterlimit="10"/>
<path d="M289.923 139.648C289.554 139.567 289.186 139.485 288.819 139.417C277.209 137.275 264.581 133.72 252.723 134.809C250.17 135.043 247.643 135.528 245.084 135.689C236.448 136.233 228.165 133.176 219.851 131.362C216.464 130.623 213.083 130.231 209.705 129.531C205.577 128.676 201.313 129.547 197.153 129.005C193.517 128.531 189.959 126.958 186.32 127.415C181.609 128.006 177.454 130.919 176.221 135.58C175.604 137.914 175.899 140.394 176.447 142.745C176.959 144.946 177.839 147.288 179.803 148.409C183.913 150.754 191.673 149.239 196.233 149.316C202.4 149.421 208.567 149.626 214.732 149.832C226.883 150.238 239.042 150.657 251.201 150.35C263.715 150.034 276.234 150.333 288.747 150.772C289.163 147.066 289.562 143.359 289.923 139.648Z" fill="#01161E"/>
<path d="M84.368 164.003C82.5437 165.951 81.6133 168.548 80.9396 171.088C80.5419 172.585 80.3755 174.189 80.8179 175.673C81.3719 177.529 83.0967 179.248 85.1675 178.828C86.4622 178.564 87.5366 177.144 87.495 175.833C87.4717 175.102 87.1277 174.388 86.5717 173.912C86.6286 173.283 86.725 172.658 86.8609 172.039C86.9106 171.81 86.9735 171.569 87.1399 171.404C87.7325 170.815 87.912 171.735 87.8725 172.137C87.8288 172.572 87.4027 173.691 87.9263 173.953C88.2722 174.086 88.5472 173.643 88.6405 173.284C88.9733 171.997 89.0778 170.664 89.1803 169.338C89.2747 168.126 89.369 166.914 89.4624 165.702C89.4928 165.305 89.5243 164.901 89.4522 164.509C89.2432 163.369 87.9952 162.339 86.8031 162.498C85.9194 162.618 85.0316 163.295 84.368 164.003Z" fill="white" stroke="#01161E" stroke-miterlimit="10"/>
<path opacity="0.31" d="M321.828 98.2412L320.909 98.6759C320.645 98.8016 320.316 98.7094 320.14 98.4753C319.274 97.3199 318.373 96.5699 317.34 95.9355C317.094 95.7845 316.989 95.4764 317.081 95.2038L317.528 93.8852C317.637 93.564 317.468 93.2123 317.148 93.0968L314.466 92.1259C314.145 92.0093 313.79 92.1725 313.669 92.4917L313.171 93.8082C313.072 94.0697 312.811 94.2389 312.533 94.2085C311.313 94.0758 309.896 94.2096 308.695 94.467C308.416 94.5268 308.019 94.4345 307.897 94.1771L307.313 92.9447C307.164 92.6336 306.92 92.1765 306.608 92.3245L304.02 93.5498C303.709 93.6977 303.59 94.3261 303.737 94.6383L304.321 95.8706C304.447 96.1362 304.411 96.427 304.181 96.6115C303.259 97.3544 302.484 98.2361 301.84 99.2313C301.679 99.4786 301.385 99.585 301.108 99.4827L299.873 99.0225C299.547 98.9019 299.187 99.0702 299.071 99.3985L298.137 102.044C298.025 102.362 298.186 102.711 298.502 102.832L299.853 103.355C300.119 103.459 300.285 103.728 300.247 104.01C300.084 105.212 300.104 106.392 300.453 107.794C300.524 108.079 300.387 108.391 300.121 108.517L298.965 109.064C298.654 109.212 298.422 109.586 298.569 109.897L299.795 112.483C299.943 112.794 300.348 112.782 300.66 112.636L301.808 112.092C302.065 111.971 302.398 112.087 302.577 112.306C303.306 113.199 304.25 114.078 305.278 114.746C305.521 114.904 305.621 115.226 305.518 115.497L305.104 116.599C304.979 116.928 305.151 117.297 305.482 117.412L308.087 118.325C308.417 118.441 308.779 118.263 308.887 117.93L309.243 116.835C309.337 116.549 309.622 116.378 309.921 116.414C311.134 116.556 312.335 116.513 313.509 116.27C313.796 116.21 314.043 116.367 314.169 116.632L314.73 117.813C314.877 118.125 315.286 118.105 315.598 117.957L318.186 116.732C318.498 116.584 318.454 116.432 318.306 116.12L317.746 114.938C317.624 114.681 317.803 114.316 318.025 114.138C318.994 113.36 319.979 112.344 320.662 111.282C320.815 111.043 321.146 110.935 321.413 111.028L322.61 111.433C322.933 111.545 323.294 111.373 323.409 111.051L324.361 108.415C324.481 108.082 324.301 107.714 323.962 107.609L322.91 107.278C322.63 107.19 322.444 106.919 322.476 106.627C322.609 105.413 322.517 104.101 322.288 102.975C322.231 102.697 322.353 102.367 322.61 102.245L323.521 101.814C323.832 101.666 323.78 101.511 323.633 101.198L322.406 98.6131C322.259 98.301 322.139 98.0932 321.828 98.2412ZM313.755 110.731C310.754 112.152 307.167 110.873 305.746 107.875C304.324 104.877 305.604 101.295 308.605 99.8749C311.606 98.454 315.193 99.733 316.614 102.731C318.036 105.729 316.757 109.31 313.755 110.731Z" fill="#AEC3B0"/>
<path opacity="0.31" d="M354.187 115.534L352.948 116.121C352.59 116.29 352.146 116.166 351.909 115.849C350.739 114.29 349.522 113.277 348.127 112.421C347.795 112.217 347.652 111.801 347.778 111.434L348.382 109.654C348.53 109.22 348.302 108.746 347.871 108.59L344.248 107.278C343.815 107.121 343.335 107.341 343.173 107.772L342.499 109.55C342.365 109.902 342.013 110.131 341.638 110.091C339.991 109.911 338.077 110.093 336.456 110.439C336.079 110.52 335.543 110.395 335.378 110.047L334.588 108.383C334.388 107.962 334.058 107.346 333.637 107.545L330.141 109.199C329.72 109.399 329.56 110.248 329.76 110.668L330.549 112.334C330.72 112.692 330.67 113.085 330.36 113.334C329.115 114.336 328.068 115.528 327.198 116.872C326.981 117.206 326.584 117.349 326.21 117.21L324.543 116.588C324.101 116.425 323.615 116.653 323.459 117.096L322.198 120.667C322.046 121.097 322.264 121.568 322.689 121.732L324.514 122.439C324.872 122.578 325.098 122.943 325.047 123.324C324.828 124.947 324.854 126.539 325.325 128.434C325.42 128.818 325.236 129.24 324.877 129.41L323.317 130.148C322.896 130.347 322.582 130.853 322.781 131.273L324.438 134.765C324.638 135.185 325.185 135.17 325.605 134.972L327.156 134.237C327.502 134.073 327.953 134.23 328.194 134.526C329.178 135.731 330.454 136.918 331.842 137.819C332.169 138.032 332.304 138.468 332.165 138.833L331.606 140.322C331.438 140.765 331.67 141.263 332.118 141.42L335.634 142.653C336.081 142.809 336.57 142.569 336.716 142.119L337.197 140.64C337.323 140.253 337.707 140.023 338.112 140.07C339.75 140.262 341.372 140.205 342.957 139.877C343.344 139.797 343.679 140.007 343.849 140.365L344.606 141.961C344.805 142.382 345.356 142.356 345.777 142.156L349.273 140.502C349.694 140.302 349.634 140.097 349.434 139.676L348.677 138.081C348.513 137.733 348.754 137.241 349.055 137C350.362 135.951 351.694 134.578 352.616 133.143C352.823 132.822 353.269 132.675 353.63 132.801L355.248 133.347C355.684 133.499 356.171 133.267 356.328 132.832L357.614 129.273C357.776 128.822 357.533 128.326 357.075 128.183L355.654 127.737C355.275 127.619 355.025 127.251 355.067 126.857C355.247 125.217 355.123 123.445 354.815 121.925C354.738 121.551 354.903 121.104 355.249 120.94L356.479 120.357C356.901 120.158 356.83 119.948 356.63 119.527L354.974 116.036C354.771 115.615 354.609 115.335 354.187 115.534ZM343.288 132.401C339.234 134.32 334.392 132.593 332.472 128.545C330.551 124.496 332.28 119.66 336.332 117.741C340.386 115.823 345.227 117.55 347.148 121.599C349.069 125.646 347.34 130.483 343.288 132.401Z" fill="#AEC3B0"/>
<path opacity="0.31" d="M20.8464 321.242C18.0237 320.788 15.1382 320.59 12.5002 319.514C9.32344 318.218 6.49268 315.043 7.15522 311.679C7.72645 308.778 10.7195 306.874 13.6589 306.531C16.5982 306.187 19.5274 307.04 22.3957 307.771C27.2628 309.011 32.2141 309.92 37.2039 310.487C44.4432 311.311 52.2973 311.618 57.9669 316.19C61.7271 319.222 64.4695 324.071 69.2169 324.97C70.2031 325.156 71.2269 325.153 72.1836 325.454C73.1404 325.755 74.0657 326.472 74.2027 327.464C74.4848 329.513 69.4553 329.746 68.0207 330.137C63.8719 331.269 59.9393 332.785 55.8575 333.956C51.5607 335.19 46.9462 334.822 42.556 334.419C38.1465 334.016 33.1698 333.3 30.612 329.69C29.2798 327.811 28.805 325.359 27.1745 323.731C25.956 322.515 24.2484 321.927 22.5661 321.56C21.9969 321.439 21.4237 321.335 20.8464 321.242Z" fill="#AEC3B0"/>
<path d="M8.72357 303.517C8.20612 305.846 8.7601 308.168 10.0578 309.961C11.1627 311.488 12.8074 312.632 14.7859 313.069C16.9845 313.557 19.1162 313.19 20.837 312.039L64.9299 321.542L67.4117 310.36L23.2224 300.837C21.5898 298.916 19.9624 297.797 18.2538 297.418C16.1759 296.958 14.0371 297.343 12.2311 298.502C10.4301 299.657 9.1842 301.439 8.72357 303.517ZM14.8153 303.145C14.8579 303.121 14.8934 303.088 14.9391 303.066C15.1288 302.976 15.3155 302.918 15.5012 302.876C15.5387 302.866 15.5783 302.848 15.6138 302.84C15.6138 302.845 15.6138 302.851 15.6128 302.857C16.0156 302.782 16.4214 302.795 16.8648 302.886C16.878 302.889 16.8902 302.891 16.9034 302.894C17.9484 303.109 18.7743 304.382 18.685 305.415C18.5896 306.514 17.8348 307.552 16.7045 307.774C16.6933 307.776 16.6812 307.778 16.67 307.781C16.7999 307.733 16.9287 307.686 17.0586 307.638C16.4894 307.848 15.9334 307.94 15.3216 307.752C14.729 307.569 14.101 307.088 13.8311 306.519C13.3025 305.4 13.5704 303.718 14.8153 303.145Z" fill="#01161E"/>
<path d="M21.3584 308.63L65.4513 318.134" stroke="white" stroke-miterlimit="10"/>
<path d="M22.377 304.252L66.4699 313.756" stroke="white" stroke-miterlimit="10"/>
<path d="M59.7423 315.374C59.1183 318.18 59.6266 321.061 61.1739 323.485C61.2896 323.667 61.4113 323.846 61.5382 324.02C63.0844 326.155 65.3308 327.633 67.9292 328.209C70.3673 328.749 72.9333 328.423 75.1542 327.289L76.6163 326.544L68.4426 320.911L72.8673 314.507L80.9061 320.049L81.0065 318.312C81.3129 313.02 77.7729 308.344 72.5923 307.197C66.7928 305.913 61.0288 309.581 59.7423 315.374Z" fill="white" stroke="#01161E" stroke-miterlimit="10"/>
<path opacity="0.31" d="M91.2886 308.71C85.7681 308.09 79.1589 306.108 77.9485 300.692C76.8984 295.993 81.0005 291.422 85.621 290.052C90.2415 288.684 95.1837 289.609 99.9534 290.298C106.981 291.312 157.23 291.994 155.813 301.923C155.097 306.931 131.105 307.983 126.452 308.475C114.776 309.712 102.973 310.024 91.2886 308.71Z" fill="#AEC3B0"/>
<path d="M133.537 292.815L132.721 296.004L94.6426 289.334L95.4583 286.145L133.537 292.815Z" fill="#01161E"/>
<path d="M161.144 293.566C161.221 293.663 161.295 293.764 161.367 293.866C162.362 295.278 162.746 296.979 162.447 298.654C161.826 302.142 158.381 304.481 154.771 303.869L117.689 297.599L119.594 285.384L156.941 291.094C158.629 291.381 160.107 292.254 161.144 293.566Z" fill="white" stroke="#01161E" stroke-miterlimit="10"/>
<path d="M102.21 281.465L107.111 288.443L106.172 291.28L99.8254 295.559L85.4048 289.49L86.8932 281.431L102.21 281.465Z" fill="white" stroke="#01161E" stroke-miterlimit="10"/>
<path d="M128.353 291.018L162.522 296.482" stroke="#01161E" stroke-miterlimit="10"/>
<path d="M127.611 295.244L161.78 300.708" stroke="#01161E" stroke-miterlimit="10"/>
<path d="M120.691 298.106L123.107 285.735" stroke="#01161E" stroke-miterlimit="10"/>
<path d="M89.9277 289.149L97.9817 292.225" stroke="#01161E" stroke-miterlimit="10"/>
<path d="M119.708 132.114C115.884 131.581 111.936 132.756 108.283 133.336C106.789 133.629 105.295 133.921 103.802 134.213C101.935 134.599 99.9798 134.857 98.2387 135.676C95.5845 136.924 93.6831 139.355 92.1774 141.869C90.6352 144.444 89.4025 147.19 88.1728 149.927C86.174 154.378 84.4025 158.875 82.562 163.349C82.4514 163.616 82.5721 163.92 82.8349 164.042C85.548 165.296 88.2052 166.666 90.8412 168.078C90.9629 168.143 91.108 168.086 91.1486 167.954C91.8598 165.697 101.008 150.723 103.163 149.674C104.29 149.126 105.96 149.055 107.186 148.699C109.943 147.9 112.635 146.879 115.228 145.646C117.621 144.509 119.928 143.195 122.123 141.713C122.859 141.216 123.48 140.542 123.846 139.733C125.567 135.949 123.637 132.661 119.708 132.114Z" fill="white" stroke="#01161E" stroke-miterlimit="10"/>
<path d="M235.726 185.79C234.97 184.521 234.175 183.253 233.545 181.889C233.18 181.1 232.815 180.28 232.172 179.693C231.237 178.84 229.896 178.636 228.64 178.47C226.802 178.228 224.913 177.987 223.113 178.431C222.368 178.615 221.632 178.928 221.096 179.475C219.58 181.021 221.023 183.762 222.51 184.813C224.121 185.951 226.05 186.188 227.611 187.473C229.163 188.749 230.093 190.626 230.953 192.401C231.795 194.139 232.638 195.877 233.48 197.615C233.639 197.944 233.833 198.303 234.18 198.415C234.374 198.478 234.586 198.45 234.785 198.406C236.933 197.921 238.21 195.568 238.283 193.37C238.38 190.445 237.115 188.116 235.726 185.79Z" fill="white" stroke="#01161E" stroke-miterlimit="10"/>
<path d="M102.906 146.834C104.334 148.138 106.078 149.177 107.692 149.644C109.617 150.2 111.937 149.829 113.197 148.271C114.356 146.839 114.77 144.431 116.593 144.16C117.127 144.081 117.667 144.229 118.18 144.398C120.724 145.237 123.258 146.644 125.909 146.255C127.609 146.005 129.139 145.015 130.278 143.731C131.589 142.253 132.448 140.24 132.066 138.303C131.296 134.408 126.26 133.585 123.059 133.394C118.722 133.135 114.282 133.186 110.046 132.233C106.906 131.527 104.241 131.675 101.763 134.251C99.4257 136.68 99.0097 140.62 100.452 143.664C100.982 144.782 101.859 145.879 102.906 146.834Z" fill="white" stroke="#01161E" stroke-miterlimit="10"/>
<path d="M127.282 122.785C122.099 123.315 120.451 126.755 117.778 130.668C115.563 133.911 113.48 138.715 116.34 142.117C118.646 144.859 121.687 146.093 124.691 147.822C127.235 149.287 129.29 150.42 132.523 150.287C140.385 149.965 148.337 150.846 156.289 150.799C161.373 150.77 166.253 150.812 171.147 149.272C175.427 147.925 176.975 143.765 178.099 139.638C179.248 135.42 179.845 129.387 176.907 125.686C176.529 125.209 176.092 124.771 175.588 124.38C174.849 123.805 173.983 123.416 173.117 123.059C171.461 122.377 169.649 121.78 167.905 122.19C167.512 122.282 167.133 122.424 166.746 122.541C163.195 123.617 159.713 124.071 156.012 124.463C151.843 124.905 147.533 124.505 143.381 124.081C138.105 123.543 132.586 122.244 127.282 122.785Z" fill="white" stroke="#01161E" stroke-miterlimit="10"/>
<path d="M224.661 183.241C224.896 181.863 225.373 178.167 224.445 177.257C223.565 176.394 222.327 176.308 221.206 176.053C219.741 175.718 218.293 175.214 216.848 174.797C213.862 173.937 210.877 173.073 207.895 172.2C203.033 170.778 198.422 169.024 193.754 167.086C187.437 164.465 180.865 161.506 174.06 162.199C172.44 162.364 170.945 162.968 169.377 163.306C167.629 163.683 165.789 164.316 164.344 165.391C162.125 167.044 161.572 169.931 162.524 172.454C164.833 178.574 171.118 178.873 176.54 180.317C179.348 181.065 182.34 181.212 185.236 181.461C194.957 182.293 204.652 183.436 214.3 184.888C216.741 185.255 219.179 185.642 221.614 186.049C222.281 186.16 223.131 186.424 223.931 186.501C224.209 185.42 224.474 184.339 224.661 183.241Z" fill="#01161E"/>
<path d="M166.414 176.97C166.826 177.08 167.259 177.093 167.705 176.979C172.858 175.664 177.349 171.075 180.442 166.993C185.405 160.446 188.425 152.772 193.091 146.09C194.523 144.039 196.446 142.623 197.639 140.422C199.754 136.518 200.766 131.293 199.947 126.912C198.367 118.452 188.552 115.961 181.091 117.208C176.199 118.026 171.839 120.869 166.962 121.775C166.352 121.889 165.703 121.985 165.217 122.371C165.058 122.498 164.942 122.732 164.857 123.036C164.876 128.966 164.903 134.886 164.819 140.823C164.766 144.517 165.192 149.244 164.695 152.277C164.389 154.139 162.913 156.204 162.325 158.051C160.941 162.399 160.503 167.062 162.038 171.443C162.665 173.233 164.287 176.4 166.414 176.97Z" fill="#01161E"/>
<path d="M139.928 138.799C140.023 138.99 140.118 139.179 140.214 139.37L139.928 138.799Z" fill="#01161E"/>
<path d="M138.377 132.526C140.086 129.751 141.612 126.596 142.855 123.305C144.456 119.065 145.586 114.6 146.03 110.431C146.443 106.55 146.208 102.631 145.973 98.7337C145.284 87.2997 145.111 75.6853 143.862 64.304C142.684 64.8968 134.177 65.6833 134.211 65.4026C132.655 78.071 131.099 90.7384 129.543 103.407C129.176 106.395 128.804 109.407 127.829 112.254C126.818 115.206 125.19 117.9 123.677 120.628C121.101 125.272 115.118 133.486 116.275 138.853" fill="white"/>
<path d="M138.377 132.526C140.086 129.751 141.612 126.596 142.855 123.305C144.456 119.065 145.586 114.6 146.03 110.431C146.443 106.55 146.208 102.631 145.973 98.7337C145.284 87.2997 145.111 75.6853 143.862 64.304C142.684 64.8968 134.177 65.6833 134.211 65.4026C132.655 78.071 131.099 90.7384 129.543 103.407C129.176 106.395 128.804 109.407 127.829 112.254C126.818 115.206 125.19 117.9 123.677 120.628C121.101 125.272 115.118 133.486 116.275 138.853" stroke="#01161E" stroke-miterlimit="10"/>
<path d="M165.083 151.362C168.299 145.213 172.185 139.412 176.65 134.096" stroke="white" stroke-miterlimit="10"/>
<path d="M140.86 136.812C140.662 135.167 140.335 133.593 140.165 131.94C140.082 131.128 139.998 130.311 139.759 129.53C139.738 129.46 139.711 129.39 139.68 129.321C138.077 132.629 135.192 135.174 132.241 137.345C134.996 138.892 137.752 140.438 140.506 141.984C141.281 142.42 140.931 137.407 140.86 136.812Z" fill="#01161E"/>
<path d="M111.658 138.284C111.664 138.821 111.214 139.436 110.893 139.811C115.722 142.24 116.575 152.088 116.105 156.742C115.787 159.883 114.871 162.943 114.611 166.089C114.223 170.758 115.427 175.712 118.628 179.138C122.513 183.294 129.038 184.565 134.364 182.556C139.69 180.547 143.657 175.543 144.826 169.978C147.697 156.311 134.36 144.249 125.847 135.429C122.492 131.952 118.233 129.505 113.256 129.703C111.754 129.763 110.27 130.05 108.805 130.387C105.075 131.244 101.683 132.591 99.7495 136.008C98.5827 138.07 96.5099 139.639 95.891 141.924C95.4324 143.618 95.9346 145.567 97.2414 146.741C98.5482 147.915 100.624 148.188 102.135 147.291C105.473 145.31 104.389 137.974 108.891 138.199C108.793 137.802 109.09 137.393 109.461 137.221C109.834 137.05 110.26 137.059 110.669 137.071C110.854 137.078 111.046 137.085 111.216 137.161C111.599 137.333 111.653 137.918 111.658 138.284Z" fill="#01161E"/>
<path d="M109.12 148.557C108.774 147.505 109.03 146.278 109.767 145.451L109.12 148.557Z" fill="white"/>
<path d="M109.12 148.557C108.774 147.505 109.03 146.278 109.767 145.451" stroke="#01161E" stroke-miterlimit="10"/>
<path d="M198.885 135.52C196.957 140.433 193.185 144.463 191.321 149.4" stroke="white" stroke-miterlimit="10"/>
<path opacity="0.31" d="M334.568 300.647C334.161 301.383 333.944 302.192 333.979 303.082C334.045 304.743 335.308 306.179 336.817 306.879C338.326 307.578 340.045 307.663 341.708 307.605C346.958 307.423 352.054 305.951 356.904 304.016C361.198 302.303 366.329 300.573 369.663 297.282C370.501 296.455 371.07 295.098 370.422 294.116C369.941 293.389 368.994 293.159 368.133 293.011C361.63 291.897 354.898 292.209 348.506 293.831C344.889 294.749 336.817 296.583 334.568 300.647Z" fill="#AEC3B0"/>
<path d="M361.762 251.165C361.772 250.991 361.79 250.817 361.819 250.643C362.133 248.747 363.625 247.304 364.648 245.676C365.641 244.094 366.214 242.251 366.293 240.385C366.44 236.887 366.338 232.396 367.846 229.157C369.206 226.236 372.439 224.652 374.098 221.906C375.013 220.391 375.297 218.593 375.706 216.871C376.356 214.13 377.397 211.415 379.236 209.28C380.668 207.618 382.518 206.38 384.345 205.163C386.121 203.979 387.92 202.783 389.934 202.074C392.578 201.142 395.512 200.832 396.738 203.554C397.727 205.752 397.229 208.866 396.185 210.935C395.277 212.735 393.839 214.201 392.487 215.697C390.141 218.291 387.993 221.064 386.066 223.982C385.529 224.797 384.995 225.658 384.874 226.626C384.758 227.565 385.042 228.501 385.16 229.44C385.761 234.204 383.795 238.053 380.112 240.955C377.204 243.245 375.389 244.541 374.657 248.507C374.205 250.961 374.002 253.565 372.636 255.654C372.078 256.507 371.35 257.233 370.688 258.009C368.237 260.888 366.707 264.536 366.372 268.3C366.204 270.182 365.807 274.43 362.777 273.575C359.071 272.53 359.521 261.715 360.608 259.153C361.069 258.064 361.763 257.056 361.984 255.893C362.276 254.338 361.676 252.735 361.762 251.165Z" fill="#01161E"/>
<path d="M346.066 259.05C346.037 257.672 346.239 256.238 346.721 254.757C347.306 252.955 348.265 251.15 347.977 249.277C347.5 246.18 343.924 244.492 342.813 241.562C341.292 237.549 344.872 233.519 345.674 229.304C346.353 225.728 344.984 222.129 344.059 218.608C343.662 217.093 341.401 208.438 345.892 209.821C346.601 210.039 347.055 210.719 347.4 211.374C349.579 215.516 350.131 220.764 353.611 224.172C355.035 225.568 356.875 226.5 358.225 227.967C360.371 230.298 360.996 233.733 360.509 236.861C359.659 242.328 354.262 245.983 356.417 251.578C357.314 253.907 358.852 255.922 360.11 258.079C362.718 262.554 368.019 280.488 357.349 274.293C351.692 271.008 346.208 265.661 346.066 259.05Z" fill="white" stroke="#01161E" stroke-miterlimit="10"/>
<path d="M367.109 259.427C367.169 259.309 367.229 259.191 367.291 259.073C368.618 256.539 370.389 254.26 371.757 251.748C372.867 249.71 373.708 247.526 374.943 245.56C376.178 243.595 377.902 241.807 380.124 241.129C381.498 240.71 383.718 240.971 384.789 241.99C385.14 242.325 385.409 242.737 385.749 243.083C386.366 243.709 387.184 244.084 387.937 244.538C391.785 246.863 393.432 251.236 394.836 255.274C396.371 259.693 398.234 263.446 398.85 268.09C398.989 269.137 399.082 270.341 398.354 271.108C397.741 271.755 396.71 271.85 395.866 271.564C395.023 271.278 394.327 270.678 393.674 270.074C392.823 269.286 391.987 268.445 391.469 267.408C391.031 266.531 390.836 265.542 390.341 264.696C389.749 263.684 388.783 262.959 387.895 262.193C385.311 259.967 383.726 257.292 381.884 254.506C380.024 255.265 378.198 257.684 376.193 258.753C374.443 259.687 371.504 260.021 370.53 261.964C369.569 263.88 370.015 266.655 369.323 268.753C367.783 273.422 364.18 272.76 364.679 267.783C364.972 264.882 365.801 262.034 367.109 259.427Z" fill="white" stroke="#01161E" stroke-miterlimit="10"/>
<path d="M378.471 268.346H344V272.65H346.766L350.822 295.606H371.649L375.704 272.65H378.471V268.346Z" fill="#01161E"/>
<path d="M345.794 273.009H376.676" stroke="white" stroke-miterlimit="10"/>
<path d="M345.681 239.564C346.145 239.564 346.522 239.188 346.522 238.724C346.522 238.26 346.145 237.884 345.681 237.884C345.216 237.884 344.84 238.26 344.84 238.724C344.84 239.188 345.216 239.564 345.681 239.564Z" fill="#01161E"/>
<path d="M353.248 242.924C353.712 242.924 354.089 242.548 354.089 242.084C354.089 241.62 353.712 241.243 353.248 241.243C352.783 241.243 352.407 241.62 352.407 242.084C352.407 242.548 352.783 242.924 353.248 242.924Z" fill="#01161E"/>
<path d="M351.567 252.162C352.031 252.162 352.408 251.785 352.408 251.321C352.408 250.857 352.031 250.481 351.567 250.481C351.102 250.481 350.726 250.857 350.726 251.321C350.726 251.785 351.102 252.162 351.567 252.162Z" fill="#01161E"/>
<path d="M356.611 233.686C357.076 233.686 357.452 233.31 357.452 232.846C357.452 232.382 357.076 232.006 356.611 232.006C356.147 232.006 355.77 232.382 355.77 232.846C355.77 233.31 356.147 233.686 356.611 233.686Z" fill="#01161E"/>
<path d="M346.522 216.889C346.987 216.889 347.363 216.512 347.363 216.048C347.363 215.584 346.987 215.208 346.522 215.208C346.058 215.208 345.681 215.584 345.681 216.048C345.681 216.512 346.058 216.889 346.522 216.889Z" fill="#01161E"/>
<path d="M358.293 262.24C358.757 262.24 359.134 261.863 359.134 261.399C359.134 260.935 358.757 260.559 358.293 260.559C357.828 260.559 357.452 260.935 357.452 261.399C357.452 261.863 357.828 262.24 358.293 262.24Z" fill="#01161E"/>
<path d="M350.725 260.56C351.19 260.56 351.566 260.184 351.566 259.72C351.566 259.256 351.19 258.88 350.725 258.88C350.261 258.88 349.884 259.256 349.884 259.72C349.884 260.184 350.261 260.56 350.725 260.56Z" fill="#01161E"/>
<path d="M349.886 229.486C350.35 229.486 350.727 229.11 350.727 228.646C350.727 228.182 350.35 227.806 349.886 227.806C349.421 227.806 349.044 228.182 349.044 228.646C349.044 229.11 349.421 229.486 349.886 229.486Z" fill="#01161E"/>
<path opacity="0.31" d="M188.371 349.464C182.665 348.324 177.006 346.886 171.404 345.332C166.138 343.871 160.594 342.112 157.048 337.956C146.399 325.477 163.763 312.603 172.953 307.225C180.459 302.831 189.401 297.682 198.361 298.972C203.447 299.705 208.23 301.781 212.907 303.908C228.504 310.998 244.087 318.979 261.068 321.272C264.624 321.753 294.135 322.533 292.782 327.337C292.545 328.182 291.85 328.812 291.167 329.365C284.963 334.386 277.233 337.061 269.664 339.6C250.552 346.008 230.934 352.206 210.774 351.997C203.24 351.917 195.765 350.942 188.371 349.464Z" fill="#AEC3B0"/>
<path d="M198.865 311.901C196.386 316.426 200.257 319.688 203.481 322.726C204.363 323.557 205.313 324.346 206.428 324.823C208.356 325.647 210.549 325.451 212.634 325.22C227.607 323.561 242.866 321.544 257.594 318.382C261.058 317.638 264.487 316.73 267.938 315.951C272.43 314.937 277.115 312.979 281.397 311.273C285.755 309.536 289.831 307.091 293.402 304.05C293.464 303.998 293.525 303.941 293.587 303.887C294.204 303.514 294.74 303.069 295.175 302.308C297.025 300.199 298.302 297.574 297.237 295.118C296.012 292.288 292.427 291.481 289.351 291.238C280.167 290.511 270.964 291.5 261.886 292.863C255.763 293.782 249.7 295.083 243.552 295.842C237.299 296.614 231.338 295.919 225.122 296.063C214.364 296.311 204.04 302.454 198.865 311.901Z" fill="#01161E"/>
<path d="M225.532 289.572C221.731 288.075 217.815 289.478 215.722 285.158C214.966 283.597 214.611 281.877 214.053 280.234C212.328 275.15 208.55 270.795 203.757 268.366C207.498 264.844 212.51 263.088 217.07 260.717C221.251 258.543 225.132 255.794 228.569 252.572C231.733 249.606 236.637 243.237 234.014 238.619C231.902 234.901 226.665 236.06 223.278 236.923C218.564 238.125 214.446 238.351 210.194 241.127C206.099 243.799 202.722 247.413 199.416 251.014C194.253 256.638 182.987 267.636 190.352 275.531C194.521 280 198.82 284.281 203.853 287.777C205.272 288.762 206.733 289.7 208.313 290.396C211.44 291.773 212.646 294.314 215.776 295.718C218.383 296.886 221.167 297.731 224.02 297.871C226.136 297.975 229.579 297.483 229.781 294.934C229.971 292.529 227.525 290.357 225.532 289.572Z" fill="white" stroke="#01161E" stroke-miterlimit="10"/>
<path d="M278.678 282.674C276.827 285.116 273.736 286.719 270.78 286.029C267.65 285.298 265.587 282.39 263.905 279.654C261.233 275.306 258.738 270.778 257.399 265.854C255.925 260.435 255.233 251.81 260.62 248.208C264.451 245.646 270.714 247.098 273.676 250.375C280.069 257.446 284.301 272.858 279.363 281.633C279.16 281.992 278.931 282.341 278.678 282.674Z" fill="white" stroke="#01161E" stroke-miterlimit="10"/>
<path d="M268.906 239.364C264.167 234.354 258.536 230.674 251.153 230.856C249.163 230.906 247.188 231.23 245.2 231.301C238.223 231.548 231.307 229.807 224.581 232.492C217.403 235.357 210.755 239.452 204.457 243.892C203.951 244.248 216.229 261.074 217.532 262.599C222.614 258.88 221.394 276.401 221.314 278.77C221.115 284.67 220.964 290.634 222.179 296.446C222.476 296.037 222.815 295.598 223.311 295.491C223.91 295.362 224.286 296.083 224.819 296.214C225.96 296.497 227.557 296.202 228.738 296.198C230.995 296.19 233.254 296.199 235.51 296.18C240.711 296.136 245.926 296.116 251.085 295.394C253.781 295.016 256.448 294.634 259.134 294.677C260.55 289.782 260.054 283.888 260.192 279.023C260.338 274.344 259.961 269.759 260.322 265.099C266.97 263.459 273.502 261.349 279.855 258.791C280.236 258.637 276.812 250.858 276.438 250.107C274.979 247.185 273.227 244.399 271.136 241.887C270.415 241.018 269.672 240.174 268.906 239.364Z" fill="#01161E"/>
<path d="M231.894 326.731C230.93 327.695 210.632 332.143 210.632 332.143L209.676 321.837L228.562 315.084L231.894 326.731Z" fill="white" stroke="#01161E" stroke-miterlimit="10"/>
<path d="M283.252 314.42C285.624 313.066 287.993 311.706 290.545 310.746C293.25 309.729 296.249 309.105 298.333 307.104C300.539 304.985 301.235 301.785 301.825 298.786C302.481 295.456 302.47 291.709 301.552 288.424C300.246 283.74 296.453 279.808 291.666 278.725C288.783 278.072 285.677 278.452 283.037 279.782C281.091 280.762 279.423 282.22 277.5 283.245C275.896 284.1 274.145 284.637 272.45 285.296C267.301 287.3 262.563 290.295 257.873 293.128C253.159 295.977 248.938 299.553 244.379 302.631C242.579 303.846 223.669 313.016 223.671 313.022C226.123 318.476 228.265 324.086 230.508 329.647C242.737 327.993 254.523 324.151 266.415 320.958C268.774 320.325 270.966 319.378 273.328 318.84C275.994 318.233 278.49 317.058 280.88 315.756C281.675 315.32 282.464 314.871 283.252 314.42Z" fill="#01161E"/>
<path d="M209.944 333.226C206.201 333.966 202.445 333.167 198.409 332.732C195.262 332.393 192.034 332.971 188.907 332.491C184.73 331.848 181.486 328.897 181.178 324.725C181.005 322.379 180.918 319.755 182.469 317.984C183.738 316.532 185.835 316.05 187.756 316.225C189.677 316.401 191.494 317.135 193.317 317.762C196.436 318.833 199.648 319.602 202.872 320.286C205.483 320.842 207.728 322.138 210.318 320.856C210.457 320.787 210.614 320.712 210.76 320.764C210.917 320.818 210.99 320.994 211.046 321.15C211.97 323.74 212.799 326.364 213.536 329.013C213.919 330.39 214.554 331.188 213.421 332.042C212.528 332.715 211.02 333.015 209.944 333.226Z" fill="#01161E"/>
<path d="M250.396 326.731C251.36 327.695 271.658 332.143 271.658 332.143L272.614 321.837L253.728 315.084L250.396 326.731Z" fill="white" stroke="#01161E" stroke-miterlimit="10"/>
<path d="M198.348 315.625C194.438 314.151 190.643 312.42 187.059 310.261C185.853 309.535 184.652 308.742 183.791 307.629C182.572 306.053 182.164 304.017 181.793 302.061C180.406 294.772 178.442 289.217 183.731 283.026C188.037 277.986 194.948 276.029 200.805 279.671C204.608 282.037 207.161 286.325 211.387 287.815C213.664 288.617 216.262 288.457 218.463 289.475C220.486 290.41 222.484 291.959 224.417 293.126C229.131 295.975 233.352 299.551 237.911 302.629C239.711 303.844 258.622 313.014 258.619 313.02C256.167 318.474 254.025 324.084 251.782 329.645C239.553 327.991 227.767 324.149 215.875 320.956C209.986 319.376 204.044 317.774 198.348 315.625Z" fill="#01161E"/>
<path d="M272.345 333.226C276.088 333.966 279.844 333.167 283.88 332.733C287.027 332.394 290.255 332.972 293.382 332.492C297.338 331.883 301.846 327.962 302.024 323.773C302.08 322.464 301.736 321.167 301.241 319.954C300.98 319.315 300.674 318.689 300.248 318.147C299.287 316.927 297.759 316.223 296.212 316.08C293.842 315.861 291.465 316.626 289.221 317.282C286.906 317.959 284.775 318.322 282.536 319.288C279.659 320.529 276.443 320.97 273.338 320.553C272.53 320.444 271.695 320.28 270.911 320.508C269.155 321.02 269.331 323.665 269.197 325.114C268.994 327.296 268.888 329.534 268.005 331.573C269.46 332.427 270.902 332.942 272.345 333.226Z" fill="#01161E"/>
<path d="M263.292 248.477C263.291 248.448 263.289 248.419 263.288 248.389C263.238 247.534 263.186 246.68 263.135 245.824C263.109 245.383 263.082 244.938 263.153 244.501C263.369 243.166 264.43 242.152 265.431 241.241C266.187 240.554 272.566 234.334 273.054 234.692C275.045 236.201 276.269 234.849 277.723 233.304C278.168 232.831 278.619 232.273 278.603 231.625C278.587 230.976 277.806 230.369 277.281 230.751C278.435 229.473 279.56 228.168 280.651 226.836C281.612 225.663 282.564 224.943 281.909 223.389C280.855 220.889 278.657 219.005 276.216 217.814C274.285 216.871 271.195 215.55 268.999 215.712C266.577 215.89 265.327 217.931 263.505 219.176C263.425 219.231 263.337 219.287 263.241 219.279C263.125 219.271 263.037 219.178 262.951 219.1C262.283 218.488 261.171 218.607 260.442 219.148C259.714 219.688 259.293 220.541 258.963 221.385C258.752 221.927 258.564 222.508 258.673 223.079C258.782 223.65 259.29 224.184 259.868 224.121C259.413 224.191 258.661 227.641 258.537 228.08C257.919 230.273 256.567 231.502 255.033 233.194C253.65 234.72 251.982 236.372 249.924 236.281C249.011 236.241 247.874 235.936 247.349 236.683C247.171 236.935 247.122 237.254 247.097 237.563C246.731 242.073 249.637 246.076 253.273 248.446C255.182 249.692 263.469 253.086 263.292 248.477Z" fill="white" stroke="#01161E" stroke-miterlimit="10"/>
<path d="M262.023 301.653H210.068C209.138 301.653 208.384 300.9 208.384 299.97V268.661C208.384 267.732 209.138 266.979 210.068 266.979H262.023C262.954 266.979 263.708 267.732 263.708 268.661V299.97C263.708 300.899 262.954 301.653 262.023 301.653Z" fill="#598392"/>
<path d="M236.046 286.483C237.844 286.483 239.301 285.027 239.301 283.232C239.301 281.436 237.844 279.98 236.046 279.98C234.249 279.98 232.792 281.436 232.792 283.232C232.792 285.027 234.249 286.483 236.046 286.483Z" fill="#01161E"/>
<path d="M286.865 217.263C286.813 216.924 286.725 216.588 286.6 216.265C286.268 215.411 285.683 214.659 284.874 214.241C284.248 213.918 283.535 213.811 282.832 213.751C282.013 213.681 281.188 213.671 280.367 213.717C279.577 213.763 278.786 213.861 277.996 213.81C276.762 213.73 275.585 213.288 274.43 212.847C273.275 212.406 272.101 211.958 270.868 211.863C268.309 211.665 266.494 213.613 264.954 215.414C263.227 217.433 261.915 219.763 260.659 222.092C258.227 226.603 257.484 232.187 262.068 235.694C268.074 240.288 275.227 234.021 279.718 230.19C280.637 229.406 281.675 228.885 282.503 227.965C283.415 226.95 284.115 225.765 284.756 224.568C285.381 223.4 285.967 222.206 286.392 220.953C286.794 219.766 287.051 218.5 286.865 217.263ZM266.421 232.446C265.497 232.231 264.482 231.94 263.719 231.355C263.172 230.934 263.805 230.047 264.328 230.48C264.964 231.007 265.908 231.211 266.691 231.425C267.277 231.585 267.004 232.583 266.421 232.446ZM280.743 224.532C280.569 225.184 280.182 225.757 279.757 226.318C277.863 228.824 275.113 231.979 272.355 233.546C272.25 233.605 272.144 233.655 272.039 233.712C271.293 231.139 270.356 228.59 267.993 227.072C265.919 225.74 263.467 225.534 261.088 225.85C261.938 222.281 264.667 216.811 268.842 216.759C270.391 216.74 271.86 217.455 273.128 218.343C274.396 219.23 275.531 220.301 276.828 221.144C278.292 222.095 281.344 222.265 280.743 224.532Z" fill="#01161E"/>
<path d="M271.832 236.463C271.959 236.151 272.095 235.843 272.24 235.54C273.369 233.195 275.861 232.22 277.804 230.558C279.005 229.531 280.228 228.721 281.476 227.767C282.075 227.31 282.567 226.619 283.192 226.237C283.594 225.992 284.159 225.947 284.508 226.263C284.783 226.512 284.858 226.909 284.882 227.278C285.042 229.694 283.693 231.563 282.514 233.508C281.483 235.207 279.864 236.273 278.787 237.922C277.727 239.544 277.9 241.646 278.112 243.571C278.468 246.804 278.824 250.037 279.18 253.27C279.513 256.296 280.274 258.838 281.001 261.769C282.117 266.273 282.041 271.508 282.129 276.123C282.217 280.756 279.151 286.309 274.331 287.282C264.647 289.236 266.754 275.572 266.496 270.083C266.29 265.716 267.336 261.256 268.327 257.049C269.364 252.647 269.469 248.099 270.114 243.637C270.461 241.24 270.911 238.734 271.832 236.463Z" fill="white" stroke="#01161E" stroke-miterlimit="10"/>
<path d="M271.798 282.397C271.812 282.804 271.794 283.192 271.735 283.535C271.59 284.385 270.985 285.22 270.132 285.351C269.222 285.49 268.396 284.822 267.777 284.141C265.307 281.427 264.032 277.909 264.072 274.261C264.083 273.226 264.192 272.134 264.791 271.288C265.39 270.442 266.621 269.964 267.504 270.509C268.101 270.876 268.383 271.581 268.626 272.238C269.448 274.45 270.269 276.661 271.091 278.874C271.445 279.827 271.757 281.2 271.798 282.397Z" fill="white"/>
<path d="M275.228 283.239C274.764 283.54 274.253 283.755 273.694 283.693C273.282 283.647 273.224 284.286 273.598 284.395C274.431 284.639 275.213 284.448 275.74 283.752C275.969 283.447 275.528 283.044 275.228 283.239Z" fill="#01161E"/>
<path d="M191.723 270.766C191.308 270.376 191.041 269.823 191.127 269.24C191.189 268.81 191.02 268.386 190.568 268.258C190.193 268.15 189.647 268.389 189.585 268.815C189.416 269.969 189.728 271.081 190.593 271.895C191.341 272.6 192.474 271.472 191.723 270.766Z" fill="#01161E"/>
<path d="M222.224 323.49C227.278 324.722 232.381 325.748 237.519 326.564" stroke="white" stroke-miterlimit="10"/>
<path d="M256.22 318.672C256.908 317.068 257.634 315.478 258.396 313.907C251.815 310.219 245.399 306.287 238.881 302.491" stroke="white" stroke-miterlimit="10"/>
<path d="M213.799 320.116C209.009 318.969 204.304 317.469 199.734 315.631" stroke="white" stroke-miterlimit="10"/>
</g>
<defs>
<clipPath id="clip0_348_2641">
<rect width="415" height="352" fill="white"/>
</clipPath>
</defs>
</svg>
