<?xml version="1.0" encoding="utf-8"?>
<!-- Generator: Adobe Illustrator 23.0.4, SVG Export Plug-In . SVG Version: 6.00 Build 0)  -->
<svg version="1.1" id="Canaux" xmlns="http://www.w3.org/2000/svg" xmlns:xlink="http://www.w3.org/1999/xlink" x="0px" y="0px"
	width="200"
	height="200"
	 viewBox="0 0 400 200" style="enable-background:new 0 0 400 200;" xml:space="preserve">
<style type="text/css">
	.st0{fill:#F80000;}
</style>
<title>emag</title>
<g id="layer1" transform="translate(-702.6538,-712.5837)">
	<g id="g16337">
		<path id="path16197" class="st0" d="M877.1,779.8h21L886.9,762l-20.3,32.3h-9.3l24.8-38.7c1.1-1.6,2.9-2.5,4.9-2.5
			c1.9,0,3.7,0.9,4.8,2.4l24.8,38.8h-9.3l-4.4-7.2h-21.2L877.1,779.8z M973.3,787v-33.7h-7.9v36.9c0,1,0.4,2,1.1,2.7
			c0.7,0.8,1.8,1.2,2.9,1.2h35.8l4.6-7.2H973.3z M843.2,781c7.6,0,13.8-6.2,13.8-13.8c0-7.6-6.2-13.8-13.8-13.8h-34.4v40.9h7.9
			v-33.7h26c3.7,0,6.6,3,6.6,6.6c0,3.7-2.9,6.6-6.6,6.6l-22.2,0l23.5,20.4h11.4L839.6,781H843.2z M760.5,794.2
			c-11.3,0-20.4-9.1-20.4-20.4c0-11.3,9.2-20.4,20.4-20.4h23.8c11.3,0,20.4,9.2,20.4,20.4c0,11.3-9.1,20.4-20.4,20.4H760.5z
			 M783.7,787c7.3,0,13.2-5.9,13.2-13.2s-5.9-13.2-13.2-13.2H761c-7.3,0-13.2,5.9-13.2,13.2S753.7,787,761,787H783.7z M932.9,794.2
			c-11.3,0-20.4-9.1-20.4-20.4c0-11.3,9.2-20.4,20.4-20.4h28.2l-4.6,7.2h-23.1c-7.3,0-13.2,5.9-13.2,13.2s5.9,13.2,13.2,13.2h28.3
			l-4.6,7.2H932.9z M1029.1,787c-6,0-11.2-4-12.7-9.6h33.6l4.6-7.2h-38.2c1.6-5.5,6.7-9.6,12.7-9.6h23.1l4.7-7.2h-28.2
			c-11.3,0-20.4,9.2-20.4,20.4c0,11.3,9.2,20.4,20.4,20.4h24.2l4.6-7.2H1029.1"/>
		<path id="path16199" class="st0" d="M1061,757.7c0-2,1.6-3.6,3.6-3.6c2,0,3.6,1.6,3.6,3.6c0,2-1.6,3.6-3.6,3.6
			C1062.6,761.3,1061,759.7,1061,757.7z M1064.6,762.3c2.5,0,4.6-2.1,4.6-4.6c0-2.5-2.1-4.6-4.6-4.6c-2.5,0-4.6,2.1-4.6,4.6
			C1060,760.3,1062.1,762.3,1064.6,762.3z M1064.1,755c0.7,0,1,0,1.3,0.2c0.9,0.3,1,1.1,1,1.4c0,0.1,0,0.2-0.1,0.4
			c0,0.2-0.2,0.6-0.6,0.9c-0.1,0-0.1,0.1-0.2,0.1l1.2,2.1h-1.1l-1-2h-0.7v2h-1V755H1064.1z M1064.5,757.4c0.3,0,0.7,0,0.8-0.3
			c0.1-0.1,0.1-0.3,0.1-0.5c0-0.3-0.2-0.5-0.4-0.6c-0.2-0.1-0.5-0.1-0.9-0.1h-0.3v1.5H1064.5"/>
	</g>
</g>
<rect x="39.1" y="101.5" width="314.2" height="3.3"/>
<g>
	<path d="M150.5,163v-33.7h25v5.7h-18.2v7.5h16.9v5.7h-16.9v9.2h18.8v5.7H150.5z"/>
	<path d="M181.9,163v-33.7h14.3c3.6,0,6.2,0.3,7.9,0.9c1.6,0.6,2.9,1.7,3.9,3.2s1.5,3.3,1.5,5.3c0,2.5-0.7,4.6-2.2,6.3
		c-1.5,1.6-3.7,2.7-6.7,3.1c1.5,0.9,2.7,1.8,3.6,2.8c1,1,2.2,2.9,3.9,5.5l4.1,6.6h-8.1l-4.9-7.3c-1.7-2.6-2.9-4.3-3.6-5
		s-1.3-1.1-2-1.4s-1.9-0.4-3.4-0.4h-1.4V163H181.9z M188.7,143.6h5c3.3,0,5.3-0.1,6.1-0.4c0.8-0.3,1.4-0.8,1.9-1.4s0.7-1.5,0.7-2.5
		c0-1.1-0.3-2-0.9-2.7c-0.6-0.7-1.5-1.1-2.6-1.3c-0.6-0.1-2.2-0.1-5-0.1h-5.3V143.6z"/>
	<path d="M215.9,163v-33.7h10.9c4.1,0,6.8,0.2,8.1,0.5c1.9,0.5,3.5,1.6,4.9,3.3c1.3,1.7,2,3.9,2,6.6c0,2.1-0.4,3.8-1.1,5.2
		c-0.8,1.4-1.7,2.5-2.9,3.3c-1.2,0.8-2.3,1.3-3.5,1.6c-1.6,0.3-4,0.5-7.1,0.5h-4.4V163H215.9z M222.7,135v9.6h3.7
		c2.7,0,4.5-0.2,5.4-0.5c0.9-0.4,1.6-0.9,2.1-1.7c0.5-0.8,0.8-1.6,0.8-2.6c0-1.2-0.4-2.2-1.1-3c-0.7-0.8-1.6-1.3-2.7-1.5
		c-0.8-0.2-2.4-0.2-4.9-0.2H222.7z"/>
</g>
</svg>
