<svg width="28" height="29" viewBox="0 0 28 29" fill="none" xmlns="http://www.w3.org/2000/svg">
<g filter="url(#filter0_d_412_2393)">
<mask id="mask0_412_2393" style="mask-type:alpha" maskUnits="userSpaceOnUse" x="2" y="0" width="24" height="24">
<rect x="2" width="24" height="24" fill="#124559"/>
</mask>
<g mask="url(#mask0_412_2393)">
<path d="M8 17C7.71667 17 7.47917 16.9042 7.2875 16.7125C7.09583 16.5208 7 16.2833 7 16V10.975C7 10.6917 7.09583 10.4583 7.2875 10.275C7.47917 10.0917 7.71667 10 8 10C8.28333 10 8.52083 10.0958 8.7125 10.2875C8.90417 10.4792 9 10.7167 9 11V16.025C9 16.3083 8.90417 16.5417 8.7125 16.725C8.52083 16.9083 8.28333 17 8 17ZM14 17C13.7167 17 13.4792 16.9042 13.2875 16.7125C13.0958 16.5208 13 16.2833 13 16V10.975C13 10.6917 13.0958 10.4583 13.2875 10.275C13.4792 10.0917 13.7167 10 14 10C14.2833 10 14.5208 10.0958 14.7125 10.2875C14.9042 10.4792 15 10.7167 15 11V16.025C15 16.3083 14.9042 16.5417 14.7125 16.725C14.5208 16.9083 14.2833 17 14 17ZM4.975 21C4.69167 21 4.45833 20.9042 4.275 20.7125C4.09167 20.5208 4 20.2833 4 20C4 19.7167 4.09583 19.4792 4.2875 19.2875C4.47917 19.0958 4.71667 19 5 19H23.025C23.3083 19 23.5417 19.0958 23.725 19.2875C23.9083 19.4792 24 19.7167 24 20C24 20.2833 23.9042 20.5208 23.7125 20.7125C23.5208 20.9042 23.2833 21 23 21H4.975ZM20 17C19.7167 17 19.4792 16.9042 19.2875 16.7125C19.0958 16.5208 19 16.2833 19 16V10.975C19 10.6917 19.0958 10.4583 19.2875 10.275C19.4792 10.0917 19.7167 10 20 10C20.2833 10 20.5208 10.0958 20.7125 10.2875C20.9042 10.4792 21 10.7167 21 11V16.025C21 16.3083 20.9042 16.5417 20.7125 16.725C20.5208 16.9083 20.2833 17 20 17ZM14.9 1.45L23.325 5.65C23.5417 5.76667 23.7083 5.92917 23.825 6.1375C23.9417 6.34583 24 6.575 24 6.825C24 7.15833 23.8792 7.4375 23.6375 7.6625C23.3958 7.8875 23.1083 8 22.775 8H5.25C4.91667 8 4.625 7.8875 4.375 7.6625C4.125 7.4375 4 7.15833 4 6.825C4 6.59167 4.05417 6.36667 4.1625 6.15C4.27083 5.93333 4.44167 5.775 4.675 5.675L13.1 1.45C13.3833 1.31667 13.6833 1.25 14 1.25C14.3167 1.25 14.6167 1.31667 14.9 1.45Z" fill="#124559"/>
</g>
</g>
<defs>
<filter id="filter0_d_412_2393" x="0" y="1.25" width="28" height="27.75" filterUnits="userSpaceOnUse" color-interpolation-filters="sRGB">
<feFlood flood-opacity="0" result="BackgroundImageFix"/>
<feColorMatrix in="SourceAlpha" type="matrix" values="0 0 0 0 0 0 0 0 0 0 0 0 0 0 0 0 0 0 127 0" result="hardAlpha"/>
<feOffset dy="4"/>
<feGaussianBlur stdDeviation="2"/>
<feComposite in2="hardAlpha" operator="out"/>
<feColorMatrix type="matrix" values="0 0 0 0 0 0 0 0 0 0 0 0 0 0 0 0 0 0 0.25 0"/>
<feBlend mode="normal" in2="BackgroundImageFix" result="effect1_dropShadow_412_2393"/>
<feBlend mode="normal" in="SourceGraphic" in2="effect1_dropShadow_412_2393" result="shape"/>
</filter>
</defs>
</svg>
