<svg width="48" height="48" viewBox="0 0 48 48" fill="none" xmlns="http://www.w3.org/2000/svg">
<mask id="mask0_1039_2491" style="mask-type:alpha" maskUnits="userSpaceOnUse" x="0" y="0" width="48" height="48">
<rect width="48" height="48" fill="#70A9BF"/>
</mask>
<g mask="url(#mask0_1039_2491)">
<path d="M12 34C11.4333 34 10.9583 33.8083 10.575 33.425C10.1917 33.0417 10 32.5667 10 32V21.95C10 21.3833 10.1917 20.9167 10.575 20.55C10.9583 20.1833 11.4333 20 12 20C12.5667 20 13.0417 20.1917 13.425 20.575C13.8083 20.9583 14 21.4333 14 22V32.05C14 32.6167 13.8083 33.0833 13.425 33.45C13.0417 33.8167 12.5667 34 12 34ZM24 34C23.4333 34 22.9583 33.8083 22.575 33.425C22.1917 33.0417 22 32.5667 22 32V21.95C22 21.3833 22.1917 20.9167 22.575 20.55C22.9583 20.1833 23.4333 20 24 20C24.5667 20 25.0417 20.1917 25.425 20.575C25.8083 20.9583 26 21.4333 26 22V32.05C26 32.6167 25.8083 33.0833 25.425 33.45C25.0417 33.8167 24.5667 34 24 34ZM5.95 42C5.38333 42 4.91667 41.8083 4.55 41.425C4.18333 41.0417 4 40.5667 4 40C4 39.4333 4.19167 38.9583 4.575 38.575C4.95833 38.1917 5.43333 38 6 38H42.05C42.6167 38 43.0833 38.1917 43.45 38.575C43.8167 38.9583 44 39.4333 44 40C44 40.5667 43.8083 41.0417 43.425 41.425C43.0417 41.8083 42.5667 42 42 42H5.95ZM36 34C35.4333 34 34.9583 33.8083 34.575 33.425C34.1917 33.0417 34 32.5667 34 32V21.95C34 21.3833 34.1917 20.9167 34.575 20.55C34.9583 20.1833 35.4333 20 36 20C36.5667 20 37.0417 20.1917 37.425 20.575C37.8083 20.9583 38 21.4333 38 22V32.05C38 32.6167 37.8083 33.0833 37.425 33.45C37.0417 33.8167 36.5667 34 36 34ZM25.8 2.9L42.65 11.3C43.0833 11.5333 43.4167 11.8583 43.65 12.275C43.8833 12.6917 44 13.15 44 13.65C44 14.3167 43.7583 14.875 43.275 15.325C42.7917 15.775 42.2167 16 41.55 16H6.5C5.83333 16 5.25 15.775 4.75 15.325C4.25 14.875 4 14.3167 4 13.65C4 13.1833 4.10833 12.7333 4.325 12.3C4.54167 11.8667 4.88333 11.55 5.35 11.35L22.2 2.9C22.7667 2.63333 23.3667 2.5 24 2.5C24.6333 2.5 25.2333 2.63333 25.8 2.9Z" fill="#70A9BF"/>
</g>
</svg>
