<svg width="26" height="29" viewBox="0 0 26 29" fill="none" xmlns="http://www.w3.org/2000/svg">
<g filter="url(#filter0_d_410_2377)">
<mask id="mask0_410_2377" style="mask-type:alpha" maskUnits="userSpaceOnUse" x="1" y="0" width="24" height="24">
<rect x="1" width="24" height="24" fill="#124559"/>
</mask>
<g mask="url(#mask0_410_2377)">
<path d="M6 21C5.45 21 4.97917 20.8042 4.5875 20.4125C4.19583 20.0208 4 19.55 4 19V9C4 8.45 4.19583 7.97917 4.5875 7.5875C4.97917 7.19583 5.45 7 6 7H8V5C8 4.45 8.19583 3.97917 8.5875 3.5875C8.97917 3.19583 9.45 3 10 3H16C16.55 3 17.0208 3.19583 17.4125 3.5875C17.8042 3.97917 18 4.45 18 5V11H20C20.55 11 21.0208 11.1958 21.4125 11.5875C21.8042 11.9792 22 12.45 22 13V19C22 19.55 21.8042 20.0208 21.4125 20.4125C21.0208 20.8042 20.55 21 20 21H14V17H12V21H6ZM6 19H8V17H6V19ZM6 15H8V13H6V15ZM6 11H8V9H6V11ZM10 15H12V13H10V15ZM10 11H12V9H10V11ZM10 7H12V5H10V7ZM14 15H16V13H14V15ZM14 11H16V9H14V11ZM14 7H16V5H14V7ZM18 19H20V17H18V19ZM18 15H20V13H18V15Z" fill="#124559"/>
</g>
</g>
<defs>
<filter id="filter0_d_410_2377" x="0" y="3" width="26" height="26" filterUnits="userSpaceOnUse" color-interpolation-filters="sRGB">
<feFlood flood-opacity="0" result="BackgroundImageFix"/>
<feColorMatrix in="SourceAlpha" type="matrix" values="0 0 0 0 0 0 0 0 0 0 0 0 0 0 0 0 0 0 127 0" result="hardAlpha"/>
<feOffset dy="4"/>
<feGaussianBlur stdDeviation="2"/>
<feComposite in2="hardAlpha" operator="out"/>
<feColorMatrix type="matrix" values="0 0 0 0 0 0 0 0 0 0 0 0 0 0 0 0 0 0 0.25 0"/>
<feBlend mode="normal" in2="BackgroundImageFix" result="effect1_dropShadow_410_2377"/>
<feBlend mode="normal" in="SourceGraphic" in2="effect1_dropShadow_410_2377" result="shape"/>
</filter>
</defs>
</svg>
