<svg width="48" height="48" viewBox="0 0 48 48" fill="none" xmlns="http://www.w3.org/2000/svg">
<mask id="mask0_1038_2472" style="mask-type:alpha" maskUnits="userSpaceOnUse" x="0" y="0" width="48" height="48">
<rect width="48" height="48" fill="#70A9BF"/>
</mask>
<g mask="url(#mask0_1038_2472)">
<path d="M25.85 22.0999L17.35 13.5999L20.2 10.7999L25.85 16.4499L37.2 5.1499L40 7.9499L25.85 22.0999ZM28 44.9999L14 41.0999V21.9999H17.9L30.3 26.5999C31.4 26.9999 32.2917 27.6999 32.975 28.6999C33.6583 29.6999 34 30.7999 34 31.9999H30C28.6 31.9999 27.5 31.9499 26.7 31.8499C25.9 31.7499 25.2 31.5999 24.6 31.3999L20.6 30.0999L20 31.9999L23.15 33.1499C24.0833 33.5166 24.9333 33.7499 25.7 33.8499C26.4667 33.9499 27.3667 33.9999 28.4 33.9999H38C40.2 33.9999 41.75 34.3582 42.65 35.0749C43.55 35.7916 44 36.7666 44 37.9999V39.9999L28 44.9999ZM2 43.9999V21.9999H10V43.9999H2Z" fill="#70A9BF"/>
</g>
</svg>
