<svg width="29" height="31" viewBox="0 0 29 31" fill="none" xmlns="http://www.w3.org/2000/svg">
<g filter="url(#filter0_d_405_2524)">
<mask id="mask0_405_2524" style="mask-type:alpha" maskUnits="userSpaceOnUse" x="3" y="0" width="24" height="24">
<rect x="3" width="24" height="24" fill="#124559"/>
</mask>
<g mask="url(#mask0_405_2524)">
<path d="M15.925 11.05L11.675 6.79995L13.1 5.39995L15.925 8.22495L21.6 2.57495L23 3.97495L15.925 11.05ZM17 22.5L10 20.55V11H11.95L18.15 13.3C18.7 13.5 19.1458 13.85 19.4875 14.35C19.8292 14.85 20 15.4 20 16H18C17.3 16 16.75 15.975 16.35 15.925C15.95 15.875 15.6 15.8 15.3 15.7L13.3 15.05L13 16L14.575 16.575C15.0417 16.7583 15.4667 16.875 15.85 16.925C16.2333 16.975 16.6833 17 17.2 17H22C23.1 17 23.875 17.1791 24.325 17.5375C24.775 17.8958 25 18.3833 25 19V20L17 22.5ZM4 22V11H8V22H4Z" fill="#124559"/>
</g>
</g>
<defs>
<filter id="filter0_d_405_2524" x="0" y="2.57495" width="29" height="27.925" filterUnits="userSpaceOnUse" color-interpolation-filters="sRGB">
<feFlood flood-opacity="0" result="BackgroundImageFix"/>
<feColorMatrix in="SourceAlpha" type="matrix" values="0 0 0 0 0 0 0 0 0 0 0 0 0 0 0 0 0 0 127 0" result="hardAlpha"/>
<feOffset dy="4"/>
<feGaussianBlur stdDeviation="2"/>
<feComposite in2="hardAlpha" operator="out"/>
<feColorMatrix type="matrix" values="0 0 0 0 0 0 0 0 0 0 0 0 0 0 0 0 0 0 0.25 0"/>
<feBlend mode="normal" in2="BackgroundImageFix" result="effect1_dropShadow_405_2524"/>
<feBlend mode="normal" in="SourceGraphic" in2="effect1_dropShadow_405_2524" result="shape"/>
</filter>
</defs>
</svg>
