<svg width="48" height="48" viewBox="0 0 48 48" fill="none" xmlns="http://www.w3.org/2000/svg">
<mask id="mask0_1039_2482" style="mask-type:alpha" maskUnits="userSpaceOnUse" x="0" y="0" width="48" height="48">
<rect width="48" height="48" fill="#70A9BF"/>
</mask>
<g mask="url(#mask0_1039_2482)">
<path d="M24.0504 42C23.4838 42 23.0088 41.8083 22.6254 41.425C22.2421 41.0417 22.0504 40.5667 22.0504 40V37.7C20.5504 37.3667 19.2338 36.7833 18.1004 35.95C16.9671 35.1167 16.0504 33.95 15.3504 32.45C15.1171 31.9833 15.1088 31.4917 15.3254 30.975C15.5421 30.4583 15.9338 30.0833 16.5004 29.85C16.9671 29.65 17.4504 29.6583 17.9504 29.875C18.4504 30.0917 18.8338 30.45 19.1004 30.95C19.6671 31.95 20.3838 32.7083 21.2504 33.225C22.1171 33.7417 23.1838 34 24.4504 34C25.8171 34 26.9754 33.6917 27.9254 33.075C28.8754 32.4583 29.3504 31.5 29.3504 30.2C29.3504 29.0333 28.9838 28.1083 28.2504 27.425C27.5171 26.7417 25.8171 25.9667 23.1504 25.1C20.2838 24.2 18.3171 23.125 17.2504 21.875C16.1838 20.625 15.6504 19.1 15.6504 17.3C15.6504 15.1333 16.3504 13.45 17.7504 12.25C19.1504 11.05 20.5838 10.3667 22.0504 10.2V8C22.0504 7.43333 22.2421 6.95833 22.6254 6.575C23.0088 6.19167 23.4838 6 24.0504 6C24.6171 6 25.0921 6.19167 25.4754 6.575C25.8588 6.95833 26.0504 7.43333 26.0504 8V10.2C27.3171 10.4 28.4171 10.8083 29.3504 11.425C30.2838 12.0417 31.0504 12.8 31.6504 13.7C31.9504 14.1333 32.0088 14.6167 31.8254 15.15C31.6421 15.6833 31.2671 16.0667 30.7004 16.3C30.2338 16.5 29.7504 16.5083 29.2504 16.325C28.7504 16.1417 28.2838 15.8167 27.8504 15.35C27.4171 14.8833 26.9088 14.525 26.3254 14.275C25.7421 14.025 25.0171 13.9 24.1504 13.9C22.6838 13.9 21.5671 14.225 20.8004 14.875C20.0338 15.525 19.6504 16.3333 19.6504 17.3C19.6504 18.4 20.1504 19.2667 21.1504 19.9C22.1504 20.5333 23.8838 21.2 26.3504 21.9C28.6504 22.5667 30.3921 23.625 31.5754 25.075C32.7588 26.525 33.3504 28.2 33.3504 30.1C33.3504 32.4667 32.6504 34.2667 31.2504 35.5C29.8504 36.7333 28.1171 37.5 26.0504 37.8V40C26.0504 40.5667 25.8588 41.0417 25.4754 41.425C25.0921 41.8083 24.6171 42 24.0504 42Z" fill="#70A9BF"/>
</g>
</svg>
