<svg width="24" height="25" viewBox="0 0 24 25" fill="none" xmlns="http://www.w3.org/2000/svg">
<mask id="mask0_1290_4083" style="mask-type:alpha" maskUnits="userSpaceOnUse" x="0" y="0" width="24" height="25">
<rect y="0.5" width="24" height="24" fill="#D9D9D9"/>
</mask>
<g mask="url(#mask0_1290_4083)">
<path d="M22 19.6504L20 17.6504V9.50039H11.85L10 7.65039V5.50039H7.85L5.85 3.50039H10C10.55 3.50039 11.0208 3.69622 11.4125 4.08789C11.8042 4.47956 12 4.95039 12 5.50039V7.50039H20C20.55 7.50039 21.0208 7.69622 21.4125 8.08789C21.8042 8.47956 22 8.95039 22 9.50039V19.6504ZM4 21.5004C3.45 21.5004 2.97917 21.3046 2.5875 20.9129C2.19583 20.5212 2 20.0504 2 19.5004V5.30039L1.4 4.70039C1.21667 4.51706 1.125 4.28372 1.125 4.00039C1.125 3.71706 1.21667 3.48372 1.4 3.30039C1.58333 3.11706 1.81667 3.02539 2.1 3.02539C2.38333 3.02539 2.61667 3.11706 2.8 3.30039L21.2 21.7004C21.3833 21.8837 21.475 22.1171 21.475 22.4004C21.475 22.6837 21.3833 22.9171 21.2 23.1004C21.0167 23.2837 20.7875 23.3796 20.5125 23.3879C20.2375 23.3962 20 23.3087 19.8 23.1254L18.15 21.5004H4ZM4 19.5004H6V17.5004H4V19.5004ZM4 15.5004H6V13.5004H4V15.5004ZM4 11.5004H6V9.50039H4V11.5004ZM8 19.5004H10V17.5004H8V19.5004ZM8 15.5004H10V13.5004H8V15.5004ZM12 19.5004H16.15L14.15 17.5004H12V19.5004ZM18 13.5004H16V11.5004H18V13.5004Z" fill="#124559"/>
</g>
</svg>
