<svg width="24" height="29" viewBox="0 0 24 29" fill="none" xmlns="http://www.w3.org/2000/svg">
<g filter="url(#filter0_d_410_2383)">
<mask id="mask0_410_2383" style="mask-type:alpha" maskUnits="userSpaceOnUse" x="0" y="0" width="24" height="24">
<rect width="24" height="24" fill="#124559"/>
</mask>
<g mask="url(#mask0_410_2383)">
<path d="M11.94 3C10.889 3.01395 9.88587 3.44175 9.14826 4.19059C8.41066 4.93942 7.99806 5.9489 8 7C7.94 8.64 7.81 10.47 7.03 11.59C9.71 13.22 12 13 12 13C12 13 14.29 13.22 16.97 11.59C16.12 10.22 15.94 8.54 16 7C16 4.79 14.21 3 12 3H11.94ZM8.86 13.32C6 13.93 4 15.35 4 17V21H12L9 17H6.5M12 21L13.78 13.81C13.78 13.81 13 14 12 14C11 14 10.22 13.81 10.22 13.81M12 21H20V17C20 15.35 18 13.93 15.14 13.32L17.5 17H15L12 21Z" fill="#124559"/>
</g>
</g>
<defs>
<filter id="filter0_d_410_2383" x="0" y="3" width="24" height="26" filterUnits="userSpaceOnUse" color-interpolation-filters="sRGB">
<feFlood flood-opacity="0" result="BackgroundImageFix"/>
<feColorMatrix in="SourceAlpha" type="matrix" values="0 0 0 0 0 0 0 0 0 0 0 0 0 0 0 0 0 0 127 0" result="hardAlpha"/>
<feOffset dy="4"/>
<feGaussianBlur stdDeviation="2"/>
<feComposite in2="hardAlpha" operator="out"/>
<feColorMatrix type="matrix" values="0 0 0 0 0 0 0 0 0 0 0 0 0 0 0 0 0 0 0.25 0"/>
<feBlend mode="normal" in2="BackgroundImageFix" result="effect1_dropShadow_410_2383"/>
<feBlend mode="normal" in="SourceGraphic" in2="effect1_dropShadow_410_2383" result="shape"/>
</filter>
</defs>
</svg>
