<svg width="28" height="29" viewBox="0 0 28 29" fill="none" xmlns="http://www.w3.org/2000/svg">
<g filter="url(#filter0_d_405_2500)">
<mask id="mask0_405_2500" style="mask-type:alpha" maskUnits="userSpaceOnUse" x="2" y="0" width="24" height="24">
<rect x="2" width="24" height="24" fill="#70A9BF"/>
</mask>
<g mask="url(#mask0_405_2500)">
<path d="M19.8498 19.9501L15.4248 15.5251L17.5248 13.4251L21.9498 17.8501C22.2331 18.1334 22.3748 18.4834 22.3748 18.9001C22.3748 19.3168 22.2331 19.6668 21.9498 19.9501C21.6665 20.2334 21.3165 20.3751 20.8998 20.3751C20.4831 20.3751 20.1331 20.2334 19.8498 19.9501ZM6.0498 19.9501C5.76647 19.6668 5.6248 19.3168 5.6248 18.9001C5.6248 18.4834 5.76647 18.1334 6.0498 17.8501L11.8998 12.0001L10.1998 10.3001C9.98314 10.5168 9.74147 10.6168 9.4748 10.6001C9.20814 10.5834 8.98314 10.4834 8.7998 10.3001L8.2248 9.7251V11.7751L8.0498 11.9501C7.8998 12.1001 7.7248 12.1751 7.5248 12.1751C7.3248 12.1751 7.1498 12.1001 6.9998 11.9501L5.0248 9.9751C4.8748 9.8251 4.7998 9.6501 4.7998 9.4501C4.7998 9.2501 4.8748 9.0751 5.0248 8.9251L5.1998 8.7501H7.2498L6.6998 8.2001C6.4998 8.0001 6.3998 7.76676 6.3998 7.5001C6.3998 7.23343 6.4998 7.0001 6.6998 6.8001L9.5498 3.9501C9.88314 3.61676 10.2415 3.3751 10.6248 3.2251C11.0081 3.0751 11.3998 3.0001 11.7998 3.0001C12.1998 3.0001 12.5915 3.0751 12.9748 3.2251C13.3581 3.3751 13.7165 3.61676 14.0498 3.9501L11.7498 6.2501L12.2998 6.8001C12.4831 6.98343 12.5831 7.20843 12.5998 7.4751C12.6165 7.74176 12.5165 7.98343 12.2998 8.2001L13.9998 9.9001L16.2498 7.6501C16.1831 7.46676 16.129 7.2751 16.0873 7.0751C16.0456 6.8751 16.0248 6.6751 16.0248 6.4751C16.0248 5.49176 16.3623 4.6626 17.0373 3.9876C17.7123 3.3126 18.5415 2.9751 19.5248 2.9751C19.7748 2.9751 20.0123 3.0001 20.2373 3.0501C20.4623 3.1001 20.6915 3.1751 20.9248 3.2751L18.4498 5.7501L20.2498 7.5501L22.7248 5.0751C22.8415 5.30843 22.9206 5.5376 22.9623 5.7626C23.004 5.9876 23.0248 6.2251 23.0248 6.4751C23.0248 7.45843 22.6873 8.2876 22.0123 8.9626C21.3373 9.6376 20.5081 9.9751 19.5248 9.9751C19.3248 9.9751 19.1248 9.95843 18.9248 9.9251C18.7248 9.89176 18.5331 9.83343 18.3498 9.7501L8.1498 19.9501C7.86647 20.2334 7.51647 20.3751 7.0998 20.3751C6.68314 20.3751 6.33314 20.2334 6.0498 19.9501Z" fill="#70A9BF"/>
</g>
</g>
<defs>
<filter id="filter0_d_405_2500" x="0.799805" y="2.9751" width="26.2251" height="25.3999" filterUnits="userSpaceOnUse" color-interpolation-filters="sRGB">
<feFlood flood-opacity="0" result="BackgroundImageFix"/>
<feColorMatrix in="SourceAlpha" type="matrix" values="0 0 0 0 0 0 0 0 0 0 0 0 0 0 0 0 0 0 127 0" result="hardAlpha"/>
<feOffset dy="4"/>
<feGaussianBlur stdDeviation="2"/>
<feComposite in2="hardAlpha" operator="out"/>
<feColorMatrix type="matrix" values="0 0 0 0 0 0 0 0 0 0 0 0 0 0 0 0 0 0 0.25 0"/>
<feBlend mode="normal" in2="BackgroundImageFix" result="effect1_dropShadow_405_2500"/>
<feBlend mode="normal" in="SourceGraphic" in2="effect1_dropShadow_405_2500" result="shape"/>
</filter>
</defs>
</svg>
