<svg width="28" height="29" viewBox="0 0 28 29" fill="none" xmlns="http://www.w3.org/2000/svg">
<g filter="url(#filter0_d_412_2390)">
<mask id="mask0_412_2390" style="mask-type:alpha" maskUnits="userSpaceOnUse" x="2" y="0" width="24" height="24">
<rect x="2" width="24" height="24" fill="#124559"/>
</mask>
<g mask="url(#mask0_412_2390)">
<path d="M8 9H11C11.2833 9 11.5208 8.90417 11.7125 8.7125C11.9042 8.52083 12 8.28333 12 8C12 7.71667 11.9042 7.47917 11.7125 7.2875C11.5208 7.09583 11.2833 7 11 7H8C7.71667 7 7.47917 7.09583 7.2875 7.2875C7.09583 7.47917 7 7.71667 7 8C7 8.28333 7.09583 8.52083 7.2875 8.7125C7.47917 8.90417 7.71667 9 8 9ZM8 13H11C11.2833 13 11.5208 12.9042 11.7125 12.7125C11.9042 12.5208 12 12.2833 12 12C12 11.7167 11.9042 11.4792 11.7125 11.2875C11.5208 11.0958 11.2833 11 11 11H8C7.71667 11 7.47917 11.0958 7.2875 11.2875C7.09583 11.4792 7 11.7167 7 12C7 12.2833 7.09583 12.5208 7.2875 12.7125C7.47917 12.9042 7.71667 13 8 13ZM8 17H11C11.2833 17 11.5208 16.9042 11.7125 16.7125C11.9042 16.5208 12 16.2833 12 16C12 15.7167 11.9042 15.4792 11.7125 15.2875C11.5208 15.0958 11.2833 15 11 15H8C7.71667 15 7.47917 15.0958 7.2875 15.2875C7.09583 15.4792 7 15.7167 7 16C7 16.2833 7.09583 16.5208 7.2875 16.7125C7.47917 16.9042 7.71667 17 8 17ZM16.55 14.575C16.6833 14.575 16.8083 14.5542 16.925 14.5125C17.0417 14.4708 17.15 14.4 17.25 14.3L20.8 10.75C21.0167 10.5333 21.1208 10.2958 21.1125 10.0375C21.1042 9.77917 21 9.55 20.8 9.35C20.6 9.15 20.3625 9.05 20.0875 9.05C19.8125 9.05 19.575 9.15 19.375 9.35L16.55 12.175L15.825 11.45C15.625 11.25 15.3917 11.1542 15.125 11.1625C14.8583 11.1708 14.625 11.275 14.425 11.475C14.2417 11.675 14.1458 11.9083 14.1375 12.175C14.1292 12.4417 14.225 12.675 14.425 12.875L15.85 14.3C15.95 14.4 16.0583 14.4708 16.175 14.5125C16.2917 14.5542 16.4167 14.575 16.55 14.575ZM6 21C5.45 21 4.97917 20.8042 4.5875 20.4125C4.19583 20.0208 4 19.55 4 19V5C4 4.45 4.19583 3.97917 4.5875 3.5875C4.97917 3.19583 5.45 3 6 3H22C22.55 3 23.0208 3.19583 23.4125 3.5875C23.8042 3.97917 24 4.45 24 5V19C24 19.55 23.8042 20.0208 23.4125 20.4125C23.0208 20.8042 22.55 21 22 21H6Z" fill="#124559"/>
</g>
</g>
<defs>
<filter id="filter0_d_412_2390" x="0" y="3" width="28" height="26" filterUnits="userSpaceOnUse" color-interpolation-filters="sRGB">
<feFlood flood-opacity="0" result="BackgroundImageFix"/>
<feColorMatrix in="SourceAlpha" type="matrix" values="0 0 0 0 0 0 0 0 0 0 0 0 0 0 0 0 0 0 127 0" result="hardAlpha"/>
<feOffset dy="4"/>
<feGaussianBlur stdDeviation="2"/>
<feComposite in2="hardAlpha" operator="out"/>
<feColorMatrix type="matrix" values="0 0 0 0 0 0 0 0 0 0 0 0 0 0 0 0 0 0 0.25 0"/>
<feBlend mode="normal" in2="BackgroundImageFix" result="effect1_dropShadow_412_2390"/>
<feBlend mode="normal" in="SourceGraphic" in2="effect1_dropShadow_412_2390" result="shape"/>
</filter>
</defs>
</svg>
