<svg width="48" height="48" viewBox="0 0 48 48" fill="none" xmlns="http://www.w3.org/2000/svg">
<mask id="mask0_1039_2488" style="mask-type:alpha" maskUnits="userSpaceOnUse" x="0" y="0" width="48" height="48">
<rect width="48" height="48" fill="#70A9BF"/>
</mask>
<g mask="url(#mask0_1039_2488)">
<path d="M12 18H18C18.5667 18 19.0417 17.8083 19.425 17.425C19.8083 17.0417 20 16.5667 20 16C20 15.4333 19.8083 14.9583 19.425 14.575C19.0417 14.1917 18.5667 14 18 14H12C11.4333 14 10.9583 14.1917 10.575 14.575C10.1917 14.9583 10 15.4333 10 16C10 16.5667 10.1917 17.0417 10.575 17.425C10.9583 17.8083 11.4333 18 12 18ZM12 26H18C18.5667 26 19.0417 25.8083 19.425 25.425C19.8083 25.0417 20 24.5667 20 24C20 23.4333 19.8083 22.9583 19.425 22.575C19.0417 22.1917 18.5667 22 18 22H12C11.4333 22 10.9583 22.1917 10.575 22.575C10.1917 22.9583 10 23.4333 10 24C10 24.5667 10.1917 25.0417 10.575 25.425C10.9583 25.8083 11.4333 26 12 26ZM12 34H18C18.5667 34 19.0417 33.8083 19.425 33.425C19.8083 33.0417 20 32.5667 20 32C20 31.4333 19.8083 30.9583 19.425 30.575C19.0417 30.1917 18.5667 30 18 30H12C11.4333 30 10.9583 30.1917 10.575 30.575C10.1917 30.9583 10 31.4333 10 32C10 32.5667 10.1917 33.0417 10.575 33.425C10.9583 33.8083 11.4333 34 12 34ZM29.1 29.15C29.3667 29.15 29.6167 29.1083 29.85 29.025C30.0833 28.9417 30.3 28.8 30.5 28.6L37.6 21.5C38.0333 21.0667 38.2417 20.5917 38.225 20.075C38.2083 19.5583 38 19.1 37.6 18.7C37.2 18.3 36.725 18.1 36.175 18.1C35.625 18.1 35.15 18.3 34.75 18.7L29.1 24.35L27.65 22.9C27.25 22.5 26.7833 22.3083 26.25 22.325C25.7167 22.3417 25.25 22.55 24.85 22.95C24.4833 23.35 24.2917 23.8167 24.275 24.35C24.2583 24.8833 24.45 25.35 24.85 25.75L27.7 28.6C27.9 28.8 28.1167 28.9417 28.35 29.025C28.5833 29.1083 28.8333 29.15 29.1 29.15ZM8 42C6.9 42 5.95833 41.6083 5.175 40.825C4.39167 40.0417 4 39.1 4 38V10C4 8.9 4.39167 7.95833 5.175 7.175C5.95833 6.39167 6.9 6 8 6H40C41.1 6 42.0417 6.39167 42.825 7.175C43.6083 7.95833 44 8.9 44 10V38C44 39.1 43.6083 40.0417 42.825 40.825C42.0417 41.6083 41.1 42 40 42H8Z" fill="#70A9BF"/>
</g>
</svg>
