<svg width="24" height="30" viewBox="0 0 24 30" fill="none" xmlns="http://www.w3.org/2000/svg">
<g filter="url(#filter0_d_405_2494)">
<mask id="mask0_405_2494" style="mask-type:alpha" maskUnits="userSpaceOnUse" x="0" y="0" width="24" height="24">
<rect width="24" height="24" fill="#70A9BF"/>
</mask>
<g mask="url(#mask0_405_2494)">
<path d="M9 22C8.45 22 7.97917 21.8042 7.5875 21.4125C7.19583 21.0208 7 20.55 7 20V19H17V20C17 20.55 16.8042 21.0208 16.4125 21.4125C16.0208 21.8042 15.55 22 15 22H9ZM7 18V13H17V18H7ZM7.1 12C7.26667 11.2333 7.61667 10.5125 8.15 9.8375C8.68333 9.1625 9.35833 8.66667 10.175 8.35C10.0083 8.21667 9.85833 8.07083 9.725 7.9125C9.59167 7.75417 9.475 7.58333 9.375 7.4L5 6.5V5.5L9.375 4.6C9.625 4.11667 9.97917 3.72917 10.4375 3.4375C10.8958 3.14583 11.4167 3 12 3C12.35 3 12.6833 3.05833 13 3.175C13.3167 3.29167 13.6 3.45 13.85 3.65L17 3V9L13.825 8.35C14.6083 8.66667 15.2708 9.14583 15.8125 9.7875C16.3542 10.4292 16.7167 11.1667 16.9 12H7.1ZM12 7C12.2833 7 12.5208 6.90417 12.7125 6.7125C12.9042 6.52083 13 6.28333 13 6C12.9833 5.7 12.8833 5.45833 12.7 5.275C12.5167 5.09167 12.2833 5 12 5C11.7167 5 11.4792 5.09583 11.2875 5.2875C11.0958 5.47917 11 5.71667 11 6C11 6.28333 11.0958 6.52083 11.2875 6.7125C11.4792 6.90417 11.7167 7 12 7Z" fill="#70A9BF"/>
</g>
</g>
<defs>
<filter id="filter0_d_405_2494" x="1" y="3" width="20" height="27" filterUnits="userSpaceOnUse" color-interpolation-filters="sRGB">
<feFlood flood-opacity="0" result="BackgroundImageFix"/>
<feColorMatrix in="SourceAlpha" type="matrix" values="0 0 0 0 0 0 0 0 0 0 0 0 0 0 0 0 0 0 127 0" result="hardAlpha"/>
<feOffset dy="4"/>
<feGaussianBlur stdDeviation="2"/>
<feComposite in2="hardAlpha" operator="out"/>
<feColorMatrix type="matrix" values="0 0 0 0 0 0 0 0 0 0 0 0 0 0 0 0 0 0 0.25 0"/>
<feBlend mode="normal" in2="BackgroundImageFix" result="effect1_dropShadow_405_2494"/>
<feBlend mode="normal" in="SourceGraphic" in2="effect1_dropShadow_405_2494" result="shape"/>
</filter>
</defs>
</svg>
