<?xml version="1.0" standalone="no"?>
<!DOCTYPE svg PUBLIC "-//W3C//DTD SVG 20010904//EN"
 "http://www.w3.org/TR/2001/REC-SVG-20010904/DTD/svg10.dtd">
<svg version="1.0" xmlns="http://www.w3.org/2000/svg"
 width="500.000000pt" height="500.000000pt" viewBox="0 0 500.000000 500.000000"
 preserveAspectRatio="xMidYMid meet">

<g transform="translate(0.000000,500.000000) scale(0.100000,-0.100000)"
fill="#124559" stroke="none">
<path d="M920 3745 l0 -75 1580 0 1580 0 0 75 0 75 -1580 0 -1580 0 0 -75z"/>
<path d="M1010 3505 l0 -105 160 0 160 0 0 105 0 105 -160 0 -160 0 0 -105z"/>
<path d="M1397 3603 c-4 -3 -7 -51 -7 -105 l0 -98 450 0 450 0 0 105 0 105
-443 0 c-244 0 -447 -3 -450 -7z"/>
<path d="M2357 3603 c-4 -3 -7 -51 -7 -105 l0 -98 450 0 450 0 0 105 0 105
-443 0 c-244 0 -447 -3 -450 -7z"/>
<path d="M3317 3603 c-4 -3 -7 -51 -7 -105 l0 -98 340 0 340 0 0 105 0 105
-333 0 c-184 0 -337 -3 -340 -7z"/>
<path d="M1010 3235 l0 -105 335 0 335 0 0 105 0 105 -335 0 -335 0 0 -105z"/>
<path d="M1750 3235 l0 -105 445 0 445 0 0 105 0 105 -445 0 -445 0 0 -105z"/>
<path d="M2710 3235 l0 -105 450 0 450 0 0 105 0 105 -450 0 -450 0 0 -105z"/>
<path d="M3670 3235 l0 -105 160 0 160 0 0 105 0 105 -160 0 -160 0 0 -105z"/>
<path d="M1010 2975 l0 -105 160 0 160 0 0 105 0 105 -160 0 -160 0 0 -105z"/>
<path d="M1390 2975 l0 -105 95 0 95 0 0 105 0 105 -95 0 -95 0 0 -105z"/>
<path d="M3450 2975 l0 -105 270 0 270 0 0 105 0 105 -270 0 -270 0 0 -105z"/>
<path d="M1648 2183 l-3 -878 -362 -3 -363 -2 0 -60 0 -60 420 0 420 0 0 885
0 885 755 0 755 0 0 -885 0 -885 405 0 405 0 0 60 0 60 -345 0 -345 0 0 880 0
880 -870 0 -870 0 -2 -877z"/>
<path d="M1010 2725 l0 -105 285 0 285 0 0 105 0 105 -285 0 -285 0 0 -105z"/>
<path d="M3450 2725 l0 -105 85 0 85 0 0 105 0 105 -85 0 -85 0 0 -105z"/>
<path d="M3690 2725 l0 -105 150 0 150 0 0 105 0 105 -150 0 -150 0 0 -105z"/>
<path d="M1010 2465 l0 -105 160 0 160 0 0 105 0 105 -160 0 -160 0 0 -105z"/>
<path d="M1400 2465 l0 -105 90 0 90 0 0 105 0 105 -90 0 -90 0 0 -105z"/>
<path d="M3452 2468 l3 -103 268 -3 267 -2 0 105 0 105 -270 0 -271 0 3 -102z"/>
<path d="M2464 2274 c-32 -32 -67 -81 -81 -112 -22 -47 -25 -64 -20 -125 l5
-72 -22 40 c-11 21 -42 62 -68 89 l-46 51 -7 -30 c-3 -17 -18 -66 -32 -110
-14 -44 -27 -101 -27 -127 -1 -58 -13 -50 -52 35 l-28 62 -23 -75 c-36 -112
-47 -217 -33 -297 13 -75 47 -152 88 -200 l27 -31 1 96 c1 58 7 113 16 137
l15 40 18 -55 19 -55 9 40 c19 85 37 141 57 174 l21 33 25 -50 c38 -76 50 -82
64 -30 7 23 21 60 32 82 11 21 26 67 33 103 8 36 16 67 18 69 7 7 77 -77 98
-118 10 -20 21 -56 25 -80 11 -70 17 -74 52 -38 18 17 35 46 40 63 l8 32 18
-28 c29 -43 45 -98 46 -151 0 -40 2 -46 14 -37 8 6 19 25 26 41 7 17 16 30 21
30 16 0 41 -150 37 -220 l-4 -69 24 22 c67 63 112 229 93 352 -16 106 -61 231
-61 170 0 -11 -10 -40 -22 -65 l-21 -45 -14 65 c-14 66 -76 212 -98 230 -10 8
-14 -2 -19 -43 -7 -57 -54 -168 -55 -131 -2 46 -35 114 -86 179 -62 77 -80
121 -72 176 3 22 3 39 1 39 -2 0 -29 -25 -60 -56z"/>
<path d="M1010 2215 l0 -105 285 0 285 0 0 105 0 105 -285 0 -285 0 0 -105z"/>
<path d="M3450 2215 l0 -105 85 0 85 0 0 105 0 105 -85 0 -85 0 0 -105z"/>
<path d="M3690 2215 l0 -105 150 0 150 0 0 105 0 105 -150 0 -150 0 0 -105z"/>
<path d="M1010 1955 l0 -105 160 0 160 0 0 105 0 105 -160 0 -160 0 0 -105z"/>
<path d="M1392 1958 l3 -103 93 -3 92 -3 0 106 0 105 -95 0 -96 0 3 -102z"/>
<path d="M3452 1958 l3 -103 268 -3 267 -2 0 105 0 105 -270 0 -271 0 3 -102z"/>
<path d="M1010 1705 l0 -105 285 0 285 0 0 105 0 105 -285 0 -285 0 0 -105z"/>
<path d="M3450 1705 l0 -105 85 0 85 0 0 105 0 105 -85 0 -85 0 0 -105z"/>
<path d="M3690 1705 l0 -105 150 0 150 0 0 105 0 105 -150 0 -150 0 0 -105z"/>
<path d="M1010 1460 l0 -100 160 0 160 0 0 100 0 100 -160 0 -160 0 0 -100z"/>
<path d="M1400 1460 l0 -100 90 0 90 0 0 100 0 100 -90 0 -90 0 0 -100z"/>
<path d="M3457 1553 c-4 -3 -7 -48 -7 -100 l0 -93 270 0 270 0 0 100 0 100
-263 0 c-145 0 -267 -3 -270 -7z"/>
<path d="M1934 1301 c-2 -2 -4 -31 -4 -63 l0 -58 585 0 585 0 0 63 0 62 -581
0 c-319 0 -583 -2 -585 -4z"/>
<path d="M110 1150 c-12 -7 -10 -9 7 -7 12 0 19 5 17 9 -6 10 -6 10 -24 -2z"/>
<path d="M83 1140 c2 -8 12 -16 23 -17 13 -2 15 -1 4 4 -8 3 -19 11 -23 17 -6
7 -7 6 -4 -4z"/>
<path d="M93 1093 c9 -2 25 -2 35 0 9 3 1 5 -18 5 -19 0 -27 -2 -17 -5z"/>
<path d="M81 1048 c1 -17 2 -19 6 -5 5 20 7 20 36 6 21 -10 21 -10 3 5 -28 23
-46 20 -45 -6z"/>
<path d="M93 1013 c9 -2 25 -2 35 0 9 3 1 5 -18 5 -19 0 -27 -2 -17 -5z"/>
<path d="M87 983 c-4 -3 -7 -13 -7 -22 1 -13 2 -13 11 2 10 18 12 18 30 1 10
-9 19 -14 19 -9 0 8 -31 34 -41 35 -3 0 -9 -3 -12 -7z"/>
<path d="M101 931 c-19 -5 -21 -8 -10 -17 29 -23 37 -23 42 -4 6 24 -1 29 -32
21z"/>
<path d="M84 869 c-3 -6 -2 -15 4 -21 15 -15 46 -5 50 15 3 12 -3 17 -22 17
-14 0 -28 -5 -32 -11z m46 -9 c0 -5 -9 -10 -20 -10 -11 0 -20 5 -20 10 0 6 9
10 20 10 11 0 20 -4 20 -10z"/>
<path d="M101 821 c-19 -5 -21 -8 -10 -17 29 -23 37 -23 42 -4 6 24 -1 29 -32
21z"/>
<path d="M87 763 c-4 -3 -7 -11 -7 -17 0 -7 3 -7 8 0 4 7 18 14 32 17 l25 4
-26 2 c-14 0 -29 -2 -32 -6z"/>
<path d="M92 708 c7 -19 38 -22 38 -4 0 10 -9 16 -21 16 -12 0 -19 -5 -17 -12z"/>
<path d="M103 643 c9 -2 25 -2 35 0 9 3 1 5 -18 5 -19 0 -27 -2 -17 -5z"/>
<path d="M115 590 c-11 -5 -15 -9 -10 -10 6 -1 -1 -6 -15 -10 -23 -7 -22 -8
10 -9 29 -1 36 3 36 19 0 11 0 20 -1 19 0 0 -9 -4 -20 -9z"/>
<path d="M100 528 c0 -4 9 -8 20 -8 11 0 20 4 20 8 0 4 -9 8 -20 8 -11 0 -20
-4 -20 -8z"/>
<path d="M108 493 c6 -2 18 -2 25 0 6 3 1 5 -13 5 -14 0 -19 -2 -12 -5z"/>
<path d="M106 468 c3 -4 12 -8 20 -8 8 0 14 4 14 8 0 4 -9 8 -19 8 -11 0 -17
-4 -15 -8z"/>
<path d="M90 439 c0 -5 11 -9 25 -9 33 0 33 15 0 16 -14 1 -25 -2 -25 -7z"/>
<path d="M106 404 c-3 -8 -10 -12 -16 -9 -5 3 -10 1 -10 -4 0 -17 27 -13 34 5
3 8 10 12 16 9 5 -3 10 -1 10 4 0 17 -27 13 -34 -5z"/>
<path d="M108 313 c6 -2 18 -2 25 0 6 3 1 5 -13 5 -14 0 -19 -2 -12 -5z"/>
<path d="M113 283 c9 -2 17 -9 17 -15 0 -5 -6 -8 -12 -5 -7 2 -22 1 -33 -4
-15 -6 -11 -8 18 -8 31 -1 37 2 37 19 0 14 -6 20 -22 19 -17 -1 -19 -2 -5 -6z"/>
<path d="M106 232 c-2 -4 4 -8 14 -8 10 0 16 4 14 8 -3 4 -9 8 -14 8 -5 0 -11
-4 -14 -8z"/>
<path d="M88 173 c12 -2 30 -2 40 0 9 3 -1 5 -23 4 -22 0 -30 -2 -17 -4z"/>
<path d="M110 146 c7 -7 13 -7 20 0 6 6 3 10 -10 10 -13 0 -16 -4 -10 -10z"/>
<path d="M101 119 c-27 -11 -20 -23 19 -33 21 -5 20 -3 -5 9 -26 12 -27 14 -8
15 12 0 25 5 28 10 8 12 -2 12 -34 -1z"/>
</g>
</svg>
