<svg width="24" height="24" viewBox="0 0 24 24" fill="none" xmlns="http://www.w3.org/2000/svg">
    <mask id="mask0_405_2488" style="mask-type:alpha" maskUnits="userSpaceOnUse" x="0" y="0"
        width="24" height="24">
        <rect width="24" height="24" fill="#70A9BF" />
    </mask>
    <g mask="url(#mask0_405_2488)" />
    <path
        d="M8.675 21.9999C7.69167 21.9999 7.05 21.8333 6.75 21.4999C6.45 21.1666 5.98333 20.9999 5.35 20.9999C4.86667 20.9999 4.49167 21.1124 4.225 21.3374C3.95833 21.5624 3.58333 21.7416 3.1 21.8749C2.81667 21.9583 2.5625 21.8999 2.3375 21.6999C2.1125 21.4999 2 21.2333 2 20.8999C2 20.6999 2.075 20.4999 2.225 20.2999C2.375 20.0999 2.58333 19.9333 2.85 19.7999C3.16667 19.6499 3.4875 19.4791 3.8125 19.2874C4.1375 19.0958 4.65 18.9999 5.35 18.9999C6.33333 18.9999 6.975 19.1666 7.275 19.4999C7.575 19.8333 8.04167 19.9999 8.675 19.9999C9.30833 19.9999 9.775 19.8333 10.075 19.4999C10.375 19.1666 11.0167 18.9999 12 18.9999C12.95 18.9999 13.5958 19.1666 13.9375 19.4999C14.2792 19.8333 14.75 19.9999 15.35 19.9999C15.9833 19.9999 16.45 19.8333 16.75 19.4999C17.05 19.1666 17.6917 18.9999 18.675 18.9999C19.375 18.9999 19.8833 19.0958 20.2 19.2874C20.5167 19.4791 20.8333 19.6499 21.15 19.7999C21.4167 19.9333 21.625 20.0958 21.775 20.2874C21.925 20.4791 22 20.6833 22 20.8999C22 21.2333 21.8875 21.4958 21.6625 21.6874C21.4375 21.8791 21.1833 21.9333 20.9 21.8499C20.4167 21.7166 20.0458 21.5416 19.7875 21.3249C19.5292 21.1083 19.1583 20.9999 18.675 20.9999C18.0583 20.9999 17.5917 21.1666 17.275 21.4999C16.9583 21.8333 16.3167 21.9999 15.35 21.9999C14.3833 21.9999 13.7375 21.8333 13.4125 21.4999C13.0875 21.1666 12.6167 20.9999 12 20.9999C11.3667 20.9999 10.9 21.1666 10.6 21.4999C10.3 21.8333 9.65833 21.9999 8.675 21.9999ZM3.1 17.3499C2.81667 17.4333 2.5625 17.3749 2.3375 17.1749C2.1125 16.9749 2 16.7083 2 16.3749C2 16.1749 2.075 15.9791 2.225 15.7874C2.375 15.5958 2.58333 15.4333 2.85 15.2999C3.16667 15.1499 3.48333 14.9791 3.8 14.7874C4.11667 14.5958 4.625 14.4999 5.325 14.4999C5.425 14.4999 5.525 14.5041 5.625 14.5124C5.725 14.5208 5.81667 14.5333 5.9 14.5499L4.95 11.0499L4.2 12.0499C4.01667 12.2833 3.79583 12.4166 3.5375 12.4499C3.27917 12.4833 3.03333 12.4083 2.8 12.2249C2.56667 12.0416 2.4375 11.8124 2.4125 11.5374C2.3875 11.2624 2.46667 11.0166 2.65 10.7999L8.85 3.12493C9.13333 2.7916 9.48333 2.57077 9.9 2.46243C10.3167 2.3541 10.725 2.37493 11.125 2.52493L20.35 6.04993C20.6167 6.14993 20.8125 6.32493 20.9375 6.57493C21.0625 6.82493 21.0667 7.07493 20.95 7.32493C20.8333 7.5916 20.65 7.7791 20.4 7.88743C20.15 7.99577 19.8917 7.99993 19.625 7.89993L18.475 7.42493L20.5 14.9499C20.6167 15.0166 20.725 15.0791 20.825 15.1374C20.925 15.1958 21.0333 15.2499 21.15 15.2999C21.4167 15.4166 21.625 15.5749 21.775 15.7749C21.925 15.9749 22 16.1833 22 16.3999C22 16.7333 21.8875 16.9958 21.6625 17.1874C21.4375 17.3791 21.1833 17.4333 20.9 17.3499C20.4167 17.2166 20.0417 17.0416 19.775 16.8249C19.5083 16.6083 19.1417 16.4999 18.675 16.4999C18.0417 16.4999 17.575 16.6666 17.275 16.9999C16.975 17.3333 16.3333 17.4999 15.35 17.4999C14.4 17.4999 13.7542 17.3333 13.4125 16.9999C13.0708 16.6666 12.6 16.4999 12 16.4999C11.3667 16.4999 10.9 16.6666 10.6 16.9999C10.3 17.3333 9.65833 17.4999 8.675 17.4999C7.725 17.4999 7.08333 17.3333 6.75 16.9999C6.41667 16.6666 5.95 16.4999 5.35 16.4999C4.9 16.4999 4.53333 16.6083 4.25 16.8249C3.96667 17.0416 3.58333 17.2166 3.1 17.3499ZM15.45 15.4749L14.05 10.1749L10.175 11.1999L11.1 14.5999C11.2333 14.5666 11.3708 14.5416 11.5125 14.5249C11.6542 14.5083 11.8167 14.4999 12 14.4999C12.95 14.4999 13.6292 14.6833 14.0375 15.0499C14.4458 15.4166 14.9167 15.5583 15.45 15.4749Z"
        fill="#70A9BF" />
</svg>