<svg width="28" height="28" viewBox="0 0 28 28" fill="none" xmlns="http://www.w3.org/2000/svg">
    <g filter="url(#filter0_d_405_2512)">
        <mask id="mask0_405_2512" style="mask-type:alpha" maskUnits="userSpaceOnUse" x="2" y="0"
            width="48" height="48">
            <rect x="2" width="48" height="48" fill="#70A9BF" />
        </mask>
        <g mask="url(#mask0_405_2512)">
            <path
                d="M8.0002 20C7.71686 20 7.47936 19.9041 7.2877 19.7125C7.09603 19.5208 7.0002 19.2833 7.0002 19V17H6.0002C5.71686 17 5.47936 16.9041 5.2877 16.7125C5.09603 16.5208 5.0002 16.2833 5.0002 16C5.0002 15.7166 5.09603 15.4791 5.2877 15.2875C5.47936 15.0958 5.71686 15 6.0002 15H7.0002V12H5.3002C5.06686 12 4.90853 11.8916 4.8252 11.675C4.74186 11.4583 4.79186 11.275 4.9752 11.125L13.3252 3.59995C13.5085 3.41662 13.7335 3.32495 14.0002 3.32495C14.2669 3.32495 14.4919 3.41662 14.6752 3.59995L23.0252 11.125C23.2085 11.275 23.2585 11.4583 23.1752 11.675C23.0919 11.8916 22.9335 12 22.7002 12H21.0002V15H22.0002C22.2835 15 22.521 15.0958 22.7127 15.2875C22.9044 15.4791 23.0002 15.7166 23.0002 16C23.0002 16.2833 22.9044 16.5208 22.7127 16.7125C22.521 16.9041 22.2835 17 22.0002 17H21.0002V19C21.0002 19.2833 20.9044 19.5208 20.7127 19.7125C20.521 19.9041 20.2835 20 20.0002 20C19.7169 20 19.4794 19.9041 19.2877 19.7125C19.096 19.5208 19.0002 19.2833 19.0002 19V17H15.0002V19C15.0002 19.2833 14.9044 19.5208 14.7127 19.7125C14.521 19.9041 14.2835 20 14.0002 20C13.7169 20 13.4794 19.9041 13.2877 19.7125C13.096 19.5208 13.0002 19.2833 13.0002 19V17H9.0002V19C9.0002 19.2833 8.90436 19.5208 8.7127 19.7125C8.52103 19.9041 8.28353 20 8.0002 20ZM9.0002 15H13.0002V6.59995L9.0002 10.2V15ZM15.0002 15H19.0002V10.2L15.0002 6.59995V15Z"
                fill="#70A9BF" />
        </g>
    </g>
    <defs>
        <filter id="filter0_d_405_2512" x="0.786133" y="3.32495" width="48" height="48"
            filterUnits="userSpaceOnUse" color-interpolation-filters="sRGB">
            <feFlood flood-opacity="0" result="BackgroundImageFix" />
            <!-- <feColorMatrix in="SourceAlpha" type="matrix"
                values="0 0 0 0 0 0 0 0 0 0 0 0 0 0 0 0 0 0 127 0" result="hardAlpha" /> -->
            <feOffset dy="4" />
            <feGaussianBlur stdDeviation="2" />
            <feComposite in2="hardAlpha" operator="out" />
            <feColorMatrix type="matrix" values="0 0 0 0 0 0 0 0 0 0 0 0 0 0 0 0 0 0 0.25 0" />
            <!-- <feBlend mode="normal" in2="BackgroundImageFix" result="effect1_dropShadow_405_2512" /> -->
            <feBlend mode="normal" in="SourceGraphic" in2="effect1_dropShadow_405_2512"
                result="shape" />
        </filter>
    </defs>
</svg>