<svg width="24" height="24" viewBox="0 0 24 24" fill="none" xmlns="http://www.w3.org/2000/svg">
<mask id="mask0_1918_6760" style="mask-type:alpha" maskUnits="userSpaceOnUse" x="0" y="0" width="24" height="24">
<rect width="24" height="24" fill="#D9D9D9"/>
</mask>
<g mask="url(#mask0_1918_6760)">
<path d="M4.975 20.9998C4.69167 20.9998 4.45833 20.9039 4.275 20.7123C4.09167 20.5206 4 20.2831 4 19.9998C4 19.7164 4.09583 19.4789 4.2875 19.2873C4.47917 19.0956 4.71667 18.9998 5 18.9998H15.025C15.3083 18.9998 15.5417 19.0956 15.725 19.2873C15.9083 19.4789 16 19.7164 16 19.9998C16 20.2831 15.9042 20.5206 15.7125 20.7123C15.5208 20.9039 15.2833 20.9998 15 20.9998H4.975ZM8.225 14.7248L5.4 11.8998C5.01667 11.5164 4.82083 11.0456 4.8125 10.4873C4.80417 9.92894 4.99167 9.45811 5.375 9.07478L6.1 8.34978L11.8 13.9998L11.075 14.7248C10.6917 15.1081 10.2167 15.2998 9.65 15.2998C9.08333 15.2998 8.60833 15.1081 8.225 14.7248ZM16 9.79978L10.35 4.09978L11.075 3.37478C11.4583 2.99144 11.9292 2.80394 12.4875 2.81228C13.0458 2.82061 13.5167 3.01644 13.9 3.39978L16.725 6.22478C17.1083 6.60811 17.3 7.08311 17.3 7.64978C17.3 8.21644 17.1083 8.69144 16.725 9.07478L16 9.79978ZM19.9 19.2998L7.55 6.94978L8.95 5.54978L21.325 17.9248C21.5083 18.1081 21.5958 18.3373 21.5875 18.6123C21.5792 18.8873 21.4833 19.1164 21.3 19.2998C21.1167 19.4831 20.8833 19.5748 20.6 19.5748C20.3167 19.5748 20.0833 19.4831 19.9 19.2998Z" fill="#124559"/>
</g>
</svg>