<svg width="30" height="28" viewBox="0 0 30 28" fill="none" xmlns="http://www.w3.org/2000/svg">
<g filter="url(#filter0_d_412_2396)">
<mask id="mask0_412_2396" style="mask-type:alpha" maskUnits="userSpaceOnUse" x="3" y="0" width="24" height="24">
<rect x="3" width="24" height="24" fill="#124559"/>
</mask>
<g mask="url(#mask0_412_2396)">
<path d="M5 20C4.71667 20 4.47917 19.9042 4.2875 19.7125C4.09583 19.5208 4 19.2833 4 19V17.2C4 16.6333 4.14583 16.1125 4.4375 15.6375C4.72917 15.1625 5.11667 14.8 5.6 14.55C6.63333 14.0333 7.68333 13.6458 8.75 13.3875C9.81667 13.1292 10.9 13 12 13C13.1 13 14.1833 13.1292 15.25 13.3875C16.3167 13.6458 17.3667 14.0333 18.4 14.55C18.8833 14.8 19.2708 15.1625 19.5625 15.6375C19.8542 16.1125 20 16.6333 20 17.2V19C20 19.2833 19.9042 19.5208 19.7125 19.7125C19.5208 19.9042 19.2833 20 19 20H5ZM21.525 20C21.675 19.8833 21.7917 19.7375 21.875 19.5625C21.9583 19.3875 22 19.1917 22 18.975V17C22 16.2667 21.7958 15.5625 21.3875 14.8875C20.9792 14.2125 20.4 13.6333 19.65 13.15C20.5 13.25 21.3 13.4208 22.05 13.6625C22.8 13.9042 23.5 14.2 24.15 14.55C24.75 14.8833 25.2083 15.2542 25.525 15.6625C25.8417 16.0708 26 16.5167 26 17V19C26 19.2833 25.9042 19.5208 25.7125 19.7125C25.5208 19.9042 25.2833 20 25 20H21.525ZM12 12C10.9 12 9.95833 11.6083 9.175 10.825C8.39167 10.0417 8 9.1 8 8C8 6.9 8.39167 5.95833 9.175 5.175C9.95833 4.39167 10.9 4 12 4C13.1 4 14.0417 4.39167 14.825 5.175C15.6083 5.95833 16 6.9 16 8C16 9.1 15.6083 10.0417 14.825 10.825C14.0417 11.6083 13.1 12 12 12ZM22 8C22 9.1 21.6083 10.0417 20.825 10.825C20.0417 11.6083 19.1 12 18 12C17.8167 12 17.5833 11.9792 17.3 11.9375C17.0167 11.8958 16.7833 11.85 16.6 11.8C17.05 11.2667 17.3958 10.675 17.6375 10.025C17.8792 9.375 18 8.7 18 8C18 7.3 17.8792 6.625 17.6375 5.975C17.3958 5.325 17.05 4.73333 16.6 4.2C16.8333 4.11667 17.0667 4.0625 17.3 4.0375C17.5333 4.0125 17.7667 4 18 4C19.1 4 20.0417 4.39167 20.825 5.175C21.6083 5.95833 22 6.9 22 8Z" fill="#124559"/>
</g>
</g>
<defs>
<filter id="filter0_d_412_2396" x="0" y="4" width="30" height="24" filterUnits="userSpaceOnUse" color-interpolation-filters="sRGB">
<feFlood flood-opacity="0" result="BackgroundImageFix"/>
<feColorMatrix in="SourceAlpha" type="matrix" values="0 0 0 0 0 0 0 0 0 0 0 0 0 0 0 0 0 0 127 0" result="hardAlpha"/>
<feOffset dy="4"/>
<feGaussianBlur stdDeviation="2"/>
<feComposite in2="hardAlpha" operator="out"/>
<feColorMatrix type="matrix" values="0 0 0 0 0 0 0 0 0 0 0 0 0 0 0 0 0 0 0.25 0"/>
<feBlend mode="normal" in2="BackgroundImageFix" result="effect1_dropShadow_412_2396"/>
<feBlend mode="normal" in="SourceGraphic" in2="effect1_dropShadow_412_2396" result="shape"/>
</filter>
</defs>
</svg>
