<svg width="28" height="31" viewBox="0 0 28 31" fill="none" xmlns="http://www.w3.org/2000/svg">
    <g filter="url(#filter0_d_405_2506)">
        <mask id="mask0_405_2506" style="mask-type:alpha" maskUnits="userSpaceOnUse" x="3" y="0"
            width="24" height="24">
            <rect x="3" width="24" height="24" fill="#70A9BF" />
        </mask>
        <g mask="url(#mask0_405_2506)">
            <path
                d="M21.0002 9V12.625C21.0002 12.8917 20.9544 13.1458 20.8627 13.3875C20.771 13.6292 20.6335 13.8417 20.4502 14.025L20.1502 14.3L11.0002 5.15V4C11.0002 3.71667 11.096 3.47917 11.2877 3.2875C11.4794 3.09583 11.7169 3 12.0002 3C12.2835 3 12.521 3.09583 12.7127 3.2875C12.9044 3.47917 13.0002 3.71667 13.0002 4V7H17.0002V4C17.0002 3.71667 17.096 3.47917 17.2877 3.2875C17.4794 3.09583 17.7169 3 18.0002 3C18.2835 3 18.521 3.09583 18.7127 3.2875C18.9044 3.47917 19.0002 3.71667 19.0002 4V8L18.0002 7H19.0002C19.5502 7 20.021 7.19583 20.4127 7.5875C20.8044 7.97917 21.0002 8.45 21.0002 9ZM13.5002 21C13.2169 21 12.9794 20.9042 12.7877 20.7125C12.596 20.5208 12.5002 20.2833 12.5002 20V18L9.5752 15.075C9.39186 14.8917 9.2502 14.6792 9.1502 14.4375C9.0502 14.1958 9.0002 13.9417 9.0002 13.675V9C9.0002 8.6 9.09186 8.225 9.2752 7.875C9.45853 7.525 9.7252 7.25833 10.0752 7.075V9.875L5.1002 4.9C4.91686 4.71667 4.8252 4.48333 4.8252 4.2C4.8252 3.91667 4.91686 3.68333 5.1002 3.5C5.28353 3.31667 5.51686 3.225 5.8002 3.225C6.08353 3.225 6.31686 3.31667 6.5002 3.5L23.5002 20.5C23.6835 20.6833 23.7752 20.9167 23.7752 21.2C23.7752 21.4833 23.6835 21.7167 23.5002 21.9C23.3169 22.0833 23.0835 22.175 22.8002 22.175C22.5169 22.175 22.2835 22.0833 22.1002 21.9L17.8502 17.65L17.5002 18V20C17.5002 20.2833 17.4044 20.5208 17.2127 20.7125C17.021 20.9042 16.7835 21 16.5002 21H13.5002Z"
                fill="#70A9BF" />
        </g>
    </g>
    <defs>
        <filter id="filter0_d_405_2506" x="0.825195" y="3" width="26.9502" height="27.175"
            filterUnits="userSpaceOnUse" color-interpolation-filters="sRGB">
            <feFlood flood-opacity="0" result="BackgroundImageFix" />
            <feColorMatrix in="SourceAlpha" type="matrix"
                values="0 0 0 0 0 0 0 0 0 0 0 0 0 0 0 0 0 0 127 0" result="hardAlpha" />
            <feOffset dy="4" />
            <feGaussianBlur stdDeviation="2" />
            <feComposite in2="hardAlpha" operator="out" />
            <feColorMatrix type="matrix" values="0 0 0 0 0 0 0 0 0 0 0 0 0 0 0 0 0 0 0.25 0" />
            <feBlend mode="normal" in2="BackgroundImageFix" result="effect1_dropShadow_405_2506" />
            <feBlend mode="normal" in="SourceGraphic" in2="effect1_dropShadow_405_2506"
                result="shape" />
        </filter>
    </defs>
</svg>