<svg width="27" height="30" viewBox="0 0 27 30" fill="none" xmlns="http://www.w3.org/2000/svg">
<g filter="url(#filter0_d_410_2387)">
<mask id="mask0_410_2387" style="mask-type:alpha" maskUnits="userSpaceOnUse" x="1" y="0" width="24" height="24">
<rect x="1" width="24" height="24" fill="#124559"/>
</mask>
<g mask="url(#mask0_410_2387)">
<path d="M17.5 20H18.5V16H17.5V20ZM18 15C18.1333 15 18.25 14.95 18.35 14.85C18.45 14.75 18.5 14.6333 18.5 14.5C18.5 14.3667 18.45 14.25 18.35 14.15C18.25 14.05 18.1333 14 18 14C17.8667 14 17.75 14.05 17.65 14.15C17.55 14.25 17.5 14.3667 17.5 14.5C17.5 14.6333 17.55 14.75 17.65 14.85C17.75 14.95 17.8667 15 18 15ZM8 14H11.675C11.8583 13.6167 12.0708 13.2583 12.3125 12.925C12.5542 12.5917 12.825 12.2833 13.125 12H8V14ZM8 18H11.075C11.025 17.6667 11 17.3333 11 17C11 16.6667 11.025 16.3333 11.075 16H8V18ZM6 22C5.45 22 4.97917 21.8042 4.5875 21.4125C4.19583 21.0208 4 20.55 4 20V4C4 3.45 4.19583 2.97917 4.5875 2.5875C4.97917 2.19583 5.45 2 6 2H14L20 8V10.3C19.6833 10.2 19.3583 10.125 19.025 10.075C18.6917 10.025 18.35 10 18 10V9H13V4H6V20H11.675C11.8583 20.3833 12.0708 20.7417 12.3125 21.075C12.5542 21.4083 12.825 21.7167 13.125 22H6ZM18 12C19.3833 12 20.5625 12.4875 21.5375 13.4625C22.5125 14.4375 23 15.6167 23 17C23 18.3833 22.5125 19.5625 21.5375 20.5375C20.5625 21.5125 19.3833 22 18 22C16.6167 22 15.4375 21.5125 14.4625 20.5375C13.4875 19.5625 13 18.3833 13 17C13 15.6167 13.4875 14.4375 14.4625 13.4625C15.4375 12.4875 16.6167 12 18 12Z" fill="#124559"/>
</g>
</g>
<defs>

</defs>
</svg>
