<svg
xmlns="http://www.w3.org/2000/svg"
xmlns:xlink="http://www.w3.org/1999/xlink"
xmlns:svgjs="http://svgjs.com/svgjs"
version="1.1"
viewBox="0 0 40 40"
width="40"
height="40"
>
<link
  xmlns=""
  type="text/css"
  rel="stylesheet"
  id="dark-mode-custom-link"
/>
<link
  xmlns=""
  type="text/css"
  rel="stylesheet"
  id="dark-mode-general-link"
/>
<style xmlns="" lang="en" type="text/css" id="dark-mode-custom-style" />
<style xmlns="" lang="en" type="text/css" id="dark-mode-native-style" />
<style xmlns="" lang="en" type="text/css" id="dark-mode-native-sheet" />
<g transform="matrix(1.6666666666666667,0,0,1.6666666666666667,0,0)">
  <path
    d="M12,2.25a.375.375,0,1,0,.375.375A.375.375,0,0,0,12,2.25h0"
    fill="none"
    stroke="#ffffff"
    stroke-linecap="round"
    stroke-linejoin="round"
    stroke-width="1.5"
  />
  <path
    d="M9.750 9.750 A2.250 2.250 0 1 0 14.250 9.750 A2.250 2.250 0 1 0 9.750 9.750 Z"
    fill="none"
    stroke="#ffffff"
    stroke-linecap="round"
    stroke-linejoin="round"
    stroke-width="1.5"
  />
  <path
    d="M15.75,15a4.25,4.25,0,0,0-7.5,0"
    fill="none"
    stroke="#ffffff"
    stroke-linecap="round"
    stroke-linejoin="round"
    stroke-width="1.5"
  />
  <path
    d="M15.75,3h6a1.5,1.5,0,0,1,1.5,1.5v12a1.5,1.5,0,0,1-1.5,1.5H2.25a1.5,1.5,0,0,1-1.5-1.5V4.5A1.5,1.5,0,0,1,2.25,3h6"
    fill="none"
    stroke="#ffffff"
    stroke-linecap="round"
    stroke-linejoin="round"
    stroke-width="1.5"
  />
  <path
    d="M15.75 22.5L8.25 22.5 9 18 15 18 15.75 22.5z"
    fill="none"
    stroke="#ffffff"
    stroke-linecap="round"
    stroke-linejoin="round"
    stroke-width="1.5"
  />
  <path
    d="M6 22.5L18 22.5"
    fill="none"
    stroke="#ffffff"
    stroke-linecap="round"
    stroke-linejoin="round"
    stroke-width="1.5"
  />
</g>
</svg>